<?xml version="1.0" standalone="no"?>
<!DOCTYPE svg PUBLIC "-//W3C//DTD SVG 1.1//EN" "http://www.w3.org/Graphics/SVG/1.1/DTD/svg11.dtd" >
<svg xmlns="http://www.w3.org/2000/svg" xmlns:xlink="http://www.w3.org/1999/xlink" version="1.1">
<metadata></metadata>
<defs>
<font id="mtdbt2f4d-66" horiz-adv-x="890" >
<font-face units-per-em="2048" ascent="1638" descent="-410" />
<missing-glyph horiz-adv-x="614" />
<glyph unicode="&#x2019;&#x2019;" horiz-adv-x="1001" d="M65 1368.5q4 34.5 37 48.5l11 4h18q41 -2 76 -24q23 -16 39 -39q18 -25 26 -70q4 -20 -2 -71q-16 -96 -65 -154q-31 -37 -68 -57l-12 -7h-12q-20 2 -35 15q-18 18 -10 37q6 8 18 16q12 6 20 14q84 63 84 193v24l-2 5l-6 -7q-2 0 -4 -2l-12 -6q-8 -4 -21 -4q-35 0 -57 21 q-27 29 -23 63.5zM457 1051q4 6 22 20q78 47 96 164q6 53 3 63q-2 2 -7 -2q-2 0 -4 -2l-12 -6q-8 -4 -20 -4q-35 0 -58 21q-14 18 -14 20q-14 27 -6 54.5t35 37.5q10 4 22 4q57 0 100 -39q37 -35 45 -94q2 -10 1 -34.5t-3 -39.5q-12 -80 -55 -139q-37 -49 -80 -71 q-8 -4 -20 -5q-20 2 -35 15q-18 18 -10 37z" />
<glyph unicode="&#x21;&#x2018;" horiz-adv-x="557" d="M211 982.5q8 27.5 35 39.5q16 4 22 4q31 0 58 -22q20 -20 21 -50t-19 -51q-16 -16 -39 -16q-31 0 -58 22q-10 10 -14 19q-14 27 -6 54.5zM236 158q0 520 4 526q2 8 14 14q12 8 37 -2q18 -12 24 -22l2 -6v-523q0 -520 -2 -526q-2 -8 -14 -14q-6 -2 -18 -2q-31 4 -43 26 l-4 9v520z" />
<glyph unicode="&#x3f;&#x2018;" horiz-adv-x="946" d="M111 -55q-2 68 30 141q51 92 156 178q6 6 20.5 19.5t18.5 17.5q98 88 117 180q6 23 6 119q0 78 2 84q6 8 16 14.5t37 -2.5q18 -12 25 -22l2 -6v-84q0 -88 -2 -97q-4 -37 -13 -61q-20 -51 -41 -78q-43 -68 -127 -139q-66 -51 -98 -96q-82 -102 -63 -213q25 -150 170 -205 q74 -29 139 -23q90 8 158 80q53 57 88 150q4 16 16 22q31 14 57 -12q14 -18 4 -47q-39 -106 -112 -174q-31 -33 -84 -60q-68 -31 -137 -28q-49 2 -107 14q-193 53 -256 217q-20 49 -22 111zM434 982.5q8 27.5 35 39.5q16 4 20 4q31 0 58 -22q23 -23 23.5 -51.5t-19.5 -49.5 q-20 -16 -41 -16q-31 0 -57 22q-2 2 -5.5 6.5t-5.5 7.5t-2 5q-14 27 -6 54.5z" />
<glyph unicode="&#x2018;&#x2018;" horiz-adv-x="1001" d="M340 1133q-8 27 2 73q12 80 55 140q35 46 78 69q8 6 23 6q2 0 9 -1t9 -3q39 -18 25 -47q-2 -6 -21 -20q-80 -49 -98 -164v-64q0 -2 6 2q2 2 14 9q10 4 23 4q35 0 57 -21l15 -20q12 -27 3.5 -54.5t-32.5 -37.5q-10 -4 -25 -5q-55 0 -98 39q-39 39 -45 95zM729 1133 q-6 16 0 73q16 90 66 152q32 39 69 57l13 6h12q4 0 9 -1t9 -3q39 -18 25 -47q-2 -8 -19 -16q-4 -2 -20 -15q-82 -61 -82 -190v-27v-4l6 6q2 0 4 2q8 4 13 7q10 4 22 4q35 0 57 -21q27 -27 22 -62.5t-38 -49.5l-10 -5h-19q-43 4 -73 25q-27 18 -41 39q-20 33 -25 70z" />
<glyph unicode="&#x2d;&#x2d;" horiz-adv-x="1001" d="M2 563q6 11 16 15l5 2h473h473l6 -5q16 -6 23.5 -20t0.5 -27q-2 -8 -14 -14l-6 -2h-473l-471 2l-8 2q-39 18 -25 47z" />
<glyph unicode="&#x7b;&#x2d;" horiz-adv-x="2004" d="M2 563q6 11 16 15l5 2h974h973l6 -5q16 -6 23.5 -20t1.5 -27q-2 -8 -14 -14l-7 -2h-972l-973 2l-8 2q-39 18 -25 47z" />
<glyph unicode="ff" horiz-adv-x="1015" d="M2 866q8 8 16 13q4 4 91 4h86v147q0 152 2 162q6 70 43 129q27 37 45 49q45 39 104 49q35 4 74 0q43 -10 78 -33q66 -43 100 -118q27 -53 27 -74q0 -27 -31 -27q-29 0 -41 17q-6 8 -12 22q-14 47 -35 76q-37 53 -82 68q-47 14 -96 -17q-18 -10 -41 -33q-41 -47 -51 -126 q-2 -10 -3 -154v-137h211h209v147q0 152 2 162q6 70 43 129q27 41 66 65.5t76 32.5q37 4 80 0q39 -8 79 -33q61 -41 99 -118q29 -49 28 -74q0 -27 -32 -27q-27 0 -39 17q-8 8 -13 22q-10 37 -34 76q-37 53 -82 67.5t-99 -16.5q-25 -16 -41 -33q-43 -53 -49 -126 q-2 -10 -2 -154v-137h109h108l6 -4q16 -8 23.5 -22.5t1.5 -27.5q-4 -6 -14 -12q-6 -4 -119 -4h-115v-395q0 -395 -2 -402q-6 -8 -16 -14q-4 -2 -17 -2q-33 4 -45 27l-2 8v389v389h-209h-211v-395q0 -395 -2 -402q-2 -8 -14 -14q-6 -2 -18 -2q-31 4 -43 27l-4 8v389v389h-80 l-80 2l-8 2q-39 20 -25 49z" />
<glyph unicode="fl" horiz-adv-x="903" d="M2 866q8 8 16 13q4 4 91 4h86v161q2 170 8 211q27 150 127 228q46 41 112 51q29 4 76 0q141 -12 219 -90q31 -35 39 -49l2 -6v-684q0 -682 -2 -689q-6 -8 -16 -14q-4 -2 -17 -2q-33 4 -45 27l-2 8v674v675l-4 7q-10 12 -30 28q-53 41 -142 47q-45 2 -88 -12 q-45 -16 -84 -68q-61 -82 -69 -204q-2 -12 -3 -160v-139h109h109l8 -4q39 -20 24 -50q-8 -8 -16 -12q-4 -4 -119 -4h-115v-395q0 -395 -2 -402q-2 -8 -14 -14q-6 -2 -18 -2q-31 4 -43 27l-4 8v389v389h-80l-80 2l-8 2q-39 20 -25 49z" />
<glyph unicode="&#xb8;i" horiz-adv-x="1404" d="M2 866q8 8 16 13q4 4 91 4h86v147q0 152 2 162q6 70 43 129q27 41 65 65q37 23 76 33q41 4 80 0q45 -10 80 -33q66 -43 100 -118q27 -53 27 -74q0 -27 -31 -27q-29 0 -41 17q-6 8 -12 22q-14 47 -35 76q-37 53 -82 68q-47 14 -96 -17q-18 -10 -41 -33q-41 -47 -51 -126 q-2 -10 -3 -154v-137h209h211v155q2 139 2 170q12 68 41 117q14 20 41 51q37 37 84 60q43 20 80 22q35 4 90 -2q113 -14 191 -86q25 -20 39 -45q0 -4 10 -8q35 -23 34 -65t-36 -58q-10 -4 -23 -4q-31 0 -57 22q-23 23 -23 52q0 27 13 41q4 4 0 8q-6 14 -35 33q-18 14 -60 30 q-53 18 -96 15q-55 -4 -96 -27q-84 -47 -107 -147q-8 -27 -10 -189v-145h234h233l6 -4q18 -8 25 -23l4 -6v-414q0 -414 -4 -420q-2 -8 -14 -14q-6 -2 -19 -2q-31 4 -43 27l-2 8v389v389h-209h-211v-395q0 -395 -2 -402q-6 -8 -16 -14q-4 -2 -17 -2q-33 4 -45 27l-2 8v389 v389h-209h-211v-395q0 -395 -2 -402q-2 -8 -14 -14q-6 -2 -18 -2q-31 4 -43 27l-4 8v389v389h-80l-80 2l-8 2q-39 20 -25 49z" />
<glyph unicode="&#xb8;l" horiz-adv-x="1404" d="M2 866q8 8 16 13q4 4 91 4h86v147q0 152 2 162q6 70 43 129q27 41 65 65q37 23 76 33q41 4 80 0q45 -10 80 -33q66 -43 100 -118q27 -53 27 -74q0 -27 -31 -27q-29 0 -41 17q-6 8 -12 22q-14 47 -35 76q-37 53 -82 68q-47 14 -96 -17q-18 -10 -41 -33q-41 -47 -51 -126 q-2 -10 -3 -154v-137h209h211v161q2 170 9 211q27 147 124 228q52 41 115 51q27 4 76 0q141 -12 219 -90q31 -37 37 -49l4 -6v-684q0 -682 -4 -689q-2 -8 -14 -14q-6 -2 -19 -2q-31 4 -43 27l-2 8v674v675l-4 7q-23 23 -33 28q-53 41 -139 47q-45 2 -88 -12q-49 -18 -84 -68 q-63 -82 -70 -204q-2 -12 -2 -160v-139h109h108l6 -4q16 -8 23.5 -22.5t1.5 -27.5q-4 -6 -14 -12q-6 -4 -119 -4h-115v-395q0 -395 -2 -402q-6 -8 -16 -14q-4 -2 -17 -2q-33 4 -45 27l-2 8v389v389h-209h-211v-395q0 -395 -2 -402q-2 -8 -14 -14q-6 -2 -18 -2q-31 4 -43 27 l-4 8v389v389h-80l-80 2l-8 2q-39 20 -25 49z" />
<glyph horiz-adv-x="0" />
<glyph unicode="&#xd;" horiz-adv-x="681" />
<glyph unicode=" "  horiz-adv-x="614" />
<glyph unicode="&#x09;" horiz-adv-x="614" />
<glyph unicode="&#xa0;" horiz-adv-x="614" />
<glyph unicode="!" horiz-adv-x="557" d="M211 95.5q8 27.5 35 37.5q8 4 22 4q35 0 58 -20q20 -20 21 -50t-19 -51q-16 -16 -39 -16q-35 0 -58 23q-12 12 -14 18q-14 27 -6 54.5zM236 358v521q0 520 4 526q2 8 14 14q12 8 37 -2q18 -12 24 -22l2 -6v-523q0 -520 -2 -524q-2 -8 -14 -14q-6 -2 -18 -2q-29 0 -43 26z " />
<glyph unicode="#" horiz-adv-x="1558" d="M111 719q0 18 18 24l4 5h195h194v204q0 207 2 213q5 7 15 13q16 8 36 0q18 -8 25 -23l4 -6v-201v-200h176h174v204q0 207 2 213q8 8 17 13q4 4 16 4q31 -4 45 -27l2 -6v-201v-200h189h188l6 -5q16 -8 23.5 -22t1.5 -27q-4 -6 -14 -12l-7 -4h-192h-195v-164v-166h187h188 l8 -4q29 -10 29 -35q0 -18 -18 -26l-7 -2h-192h-195v-209q0 -205 -2 -211q-6 -8 -16 -15q-4 -2 -17 -2q-33 4 -45 27l-2 8v201v201h-174h-176v-209q0 -205 -4 -211q-2 -8 -14 -15q-6 -2 -19 -2q-31 4 -43 27l-2 8v201v201h-188h-189l-8 4q-16 6 -23.5 20t-0.5 27q6 8 16 14 l4 2h195h194v166v164h-188l-187 2l-8 2q-29 14 -28 37zM604 348h176h174v166v164h-174h-176v-164v-166z" />
<glyph unicode="$" horiz-adv-x="1001" d="M111 199q0 14 16 26q6 2 18 2q31 -2 50 -34q27 -45 57 -74q88 -78 211 -90h8v317v320l-18 6q-96 31 -101 33q-156 72 -202 217q-18 57 -17 112q2 74 35 137q29 53 68 91q51 51 139 81q57 16 90 17h6v78q0 78 2 82q6 8 16.5 14t36.5 -2q16 -8 23 -21q4 -8 4 -77l2 -74 l12 -4q109 -18 209 -94q61 -47 66 -60q8 -16 -1.5 -29.5t-27.5 -13.5t-31 8q-2 4 -18 17q-76 66 -146 90q-16 8 -57 16h-8v-291v-290l10 -4q25 -8 41 -13q55 -18 107 -47q145 -90 172 -252q31 -152 -54 -276q-45 -66 -102 -101q-35 -23 -74 -34q-45 -16 -88 -23h-12v-76 q0 -76 -2 -82q-6 -10 -16 -14q-4 -2 -17 -2q-33 4 -45 27l-2 8v69v72h-6q-18 0 -59 10q-66 16 -109 37q-76 39 -121 90q-66 70 -65 101zM227 930q35 -106 140 -158q29 -14 69 -27q6 -2 15.5 -5t13.5 -5l4 -2q2 0 2 278.5t-2 278.5q-25 -4 -66 -16q-113 -41 -161 -144 q-47 -100 -15 -200zM553 33h6q4 0 25 4q78 20 133 76q57 55 80 137q18 74 6 143q-18 113 -107 180q-41 34 -104 54q-6 2 -12.5 4t-10.5 3t-8 3l-4 2h-4v-303v-303z" />
<glyph unicode="%" horiz-adv-x="1337" d="M129 1174q31 111 102 159q29 21 62 29h55q59 -10 107.5 -62.5t72.5 -134.5q45 -154 2 -315q-33 -111 -102 -160q-41 -25 -63 -26q-25 -4 -54 0q-59 10 -107 62t-73 134q-45 154 -2 314zM203 1116q-27 -133 8 -250q14 -55 43 -92t57 -43q29 -4 56 17q63 41 90 161 q27 129 -8 250q-33 117 -99 133q-10 2 -22 0q-41 -6 -75 -54t-50 -122zM225 51q2 6 405.5 631t407.5 629q2 0 4.5 2t4.5 4q6 4 20 4q18 -4 33 -14q23 -18 10 -37q-2 -4 -405.5 -630t-407.5 -630q-2 0 -8 -6q-8 -2 -21 -2q-20 0 -32 12q-23 23 -11 37zM805 471 q31 111 102 160q33 22 62 26q25 4 55 0q127 -20 180 -196q45 -152 2 -314q-31 -111 -102 -159q-33 -23 -64 -27q-25 -4 -53 0q-127 20 -180 197q-45 152 -2 313zM879 412q-27 -129 8 -250q14 -55 42.5 -91t57.5 -42q31 -4 55 14q63 45 91 164q27 129 -9 250q-32 119 -98 131 q-10 4 -22 2q-41 -8 -76 -56.5t-49 -121.5z" />
<glyph unicode="&#x26;" horiz-adv-x="1337" d="M111 324q6 156 125 294q59 70 131 130l4 4l-4 22q-37 166 -33 330q0 45 8 84q33 152 139 207q33 18 70 24q20 4 63 0q37 -6 74 -28q29 -20 49 -50q29 -43 37 -86q10 -55 -2 -118q-18 -119 -115 -234q-63 -82 -176 -168l-20 -16q10 -35 20 -62q70 -217 207 -364l21 -21 l6 -6l8 19q31 70 57 159q29 111 62 179q49 104 108 163q45 41 88 64q59 31 127 31q25 0 33 -2q27 -14 27 -37q0 -29 -31 -29q-59 0 -104 -25q-35 -16 -76 -57q-96 -96 -146 -282q-37 -137 -73 -209l-15 -31l13 -10q82 -61 188 -99q80 -27 180 -32q29 0 37 -5q16 -6 23.5 -20 t1.5 -27q-6 -10 -17 -14q-4 -2 -37 -2q-158 6 -303 76q-63 33 -106 65l-17 11q-8 -8 -16 -19q-4 -4 -15.5 -17.5t-17.5 -19.5q-35 -35 -90 -65q-70 -33 -145 -31q-57 4 -78 8q-104 20 -178 92q-41 37 -62 86q-35 59 -30 138zM193 313q-6 -145 120 -213q55 -29 115 -30 q51 -2 100 12q84 31 146 117l4 8l-25 22q-43 41 -88 101q-35 45 -67 102q-49 88 -78 162q-4 14 -14 43l-11 29l-22 -21q-170 -162 -180 -332zM416 1069q0 -78 12 -172q0 -14 3 -34.5t6 -36t3 -17.5q4 0 19 12q188 156 227 312q33 133 -29 194q-18 17 -32 23q-39 12 -84 -13 q-90 -43 -117 -172q-8 -31 -8 -96z" />
<glyph unicode="(" horiz-adv-x="724" d="M137 518.5q0 75.5 2 104.5q12 168 47 317q41 150 103 270q68 127 149 222q70 77 107 102q6 2 20 2q4 0 9.5 -1t9.5 -3q39 -18 24 -47q-2 -6 -24 -25q-297 -264 -355 -755q-45 -428 90 -766q20 -51 41 -93q92 -176 232 -299q25 -23 16 -43q-10 -25 -45 -14q-16 4 -59 45 q-102 96 -174 217q-88 143 -129 299q-49 172 -62 363q-2 29 -2 104.5z" />
<glyph unicode=")" horiz-adv-x="724" d="M111 -473q0 14 26 37q94 82 164 192q156 231 191 563q47 426 -89 766q-27 61 -43 93q-84 170 -225 295q-20 16 -24 32q-2 15 18 29q4 2 16 2q23 -2 74 -47q100 -98 172 -215q86 -145 131 -301q47 -164 60 -363q2 -29 2 -104.5t-2 -102.5q-8 -158 -47 -317 q-35 -139 -103 -272q-59 -119 -149 -222q-76 -86 -107 -102q-20 -8 -45 6q-20 12 -20 31z" />
<glyph unicode="*" horiz-adv-x="1001" d="M129 887q-8 20 8 33q68 43 148 92q16 10 32.5 19t30.5 18.5t26.5 16.5t23 13t17.5 11.5t11 7.5l2 2l-141 90q-139 82 -148 90q-16 16 -10 37q6 8 14 14q6 2 19 2q10 0 18 -4q6 0 142 -86l137 -82v178v49.5v39v29.5v23.5t1 17.5t1 11v6.5v4.5v2q8 8 16 12q12 8 37 0 q18 -12 25 -23l2 -6v-168v-168q2 0 131 78q31 18 65.5 40t53.5 32l16 12q6 2 18 2q18 0 35 -12q27 -31 2 -47q0 -2 -147 -92q-63 -39 -104.5 -64.5t-39.5 -25.5q63 -39 144 -88q143 -86 145 -93q18 -14 10 -37q-14 -25 -45 -12q-8 0 -147 86l-135 84l-2 -178v-61.5v-46v-32 t-1 -22.5t-1 -12v-6v-2q-6 -8 -17 -15q-4 -2 -16 -2q-33 4 -45 27l-2 8v166v168q-2 0 -129 -78q-133 -82 -135 -84l-17 -4q-35 0 -49 29z" />
<glyph unicode="+" horiz-adv-x="1558" d="M113 530q8 8 16 13l4 4h303h303v305q0 305 2 311q3 9 15 15q14 6 37 -2q18 -8 24 -23l4 -6v-301v-299h295h299l6 -4q16 -8 23.5 -22.5t1.5 -26.5q-4 -6 -14 -13l-7 -4h-301h-303v-305q0 -305 -4 -311q-2 -8 -14 -15q-6 -2 -19 -2q-31 4 -43 27l-2 8v299v299h-297l-297 2 l-8 2q-39 20 -24 49z" />
<glyph unicode="," horiz-adv-x="557" d="M208.5 86.5q4.5 34.5 37.5 48.5l10 4h18q41 -2 76 -24q23 -16 39 -39q18 -25 27 -70q4 -20 -2 -72q-16 -96 -66 -153q-31 -37 -67 -57l-13 -7h-12q-20 2 -35 15q-18 18 -10 37q6 8 18 16q12 6 21 14q84 63 84 193v24l-2 4l-6 -6l-17 -8q-8 -4 -20 -4q-35 0 -58 21 q-27 29 -22.5 63.5z" />
<glyph unicode="-" horiz-adv-x="667" d="M23 459q6 8 16 14l4 2h238h239l6 -4q16 -6 23.5 -20.5t1.5 -26.5q-2 -8 -14 -14l-7 -2h-237l-238 2l-8 2q-39 18 -24 47z" />
<glyph unicode="." horiz-adv-x="557" d="M211 95.5q8 27.5 35 37.5q8 4 22 4q35 0 58 -20q20 -20 21 -50t-19 -51q-16 -16 -39 -16q-35 0 -58 23q-12 12 -14 18q-14 27 -6 54.5z" />
<glyph unicode="/" horiz-adv-x="1001" d="M111 -473q0 8 350 999q76 217 171 483.5t138 388.5t43 124q2 4 14.5 12t36.5 -2q27 -12 27 -35q0 -8 -350.5 -999.5t-350.5 -995.5q-8 -8 -16 -12q-4 -2 -16 -2q-4 0 -10.5 1t-10.5 3q-27 12 -26 35z" />
<glyph unicode="0" horiz-adv-x="946" d="M111 680l2 358l2 17q20 131 108 213q33 37 86 59q53 27 121 35h39q37 0 51 -4q82 -12 150 -55q147 -100 164 -283v-377v-358l-5 -17q-20 -133 -106 -215q-39 -39 -86 -59q-55 -25 -100 -33q-53 -4 -107 0q-88 14 -154 57q-152 102 -163 285q-2 14 -2 377zM193 654.5 q0 -343.5 2 -357.5q6 -72 32 -121q61 -131 213 -147q59 -6 127 18q53 20 92 59q80 76 93 203v717q-10 96 -62 166q-71 90 -184 100q-25 4 -41 0q-66 -4 -109 -26q-55 -27 -92 -74q-63 -76 -69 -178q-2 -16 -2 -359.5z" />
<glyph unicode="1" horiz-adv-x="946" d="M168 911l25 29q23 29 70.5 87t90.5 110q185 217 191 221q16 8 39 0q18 -12 24 -23l2 -6v-655q0 -651 -2 -658q-2 -8 -14 -14q-6 -2 -19 -2q-31 4 -43 25l-2 6l-2 592v591l-145 -174q-123 -145 -138.5 -161.5t-27.5 -16.5q-29 0 -41 17q-14 18 -8 32z" />
<glyph unicode="2" horiz-adv-x="946" d="M111 1004q0 80 36 159q20 45 66 94q39 41 86 64q57 29 125 39q39 4 96 -2q98 -16 170 -70q33 -29 62 -61q63 -82 77 -185q8 -47 5 -90q-14 -166 -205 -409q-49 -61 -234 -283l-159 -190l282 -2h283l6 -5q16 -6 23.5 -20t0.5 -27q-2 -8 -14 -14l-6 -2h-334l-332 2l-8 2 q-39 18 -24 47l184 219q223 266 258 314q127 164 170 277.5t16 217.5q-16 74 -63 126t-113 75q-74 23 -157 2q-47 -12 -84 -37q-102 -70 -125 -201q-6 -29 -6 -57q0 -20 -19 -29q-31 -12 -53 15q-10 10 -10 31z" />
<glyph unicode="3" horiz-adv-x="946" d="M113 238q6 8 14 14q6 4 18 4q20 -2 35 -14q6 -6 13 -21q47 -111 145 -162q94 -51 199 -20q72 18 122 67q80 76 93 203v238q-12 117 -82 188q-53 53 -127 72q-20 6 -105 8l-69 2l-9 2q-39 18 -24 47q0 4 160 195l157 190h-225l-225 2l-8 2q-16 8 -23.5 22.5t-1.5 27.5 q4 6 14 12l6 4h277h276l9 -4q16 -8 23 -22.5t1 -24.5l-160 -195l-159 -190q0 -2 22 -2q102 -2 191 -60q147 -100 164 -282v-138q0 -119 -5 -135q-18 -129 -106 -215q-39 -39 -86 -59q-55 -25 -100 -33q-53 -4 -103 0q-125 18 -223 107q-51 51 -82 112q-23 43 -16 58z" />
<glyph unicode="4" horiz-adv-x="946" d="M88 444q0 6 110.5 449.5t114.5 449.5q3 9 15 15q16 8 37 0q29 -14 28 -35q0 -4 -105.5 -421t-107.5 -425q0 -2 176 -2h176v193q0 193 4.5 198.5t14.5 12.5q6 4 18 4q29 -4 43 -27l2 -6v-188v-187h131h132l8 -4q39 -18 24 -47q-6 -10 -16 -14q-4 -2 -141 -2h-138v-193 q0 -193 -2 -199q-2 -8 -14 -14q-6 -2 -18 -2q-31 4 -43 27l-5 8v184v189h-204h-205l-8 4q-27 12 -27 32z" />
<glyph unicode="5" horiz-adv-x="946" d="M113 238q6 8 14 14q6 4 18 4q20 -2 35 -14q6 -6 13 -21q47 -111 145 -162q94 -51 199 -20q72 18 122 67q80 76 93 203v238q-12 117 -82 188q-51 57 -135 74q-51 12 -104.5 0t-88.5 -35q-59 -39 -90 -100l-10 -21q-12 -8 -25 -8q-37 0 -47 27q-4 6 -4 317q0 309 4 315.5 t14 12.5l6 4h277h276l9 -4q39 -20 24 -49q-8 -8 -16 -13l-4 -4h-254h-254v-223v-223l10 8q51 41 117 57q37 12 88 13q39 0 53 -2q129 -23 213 -109q68 -68 92 -164q12 -47 13 -205q0 -119 -5 -135q-18 -129 -106 -215q-39 -39 -86 -59q-55 -25 -100 -33q-53 -4 -103 0 q-125 18 -223 107q-51 51 -82 112q-23 43 -16 58z" />
<glyph unicode="6" horiz-adv-x="946" d="M111 680l2 358l2 17q20 131 108 213q33 37 86 59q53 27 121 35q76 0 92 -2q104 -16 168 -60q90 -53 137 -141q6 -10 7 -20q0 -16 -13.5 -24.5t-34.5 -2.5q-18 4 -34 33q-2 4 -9.5 14t-9.5 15q-72 100 -211 118q-41 4 -78 0q-55 -10 -88 -26q-55 -27 -92 -74 q-63 -76 -69 -178q-2 -10 -2 -135v-121l8 10q37 41 75 63q39 25 66 31q23 10 68 19q51 4 106 0q129 -23 213 -109q68 -68 92 -164q12 -47 13 -205q0 -119 -5 -135q-18 -129 -106 -215q-39 -39 -86 -59q-55 -25 -100 -33q-53 -4 -107 0q-88 14 -154 57q-152 102 -163 285 q-2 14 -2 377zM193 415q0 -104 2 -118q6 -72 32 -121q61 -131 213 -147q59 -6 127 18q53 20 92 59q80 76 93 203v238q-10 96 -62 166q-71 90 -184 100q-25 4 -41 0q-66 -4 -109 -27q-55 -27 -92 -73q-63 -76 -69 -178q-2 -16 -2 -120z" />
<glyph unicode="7" horiz-adv-x="946" d="M111 1175.5q0 120.5 2 127.5q6 8 16 14l4 2h361h362l6 -4q29 -14 29 -35q0 -2 -211 -635q-211 -623 -211 -631q-8 -8 -16 -12q-4 -2 -17 -2q-4 0 -10 1t-10 3q-27 12 -27 35q0 6 170 510l201 602l33 100h-299h-301v-104q0 -104 -3 -109q-8 -16 -28 -16q-35 0 -49 27 q-2 6 -2 126.5z" />
<glyph unicode="8" horiz-adv-x="946" d="M113 303q-8 59 2 119q20 131 108 213q35 35 84 59l17 8q-4 2 -9 7q-72 43 -114 120q-33 63 -43 140v51q0 41 2 57q18 121 96 203q72 68 172 82q12 2 42 0t44 -4q111 -18 184.5 -100t87.5 -203q2 -8 2 -51q0 -41 -4 -58q-14 -102 -71 -174q-37 -47 -80 -70l-12 -6l16 -10 q49 -23 92 -68q92 -96 105 -233q4 -72 -5 -117q-18 -129 -106 -215q-39 -39 -86 -59q-55 -25 -100 -33q-53 -4 -107 0q-131 23 -215 109q-90 92 -102 233zM193 338q0 -57 12 -107q25 -86 87 -140t148 -62q59 -6 127 18q53 20 92 59q80 76 93 203v82q-8 96 -62 168 q-71 90 -184 100q-25 4 -41 0q-57 -2 -109 -26q-55 -27 -92 -74q-31 -37 -49 -84q-23 -59 -22 -137zM239 1011q-1 -32 1 -46q23 -166 143 -217q49 -23 98 -17q63 6 101 33q102 66 120 201q6 41 3 96q-12 94 -62.5 154.5t-126.5 74.5q-35 4 -55 2q-55 -6 -99 -32 q-98 -66 -120 -201q-2 -16 -3 -48z" />
<glyph unicode="9" horiz-adv-x="946" d="M111 920q2 121 4 135q20 131 108 213q33 37 86 59q53 27 121 35h39q37 0 51 -4q82 -12 150 -55q147 -100 164 -283v-377v-358l-5 -17q-20 -133 -106 -215q-39 -39 -86 -59q-55 -25 -100 -33q-14 -2 -52.5 -2t-54.5 2q-98 14 -176 59q-90 53 -137 142q-10 18 -4 33 q6 8 14 14q6 2 18 2q29 0 48 -31q51 -98 163 -135q47 -16 104.5 -16t106.5 18q53 20 92 59q80 76 93 203v135v119l-9 -8q-31 -37 -73 -66q-43 -23 -68 -30q-41 -12 -65 -19q-53 -4 -107 0q-131 23 -215 109q-63 68 -92 164q-12 47 -12 207zM193 896.5q0 -103.5 2 -120.5 q6 -72 32 -121q61 -131 213 -147q59 -6 127 18q53 20 92 60q80 76 93 202v238q-10 96 -62 166q-71 90 -184 100q-25 4 -41 0q-66 -4 -109 -26q-55 -27 -92 -74q-63 -76 -69 -178q-2 -14 -2 -117.5z" />
<glyph unicode=":" horiz-adv-x="557" d="M211 95.5q8 27.5 35 37.5q8 4 22 4q35 0 58 -20q20 -20 21 -50t-19 -51q-16 -16 -39 -16q-35 0 -58 23q-12 12 -14 18q-14 27 -6 54.5zM211 839q8 28 35 40q16 4 22 4q31 0 58 -23q20 -20 21 -50t-19 -50q-16 -16 -39 -17q-31 0 -58 23q-10 10 -14 18q-14 27 -6 55z" />
<glyph unicode=";" horiz-adv-x="557" d="M208.5 86.5q4.5 34.5 37.5 48.5l10 4h18q41 -2 76 -24q23 -16 39 -39q18 -25 27 -70q4 -20 -2 -72q-16 -96 -66 -153q-31 -37 -67 -57l-13 -7h-12q-20 2 -35 15q-18 18 -10 37q6 8 18 16q12 6 21 14q84 63 84 193v24l-2 4l-6 -6l-17 -8q-8 -4 -20 -4q-35 0 -58 21 q-27 29 -22.5 63.5zM211 841q8 28 35 38q8 4 22 4q35 0 58 -21q20 -20 21 -50t-19 -50q-16 -16 -39 -17q-35 0 -58 23q-12 12 -14 18q-14 27 -6 55z" />
<glyph unicode="=" horiz-adv-x="1558" d="M111 717q0 16 18 26l4 2h639h641l6 -4q39 -18 25 -47q-2 -8 -14 -14l-7 -2h-639h-637l-8 4q-29 10 -28 35zM113 330q6 10 16 14l4 2h639h639l8 -4q29 -10 29 -35q0 -16 -18 -26l-7 -2h-639l-639 2l-8 2q-39 18 -24 47z" />
<glyph unicode="?" horiz-adv-x="946" d="M111 1137q0 33 47 112q41 66 90 105q71 55 151 65h97q82 -12 141 -45q147 -70 186 -223q10 -45 11 -72q2 -66 -31 -139q-31 -61 -94 -125q-39 -39 -52 -47q-84 -70 -125 -131q-39 -57 -45 -119q-2 -6 -2 -92q0 -80 -2 -84q-2 -8 -14 -14q-6 -2 -18 -2q-29 0 -43 26l-5 6 v84q0 88 3 97q6 49 30 98q39 84 160 186q61 51 90 88q72 94 66 181q-10 174 -174 237q-72 31 -138 23q-66 -6 -106 -37q-96 -61 -139 -191q-6 -16 -19 -24q-20 -8 -45 6q-20 12 -20 31zM379 95.5q8 27.5 35 37.5q8 4 22 4q35 0 58 -20q20 -20 21 -50t-19 -51 q-16 -16 -39 -16q-35 0 -58 23q-12 12 -14 18q-14 27 -6 54.5z" />
<glyph unicode="@" horiz-adv-x="1558" d="M117 588q-16 135 6 270q23 119 70 217q53 109 133 185q80 84 202 135q93 37 191 47q47 4 98 0q125 -8 246 -64q102 -53 182 -135q70 -66 121 -170q63 -127 78 -276q2 -23 2 -71t-2 -67q-12 -137 -82 -219q-16 -23 -49 -49q-41 -31 -82 -37q-29 -6 -68 -2q-35 6 -65 27 q-33 23 -51 57l-5 8l-14 -14q-33 -33 -84 -55q-43 -23 -98 -31q-14 -2 -52 -2t-53 2q-66 8 -120 37q-154 82 -170 254q-2 18 -1 83.5t3 78.5q18 104 82 170q35 35 88 61q43 23 94 31q16 2 55 1t57 -3q88 -14 152 -56q6 -4 14.5 -10t16.5 -12t10 -8l4 -6v32l2 35l2 6 q4 4 12.5 8.5t20.5 4.5q27 0 41 -25l4 -4v-268v-105q2 -176 10 -188l2 -4q12 -29 41 -37q27 -4 62 12q35 10 65 49q61 72 74 193q8 57 0 127q-14 143 -72 260q-115 227 -360 295q-88 25 -168 18q-219 -12 -373 -166q-145 -143 -184 -370q-45 -260 61 -482q121 -250 375 -313 q82 -20 193 -14q182 8 301 49q94 31 170 92q33 25 61 57q14 18 35 19q20 -2 35 -15q18 -18 8 -36q-8 -25 -78 -82q-68 -51 -152 -86q-121 -51 -294 -64q-117 -8 -177 -2q-176 12 -319 109q-92 61 -160 153q-115 152 -147 365zM532 694q0 -68 3 -84q23 -123 122 -174 q96 -49 217 -8q51 16 89 53t53 82q10 31 10 146q0 104 -4 116q0 8 -6 27q-23 61 -76 96q-47 33 -106 41q-45 6 -62 2q-80 -10 -123 -37q-84 -53 -108 -149q-10 -39 -9 -111z" />
<glyph unicode="A" horiz-adv-x="1224" d="M111 39q0 10 231 696t231 692q5 7 15 13q14 6 37 -2q10 -4 24 -19q0 -2 30 -89t90 -268t114 -339q229 -690 229 -696q0 -16 -16 -25q-6 -2 -19 -2q-31 4 -41 23q-4 8 -67 198l-64 191h-293h-290l-64 -195q-68 -199 -68 -201q-6 -8 -16 -14q-4 -2 -16 -2q-4 0 -10.5 1 t-10.5 3q-27 12 -26 35zM346 481h266h269q-59 181 -133 400l-134 399l-188 -561z" />
<glyph unicode="B" horiz-adv-x="1224" d="M166 707q0 672 2 675q6 9 16 15q4 2 226 2h237q229 -20 344 -168q66 -89 66 -185q0 -49 -17 -100q-12 -43 -34 -72q-55 -88 -170 -139q-6 -4 -7 -4l2 -2q4 -2 10.5 -4t10.5 -4q186 -74 244 -242q16 -55 16 -103v-11q-4 -41 -10 -72q-8 -31 -25 -64q-31 -63 -94 -120 q-98 -78 -227 -101q-35 -6 -301 -8q-248 0 -254 2q-20 6 -33 25q-2 6 -2 680zM248 68h211q215 2 229 4q119 14 197 65q127 84 143 221q2 12 2 37q-4 102 -74.5 178t-185.5 105q-18 6 -61 12q-14 2 -240 4h-221v-313v-313zM248 762h194q203 2 244 8q70 8 131 41q41 25 76 55 q37 37 55 78q23 43 25 90q1 12 1 23q0 114 -93 188q-87 74 -226 84q-12 2 -213 2h-194v-284v-285z" />
<glyph unicode="C" horiz-adv-x="1337" d="M113 707q0 102 12 161q41 250 199 408q80 80 190 127q76 31 148 37q8 2 20 2q12 2 51 1t53 -3q164 -18 289 -119q45 -39 70 -68q41 -47 67 -100q12 -27 13 -33q0 -16 -14.5 -23t-32.5 -1q-23 4 -39 39q-31 59 -76 106q-57 55 -119 84q-78 39 -151 47q-26 2 -50.5 2 t-46.5 -2q-145 -14 -264 -108q-182 -145 -227 -418q-10 -70 -10 -152q0 -76 6 -116q20 -178 112 -318q80 -123 205 -184q76 -37 152 -45q24 -4 50 -4t52 4q57 6 121 28q43 16 78 39q113 72 166 178l12 25q4 0 10 6q6 2 19 2q31 0 45 -24q4 -16 -11 -45q-31 -63 -88 -123 q-59 -59 -131 -97q-96 -49 -188 -59q-32 -2 -64 -2t-65 2q-141 18 -262 98q-121 82 -198 218.5t-97 304.5q-6 43 -6 125z" />
<glyph unicode="D" horiz-adv-x="1280" d="M166 707q0 672 2 675q6 9 16 15l4 2h213q213 0 234 -4q125 -18 219 -76q117 -72 193 -189q94 -143 116 -337q5 -48 5 -99q0 -68 -9 -139q-12 -102 -49 -205q-88 -221 -254 -305q-66 -33 -123 -43q-33 0 -270 -2q-256 0 -262 2q-20 6 -33 25q-2 6 -2 680zM248 68h219 q231 2 262 10q70 16 143 72q45 39 62 61q145 180 151 473v28q0 181 -73 332q-53 100 -119 162q-111 98 -258 123q-37 0 -201 2h-186v-631v-632z" />
<glyph unicode="E" horiz-adv-x="1114" d="M166 707q0 672 2 675q6 9 16 15l4 2h390h389l8 -4q16 -6 23.5 -20.5t0.5 -26.5q-6 -8 -16 -15l-4 -2h-365h-366v-284v-285h303h305l6 -4q39 -18 25 -47q-2 -8 -15 -15l-6 -2h-309h-309v-313v-313h358h361l8 -5q16 -6 23.5 -20t0.5 -27q-6 -8 -16 -14l-4 -2h-385 q-387 0 -393 2q-20 6 -33 25q-2 6 -2 680z" />
<glyph unicode="F" horiz-adv-x="1058" d="M166 35v672q0 672 2 675q6 9 16 15l4 2h390h389l8 -4q16 -6 23.5 -20.5t0.5 -26.5q-6 -8 -16 -15l-4 -2h-365h-366v-297v-299h303h305l6 -4q16 -8 23.5 -22.5t1.5 -26.5q-4 -6 -15 -12l-6 -4h-309h-309v-322q0 -322 -2 -328q-6 -8 -17 -14q-4 -2 -16 -2q-33 4 -45 27z " />
<glyph unicode="G" horiz-adv-x="1337" d="M111 707.5q0 54.5 2 74.5q12 119 47 226q90 252 303 366q108 60 233 68q8 2 42 2t48 -2q6 -2 21.5 -3t21.5 -1q174 -23 291 -117q31 -23 70 -70q29 -37 33 -47q6 -16 -3.5 -29.5t-25.5 -13.5q-23 0 -37 15q-6 2 -16 20q-16 25 -41 53q-98 98 -264 121q-36 4 -71 4 q-71 0 -136 -16q-123 -31 -219 -119q-125 -113 -183 -295q-32 -106 -32 -240v-8q0 -72 6 -114q20 -180 116 -324q80 -117 200 -178q104 -52 219 -52q17 0 34 1q158 10 260 77q61 41 105 101l8 12v207v207h-199q-199 0 -205 4q-18 4 -28.5 18.5t-3.5 28.5q6 8 14 14l6 4h231 h232l8 -4q18 -12 25 -22l2 -6v-238v-237l-2 -7q-23 -41 -72 -90q-37 -37 -104 -73q-133 -66 -294 -66h-10q-113 2 -208 43q-221 88 -338 320q-70 137 -84 311q-2 20 -2 74.5z" />
<glyph unicode="H" horiz-adv-x="1280" d="M166 35v672q0 672 2 675q6 9 16.5 15t36.5 -2q18 -6 25 -21l2 -8v-315v-316h391h391v322q0 322 2 325q6 8 17 15q4 2 16 2q31 0 45 -25l2 -8v-672q0 -672 -2 -678q-6 -10 -16 -14q-4 -2 -17 -2q-33 4 -45 27l-2 8v315v316h-391h-391v-322q0 -322 -2 -328q-6 -8 -17 -14 q-4 -2 -16 -2q-33 4 -45 27z" />
<glyph unicode="I" horiz-adv-x="401" d="M160 35v672q0 672 2 675q6 9 16 15t37 -2q18 -6 25 -21l2 -8v-672q0 -672 -2 -678q-6 -8 -17 -14q-4 -2 -16 -2q-33 4 -45 27z" />
<glyph unicode="J" horiz-adv-x="946" d="M113 420q2 10 14 16q6 4 18 4q20 -2 35 -14q12 -12 13 -45q6 -150 71 -248q35 -53 92 -86q38 -18 79 -18q31 0 63 10q70 23 118 94q70 96 78 238q2 12 2 514q0 494 2 499q7 9 17 15t37 -2q18 -12 24 -23l2 -8v-510q-2 -528 -6 -559q-29 -166 -127 -258q-37 -35 -76 -53 q-53 -27 -114 -27q-98 0 -179 61q-139 100 -161 320q-6 38 -6 58q0 17 4 22z" />
<glyph unicode="K" horiz-adv-x="1280" d="M166 35v672q0 672 2 675q6 9 16.5 15t36.5 -2q16 -8 23 -21l4 -4v-442l2 -441l409 453q412 455 418 457q4 2 17 2q20 0 34 -13q16 -20 11 -36q-2 -4 -207 -232l-205 -227q98 -193 219 -428q221 -426 221 -432q0 -18 -16 -29q-6 -2 -18 -2q-25 4 -35 14q-16 27 -215 412 l-211 405q-96 -104 -213 -233l-211 -233v-172q0 -170 -2 -177q-6 -8 -17 -14q-4 -2 -16 -2q-33 4 -45 27z" />
<glyph unicode="L" horiz-adv-x="1114" d="M166 707q0 672 2 675q6 9 16.5 15t36.5 -2q18 -6 25 -21l2 -8v-649v-649h358h361l8 -5q16 -6 23.5 -20t0.5 -27q-6 -8 -16 -14l-4 -2h-385q-387 0 -393 2q-20 6 -33 25q-2 6 -2 680z" />
<glyph unicode="M" horiz-adv-x="1392" d="M166 35v672q0 672 2 675q6 9 16 15q4 2 17 2q14 0 20 -4q4 -2 9.5 -6.5t7.5 -4.5q0 -2 29.5 -41.5t88 -118.5t111.5 -153l225 -305l228 309q227 313 229 316q2 0 4 2q4 4 6 4q6 2 19 2q29 0 43 -25l4 -8v-672q0 -672 -4 -678q-2 -8 -15 -14q-6 -2 -18 -2q-31 4 -43 27 l-2 8v602v602l-205 -281q-49 -68 -102.5 -138t-79.5 -107l-27 -37q-2 -2 -8 -6q-8 -4 -21 -4q-18 2 -34 16q0 2 -28 39t-81 108.5t-102 139.5l-205 278l-2 -614q0 -535 -2 -617q-6 -8 -17 -14q-4 -2 -16 -2q-33 4 -45 27z" />
<glyph unicode="N" horiz-adv-x="1280" d="M166 35v672q0 672 2 675q6 9 16 15q4 2 17 2q20 0 32 -13q2 -2 402 -528l395 -524v524q0 440 2 524v2q8 8 17 13q4 2 16 2q31 0 45 -25l2 -8v-672q0 -672 -2 -678q-6 -10 -16 -14q-4 -2 -17 -2q-33 4 -45 27l-2 8v90v90l-391 518l-389 518l-2 -616q0 -537 -2 -619 q-6 -8 -17 -14q-4 -2 -16 -2q-33 4 -45 27z" />
<glyph unicode="O" horiz-adv-x="1337" d="M111 727q2 139 34 250q63 236 222 360q39 35 92 58q74 39 145 45q9 2 21 2q6 2 33.5 2t39.5 -2q166 -16 297 -137q145 -131 199 -355q31 -124 31 -259v-17q-2 -137 -35 -250q-66 -238 -221 -358q-37 -33 -92 -60q-92 -45 -187 -47h-11q-71 0 -144 23q-215 70 -332 303 q-92 180 -92 422v20zM193 715v-18q0 -256 108 -439q78 -131 201 -192q61 -31 131 -37q16 -2 32 -2q79 0 162 41q98 51 162 135q29 37 53 78q94 172 101 405v18q0 258 -109 441q-78 129 -198 192q-70 31 -131 37h-48q-55 -4 -114 -24q-117 -47 -197 -152q-25 -29 -53 -76 q-94 -172 -100 -407z" />
<glyph unicode="P" horiz-adv-x="1224" d="M166 35v672q0 672 2 675q6 9 16 15l4 2h246q250 0 266 -2q76 -10 119 -27q215 -72 277 -254q16 -55 16 -104v-11q-4 -41 -10 -69q-8 -33 -25 -66q-33 -68 -94 -118q-96 -80 -227 -103q-33 -6 -281 -8h-227v-307q0 -307 -2 -314q-6 -8 -17 -14q-4 -2 -16 -2q-33 4 -45 27z M248 707h211q213 0 229 2q121 14 197 67q127 82 143 219q2 14 2 39q-4 102 -74.5 179t-185.5 104q-10 2 -28.5 6t-32.5 6q-43 0 -240 2h-221v-313v-311z" />
<glyph unicode="Q" horiz-adv-x="1337" d="M111 727q2 139 34 250q63 236 222 360q39 35 92 58q74 39 145 45q9 2 21 2q6 2 33.5 2t39.5 -2q166 -16 297 -137q195 -178 224 -500q7 -61 7 -119q0 -67 -9 -129q-25 -207 -130 -360q-61 -92 -145 -152l-14 -10q-2 0 22.5 -37t67.5 -100q20 -31 43.5 -67t36.5 -54 l12 -19q10 -16 -6 -32q0 -2 -4 -5l-4 -2q-6 -2 -19 -2q-25 4 -35 15q0 2 -13 19.5t-35.5 51t-43.5 64.5l-88 131q-4 0 -16 -6q-78 -33 -168 -33q-113 0 -213 51q-170 86 -262 275q-92 180 -92 422v20zM201 825q-10 -72 -10 -141q0 -140 40 -270q63 -197 195 -301 q55 -43 117 -66q58 -19 115 -19q55 0 108 17l51 18l-12 19q-12 18 -36 53t-44 68q-92 131 -96 141q-4 14 0 23q6 10 14 16q6 2 19 2q23 -4 32 -14q6 -2 97 -138l90 -133q2 0 8 6q109 78 174 216q74 154 80 364v18q0 258 -109 441q-78 129 -198 192q-70 31 -131 37h-48 q-55 -4 -114 -24q-117 -47 -197 -152q-25 -29 -53 -76q-72 -131 -92 -297z" />
<glyph unicode="R" horiz-adv-x="1224" d="M166 35v672q0 672 2 675q6 9 16 15l4 2h246q250 0 266 -2q76 -10 119 -27q215 -72 277 -254q16 -55 16 -104v-11q-4 -41 -10 -69q-8 -33 -25 -66q-49 -100 -143 -155q-80 -43 -148 -58q-18 -6 -22 -6q0 -2 170 -301q174 -301 176 -303q6 -16 0 -26.5t-16 -14.5 q-4 -2 -17 -2q-20 4 -33 14q-6 4 -184 314l-176 309h-217h-219v-307q0 -307 -2 -314q-6 -8 -17 -14q-4 -2 -16 -2q-33 4 -45 27zM248 707h211q213 0 229 2q121 14 197 67q127 82 143 219q2 14 2 39q-4 102 -74.5 179t-185.5 104q-10 2 -28.5 6t-32.5 6q-43 0 -240 2h-221 v-313v-311z" />
<glyph unicode="S" horiz-adv-x="1169" d="M125 267q14 7 33 1q23 -6 37 -32q31 -47 61 -82q47 -45 106 -74q84 -45 197 -51q14 -1 28 -1q108 0 195 42q70 31 121 92q33 41 49 84q25 62 25 120q0 94 -66 177q-74 86 -184 119q-4 2 -147 38q-147 37 -152 39q-111 35 -187.5 108t-99.5 163q-8 39 -8 73q0 37 8 76 q20 84 92 156q55 53 136 88q84 33 166 39q24 2 49 2l49 -2q104 -6 184 -43q27 -8 57 -27q68 -39 113 -104q14 -23 14 -33q0 -16 -13 -23.5t-33.5 -1t-34.5 28.5q-68 98 -218 127q-50 9 -99 9l-163 -25q-154 -53 -204 -176q-23 -53 -23 -104q0 -63 35 -122q63 -104 194 -145 q4 0 25.5 -6t58.5 -15.5t68 -17.5q139 -35 186 -51q53 -23 68 -31q49 -29 94 -74q51 -47 80 -106q31 -63 37 -142v-7q0 -109 -62 -206q-27 -37 -53 -63q-49 -45 -110 -74q-63 -31 -127 -43q-45 -9 -94 -9q-43 0 -91 7q-217 25 -346 174q-65 73 -65 104q0 17 14 24z" />
<glyph unicode="T" horiz-adv-x="1224" d="M55 1382q7 9 17 15l4 2h528h529l8 -4q16 -6 23 -20.5t1 -26.5q-6 -8 -16 -15l-4 -2h-246h-248v-655q0 -653 -2 -660q-6 -8 -16 -14q-4 -2 -17 -2q-33 4 -45 27l-2 8v647v649h-239l-242 2l-8 2q-39 18 -25 47z" />
<glyph unicode="U" horiz-adv-x="1280" d="M166 885q0 494 2 499q6 9 16.5 15t36.5 -2q18 -12 25 -23l2 -6v-491q0 -498 2 -506q16 -209 194 -299q76 -37 158 -43q17 -1 34 -1q117 0 218 60q76 49 119 119q41 70 55 153q0 53 2 519v172.5v130t1 90.5t1 59.5v32.5v16v6q8 8 17 13q4 2 16 2q31 -4 45 -27l2 -8v-504 q-2 -467 -2 -520q-16 -86 -45 -141q-31 -61 -84 -115q-47 -43 -102 -72q-80 -41 -170 -53q-24 -2 -49 -2t-52 2q-139 10 -248 82q-76 51 -120 123q-61 94 -72 209q-2 8 -2 510z" />
<glyph unicode="V" horiz-adv-x="1224" d="M111 1374q0 15 18 25q10 6 37 -2q12 -6 20 -19q4 -4 213 -630.5t211 -626.5q0 4 211 627q43 129 101.5 304t84 250.5t25.5 77.5q4 12 15 19q8 2 20 2q4 0 9 -1t9 -3q27 -12 27 -35q0 -8 -229 -696q-49 -145 -112.5 -334t-92.5 -273t-29 -86q-2 -4 -14 -12q-6 -2 -19 -2 q-4 0 -9 1t-9 3q-6 2 -23 19q-4 8 -233 696q-231 688 -231 696z" />
<glyph unicode="W" horiz-adv-x="1781" d="M111 1374q0 15 18 25q10 6 37 -2q12 -6 20 -19q4 -4 168 -614q164 -604 164 -610l168 612q37 135 81 301t64.5 241.5t20.5 77.5q2 4 14 13q6 2 19 2q31 -4 43 -25q0 -2 79.5 -298t162.5 -604t87 -320l3 8q2 8 8 28.5t15 52t22.5 81t30 112t39 146.5t48.5 182l166 616 q4 12 15 19q8 2 20 2q4 0 9 -1t9 -3q27 -12 27 -35q0 -10 -184 -696q-186 -692 -188.5 -694.5t-6.5 -5.5t-6 -5q-8 -2 -20 -2q-33 4 -43 29l-166 614q-74 272 -119 439q-44 165 -45 165l-166 -614q-164 -614 -168 -621q-2 -4 -12 -10q-6 -2 -19 -2q-33 4 -41 25 q-4 8 -189 696t-185 694z" />
<glyph unicode="X" horiz-adv-x="1224" d="M113 51l225 338l225 334q0 2 -209 315l-213 320q-12 25 15 39q4 2 18 2q18 0 33 -13q0 -2 22.5 -34.5t74.5 -110.5t106 -156q84 -125 141 -209q56 -83 57 -83l201 297q201 297 201 301q4 0 10 6q6 2 18 2q18 0 35 -13q20 -20 8 -40q0 -2 -26.5 -41t-85 -126t-101.5 -153 l-211 -311l226 -332q225 -338 227 -340q6 -16 0 -27q-2 -8 -14 -14q-6 -2 -19 -2q-20 2 -33 12q0 2 -24.5 38t-79.5 116t-113 168q-211 315 -213 315q-96 -143 -213 -317l-215 -322q-8 -4 -10 -8q-6 -2 -18 -2q-20 2 -35 14q-18 18 -10 37z" />
<glyph unicode="Y" horiz-adv-x="1224" d="M113 1360q-6 18 6 31q2 2 10 6q4 2 16 2q14 0 21 -4q12 -8 16 -11l27 -45q25 -43 78 -136t110 -193q209 -369 213 -369q0 2 213 375q49 86 105.5 183t83.5 144l26 48q2 2 6 4l5 2q6 2 18 2t18 -4q27 -14 27 -37q0 -6 -229 -410l-230 -401v-262q0 -262 -4 -269 q-2 -8 -14 -14q-6 -2 -19 -2q-31 4 -43 27l-2 8v260v262l-229 399q-229 401 -229 404z" />
<glyph unicode="Z" horiz-adv-x="1224" d="M113 49q0 6 430 643l428 639h-400h-110h-88h-68h-51.5t-35.5 1t-24.5 1h-14.5h-7h-4q-31 13 -31 34q0 7 4 15q3 9 15 15l6 2h444h445l8 -4q39 -18 24 -47q-8 -8 -430 -641l-428 -637l426 -2h428l6 -5q16 -6 23.5 -20t1.5 -27q-2 -8 -14 -14l-6 -2h-469q-469 0 -476 2 q-36 12 -36 33q0 7 4 14z" />
<glyph unicode="[" horiz-adv-x="724" d="M264 518q0 995 2 1002q7 8 17 14q4 2 176 2h174l6 -4q39 -18 25 -47q-2 -8 -15 -15q-6 -2 -153 -2h-150v-956v-956h143h144l6 -5q16 -6 23.5 -20t1.5 -27q-2 -8 -15 -14l-6 -2h-168q-176 0 -190 8q-10 8 -19 19q-2 6 -2 1003z" />
<glyph unicode="]" horiz-adv-x="724" d="M55 -461q6 10 17 15q4 2 153 2h150v956v956h-144h-143l-8 5q-16 6 -23.5 20t-1.5 27q7 8 17 14q4 2 176 2h174l6 -4q18 -8 25 -23l4 -6v-997q0 -995 -4 -1002q-2 -8 -15 -14l-6 -2h-172l-172 2l-8 2q-39 18 -25 47z" />
<glyph unicode="^" horiz-adv-x="780" d="M55 1114q2 4 152 154q41 39 79 76.5t58 56.5l18 18q6 2 21 2q16 0 29.5 -12t150.5 -147q123 -119 141.5 -139.5t18.5 -30.5q0 -18 -18 -27q-6 -2 -19 -2q-16 2 -31.5 15.5t-128.5 125.5l-133 131l-28 -28q-76 -76 -136 -133q-100 -100 -112 -109q-4 -2 -17 -2 q-20 2 -34 14q-16 16 -11 37z" />
<glyph unicode="_" horiz-adv-x="780" d="M321.5 1285.5q7.5 27.5 34.5 37.5q8 4 23 4q35 0 57 -20q20 -20 21.5 -50t-19.5 -51q-16 -16 -39 -16q-35 0 -57 22q-12 12 -14 19q-14 27 -6.5 54.5z" />
<glyph unicode="a" d="M68 431q0 75 2 104q12 158 114 256q39 37 105 67q43 21 88 23q13 2 31 2q27 0 65 -4q88 -14 154 -58q27 -18 53 -45l16 -16v49q0 51 4.5 57t14.5 13q6 4 18 4q29 -4 43 -27l2 -6v-414q0 -414 -2 -420q-2 -8 -14 -14q-6 -2 -19 -2q-31 4 -43 27q-4 6 -4 45v41l-16 -17 q-37 -37 -92 -63q-55 -23 -105 -31q-12 -2 -49 -2t-47 2q-127 18 -209 107q-86 86 -108 229q-2 18 -2 93zM150 419.5q0 -67.5 2 -85.5q14 -98 63 -164q68 -90 178 -100q12 -1 23 -1q66 0 131 29q27 14 55 35q76 68 92 170q2 14 2 146q0 127 -2 143q-8 37 -24 80 q-64 129 -211 141q-11 1 -23 1q-76 0 -137 -36q-37 -23 -74 -63q-68 -84 -73 -201q-2 -27 -2 -94.5z" />
<glyph unicode="b" d="M111 35v682q0 682 2 688q6 8 16 14t37 -2q18 -12 24 -22l3 -6v-310v-309l18 16q39 37 90 64q57 25 107 29q12 2 48 2t48 -2q127 -18 207 -105q86 -86 108 -229q2 -16 3 -94v-46q0 -40 -1 -57q-12 -156 -116 -256q-35 -35 -84 -59q-43 -20 -93 -31q-26 -2 -53 -2l-53 2 q-94 16 -158 59q-29 18 -53 43l-18 17v-49q0 -49 -3 -56q-6 -8 -16 -14q-4 -2 -16 -2q-33 4 -45 27zM195 436q0 -145 8 -172q33 -139 168 -182q42 -13 82 -13q10 0 20 1q47 2 94 22q61 31 97 76q68 82 75 199q1 17 1 53v42q-1 70 -3 87q-18 117 -84 186q-65 68 -155 78 q-15 1 -29 1q-74 0 -133 -34q-41 -23 -72 -53q-53 -61 -69 -147v-144z" />
<glyph unicode="c" horiz-adv-x="780" d="M70 446q0 102 4 138q33 176 155 254q54 33 111 43q10 2 50 1t56 -3q84 -12 146 -41q98 -51 115 -136q6 -18 0 -34q-10 -27 -45 -14.5t-35 36.5q0 39 -33 66q-43 39 -129 53q-44 5 -72 5q-9 0 -16 -1q-61 -8 -109 -45q-104 -82 -116 -250q-2 -14 -2 -98q2 -94 10 -129 q18 -88 68.5 -147.5t117.5 -71.5q26 -5 53 -5q60 0 125 25q102 41 103 111q0 14 16 24q8 4 21 4q33 -4 43 -28q2 -6 2 -21q0 -12 -4 -24q-8 -31 -25 -49q-23 -31 -49 -48q-33 -25 -74 -36q-61 -25 -156 -25q-70 0 -135 31q-150 74 -188 264q-8 43 -8 151z" />
<glyph unicode="d" d="M68 431q0 75 2 104q12 158 114 256q35 35 86 59q47 23 92 29q14 2 51.5 2t55.5 -2q88 -12 158 -58q27 -18 53 -45l16 -16v319q0 319 4 326q3 8 15 14q12 8 37 -2q18 -12 24 -22l2 -6v-684q0 -682 -2 -689q-2 -8 -14 -14q-6 -2 -19 -2q-31 4 -43 27q-4 6 -4 45v41l-16 -17 q-37 -37 -92 -63q-55 -23 -105 -31q-12 -2 -49 -2t-47 2q-127 18 -209 107q-86 86 -108 229q-2 18 -2 93zM150 419.5q0 -67.5 2 -85.5q14 -98 63 -164q68 -90 178 -100q12 -1 23 -1q66 0 131 29q27 14 55 35q76 68 92 170q2 14 2 146q0 127 -2 143q-8 37 -24 80 q-64 129 -211 141q-11 1 -23 1q-76 0 -137 -36q-37 -23 -74 -63q-68 -84 -73 -201q-2 -27 -2 -94.5z" />
<glyph unicode="e" d="M68 462q0 75 2 93q12 70 39 127q33 59 75 102q39 35 90 62q58 29 121 35q2 0 18.5 1t28.5 1q53 -2 90 -13q84 -23 148 -73q41 -35 57 -58q84 -102 84 -247q0 -35 -22 -58q-8 -10 -23 -16q-16 -8 -40.5 -9t-286.5 -1h-299v-29q2 -63 18 -111q29 -80 87 -132t138 -64 q20 -4 42.5 -4t47.5 4q86 8 131 32q55 27 86 70l13 12q6 4 20 4q4 0 9.5 -1t9.5 -3q16 -8 23 -22t1 -27q-12 -25 -55 -59q-23 -18 -57 -37q-55 -25 -109 -33q-38 -6 -76 -6h-20q-66 0 -103 10q-84 23 -145 72q-29 20 -59 57q-72 98 -82 219q-2 27 -2 102zM150 475h280 q285 0 291 2q12 0 16 15q2 2 2 22q-10 133 -88 215q-63 68 -155 80q-16 4 -66 4q-109 -12 -184 -84q-23 -23 -41 -49q-53 -86 -55 -182v-23z" />
<glyph unicode="f" horiz-adv-x="514" d="M2 866q8 8 16 13q4 4 91 4h86v147q0 152 2 162q6 70 43 129q27 37 45 49q45 39 104 49q17 2 36 2t38 -2q43 -10 78 -33q66 -43 100 -118q27 -53 27 -74q0 -27 -31 -27q-29 0 -41 17q-6 8 -12 22q-14 47 -35 76q-37 53 -82 68q-15 4 -29 4q-33 0 -67 -21q-18 -10 -41 -33 q-41 -47 -51 -126q-2 -10 -3 -154v-137h109h109l8 -4q39 -20 24 -50q-8 -8 -16 -12q-4 -4 -119 -4h-115v-395q0 -395 -2 -402q-2 -8 -14 -14q-6 -2 -18 -2q-31 4 -43 27l-4 8v389v389h-80l-80 2l-8 2q-39 20 -25 49z" />
<glyph unicode="g" d="M68 432q0 76 2 105q12 158 114 256q41 39 105 65q39 19 88 25q12 2 47 0t49 -4q88 -12 154 -58q25 -14 53 -43l16 -16v49q0 51 4 55q2 8 15 15q6 2 18 2q29 0 43 -25l2 -8v-438v-459q-8 -88 -45 -166q-27 -57 -74 -100q-27 -27 -77 -56q-47 -20 -95 -26q-13 -3 -35 -3 t-51 3q-131 23 -215 106q-39 39 -65 90q-12 27 -6 37q2 10 12 17q8 2 20 2q31 -2 50 -37q37 -76 118 -121q58 -28 115 -28l21 1q57 6 102 33q39 25 63 55q63 76 76 187q4 18 4 94v72l-16 -17q-39 -37 -92 -61q-45 -20 -105 -31q-12 -2 -49 -2t-47 2q-125 18 -209 105 q-88 90 -108 229q-2 18 -2 94zM150 420.5q0 -68.5 2 -86.5q14 -94 63 -162q68 -90 178 -100q12 -1 23 -1q66 0 131 29q27 12 55 35q78 68 92 170q2 14 2 143.5t-2 143.5q-8 37 -24 82q-61 127 -211 139q-15 2 -31 2q-66 0 -129 -35q-41 -25 -74 -65q-68 -84 -73 -199 q-2 -27 -2 -95.5z" />
<glyph unicode="h" d="M111 35v682q0 682 2 688q6 8 16 14t37 -2q18 -12 24 -22l3 -6v-322v-324l10 13q43 55 80 78q45 31 104 45q12 2 51 2t51 -2q123 -18 197 -93q39 -37 64 -84q23 -47 28 -100q2 -8 2 -297q0 -283 -4 -289q-2 -8 -14 -14q-6 -2 -19 -2q-31 4 -43 27l-2 8v278q0 283 -2 293 q-8 70 -49 122t-108 73q-47 12 -81 12h-9q-47 -4 -82 -20q-51 -25 -86 -72q-59 -76 -80 -186q-6 -33 -8 -283q0 -229 -3 -236q-6 -8 -16 -14q-4 -2 -16 -2q-33 4 -45 27z" />
<glyph unicode="i" horiz-adv-x="346" d="M104.5 1285.5q7.5 27.5 34.5 37.5q16 4 23 4q35 0 57 -22q20 -20 21.5 -50t-19.5 -49q-14 -16 -39 -16q-35 0 -57 20q-14 18 -14 21q-14 27 -6.5 54.5zM129 35v411q0 414 4 420.5t14 12.5q4 2 16.5 2t20.5 -2q18 -12 25 -23l2 -6v-414q0 -414 -2 -420q-2 -8 -14 -14 q-6 -2 -19 -2q-31 4 -43 27z" />
<glyph unicode="j" horiz-adv-x="458" d="M-113 -172q0 16 17 27q6 2 18 2q20 -2 35 -15q10 -10 16 -35q23 -88 66 -120q14 -10 33 -15q23 -4 39 11q49 33 73 131q12 37 23 120q2 12 2 474q0 453 4 460t14 13q12 8 37 -2q16 -6 25 -23l2 -6v-459q0 -463 -2 -475q-14 -133 -51 -205q-20 -41 -45 -65 q-14 -16 -43 -33q-23 -10 -50 -10q-102 0 -159 92q-27 41 -35 74q-18 47 -19 59zM184 1285.5q8 27.5 35 39.5q16 4 23 4q31 0 57 -22q20 -20 21.5 -50t-19.5 -51q-16 -16 -39 -16q-31 0 -57 22q-10 10 -15 19q-14 27 -6 54.5z" />
<glyph unicode="k" d="M111 35v682q0 682 2 688q6 8 16 14t37 -2q14 -6 22 -20l5 -6v-525l2 -522l270 266q270 266 276 269q6 4 19 4q20 -2 35 -15q16 -16 10 -37q-2 -4 -139 -141l-140 -135q2 0 154 -256q154 -258 154 -260q6 -18 -7 -31q-2 -2 -10 -6q-4 -2 -16 -2q-23 4 -33 14 q-4 2 -152 246l-143 244l-35 -35q-8 -6 -29.5 -27.5t-54 -53.5t-55.5 -54l-106 -105v-104q0 -102 -3 -109q-6 -8 -16 -14q-4 -2 -16 -2q-33 4 -45 27z" />
<glyph unicode="l" horiz-adv-x="346" d="M131 35v682q0 682 2 688q6 8 16.5 14t36.5 -2q18 -12 25 -22l2 -6v-684q0 -682 -2 -689q-6 -8 -16 -14q-4 -2 -17 -2q-33 4 -45 27z" />
<glyph unicode="m" horiz-adv-x="1337" d="M111 35v411q0 414 2 420q8 9 16 13q12 8 37 0q18 -12 24 -23q2 -6 3 -51v-45l10 12q45 61 102 88q20 10 53 19q20 4 44 4t51 -4q96 -18 163 -82q37 -37 56 -74l8 -16l8 16q47 86 113 125q25 16 57 26q27 8 68 9q102 -6 178 -62q23 -16 51 -49q39 -49 59 -119 q8 -35 11 -180v-160q0 -291 -2 -297q-6 -10 -17 -14q-4 -2 -16 -2q-35 4 -43 25l-2 6l-2 291v129q-2 174 -8 198q-2 2 -2 4q-27 96 -107 138q-43 22 -83 22h-3q-25 0 -55 -8q-37 -14 -68 -47q-86 -82 -102 -242q-6 -39 -6 -276q0 -217 -2 -224q-6 -8 -17 -14q-4 -2 -16 -2 q-35 4 -43 25l-2 6l-2 291v129q-2 174 -9 198q-2 2 -2 4q-27 96 -106 138q-43 22 -83 22h-3q-25 0 -55 -8q-37 -14 -68 -47q-86 -82 -102 -242q-6 -39 -6 -276q0 -217 -3 -224q-6 -8 -16 -14q-4 -2 -16 -2q-33 4 -45 27z" />
<glyph unicode="n" d="M111 35v411q0 414 2 420q8 9 16 13q12 8 37 0q18 -12 24 -23q2 -6 3 -59v-54l10 13q43 55 80 78q45 31 104 45q12 2 51 2t51 -2q123 -18 197 -93q39 -37 64 -84q23 -47 28 -100q2 -8 2 -297q0 -283 -4 -289q-2 -8 -14 -14q-6 -2 -19 -2q-31 4 -43 27l-2 8v278 q0 283 -2 293q-8 70 -49 122t-108 73q-47 12 -81 12h-9q-47 -4 -82 -20q-51 -25 -86 -72q-59 -76 -80 -186q-6 -33 -8 -283q0 -229 -3 -236q-6 -8 -16 -14q-4 -2 -16 -2q-33 4 -45 27z" />
<glyph unicode="o" d="M68 462q0 75 2 93q12 70 39 127q33 59 75 102q39 35 90 62q58 29 121 35q2 0 18.5 1t28.5 1q53 -2 90 -13q84 -23 148 -73q41 -35 57 -58q72 -96 82 -217q2 -29 2 -102.5t-2 -91.5q-12 -72 -39 -125q-49 -98 -129 -148q-59 -35 -110 -45q-33 -8 -86 -8q-63 0 -99 10 q-84 23 -145 72q-29 20 -59 57q-72 98 -82 219q-2 27 -2 102zM152 336q18 -115 86 -182q63 -70 155 -82q20 -4 41 -4l41 4q98 14 168 82q23 23 41 49q41 61 53 145v101v98q-18 113 -86 182q-63 68 -155 80q-16 4 -66 4q-109 -12 -184 -84q-23 -23 -41 -49q-41 -61 -53 -145 v-99v-100z" />
<glyph unicode="p" d="M111 248q0 614 2 618q6 8 16 14.5t37 -1.5q18 -6 24 -21q2 -8 3 -47v-39l18 16q41 39 90 62q45 23 107 31q12 2 48 2t48 -2q123 -18 207 -105q88 -90 108 -229q2 -16 3 -94v-46q0 -40 -1 -57q-12 -158 -116 -258q-37 -33 -84 -57q-43 -23 -93 -31q-26 -2 -53 -2l-53 2 q-98 16 -158 59q-23 12 -53 43l-18 17v-248q0 -250 -3 -256q-6 -8 -16 -14q-4 -2 -16 -2q-33 4 -45 26l-2 9v610zM195 436q0 -145 8 -172q33 -137 168 -180q40 -14 77 -14q13 0 25 2q47 2 94 22q55 25 97 76q68 82 75 199q1 17 1 54v41q-1 71 -3 87q-18 119 -84 186 q-65 70 -155 76q-16 2 -32 2q-68 0 -130 -35q-35 -16 -72 -53q-53 -57 -69 -147v-144z" />
<glyph unicode="q" d="M68 432q0 76 2 105q12 158 114 256q41 39 105 65q39 19 88 25q12 2 47 0t49 -4q88 -12 154 -58q25 -14 53 -43l16 -16v49q0 51 4 55q2 8 15 15q6 2 18 2q29 0 43 -25l2 -8v-612q0 -612 -2 -619q-2 -8 -14 -14q-6 -2 -19 -2q-31 4 -43 26l-4 9v237v238l-16 -17 q-39 -37 -92 -61q-45 -20 -105 -31q-12 -2 -49 -2t-47 2q-125 18 -209 105q-88 90 -108 229q-2 18 -2 94zM150 420.5q0 -68.5 2 -86.5q14 -94 63 -162q68 -90 178 -100q12 -1 23 -1q66 0 131 29q27 12 55 35q78 68 92 170q2 14 2 143.5t-2 143.5q-8 37 -24 82 q-61 127 -211 139q-15 2 -31 2q-66 0 -129 -35q-41 -25 -74 -65q-68 -84 -73 -199q-2 -27 -2 -95.5z" />
<glyph unicode="r" horiz-adv-x="724" d="M111 35v411q0 414 2 420q8 9 16 13q4 4 16 4q20 -2 35 -15q10 -10 13 -71l2 -56l8 15q29 39 59 61q59 45 115 57q35 9 69 8q45 0 89 -14q115 -39 149 -145q12 -36 12 -57q0 -13 -4 -21q-8 -16 -28 -16q-25 0 -41 16q-10 14 -11 31q0 23 -14 59q-20 41 -63 63 q-34 17 -73 16q-11 0 -22 -1q-68 -12 -118 -53q-102 -80 -123 -250q-6 -37 -6 -272q0 -215 -3 -222q-6 -8 -16 -14q-4 -2 -16 -2q-33 4 -45 27z" />
<glyph unicode="s" horiz-adv-x="780" d="M70 240q10 16 28 16q25 0 41 -16q10 -10 11 -31q6 -72 90 -113q61 -30 130 -30q50 0 103 16q43 10 84 39q61 47 69 115q1 9 0 18q0 58 -44 104q-37 35 -86 50q-37 14 -105 16q-49 0 -88 8q-160 33 -215 146q-22 42 -22 83q0 55 40 107q16 27 52 51q33 25 84 43 q55 17 92 19q20 2 43 2t49 -2q106 -10 180 -56q90 -53 90 -131q0 -20 -18 -28q-25 -14 -55 12q-8 10 -9 29q-6 47 -65 75q-49 25 -123 31q-15 1 -28 1q-90 0 -152 -34q-43 -20 -68 -53q-30 -43 -31 -83q0 -47 43 -89q43 -39 115 -55q20 -6 80 -8q80 -2 131 -21 q80 -27 129 -80q37 -39 51 -82q13 -36 13 -71q0 -62 -41 -121q-16 -23 -47 -49q-66 -49 -148 -62q-35 -6 -72 -6t-77 6q-86 10 -150.5 52t-91.5 102q-16 36 -16 59q0 12 4 21z" />
<glyph unicode="t" horiz-adv-x="569" d="M14 866q8 8 17 13q4 4 94 4h90v176q0 178 2 184q4 6 14 12q16 8 37 0q18 -8 25 -22l4 -6v-172v-172h102h107l6 -4q16 -8 23.5 -22.5t1.5 -27.5q-4 -6 -15 -12q-6 -4 -114 -4h-111v-395q0 -395 -4 -402q-2 -8 -14 -14q-6 -2 -19 -2q-31 4 -43 27l-2 8v389v389h-84l-84 2 l-8 2q-39 20 -25 49z" />
<glyph unicode="u" d="M111 575q0 285 2 291q8 9 16 13q12 8 37 0q18 -12 24 -23l3 -6v-281q0 -285 2 -293q16 -150 155 -194q41 -14 94 -14q49 8 82 22q49 29 84 72q61 78 80 186q6 33 8 283q0 229 2 235q4 6 15 13q6 4 18 4q29 -4 43 -27l4 -6v-414q0 -414 -4 -420q-2 -8 -14 -14 q-6 -2 -19 -2q-31 4 -43 27q-2 6 -2 59v51l-10 -12q-39 -51 -80 -78q-55 -35 -104 -43q-14 -2 -51 -2h-52q-119 18 -198 94q-39 39 -62 84q-23 47 -28 101q-2 8 -2 294z" />
<glyph unicode="v" horiz-adv-x="868" d="M53 852q1 19 19 27q4 4 16 4q33 -2 49 -37q0 -4 19.5 -50t57.5 -138.5t71 -172.5l145 -344l10 23q10 25 35 84t43 102q72 168 152 365q66 156 67.5 157.5t10.5 6.5q6 4 18 4q20 -2 35 -15q12 -12 12 -26q-10 -31 -172 -416q-35 -84 -82 -197.5t-67 -162.5l-21 -52 q-2 -4 -14 -12q-6 -2 -19 -2q-4 0 -10 1t-8 3q-12 6 -25 19q0 2 -172 413q-166 403 -170 416z" />
<glyph unicode="w" horiz-adv-x="1280" d="M53 854q1 19 19 25q12 8 37 0q14 -6 20 -21q2 0 119 -350l117 -346l2 6q0 4 116 350q115 346 121 352q0 4 10 9q6 4 19 4q29 -4 41 -23q2 -4 119 -350q115 -344 114 -348q53 158 119 350q117 350 119 354q4 6 14 13q6 4 19 4q4 0 9 -1t9 -3q27 -14 27 -37 q0 -6 -137.5 -416t-141.5 -416q0 -2 -4 -4t-6 -4q-6 -2 -19 -2q-23 2 -36 16l-7 9l-116 346l-115 348q-53 -160 -119 -352q-94 -279 -107.5 -319t-23.5 -46q-10 -5 -20 -5q-20 0 -39 21q-4 8 -141.5 419t-137.5 417z" />
<glyph unicode="x" horiz-adv-x="868" d="M55 51q4 4 164 205l162 205q-68 86 -150 188q-152 190 -151 193q-10 18 4 32l4 3q4 2 6 2q4 4 19 4q23 -4 30 -13q0 -2 19.5 -24.5t56.5 -68.5t70 -87q139 -172 141 -172l16 23q18 23 57.5 70.5t69.5 86.5q125 156 138.5 170.5t29.5 14.5q16 -2 35 -15q18 -18 10 -37 l-20 -24q-20 -27 -58 -74t-75 -92l-152 -190q74 -92 164 -203q160 -203 164 -209q6 -18 -6 -31q-2 -2 -10 -6q-4 -2 -17 -2q-23 2 -37 14q0 2 -153 193q-35 45 -58.5 73.5t-41 50t-26.5 34t-15.5 18.5t-8.5 6l-2 2l-155 -192q-131 -162 -146.5 -180.5t-32.5 -18.5 q-20 2 -34 14q-18 18 -11 37z" />
<glyph unicode="y" d="M111 578q0 285 2 288q6 8 16 14.5t37 -1.5q18 -6 24 -21l3 -8v-279q0 -285 2 -295q8 -70 49 -121t106 -71q40 -15 78 -15q8 0 16 1q47 4 82 22q49 29 84 70q61 80 80 188q6 33 8 283q0 229 2 233q2 8 15 15q6 2 18 2q29 0 43 -25l4 -8v-438q0 -446 -2 -459 q-10 -94 -45 -166q-27 -55 -71 -100q-27 -27 -80 -56q-47 -20 -95 -26q-13 -3 -35 -3t-51 3q-131 23 -215 106q-39 39 -65 90q-12 27 -6 37q2 10 14 17q6 2 18 2q31 -2 50 -37q37 -78 120 -121q58 -28 115 -28l21 1q55 6 100 33q39 25 63 55q59 72 78 187q2 14 4 106v86 l-10 -12q-39 -51 -80 -78q-47 -33 -104 -43q-14 -4 -51 -4q-39 0 -52 2q-119 18 -198 92q-37 37 -62 86q-23 45 -28 101q-2 6 -2 295z" />
<glyph unicode="z" horiz-adv-x="868" d="M55 51q137 172 303 381l304 381h-273l-272 2l-8 2q-39 20 -25 49q8 9 16 13l4 4h322h322l8 -4q16 -8 23 -22.5t1 -25.5q0 -2 -303 -382l-303 -379l301 -2h301l8 -5q16 -6 23.5 -20t1.5 -27q-6 -8 -16 -14l-5 -2h-350l-350 2l-8 2q-39 18 -25 47z" />
<glyph unicode="}" horiz-adv-x="780" d="M168 1090q-4 14 27 81q14 29 43 91q16 35 35.5 72.5t29.5 58.5l10 20q2 0 4 2q5 4 7 4q4 2 18 2q18 0 35 -12q12 -12 12 -29q-4 -10 -74 -155l-73 -152q-8 -4 -11 -8q-6 -2 -18 -2q-31 4 -45 27zM446 1090q-4 14 27 81q14 29 43 91q16 35 35.5 72.5t30.5 58.5l10 20 q2 0 4 2q4 4 6 4q4 2 19 2q18 0 34 -12q12 -12 13 -29q-4 -10 -74 -155l-74 -152q-8 -4 -10 -8q-6 -2 -18 -2q-31 4 -46 27z" />
<glyph unicode="~" horiz-adv-x="780" d="M53 1071q0 4 3 17.5t6.5 32t5.5 28.5q33 109 82 147q24 19 61 31q8 2 30.5 1t34.5 -3q78 -12 127 -94q6 -10 25 -45q23 -57 61 -80q10 -4 25 -4q27 0 49 14q43 33 74 168q0 6 2 12.5t4 10.5v6q2 4 14 12q6 4 19 4q2 0 9 -1t9 -3q29 -14 29 -37q0 -10 -16 -76 q-29 -109 -82 -149q-25 -18 -50 -25q-12 -4 -36 -6q-29 0 -41 2q-78 18 -127 94q-12 25 -23 48q-23 57 -63 79q-8 4 -25 5q-29 0 -47 -17q-47 -35 -74 -166q0 -6 -2 -13t-3 -11t-1 -6q-8 -8 -16 -13q-4 -2 -17 -2q-4 0 -10 1t-10 3q-27 12 -27 35z" />
<glyph unicode="&#xa1;" horiz-adv-x="1224" d="M113 51l225 338l225 334q0 2 -209 315l-213 320q-12 25 15 39q4 2 18 2q18 0 33 -13q0 -2 22.5 -34.5t74.5 -110.5t106 -156q84 -125 141 -209.5t57 -82.5q90 133 201 297q201 297 201 301q4 0 10 6q6 2 18 2q18 0 35 -13q20 -20 8 -40q0 -2 -26.5 -41t-85 -126 t-101.5 -153l-211 -311l226 -332q225 -338 227 -340q6 -16 0 -27q-2 -8 -14 -14q-6 -2 -19 -2q-20 2 -33 12q0 2 -24.5 38t-79.5 116t-113 168q-211 315 -213 315q-96 -143 -213 -317l-215 -322q-8 -4 -10 -8q-6 -2 -18 -2q-20 2 -35 14q-18 18 -10 37z" />
<glyph unicode="&#xa3;" horiz-adv-x="1447" d="M113 51q6 10 16 15l4 2h164h164l-86 98q-102 119 -115 135q-115 156 -139 338q-8 43 -8 117q0 72 6 114q20 166 110 308q90 135 224 200q110 54 221 62h106q109 -16 195 -58q49 -27 94 -57q215 -162 260 -459q14 -119 2 -215t-51 -194q-29 -70 -78 -146 q-20 -27 -125 -147l-82 -94q0 -2 154 -2h154l6 -5q16 -6 23 -20t1 -27q-2 -8 -14 -14l-6 -2h-205l-205 2l-8 2q-39 18 -25 47q51 59 111 129q113 127 123 142q49 59 78 122q96 195 65 426q-29 186 -133 316q-131 162 -334 184q-14 2 -47 2t-47 -2q-143 -14 -254 -98 q-76 -55 -129 -137q-90 -135 -108 -328q-2 -20 -2 -63.5t2 -57.5q18 -190 118 -336q14 -23 148 -176q115 -129 114 -133q10 -18 -4 -33q-2 -2 -10 -6l-6 -2h-205l-205 2l-8 2q-39 18 -24 47z" />
<glyph unicode="&#xa7;" horiz-adv-x="1001" d="M55 866q9 9 17 13l4 4h418h417l7 -4q16 -8 23 -22.5t1 -27.5q-4 -6 -14 -12q-6 -4 -99 -4h-94v-395q0 -395 -4 -402q-2 -8 -14 -14q-6 -2 -19 -2q-31 4 -43 27l-2 8v389v389h-153h-154v-395q0 -395 -4 -402q-2 -8 -14 -14q-6 -2 -19 -2q-31 4 -43 27l-2 8v389v389h-88 l-88 2l-8 2q-39 20 -25 49z" />
<glyph unicode="&#xab;" horiz-adv-x="780" d="M231 1122q8 8 186.5 151.5t182.5 145.5t18 2q16 0 35 -12q27 -27 2 -47q-8 -8 -185 -150.5t-183 -146.5q-6 -2 -19 -2q-20 2 -35 14q-27 23 -2 45z" />
<glyph unicode="&#xad;" horiz-adv-x="780" d="M153.5 1285.5q7.5 27.5 34.5 37.5q8 4 23 4q35 0 57 -20q20 -20 21.5 -50t-19.5 -51q-16 -16 -39 -16q-35 0 -57 22q-12 12 -14 19q-14 27 -6.5 54.5zM489.5 1285.5q7.5 27.5 32.5 37.5q8 4 23 4q35 0 57 -20q23 -23 23 -51.5t-21 -49.5q-16 -16 -39 -16q-35 0 -57 22 q-6 6 -14 19q-12 27 -4.5 54.5z" />
<glyph unicode="&#xbb;" horiz-adv-x="780" d="M57 1380q-12 25 15 39q4 2 16 2q18 0 30.5 -11t131.5 -128l133 -131l29 29q8 6 27.5 25.5t52 51t55.5 54.5q106 106 110 108q6 2 19 2q20 0 35 -12q16 -20 8 -37q-2 -6 -150.5 -153.5t-156.5 -153.5q-6 -2 -19 -2q-18 2 -37.5 18.5t-144.5 141.5q-154 156 -154 157z" />
<glyph unicode="&#xbf;" horiz-adv-x="1447" d="M55 1382q7 9 17 15q18 10 65 -6q70 -31 111 -136q41 -109 53 -254q0 -47 2 -77q2 -84 14 -133q27 -102 101 -183q100 -100 254 -116l10 -3v445q0 444 2 448q2 8 14 15q6 2 19 2q29 0 43 -25l4 -8v-438v-436l16 2q96 16 160 57q106 61 158 172q43 86 43 205q0 231 71 375 q33 63 76 83q25 12 53 13q20 0 37 -13q18 -16 11 -34.5t-29 -20.5q-18 -2 -31 -12q-25 -18 -45 -64q-61 -135 -61 -346q0 -123 -49 -221q-33 -72 -95 -133q-61 -59 -147 -96q-78 -31 -150 -35q-2 0 -8 -2q-6 0 -8 -2h-2v-199q0 -199 -4 -205q-2 -8 -15 -14q-6 -2 -18 -2 q-33 4 -41 25l-4 6v196v197h-4q-25 0 -57 8q-127 27 -220 100q-37 27 -63 64q-86 100 -109 227q-6 27 -8 105q-2 31 -2 78q-12 143 -49 237q-20 53 -41 74q-12 12 -29 14q-27 4 -37 19q-16 12 -8 32z" />
<glyph unicode="&#xc0;" horiz-adv-x="1558" d="M111 1380q0 -2 2 4q6 9 16 15l4 2h641h641l6 -4q27 -12 27 -35q0 -6 -315 -698q-315 -690 -320 -695l-2 -2l-6 -6q-8 -2 -21 -2q-20 2 -34 14q-4 4 -322 699q-319 700 -317 708zM209 1331l567 -1239l142 305q141 307 283.5 617.5t144.5 314.5q0 4 -570 4q-567 0 -567 -2z " />
<glyph unicode="&#xc1;" horiz-adv-x="2004" d="M2 -72q6 11 16 15l5 2h974h973l6 -4q16 -6 23.5 -20.5t1.5 -26.5q-2 -8 -14 -15l-7 -2h-972l-973 2l-8 2q-39 18 -25 47z" />
<glyph unicode="&#xc2;" horiz-adv-x="557" d="M154 1405q6 8 16 14q4 2 16 2q18 0 35 -12q8 -8 10 -24.5t11 -147.5q8 -156 0 -164l-4 -4q-4 -2 -7 -4q-6 -2 -18 -2q-20 2 -35 14q-8 8 -10 23.5t-10 146.5q-6 152 -4 158zM365 1405q6 8 16 14q4 2 18 2q20 0 33 -12q10 -10 12 -28.5t9 -143.5q8 -156 0 -164l-2 -4 q-4 -2 -7 -4q-8 -2 -20 -2q-23 4 -33 14l-2 2q-10 10 -18 168q-8 152 -6 158z" />
<glyph unicode="&#xc3;" horiz-adv-x="557" d="M365 1405q6 8 16 14q4 2 16 2q20 0 35 -12q8 -8 10 -24.5t11 -147.5q8 -156 0 -164l-4 -4q-4 -2 -7 -4q-6 -2 -18 -2q-20 2 -35 14q-8 8 -10 23.5t-10 146.5q-6 152 -4 158z" />
<glyph unicode="&#xc4;" horiz-adv-x="290" d="M-60 -188.5q1 26.5 3 38.5q20 92 125 177q35 29 53 39q12 4 16 4q25 0 41 -17q23 -25 0 -43q-2 -2 -18 -14q-70 -51 -101 -92q-63 -88 -24 -168q18 -37 49 -51q39 -20 78 -9q31 12 65 60q12 16 17 20q2 6 12 11q4 4 18 4q4 0 10.5 -1t8.5 -3q29 -14 29 -37q0 -8 -21 -37 q-45 -59 -90 -78q-18 -10 -49 -12q-82 -2 -144.5 46t-76.5 124q-2 12 -1 38.5z" />
<glyph unicode="&#xc5;" horiz-adv-x="1558" d="M168 530q8 9 16 13l4 4h584h584l8 -4q39 -20 25 -49q-8 -8 -17 -13l-4 -4h-584l-583 2l-8 2q-39 20 -25 49zM712.5 165.5q7.5 27.5 32.5 37.5q8 4 23 4q35 0 57 -21q23 -23 23 -51.5t-21 -48.5q-16 -16 -39 -16q-35 0 -57 22q-6 6 -14 19q-12 27 -4.5 54.5zM712.5 931.5 q7.5 27.5 32.5 37.5q8 4 23 4q35 0 57 -21q23 -23 23 -51.5t-21 -48.5q-16 -16 -39 -16q-35 0 -57 22q-6 6 -14 19q-12 27 -4.5 54.5z" />
<glyph unicode="&#xff;" horiz-adv-x="1224" d="M166 35v672q0 672 2 675q6 9 16 15l4 2h275h291q154 -16 254 -119q82 -86 102 -217q4 -41 0 -78q-6 -76 -49 -133q-63 -102 -213 -164q-80 -33 -168 -43q-47 -6 -242 -8h-190v-307q0 -307 -2 -314q-6 -8 -17 -14q-4 -2 -16 -2q-33 4 -45 27zM248 707h172q178 0 225 6 q127 16 203 59q193 100 180 275q-12 184 -160 253q-49 21 -90 29q-33 0 -272 2h-258v-313v-311z" />
<glyph unicode="&#x178;" horiz-adv-x="569" d="M209 530q0 330 2 336q8 9 16 13q12 8 37 0q14 -6 23 -21l4 -6v-328l2 -327l2 -19q10 -68 39 -96q6 -10 12 -10q4 -4 16 -2q35 6 62 32q39 39 61 125q6 16 19 25q6 2 18 2q4 0 10.5 -1t10.5 -3q27 -10 26 -35q0 -23 -30 -92q-27 -49 -58 -78q-14 -16 -43 -31 q-25 -12 -59 -14q-55 -2 -103 41q-49 51 -63 141l-2 19z" />
<glyph unicode="&#x2000;" horiz-adv-x="769" />
<glyph unicode="&#x2001;" horiz-adv-x="1538" />
<glyph unicode="&#x2002;" horiz-adv-x="769" />
<glyph unicode="&#x2003;" horiz-adv-x="1538" />
<glyph unicode="&#x2004;" horiz-adv-x="512" />
<glyph unicode="&#x2005;" horiz-adv-x="384" />
<glyph unicode="&#x2006;" horiz-adv-x="256" />
<glyph unicode="&#x2007;" horiz-adv-x="256" />
<glyph unicode="&#x2008;" horiz-adv-x="192" />
<glyph unicode="&#x2009;" horiz-adv-x="307" />
<glyph unicode="&#x200a;" horiz-adv-x="85" />
<glyph unicode="&#x2010;" horiz-adv-x="667" d="M23 459q6 8 16 14l4 2h238h239l6 -4q16 -6 23.5 -20.5t1.5 -26.5q-2 -8 -14 -14l-7 -2h-237l-238 2l-8 2q-39 18 -24 47z" />
<glyph unicode="&#x2011;" horiz-adv-x="667" d="M23 459q6 8 16 14l4 2h238h239l6 -4q16 -6 23.5 -20.5t1.5 -26.5q-2 -8 -14 -14l-7 -2h-237l-238 2l-8 2q-39 18 -24 47z" />
<glyph unicode="&#x2012;" horiz-adv-x="667" d="M23 459q6 8 16 14l4 2h238h239l6 -4q16 -6 23.5 -20.5t1.5 -26.5q-2 -8 -14 -14l-7 -2h-237l-238 2l-8 2q-39 18 -24 47z" />
<glyph unicode="&#x2013;" horiz-adv-x="780" d="M82 1378q0 23 2 27q6 8 16 14q4 2 17 2q18 0 35 -12q12 -12 12 -37q10 -164 129 -221q49 -25 102 -18q76 8 131 55q80 70 86 194q0 31 17 37q6 2 18 2q31 0 43 -26q4 -6 4 -29q-6 -80 -35 -137q-43 -86 -110 -123q-55 -35 -121 -41q-29 -6 -78 0q-115 18 -192 109 q-70 86 -76 204z" />
<glyph unicode="&#x2014;" horiz-adv-x="780" d="M55 1149q7 8 17 14l4 2h307h305l6 -4q16 -6 23.5 -20.5t1.5 -26.5q-2 -8 -14 -14l-7 -2h-305l-305 2l-8 2q-39 18 -25 47z" />
<glyph unicode="&#x2018;" horiz-adv-x="557" d="M141 1133q-8 27 2 73q12 80 56 140q34 46 77 69q8 6 23 6q4 0 10 -1t8 -3q39 -18 25 -47q-2 -6 -20 -20q-80 -49 -99 -164v-64q0 -2 6 2q2 2 15 9q10 4 22 4q35 0 58 -21q6 -8 14 -20q12 -27 4 -54.5t-33 -37.5q-10 -4 -24 -5q-55 0 -99 39q-39 39 -45 95z" />
<glyph unicode="&#x2019;" horiz-adv-x="557" d="M208.5 1368.5q4.5 34.5 37.5 48.5l10 4h18q41 -2 76 -24q23 -16 39 -39q18 -25 27 -70q4 -20 -2 -71q-16 -96 -66 -154q-31 -37 -67 -57l-13 -7h-12q-20 2 -35 15q-18 18 -10 37q6 8 18 16q12 6 21 14q84 63 84 193v24l-2 5l-6 -7q-2 0 -4 -2q-8 -4 -13 -6q-8 -4 -20 -4 q-35 0 -58 21q-27 29 -22.5 63.5z" />
<glyph unicode="&#x201c;" horiz-adv-x="346" d="M131 35v411q0 414 2 420q9 9 17 13q12 8 36 0q18 -12 25 -23l2 -6v-414q0 -414 -2 -420q-6 -8 -16 -14q-4 -2 -17 -2q-33 4 -45 27z" />
<glyph unicode="&#x201d;" horiz-adv-x="458" d="M-113 -172q0 16 17 27q6 2 18 2q20 -2 35 -15q10 -10 16 -35q23 -88 66 -120q14 -10 33 -15q23 -4 39 11q49 33 73 131q12 37 23 120q2 12 2 474q0 453 4 460t14 13q12 8 37 -2q16 -6 25 -23l2 -6v-459q0 -463 -2 -475q-14 -133 -51 -205q-20 -41 -45 -65 q-14 -16 -43 -33q-23 -10 -50 -10q-102 0 -159 92q-27 41 -35 74q-18 47 -19 59z" />
<glyph unicode="&#x201e;" horiz-adv-x="780" d="M166 1391v2q0 16 18 26q4 2 17 2q16 0 35.5 -16t152.5 -143q129 -121 147.5 -140.5t18.5 -29.5q0 -18 -18 -27q-4 -2 -17 -2q-18 2 -38.5 19.5t-149.5 140.5q-66 61 -96.5 90.5t-48 47t-19.5 21.5t-2 9z" />
<glyph unicode="&#x202f;" horiz-adv-x="307" />
<glyph unicode="&#x205f;" horiz-adv-x="384" />
<glyph unicode="&#x25fc;" horiz-adv-x="880" d="M0 0v881h881v-881h-881z" />
<glyph unicode="&#xfb01;" d="M68 463q0 74 2 92q12 74 39 127q33 61 75 102q39 39 90 62q53 27 107 35q16 2 55 1t58 -3q41 -6 79 -21l17 -6l28 59q27 61 31 62q2 4 10 8q10 6 37 -2q18 -12 25 -23q4 -14 -29 -84l-28 -61l16 -12q31 -27 57 -58q72 -96 82 -219q2 -27 2 -100.5t-2 -91.5 q-12 -74 -39 -127q-33 -61 -75 -103q-39 -39 -91 -61q-53 -27 -106 -35q-16 -2 -55 -1t-58 3q-41 6 -80 21l-16 6l-29 -60q-27 -61 -30 -61q-2 -4 -11 -8q-4 -2 -16 -2q-31 4 -45 26q-4 14 29 84l28 62l-2 2q-2 2 -6 5t-6 5q-29 20 -59 57q-72 96 -82 219q-2 27 -2 101z M152 338q18 -113 88 -186l14 -15l4 4q0 2 151.5 326t151.5 326l-4 2q-4 2 -11 5t-15.5 5t-18.5 4t-16 2q-43 6 -66 2q-113 -12 -184 -82q-23 -23 -41 -49q-41 -66 -53 -147v-99v-98zM328 92l12 -6q10 -4 27.5 -8t29.5 -6q39 -4 78 0q102 18 168 82q23 23 41 49q41 66 53 147 v99v98q-16 95 -61 158q-4 4 -14.5 15t-12.5 13l-14 15l-4 -7q-6 -12 -154.5 -329.5t-148.5 -319.5z" />
<glyph unicode="&#xfb02;" horiz-adv-x="1894" d="M113 49q2 4 431 659.5t447 682.5q2 0 4 2q4 4 6 4l7 2h370h369l8 -4q16 -6 23.5 -20.5t1.5 -26.5q-6 -8 -17 -15l-4 -2h-346h-346v-284v-285h283h286l6 -4q39 -18 25 -47q-2 -8 -14 -15l-6 -2h-289h-291v-313v-313h340h340l8 -5q16 -6 23.5 -20t1.5 -27q-6 -10 -17 -14 l-4 -2h-366q-367 0 -375 2q-18 6 -31 25q-2 6 -2 184v176h-276h-277l-123 -188l-123 -189q-8 -4 -10 -8q-6 -2 -18 -2q-20 2 -35 14q-16 16 -10 35zM477 457l254 -2h254v387v383l-254 -385z" />
<glyph unicode="&#xfb03;" horiz-adv-x="1894" d="M111 688q-4 281 114 473q92 154 236 225q92 48 188 56q12 2 46 1t46 -3q109 -18 181 -74q39 -33 59 -57l8 -9v39q0 39 2 43q2 10 15 17l6 2h366h369l8 -4q39 -18 25 -47q-6 -10 -17 -15l-4 -2h-344h-344v-284v-285h283h282l6 -4q16 -8 23.5 -22.5t1.5 -26.5 q-4 -6 -14 -13l-6 -4h-289h-287v-311v-313h338h338l8 -4q39 -18 25 -48q-6 -10 -17 -14l-4 -2h-364q-365 0 -373 2q-18 6 -31 25q-2 6 -2 34v29l-8 -8q-43 -51 -107 -84q-76 -39 -157 -41q-127 -4 -242 55q-135 66 -227 201q-23 37 -51 90q-37 80 -58 162q-27 102 -28 221z M203 838q-45 -324 90 -557q86 -145 217 -209q59 -33 129 -41q47 -8 88 0q86 12 152 67q88 72 106 203q2 12 4 393q0 385 -2 398q-10 125 -88 202q-68 68 -168 80q-39 0 -65 -2q-160 -16 -283 -141q-145 -147 -180 -393z" />
<glyph unicode="&#xfb04;" horiz-adv-x="1337" d="M111 727q2 139 34 250q63 236 222 360q39 35 92 58q74 37 139 45q39 6 96 2q131 -8 246 -92l16 -13l39 74l43 78q1 4 9 8q6 4 20 4q4 0 9 -1t9 -3q18 -10 25 -24q4 -8 0 -20.5t-43 -86.5l-45 -86l4 -6q66 -72 107 -156q96 -188 92 -444q-2 -137 -35 -250 q-66 -238 -221 -358q-37 -33 -92 -60q-63 -33 -140 -45q-61 -6 -96 0q-133 10 -246 90l-16 12l-39 -73l-43 -78l-2 -2l-6 -6q-8 -2 -21 -2q-33 4 -43 26q-4 10 1 22.5t42 84.5l45 86l-4 8q-66 72 -106 156q-96 188 -92 442zM193 715q-6 -313 149 -518l8 -9l2 7 q25 51 285 538.5t285 538.5l2 6l-13 10q-33 25 -75 49q-70 31 -131 37h-48q-55 -4 -114 -24q-117 -47 -197 -152q-25 -29 -53 -76q-94 -172 -100 -407zM412 125l12 -10q70 -57 151 -76q102 -27 222 16q106 37 192 148q29 37 53 78q94 172 101 405q6 297 -133 496 q-2 4 -5.5 8t-6.5 9t-5 7l-8 8l-2 -6q-25 -51 -285 -538q-272 -516 -284 -541z" />
</font>
</defs>
</svg>
