<?xml version="1.0" standalone="no"?>
<!DOCTYPE svg PUBLIC "-//W3C//DTD SVG 1.1//EN" "http://www.w3.org/Graphics/SVG/1.1/DTD/svg11.dtd" >
<svg xmlns="http://www.w3.org/2000/svg" xmlns:xlink="http://www.w3.org/1999/xlink" version="1.1">
<metadata></metadata>
<defs>
<font id="mtdbt2f4d-88" horiz-adv-x="890" >
<font-face units-per-em="2048" ascent="1638" descent="-410" />
<missing-glyph horiz-adv-x="614" />
<glyph unicode="&#x2019;&#x2019;" horiz-adv-x="1001" d="M33 1353.5q0 26.5 10 41.5q4 8 20 28q20 16 29 21q13 8 21 8q23 4 45 0q4 0 20 -8q6 -4 27 -21q12 -14 22 -28l9 -17q12 -8 20 -28q6 -12 16 -45q4 -49 -4 -131q-14 -106 -57 -150q-23 -23 -55.5 -25t-57.5 19q-23 18 -30 49t8 57q25 43 24 111l2 20l-10 5q-14 8 -29 22 q-16 20 -20 27q-10 18 -10 44.5zM422 1353.5q0 26.5 10 41.5q4 8 21 28q20 16 28 21q13 8 21 8q23 4 45 0q4 0 20 -8q6 -4 27 -21q12 -14 22 -28q8 -16 13 -21q23 -27 30 -69q2 -14 1 -60.5t-5 -70.5q-10 -100 -55 -150q-23 -23 -54.5 -25t-58.5 19q-25 18 -30.5 50t8.5 58 q23 35 24 109v20l-10 5q-16 12 -26 22q-16 20 -21 27q-10 18 -10 44.5z" />
<glyph unicode="&#x21;&#x2018;" horiz-adv-x="557" d="M176 956q0 25 10 43q4 10 21 27q14 14 29 23q18 6 20 6q18 6 45 2q12 -6 21 -8q16 -12 26 -23q14 -12 23 -27q8 -18 8 -42.5t-8 -43.5q-8 -14 -23 -26q-10 -10 -26 -23q-25 -10 -43 -10q-23 0 -43 10q-14 8 -29 23q-16 16 -21 26q-10 18 -10 43zM193 151.5 q0 473.5 2 483.5q12 51 63 63q53 14 86 -28q14 -23 16 -35q2 -10 2 -483.5t-2 -483.5q-16 -66 -84 -65q-29 0 -51 18.5t-30 46.5q-2 10 -2 483.5z" />
<glyph unicode="&#x3f;&#x2018;" horiz-adv-x="946" d="M113 29q10 92 69 170q41 55 123 123q14 14 39 34q43 43 59 88q12 23 13 109q0 72 2 82q12 51 63 63q49 14 86 -28q10 -16 17 -35q2 -10 2 -84q0 -80 -2 -88q-12 -109 -105 -211q-25 -29 -76 -70q-117 -100 -122 -174q0 -33 6 -59q14 -59 49 -103q68 -78 170 -73 q25 4 41 12q20 10 43 33q45 47 74 139q12 35 26 49q25 25 59.5 25t59.5 -27q33 -33 22 -80q-8 -43 -38 -106q-84 -174 -224 -205q-74 -18 -158.5 0t-148.5 70q-125 96 -149 264q-6 57 0 82zM399.5 956q-0.5 25 8.5 43q8 14 22 27q10 10 27 23q4 0 11 3t9 3q18 6 45 2 q8 -4 21 -8q14 -8 28 -23q16 -16 21 -27q10 -18 10 -42.5t-10 -43.5q-4 -10 -21 -26q-14 -14 -28 -23q-20 -10 -41 -10t-45 10q-16 12 -27 23q-14 12 -22 26q-8 18 -8.5 43z" />
<glyph unicode="&#x2018;&#x2018;" horiz-adv-x="1001" d="M338 1157q0 141 43 213q20 43 59 49q43 6 72 -16q25 -18 31 -50t-11 -59q-18 -35 -24 -108v-21l12 -4q8 -6 25 -22q10 -10 22 -27q10 -25 11 -43q0 -23 -11 -43q-10 -14 -22 -29q-16 -16 -27 -20q-18 -10 -42.5 -10t-43.5 10q-10 4 -26 20q-6 4 -25 29l-10 21 q-23 27 -31 69q-2 6 -2 41zM727 1157q0 139 47 219q20 37 57 43q55 10 84 -28q35 -45 11 -95q-25 -39 -27 -110l-2 -21l12 -4q16 -12 26.5 -22.5t22.5 -26.5q8 -18 9 -43q0 -27 -9 -43q-10 -14 -22 -29q-20 -16 -27 -20q-18 -10 -43 -10q-27 0 -43 10q-8 4 -28 20 q-14 14 -21 29q-8 16 -10 16q-18 16 -31 54q-6 23 -6 61z" />
<glyph unicode="&#x2d;&#x2d;" horiz-adv-x="1001" d="M2 565q13 52 64 64q8 2 436 2q426 0 434 -2q18 -2 33 -17q45 -31 30 -86q-12 -51 -63 -63q-8 -2 -434 -2t-436 2q-18 6 -33 16q-45 35 -31 86z" />
<glyph unicode="&#x7b;&#x2d;" horiz-adv-x="2004" d="M2 565q13 52 64 64q8 2 935.5 2t937.5 -2q49 -12 62 -64q14 -51 -29 -86q-12 -10 -33 -16q-10 -2 -938 -2q-926 0 -935 2q-18 6 -33 16q-45 35 -31 86z" />
<glyph unicode="ff" horiz-adv-x="1015" d="M2 776q-14 68 45 98q18 8 88 9h60v141q0 147 2 156q4 31 14 59q25 74 87 123t146 57h76q37 -8 82 -26q70 -33 119 -105l6 -10l6 10q59 100 182 127q141 29 252 -65q20 -18 43 -47q33 -43 45 -80q14 -57 -30 -88q-27 -20 -58.5 -18.5t-54.5 24.5q-12 12 -20 28 q-14 27 -25 41q-27 27 -61 37q-29 8 -62 0q-49 -12 -65 -51l-2 -4q-8 -14 -11 -109v-57v-143h88q88 0 99 -4q14 -2 32 -17q45 -31 31 -86q-12 -49 -63 -61q-10 -4 -99 -4h-88v-318q0 -317 -2 -327q-8 -29 -30.5 -47.5t-51 -18.5t-52 18.5t-32.5 47.5q-2 10 -2 327v318h-166 h-163v-318q0 -317 -5 -327q-6 -29 -29.5 -47.5t-52 -18.5t-52 18.5t-29.5 47.5q-4 10 -4 327v318h-60q-59 0 -69 4q-51 12 -64 61zM367 883h163h166v118v119l-8 -4q-47 -8 -76 25q-10 8 -20 28q-20 37 -27 41q-22 27 -59 37q-31 6 -49 2q-59 -10 -80 -53q-10 -23 -10 -170 v-143z" />
<glyph unicode="fl" horiz-adv-x="903" d="M2 776q-14 68 45 98q18 8 88 9h60v151q2 156 4 172q8 45 20 78q33 88 103.5 144.5t162.5 68.5q17 4 21 4q84 0 104 -2q123 -16 195 -67q41 -31 49 -54q8 -8 8 -16l4 -8v-639q0 -639 -2 -649q-8 -29 -30.5 -47.5t-51 -18.5t-52 18.5t-32.5 47.5q-2 10 -2 620v612l-10 7 q-43 23 -111 24q-45 4 -65 0q-57 -8 -95 -48t-48 -101v-156v-141h86q90 0 98 -4q18 -2 33 -17q45 -31 30 -86q-12 -49 -63 -61q-8 -4 -98 -4h-86v-318q0 -317 -5 -327q-6 -29 -29.5 -47.5t-52 -18.5t-52 18.5t-29.5 47.5q-4 10 -4 327v318h-60q-59 0 -69 4q-51 12 -64 61z " />
<glyph unicode="&#xb8;i" horiz-adv-x="1404" d="M2 776q-14 68 45 98q18 8 88 9h60v141q0 147 2 156q4 31 14 59q25 74 87 123t146 57h76q86 -16 146 -69q18 -14 24 -23q16 -16 37 -47l4 -6q0 2 4 6q8 16 33 41q80 86 229 98q33 6 105 0q68 -10 108 -24q53 -23 60 -29q6 -4 16 -4q18 0 39 -10q14 -10 29 -23 q16 -16 20 -26q10 -18 10 -43t-10 -43q-4 -10 -20 -27q-14 -14 -29 -23q-20 -10 -41 -10q-39 0 -67 29q-16 16 -19 20q-12 12 -29 21q-39 16 -77 20q-18 2 -53 2t-50 -2q-63 -12 -98 -43q-14 -16 -17 -22q-6 -14 -6 -17q-2 -4 -2 -145v-137h213q213 0 224 -4q51 -12 63 -62 q2 -10 2 -377q0 -365 -2 -374q-8 -29 -30.5 -47.5t-51.5 -18.5q-68 0 -84 66q-2 10 -2 327v318h-166h-166v-318q0 -317 -2 -327q-8 -29 -30.5 -47.5t-51 -18.5t-52 18.5t-32.5 47.5q-2 10 -2 327v318h-166h-163v-318q0 -317 -5 -327q-6 -29 -29.5 -47.5t-52 -18.5t-52 18.5 t-29.5 47.5q-4 10 -4 327v318h-60q-59 0 -69 4q-51 12 -64 61zM367 883h163h166v118v119l-8 -4q-47 -8 -76 25q-10 8 -20 28q-20 37 -27 41q-22 27 -59 37q-31 6 -49 2q-59 -10 -80 -53q-10 -23 -10 -170v-143z" />
<glyph unicode="&#xb8;l" horiz-adv-x="1404" d="M2 776q-14 68 45 98q18 8 88 9h60v141q0 147 2 156q4 31 14 59q39 125 168 166q88 29 168 6q98 -23 164 -106l10 -17q2 6 6 15q12 29 33 59q84 117 225 135q17 4 21 4q86 0 106 -2q123 -16 193 -67q39 -29 51 -54l8 -16l4 -8v-639q0 -639 -2 -649q-8 -29 -30.5 -47.5 t-51.5 -18.5q-68 0 -84 66q-2 10 -2 620v612l-12 7q-41 23 -109 24q-45 4 -67 0q-57 -8 -95 -48t-47 -101q-2 -10 -2 -156v-141h88q88 0 99 -4q14 -2 32 -17q45 -31 31 -86q-12 -49 -63 -61q-10 -4 -99 -4h-88v-318q0 -317 -2 -327q-8 -29 -30.5 -47.5t-51 -18.5t-52 18.5 t-32.5 47.5q-2 10 -2 327v318h-166h-163v-318q0 -317 -5 -327q-6 -29 -29.5 -47.5t-52 -18.5t-52 18.5t-29.5 47.5q-4 10 -4 327v318h-60q-59 0 -69 4q-51 12 -64 61zM367 883h163h166v118v119l-8 -4q-47 -8 -76 25q-10 8 -20 28q-20 37 -27 41q-22 27 -59 37q-31 6 -49 2 q-59 -10 -80 -53q-10 -23 -10 -170v-143z" />
<glyph horiz-adv-x="0" />
<glyph unicode="&#xd;" horiz-adv-x="681" />
<glyph unicode=" "  horiz-adv-x="614" />
<glyph unicode="&#x09;" horiz-adv-x="614" />
<glyph unicode="&#xa0;" horiz-adv-x="614" />
<glyph unicode="!" horiz-adv-x="557" d="M176 70q0 25 10 43q4 6 21 26q14 14 29 23q18 6 20 6q12 2 45 2q12 -6 21 -8q16 -12 26 -22.5t23 -26.5q8 -18 8 -43q0 -27 -8 -43q-10 -16 -23 -29q-20 -16 -26 -21q-18 -10 -43 -10q-29 0 -43 10q-8 4 -29 21q-16 20 -21 29q-10 16 -10 43zM193 874q0 471 2 482 q12 51 63 63q53 14 86 -28q14 -23 16 -35q2 -10 2 -482q0 -475 -2 -483q-16 -66 -84 -65q-66 0 -81 65q-2 8 -2 483z" />
<glyph unicode="#" horiz-adv-x="1558" d="M113 293q-6 29 6 55.5t39 40.5q20 10 196 10h168v115v113h-168q-176 0 -196 10q-59 29 -45 94q12 51 63 64q10 2 178 2h168v155q0 154 2 164q13 50 64 62q51 14 86 -29q10 -12 16 -33q2 -10 2 -164v-155h88h86v155q0 154 2 164q16 66 84 66q29 0 51.5 -18.5t30.5 -47.5 q2 -10 2 -164v-155h168q168 0 178 -2q49 -12 62 -64q8 -29 -4.5 -55.5t-38.5 -38.5q-20 -10 -199 -10h-166v-113v-115h166q178 0 199 -10q27 -14 39 -42t4 -54q-12 -49 -62 -62q-10 -4 -178 -4h-168v-153q0 -154 -2 -164q-8 -29 -30.5 -47.5t-51.5 -18.5q-68 0 -84 66 q-2 10 -2 164v153h-86h-88v-153q0 -154 -2 -164q-8 -29 -31.5 -47.5t-52 -18.5t-51.5 18.5t-31 47.5q-2 10 -2 164v153h-168q-168 0 -178 4q-51 12 -63 62zM692 399h88h86v115v113h-86h-88v-113v-115z" />
<glyph unicode="$" horiz-adv-x="1001" d="M111 223q-2 41 31.5 68.5t72.5 19.5q41 -12 59 -49q41 -82 134 -115q12 -4 16 -4l2 -2v240v242l-18 6q-49 16 -66 26q-98 47 -155.5 141.5t-53.5 202.5q4 88 37 158q27 51 66 90q72 78 180 105h10v55q0 55 2 63q13 52 64 64q53 14 86 -29q14 -16 16 -35q2 -8 2 -65v-53 l6 -2q70 -16 137 -68q53 -37 84 -72q25 -29 22 -64.5t-32 -58.5q-41 -35 -90 -10q-14 6 -29 23q-47 43 -90 65l-8 4v-211l2 -210l27 -11q51 -16 86 -41q117 -78 160.5 -214t-7.5 -275q-8 -23 -24 -55q-78 -141 -238 -183l-6 -2v-53q0 -53 -2 -64q-16 -66 -84 -65 q-29 0 -51.5 18.5t-30.5 46.5q-2 10 -2 64v53h-8q-41 10 -58 17q-96 33 -163 100q-41 39 -70 92q-14 27 -16 47zM305 1012q-8 -61 20.5 -115.5t86.5 -85.5l12 -8q2 0 2 186.5t-2 186.5q-10 0 -41 -25q-25 -16 -41 -41q-31 -43 -37 -98zM596 356q0 -209 2 -209q8 0 37 23 q49 39 71.5 105.5t8.5 134.5q-18 88 -90 139l-19 12l-10 4v-209z" />
<glyph unicode="%" horiz-adv-x="1337" d="M111.5 981.5q3.5 105.5 33.5 187.5q12 37 33 70q66 107 172 123q49 0 64 -4q94 -18 157 -119q16 -33 33 -70q35 -92 35 -208.5t-35 -206.5q-16 -37 -33 -70q-61 -100 -159 -121q-39 -8 -76 0q-51 10 -100 51q-72 61 -103 174q-25 88 -21.5 193.5zM223 86q0 18 8 39 q4 10 365.5 585.5t366.5 579.5q14 21 45 27q35 12 71 -17q45 -31 31 -86q-4 -14 -6 -16q-8 -14 -368.5 -588.5t-364.5 -578.5q-12 -16 -29 -23q-31 -14 -62.5 -2t-48.5 41q-8 25 -8 39zM285 899q8 -66 32 -115q27 -53 58 -53q8 0 22 10q37 29 54 95q14 51 14 125q0 66 -8 98 q-4 37 -27 78q-20 41 -45 53q-2 0 -6 2h-4q-31 0 -58 -55q-25 -45 -32 -115q-8 -59 0 -123zM721 188q-57 197 10 381q8 18 33 68q72 111 172 123q23 4 65 -2q98 -23 156 -121q23 -35 33 -68q35 -92 35 -208.5t-35 -206.5q-10 -33 -33 -70q-61 -98 -158 -121q-37 -8 -75 0 q-59 12 -101 51q-72 57 -102 174zM870.5 360.5q-0.5 -73.5 14.5 -124.5q18 -70 53 -95q18 -16 35 -8q25 12 45 51q18 33 26 80q8 41 8.5 96.5t-8.5 96.5q-8 47 -26 80q-20 39 -45 51q-8 4 -12 4q-10 0 -23 -12q-35 -25 -53 -95q-14 -51 -14.5 -124.5z" />
<glyph unicode="&#x26;" horiz-adv-x="1337" d="M113 289q-4 47 0 102q18 133 112 258q53 72 103 115q4 4 9 8t8 7l7 7l2 2l2 5l-2 20q-12 72 -18 143q-4 106 0 168q8 53 14 74q25 92 78 150.5t127 70.5q33 4 61 0q84 -18 127 -100q37 -66 35 -158q-2 -68 -26 -139q-16 -45 -43 -96q-53 -92 -146 -178l-18 -19l2 -10 q23 -74 41 -115q14 -39 57 -119q53 -86 62 -86q10 27 20 70q55 195 160 301q102 106 239 113q23 0 33 -4q14 -2 33 -17q27 -20 32 -56t-18 -63q-27 -33 -65 -32q-72 0 -129 -58q-39 -43 -68 -96q-29 -55 -53 -141q-23 -82 -47 -135l-6 -11l16 -10q125 -84 270 -90 q43 0 68 -18q45 -31 31 -86q-12 -51 -64 -64q-10 -2 -39 -2q-190 6 -354 115l-18 12l-17 -16q-94 -90 -205 -109h-49q-55 0 -86 8q-51 8 -94 33q-156 74 -184 246zM283 337.5q0 -28.5 2 -38.5q14 -43 39 -68q27 -33 77 -49q35 -12 78 -12q68 0 125 57l12 13l-12 14 q-47 53 -88 117q-63 102 -104 217l-6 12q-6 -8 -15 -14q-76 -88 -102 -183q-6 -37 -6 -65.5zM506 1051q0 -102 4 -109q0 -4 6 4q2 2 4 6q61 78 80 154q6 33 6 68q0 27 -2 36q-8 27 -16 35q-2 0 -4 3t-4 3q-10 0 -23 -16q-37 -35 -51 -119v-65z" />
<glyph unicode="(" horiz-adv-x="724" d="M139 514q0 113 4 176q27 371 176 631q70 115 142 186q12 12 26 21q19 6 21 6q45 10 77.5 -22.5t22.5 -79.5q-8 -25 -35 -54q-176 -193 -235 -510q-43 -242 -25 -503q14 -266 105 -478q61 -137 155 -241q27 -27 35 -52q16 -66 -45 -98q-39 -16 -76 2q-10 4 -26 21 q-47 47 -94 114q-193 268 -224 701q-4 66 -4 180z" />
<glyph unicode=")" horiz-adv-x="724" d="M121 -387q6 12 24 31q51 57 82 106q158 236 181 615q16 209 -9 409q-31 238 -118 412q-55 111 -136 196q-18 18 -24 33q-18 37 0 76q16 37 57 43q35 8 70 -12q47 -43 106 -129q193 -272 224 -703q6 -63 6 -176q0 -115 -6 -180q-18 -250 -93 -453q-74 -199 -217 -354 q-25 -29 -53 -37q-66 -14 -94 45q-18 37 0 78z" />
<glyph unicode="*" horiz-adv-x="1001" d="M81.5 1298.5q0.5 34.5 27.5 59.5q39 41 92 20q2 0 16 -9t41 -25.5t51 -30.5q23 -12 50.5 -30.5t41.5 -25.5l13 -8v107q0 106 2 117q12 49 63 61q53 14 86 -29q14 -16 17 -32q2 -10 2 -117v-107q4 0 102 62q96 61 111 65q45 25 86 -10q25 -20 31 -51t-11 -60 q-10 -20 -131 -92l-108 -67q49 -29 108 -66q94 -57 108.5 -68.5t22.5 -25.5q37 -61 -20 -109q-41 -35 -86 -10q-6 0 -111 66q-23 14 -49.5 29.5t-38.5 23.5l-14 8v-106q0 -106 -2 -117q-16 -66 -84 -66q-29 0 -51.5 18.5t-30.5 47.5q-2 10 -2 117v106l-13 -6 q-14 -8 -41.5 -26.5t-50.5 -30.5q-86 -55 -108 -66q-51 -23 -92 19q-27 25 -27 59.5t24 58.5q6 6 119 78l109 66q-49 31 -109 67q-104 66 -119 76q-25 25 -24.5 59.5z" />
<glyph unicode="+" horiz-adv-x="1558" d="M113 532q12 51 63 64q10 2 264 2h254v254q0 254 2 264q13 50 64 62q49 14 86 -29q10 -12 16 -33q2 -10 2 -264v-254h254q254 0 264 -2q20 -6 33 -16q43 -35 29 -86q-12 -51 -62 -64q-10 -2 -264 -2h-254v-254q0 -254 -2 -264q-8 -29 -31.5 -47.5t-52 -18.5t-51 18.5 t-31.5 47.5q-2 10 -2 264v254h-254q-254 0 -264 2q-14 2 -33 16q-45 31 -30 86z" />
<glyph unicode="," horiz-adv-x="557" d="M176 71.5q0 26.5 10 41.5q4 8 21 28q20 16 29 21q12 8 20 8q23 4 45 0q4 0 21 -8q6 -4 26 -21q12 -14 23 -28l8 -17q12 -8 20 -28q6 -12 17 -45q4 -49 -4 -132q-14 -106 -58 -149q-23 -23 -55.5 -25t-56.5 19q-23 18 -30 49t7 57q25 43 25 111l2 20l-10 4q-14 8 -29 23 q-16 20 -21 27q-10 18 -10 44.5z" />
<glyph unicode="-" horiz-adv-x="667" d="M23 461q12 51 63 63q8 2 200.5 2t202.5 -2q49 -12 62 -63q14 -51 -29 -86q-12 -10 -33 -17q-10 -2 -202 -2q-190 0 -201 2q-18 6 -33 17q-45 35 -30 86z" />
<glyph unicode="." horiz-adv-x="557" d="M176 70q0 25 10 43q4 6 21 26q14 14 29 23q18 6 20 6q12 2 45 2q12 -6 21 -8q16 -12 26 -22.5t23 -26.5q8 -18 8 -43q0 -27 -8 -43q-10 -16 -23 -29q-20 -16 -26 -21q-18 -10 -43 -10q-29 0 -43 10q-8 4 -29 21q-16 20 -21 29q-10 16 -10 43z" />
<glyph unicode="/" horiz-adv-x="1001" d="M113 -412q2 10 309 953.5t309 947.5q16 35 57 45q51 14 84 -29q25 -37 19 -69q0 -2 -64.5 -200t-154.5 -475.5t-180.5 -556t-154 -473t-65.5 -196.5q-14 -29 -43 -41q-31 -12 -62.5 -1t-46 42t-7.5 53z" />
<glyph unicode="0" horiz-adv-x="946" d="M111 662q0 367 8 409q29 152 153 232q66 45 164 59h70q98 -12 168 -59q123 -82 151 -232q8 -43 9 -409q0 -369 -9 -410q-29 -150 -151 -234q-90 -59 -202 -59t-200 59q-125 84 -153 234q-8 41 -8 410zM281 660.5q0 -341.5 2 -353.5q8 -70 47 -115t102 -59q39 -8 80 0 q90 18 131 103q16 35 19 71q2 12 2 353t-2 356q-6 68 -46.5 113t-103.5 59q-41 6 -63 2q-102 -12 -148 -105q-16 -35 -18 -69q-2 -14 -2 -355.5z" />
<glyph unicode="1" horiz-adv-x="946" d="M174 915q2 4 140.5 205t146.5 211q16 21 45 27q53 14 86 -29q14 -16 16 -33q2 -10 2 -616q0 -604 -2 -614q-12 -51 -63 -64q-31 -8 -60.5 8.5t-40.5 48.5l-2 11l-2 465v466l-59 -86q-61 -88 -66 -92q-31 -39 -82 -28q-39 8 -57 46t-2 74z" />
<glyph unicode="2" horiz-adv-x="946" d="M113 66q-6 33 8 61q2 2 158 207q121 160 180 235q125 164 170 277q59 139 14 239q-43 82 -131 101q-41 8 -80 0q-109 -23 -139 -127q-12 -31 -12 -70q0 -31 -17.5 -53.5t-48.5 -28.5q-33 -8 -63.5 11.5t-38.5 54.5q-12 47 16 131q37 129 143 196q72 50 164 60q35 4 70 0 q92 -10 168 -60q123 -82 151 -231q39 -186 -114 -436q-49 -78 -248 -338l-94 -123l198 -2q199 0 205 -2q12 -4 29 -16q45 -31 30 -86q-12 -51 -63 -64q-8 -2 -295 -2t-297 2q-51 12 -63 64z" />
<glyph unicode="3" horiz-adv-x="946" d="M111 217q-2 41 31.5 68.5t72.5 19.5q39 -10 61 -53q16 -33 41 -57q27 -27 58 -41q98 -51 188 -2q86 47 99 155q2 10 2 113.5t-2 116.5q-6 68 -46.5 112.5t-103.5 59.5q-8 2 -61 4q-41 2 -56 2q-61 20 -61 84q0 16 8 37q0 2 13.5 22.5t38 61.5t46.5 75l99 154h-152 q-143 0 -160 4q-18 6 -28 16q-43 31 -29 86q12 50 61 62q8 4 242 4q229 0 240 -4q14 -2 32 -17q45 -31 31 -86q-4 -12 -6 -16q-12 -25 -104 -166q-72 -115 -86.5 -138.5t-12.5 -23.5q66 -18 107 -47q141 -94 157 -272q4 -20 4.5 -129t-4.5 -131q-16 -176 -157 -273 q-154 -100 -330 -36q-145 51 -217 186q-12 27 -16 49z" />
<glyph unicode="4" horiz-adv-x="946" d="M88 444q12 59 100 435q98 420 101 426q12 43 61 53q31 8 56 -4q49 -27 49 -82q0 -2 -8.5 -35t-30 -127t-47.5 -215q-86 -350 -86 -367l98 -2h98v140q0 141 4 151q6 29 30 47.5t52.5 18.5t52 -18.5t29.5 -47.5q4 -10 4 -151v-140h92q92 0 103 -2q14 -2 33 -16 q45 -31 30 -86q-12 -51 -63 -64q-10 -2 -103 -2h-92v-141q0 -139 -4 -149q-6 -29 -29.5 -47.5t-52 -18.5t-52.5 18.5t-30 47.5q-4 10 -4 149v141h-157q-158 0 -168 2q-18 6 -33 17q-37 27 -33 69z" />
<glyph unicode="5" horiz-adv-x="946" d="M111 217q-2 41 31.5 68.5t72.5 19.5q39 -10 61 -53q16 -33 41 -57q27 -27 58 -41q98 -51 188 -2q86 47 99 155q2 10 2 113.5t-2 116.5q-6 68 -46.5 112.5t-103.5 59.5q-12 2 -39 2q-25 0 -37 -2q-37 -8 -69 -39q-18 -23 -33 -49q-12 -27 -29 -39q-16 -14 -33 -17 q-35 -10 -65.5 10.5t-38.5 55.5q-2 10 -2 311t2 311q4 23 23 41.5t42 22.5q6 4 240 4q229 0 240 -4q14 -2 32 -17q45 -31 31 -86q-12 -49 -63 -61q-10 -4 -193 -4h-182v-148v-147l4 2q68 27 121 27q137 6 244 -84q109 -96 124 -248q4 -20 4.5 -129t-4.5 -131 q-16 -176 -157 -273q-154 -100 -330 -36q-145 51 -217 186q-12 27 -16 49z" />
<glyph unicode="6" horiz-adv-x="946" d="M111 662q0 367 8 409q29 152 153 232q68 47 164 59q74 0 96 -2q74 -8 146 -41q80 -41 127 -107q29 -37 29 -65q4 -55 -48 -80q-37 -18 -75 0q-25 14 -37 37q-53 78 -174 86q-70 6 -117 -21q-88 -43 -100 -153q-2 -8 -2 -101v-86l6 5q14 6 18 8q88 45 187.5 40t181.5 -59 q141 -94 157 -272q4 -20 4.5 -129t-4.5 -131q-16 -176 -157 -273q-90 -59 -202 -59t-200 59q-125 84 -153 234q-8 41 -8 410zM281 421q0 -104 2 -114q8 -70 47 -115t102 -59q39 -8 80 0q90 18 131 103q16 35 19 71q2 10 2 113.5t-2 116.5q-6 68 -46.5 113t-103.5 59 q-41 6 -63 2q-102 -12 -148 -105q-16 -35 -18 -69q-2 -12 -2 -116z" />
<glyph unicode="7" horiz-adv-x="946" d="M111 1144.5q0 96.5 2 106.5q10 52 65 66q6 2 324 2q313 0 323 -2q41 -14 56 -45q12 -25 8 -53q0 -2 -23.5 -77t-72 -224.5t-91.5 -286.5q-154 -481 -188 -588q-23 -35 -59.5 -42t-67.5 17q-39 31 -33 82q0 2 166 520.5t168 524.5q0 4 -203 4h-204v-53q0 -51 -2 -62 q-12 -49 -64 -61q-33 -8 -63.5 11.5t-38.5 53.5q-2 10 -2 106.5z" />
<glyph unicode="8" horiz-adv-x="946" d="M111 395q0 84 2 105q16 152 125 245q14 12 10 15l-2 2q-2 4 -5 7t-5 7q-53 66 -72 156t4 180q27 111 111 180q69 58 161 70h62q94 -12 164 -70q84 -70 110 -180q23 -90 5.5 -180t-70.5 -156q-6 -8 -15 -16q-2 -2 11 -15q109 -94 124 -245q4 -23 4.5 -106t-4.5 -103 q-16 -176 -157 -273q-90 -59 -202 -59t-200 59q-141 96 -159 273q-2 20 -2 104zM281 395q0 -78 2 -88q8 -70 47 -115t102 -59q39 -8 80 0q90 18 131 103q16 35 19 71q2 10 2 88t-2 90q-6 68 -46.5 113t-103.5 59q-41 6 -63 2q-102 -16 -148 -104q-16 -35 -18 -70 q-2 -12 -2 -90zM326.5 995.5q5.5 -77.5 50.5 -123.5q18 -18 39 -26q20 -12 57 -12q35 0 55 12q20 8 39 26q41 41 49.5 109t-18.5 125q-29 66 -92 82q-35 8 -57 2q-55 -10 -91 -62q-37 -55 -31.5 -132.5z" />
<glyph unicode="9" horiz-adv-x="946" d="M111 900.5q0 107.5 2 129.5q8 98 61 176q92 138 262 156h70q98 -12 168 -59q123 -82 151 -232q8 -43 9 -409q0 -369 -9 -410q-29 -150 -151 -234q-111 -74 -262 -55q-117 12 -201 74q-35 27 -64.5 63.5t-33.5 61.5q-10 45 24 76q20 23 51 25.5t58 -15.5q12 -10 26 -31 q49 -76 172 -86q68 -6 119 21q86 47 99 155q2 6 2 99v86l-7 -3q-6 -6 -16 -10q-88 -45 -188.5 -40t-180.5 59q-141 96 -159 272q-2 23 -2 130.5zM281 900.5q0 -103.5 2 -114.5q8 -70 47 -114.5t102 -59.5q39 -8 80 0q90 18 131 103q16 35 19 71q2 10 2 114t-2 116 q-6 68 -46.5 113t-103.5 59q-41 6 -63 2q-102 -12 -148 -105q-16 -35 -18 -69q-2 -12 -2 -115.5z" />
<glyph unicode=":" horiz-adv-x="557" d="M176 70q0 25 10 43q4 6 21 26q14 14 29 23q18 6 20 6q12 2 45 2q12 -6 21 -8q16 -12 26 -22.5t23 -26.5q8 -18 8 -43q0 -27 -8 -43q-10 -16 -23 -29q-20 -16 -26 -21q-18 -10 -43 -10q-29 0 -43 10q-8 4 -29 21q-16 20 -21 29q-10 16 -10 43zM176 813q0 25 10 43 q4 10 21 27q14 14 29 22q18 6 20 6q18 6 45 2q12 -6 21 -8q16 -12 26 -22q14 -12 23 -27q8 -18 8 -43t-8 -43q-8 -14 -23 -27q-10 -10 -26 -22q-25 -10 -43 -10q-23 0 -43 10q-14 10 -29 22q-16 16 -21 27q-10 18 -10 43z" />
<glyph unicode=";" horiz-adv-x="557" d="M176 71.5q0 26.5 10 41.5q4 8 21 28q20 16 29 21q12 8 20 8q23 4 45 0q4 0 21 -8q6 -4 26 -21q12 -14 23 -28l8 -17q12 -8 20 -28q6 -12 17 -45q4 -49 -4 -132q-14 -106 -58 -149q-23 -23 -55.5 -25t-56.5 19q-23 18 -30 49t7 57q25 43 25 111l2 20l-10 4q-14 8 -29 23 q-16 20 -21 27q-10 18 -10 44.5zM176 815q0 25 10 43q4 6 21 27q14 12 29 22q18 6 20 6q12 2 45 2q12 -6 21 -8q16 -12 26 -22.5t23 -26.5q8 -18 8 -43q0 -27 -8 -43q-10 -14 -23 -29q-20 -16 -26 -20q-18 -10 -43 -10q-29 0 -43 10q-8 4 -29 20q-16 20 -21 29 q-10 14 -10 43z" />
<glyph unicode="=" horiz-adv-x="1558" d="M113 293q-6 29 6 55.5t39 40.5q18 6 20 6q8 2 600 2h2h2h4h2h3h2h2h4h2h2h2h2h4h2h2h2h2h2h4h2h2h2h3h4h2h2h2h2h2h4h2h2h2h2h2h2h4h2h2h2h3h2h4h2h2h2h2h2h2h2h4h2h2h2h2h2h2h2h5h2h2h2h2h2h2h2h2h4h2h2h2h2h2h2h2h2h2h3h4h2h2h2h2h2h2h2h2h2h2h2h2h2h4h2h2h2h3h2h2h2h2 h2h2h2h2h2h2h2h2h2h2h2h2h2h2h2h2h3h2h2h4q330 0 342 -6l4 -2q27 -14 39 -42t4 -54q-12 -51 -62 -64q-10 -2 -604 -2q-592 0 -602 2q-51 12 -63 64zM113 731q12 52 63 64q8 2 602 2t604 -2q49 -12 62 -64q8 -27 -4.5 -54.5t-38.5 -41.5q-2 0 -4 -2q-10 -6 -342 -6h-274.5 h-276.5q-332 0 -342 6q-2 2 -4 2q-27 14 -39.5 40.5t-5.5 55.5z" />
<glyph unicode="?" horiz-adv-x="946" d="M113 1102q16 72 61 145q90 154 234 172h14q23 4 63 0q123 -12 211 -88q10 -8 29 -26q94 -100 106 -240q8 -88 -22 -162q-33 -78 -111 -149q-20 -20 -45 -39q-68 -57 -86 -86q-25 -35 -32 -64q-4 -10 -5 -92q-2 -80 -4 -88q-12 -39 -48 -53.5t-70.5 2t-45.5 57.5 q-4 8 -4 84q0 80 2 88q12 100 93 197q35 37 88 82q86 74 110 127q16 37 11 80q-6 82 -58 135q-47 51 -119 63q-31 6 -57 2q-55 -8 -98 -73q-35 -55 -49 -109q-8 -31 -25 -47q-25 -25 -59.5 -25t-59.5 27q-35 31 -24 80zM342 70q0 18 10 43q12 16 23 26q12 14 26 23 q19 6 21 6q12 2 45 2q8 -4 20 -8q14 -8 27 -23q10 -10 23 -26q10 -25 10 -43q0 -23 -10 -43q-8 -16 -23 -29q-16 -16 -27 -21q-18 -10 -42.5 -10t-43.5 10q-10 4 -26 21q-14 14 -23 29q-10 20 -10 43z" />
<glyph unicode="@" horiz-adv-x="1558" d="M113 625q-4 74 0 155q25 217 127 369q100 152 258 229q112 56 235 64q43 4 115 -2q236 -25 397 -187q170 -170 199 -436q8 -78 0 -137q-14 -117 -70 -199q-41 -63 -102.5 -99t-126.5 -32q-72 6 -115 43l-6 6l-6 -8q-41 -35 -103 -53q-188 -66 -337 37q-131 86 -150 250 q-2 20 -2 76.5t2 74.5q10 86 53 156q61 96 171 135t229 8q61 -16 100 -41l8 -4l8 4q10 8 25 13q27 6 51 0q43 -12 55 -56l5 -8v-223q0 -233 6 -236h2q10 -6 33 2q35 10 59 49q33 45 41 115q4 49 0 117q-10 96 -55 194q-63 131 -189 203q-115 68 -252 68q-158 0 -282 -94 q-168 -127 -207 -365q-6 -59 -6 -111q0 -53 6 -114q45 -264 239 -385q57 -37 119 -53q76 -25 215 -19q166 6 273 41q94 33 163 96q25 20 48 27q39 6 69 -19q25 -18 31 -49.5t-10 -58.5q-18 -31 -95 -84q-158 -102 -413 -121q-131 -10 -193 -2q-123 8 -237 64 q-158 78 -258 227q-57 86 -93 197q-23 74 -34 176zM598 702q0 -66 2 -73q18 -88 94 -125q47 -23 105.5 -19t101.5 33q27 20 37 37q12 18 20 43q2 8 3 104q0 100 -13 125q-8 20 -28 39q-20 20 -39 29q-33 16 -76 20q-61 6 -111 -16q-76 -37 -94 -125q-2 -10 -2 -72z" />
<glyph unicode="A" horiz-adv-x="1224" d="M113 100q0 8 211 650q213 647 215 649q18 33 55 41q12 3 24 3q44 0 68 -44q2 -2 215 -649q211 -641 211 -650q6 -23 -8 -53.5t-46 -41.5q-15 -5 -30 -5q-16 0 -33 6q-29 12 -43 41q-6 12 -102 307l-8 27h-230h-229l-8 -27q-96 -295 -103 -307q-14 -29 -43 -41 q-31 -12 -62.5 -1t-46 42t-7.5 53zM438 553l88 -2h172l88 2l-88 264l-86 264q0 2 -11 -32.5t-31.5 -98t-43.5 -133.5z" />
<glyph unicode="B" horiz-adv-x="1224" d="M164 699.5q0 621.5 4 633.5q10 54 65 64q6 2 215 2t228 -2q143 -18 242 -99q27 -18 49 -45q70 -80 86 -184q4 -24 4 -47.5t-4 -46.5q-8 -51 -31 -101q-33 -72 -94 -122l-10 -11l16 -12q80 -51 131 -139q45 -86 45 -183.5t-45 -183.5q-53 -90 -145 -147q-78 -49 -179 -66 q-39 -8 -276 -10q-233 0 -244 6l-8 4q-39 18 -45 58q-4 10 -4 631.5zM336 170h160q168 0 176 2q74 6 131 35q55 27 80 57q43 45 55 103q4 20 4 39.5t-4 39.5q-12 53 -55 105q-29 33 -80 57q-59 27 -131 33q-8 2 -176 2h-160v-235v-238zM336 813h156q168 2 204 10 q102 23 154 92q20 29 29 58q7 26 7 53q0 11 -1 21q-4 23 -17 51q-25 43 -61 71q-57 44 -143 58q-33 0 -172 2h-156v-207v-209z" />
<glyph unicode="C" horiz-adv-x="1337" d="M260 1196q49 68 105 113q139 119 317 133q16 2 35 2q30 0 69 -4q96 -12 172 -49q106 -49 185 -140q63 -78 80 -135q3 -13 3 -25q0 -38 -34 -61q-27 -23 -54 -23q-29 0 -59 27q-12 16 -20 35q-29 53 -70 96q-88 84 -209 103q-28 4 -55 4t-53 -4q-176 -25 -285 -189 q-33 -49 -57 -110q-49 -121 -49 -268.5t49 -266.5q25 -63 57 -110q109 -162 285 -191q26 -4 53 -4t55 4q119 18 209 105q41 43 70 96q8 20 20 33q25 25 57 25q12 0 26 -4q48 -14 61 -62q1 -8 1 -16q0 -26 -14 -54q-47 -92 -123 -160q-150 -131 -348 -137h-13 q-183 0 -333 111q-78 61 -133 137q-149 202 -149 491q0 295 149 498z" />
<glyph unicode="D" horiz-adv-x="1280" d="M164 699.5q0 621.5 4 633.5q10 54 65 64q6 2 201 2q197 0 205 -2q53 -8 113 -25q162 -55 272 -203q63 -84 100 -194q33 -90 41 -203q2 -20 2 -75.5t-2 -75.5q-14 -190 -84 -326q-47 -96 -112 -162q-63 -63 -142 -98q-59 -27 -122 -33q-20 -2 -240.5 -2t-231.5 2 q-55 10 -65 66q-4 10 -4 631.5zM336 170h180q180 2 193 4q154 35 235 232q33 76 47 186q6 53 6 103.5t-6 97.5q-29 242 -188 360q-18 14 -63.5 39t-104.5 33q-16 2 -158 4h-141v-529v-530z" />
<glyph unicode="E" horiz-adv-x="1114" d="M164 699.5q0 621.5 4 633.5q10 54 65 64q6 2 351 2q342 0 352 -2q14 -2 33 -17q34 -23 34 -60q0 -12 -4 -26q-12 -51 -63 -63q-10 -2 -305 -2h-295v-207v-209h239q240 0 248 -2q51 -12 64 -63q3 -12 3 -23q0 -36 -34 -63q-10 -10 -33 -17q-8 -2 -248 -2h-239v-235v-238 h295q295 0 305 -2q51 -12 63 -64q3 -12 3 -24q0 -36 -33 -62q-14 -10 -33 -16q-10 -2 -350 -2h-2h-2h-4h-3h-2h-2h-2h-2h-2h-4h-2h-2h-2h-2h-2h-2h-4h-2h-2h-2h-2h-2h-3h-2h-2h-4h-2h-2h-2h-2h-2h-2h-2h-2h-2h-4h-2h-2h-2h-2h-2h-3h-2h-2h-2h-2h-2h-2h-2h-2h-2h-2h-2h-2h-4 h-2h-2h-2h-2h-2h-2h-3h-2q-217 0 -227 8l-4 2q-39 18 -45 58q-4 10 -4 631.5z" />
<glyph unicode="F" horiz-adv-x="1058" d="M166 698v256q0 383 8 396q2 2 2 4q18 37 57 43q6 2 351 2q342 0 352 -2q14 -2 33 -17q34 -23 34 -60q0 -12 -4 -26q-12 -51 -63 -63q-10 -2 -305 -2h-295v-221v-224h239q240 0 248 -2q18 -2 33 -16q34 -24 34 -61q0 -12 -3 -25q-12 -51 -64 -64q-8 -2 -248 -2h-239v-268 q0 -270 -2 -280q-16 -66 -84 -66q-29 0 -51.5 18.5t-30.5 47.5q-2 10 -2 632z" />
<glyph unicode="G" horiz-adv-x="1337" d="M127 526q-16 91 -16 179q0 164 57 317q66 172 190 278q152 128 338 142q16 2 38 2q32 0 75 -4q180 -20 291 -109q70 -53 110 -121q12 -23 15 -45v-8q0 -38 -33 -61q-25 -20 -57.5 -19.5t-55.5 23.5q-2 2 -8 10t-8 10q-78 135 -287 152q-14 1 -28 1q-90 0 -168 -34 q-119 -51 -195 -168q-27 -37 -49 -90q-53 -125 -53 -279.5t53 -279.5q23 -53 49 -92q78 -115 195 -166q79 -34 168 -34q34 0 69 5q156 23 230 123l8 8v133v131h-164q-172 0 -193 11q-45 25 -45 76t45 75q16 8 43 9t199 1q209 0 219 -4q51 -12 64 -61q2 -10 2 -213v-199 l-4 -10q-10 -35 -64 -92q-55 -63 -147 -109q-96 -41 -201 -53q-36 -2 -68.5 -2t-62.5 2q-184 25 -320 141q-125 106 -190 277q-33 90 -41 147z" />
<glyph unicode="H" horiz-adv-x="1280" d="M166 700.5q0 624.5 2 632.5q12 52 63 64q13 3 25 3q36 0 61 -32q14 -16 17 -35q2 -8 2 -278v-271h303h303v271q0 270 2 278q16 66 84 66q66 0 82 -66q2 -8 2 -632.5t-2 -634.5q-8 -29 -31.5 -47.5t-52.5 -18.5t-51.5 18.5t-30.5 47.5q-2 10 -2 280v268h-303h-303v-268 q0 -270 -2 -280q-16 -66 -84 -66q-29 0 -51.5 18.5t-30.5 47.5q-2 10 -2 634.5z" />
<glyph unicode="I" horiz-adv-x="401" d="M115 700.5q0 624.5 2 632.5q12 52 63 64q13 3 25 3q36 0 61 -32q14 -16 17 -35q2 -8 2 -632.5t-2 -634.5q-16 -66 -84 -66q-29 0 -51.5 18.5t-30.5 47.5q-2 10 -2 634.5z" />
<glyph unicode="J" horiz-adv-x="946" d="M113 444q10 51 65 66q33 6 61.5 -10.5t36.5 -48.5q4 -6 5 -39q6 -104 36 -172q29 -63 70 -90q29 -20 57.5 -20t57.5 20q25 16 41 38q45 61 57 144q6 33 8 524v477l4 8q13 44 62 58q11 3 21 3q28 0 50 -20q20 -18 31 -47q2 -10 2 -473q0 -471 -2 -483q-10 -150 -74 -258 q-57 -94 -143 -135q-56 -27 -114 -27q-31 0 -62 8q-121 29 -197 154q-45 76 -63 174q-12 66 -12 112q0 21 2 37z" />
<glyph unicode="K" horiz-adv-x="1280" d="M166 700.5q0 624.5 2 632.5q12 52 63 64q4 2 19 2q61 0 82 -60l4 -8v-350l2 -350l330 373q324 367 336 378q25 17 53 17q5 -1 9 -1q34 -4 56 -30q21 -27 21 -54q0 -29 -25 -57q-18 -18 -172 -196l-166 -189q86 -170 191 -376q193 -381 192 -385q4 -12 4 -23v-8 q0 -37 -32 -62q-22 -19 -49 -19q-7 -1 -14 1q-36 6 -56 33q-8 12 -182 354l-177 348q-2 0 -161 -182l-160 -180v-150q0 -147 -2 -157q-16 -66 -84 -66q-29 0 -51.5 18.5t-30.5 47.5q-2 10 -2 634.5z" />
<glyph unicode="L" horiz-adv-x="1114" d="M166 111v589q0 625 2 633q12 52 63 64q13 3 25 3q36 0 61 -32q14 -16 17 -35q2 -8 2 -585v-578h295q295 0 305 -2q14 -2 33 -16q34 -23 34 -60q0 -12 -4 -26q-12 -51 -63 -64q-10 -2 -350 -2q-344 0 -353 2q-39 6 -57 45q-8 14 -10 64z" />
<glyph unicode="M" horiz-adv-x="1392" d="M166 700.5q0 624.5 2 632.5q12 52 63 64q11 2 22 2q35 0 60 -25q4 -6 193 -266l188 -262q86 119 191 262q190 266 196 268q25 25 55 25q13 -1 26 -5q46 -14 59 -63q4 -8 4 -635q0 -623 -4 -632q-6 -29 -30 -47.5t-52.5 -18.5t-52 18.5t-29.5 47.5q-4 10 -4 497v488 l-146 -203q-35 -47 -72.5 -100.5t-56.5 -79.5l-20 -27q-27 -27 -62 -27q-41 0 -63 27q-10 10 -150 207l-147 203v-488q0 -487 -2 -497q-16 -66 -84 -66q-29 0 -51.5 18.5t-30.5 47.5q-2 10 -2 634.5z" />
<glyph unicode="N" horiz-adv-x="1280" d="M166 700.5q0 624.5 2 632.5q12 52 63 64q13 3 25 3q36 0 61 -32l39 -57q41 -55 123 -171t152 -214l311 -437v420v422l4 8q6 29 31 43q25 17 50 17q15 1 30 -5q41 -16 53 -61q2 -8 2 -632.5t-2 -634.5q-12 -51 -63 -64q-11 -3 -21 -3q-22 -1 -42 11q-30 16 -38 49 q-4 8 -4 72v64l-303 426l-301 426l-2 -490v-487l-4 -11q-6 -25 -31 -43q-25 -17 -50 -17q-15 -1 -30 5q-41 16 -53 62q-2 10 -2 634.5z" />
<glyph unicode="O" horiz-adv-x="1337" d="M113 702q0 74 4 123q29 250 164 420q139 179 350 197q20 2 41 2q68 0 137 -25q164 -53 270 -207q115 -166 140 -387q4 -49 4 -123q0 -78 -4 -124q-25 -221 -140 -388q-102 -152 -270 -208q-73 -23 -144 -23q-141 0 -272 92q-53 37 -84 74q-162 174 -192 453q-4 47 -4 124 zM283 702q0 -57 6 -118q29 -223 153 -353q49 -49 99 -69q59 -31 126.5 -31t127.5 31q49 20 98 69q125 129 154 353q6 61 6 118q0 51 -6 119q-25 186 -123 316q-29 37 -62 61q-75 60 -155 72q-12 2 -68 2q-90 -12 -166 -74q-33 -25 -61 -61q-98 -129 -123 -316 q-6 -68 -6 -119z" />
<glyph unicode="P" horiz-adv-x="1224" d="M166 698v256q0 383 8 396q2 2 2 4q18 37 57 43q6 2 230 2q229 0 278 -8q223 -39 324 -215q47 -88 47 -180q0 -19 -2 -39q-12 -113 -82 -201q-100 -127 -287 -160q-37 -8 -229 -10h-176v-256q0 -254 -2 -264q-16 -66 -84 -66q-29 0 -51.5 18.5t-30.5 47.5q-2 10 -2 632z M336 756h160q168 0 176 2q74 6 131 35q55 27 80 57q43 45 55 102q4 20 4 40t-4 40q-12 53 -55 105q-29 33 -80 57q-59 27 -131 33q-8 2 -176 2h-160v-236v-237z" />
<glyph unicode="Q" horiz-adv-x="1337" d="M113 702q0 74 4 123q29 250 164 420q139 179 350 197q20 2 41 2q68 0 137 -25q164 -53 270 -207q115 -166 140 -387q4 -49 4 -123q0 -78 -4 -124q-25 -221 -140 -388q-57 -78 -108 -118q-10 -6 -10 -11q33 -49 69 -108q66 -98 74 -113q2 0 6 -16q3 -13 3 -24 q0 -37 -34 -64q-27 -20 -59.5 -17.5t-54.5 27.5q-4 4 -82 121l-74 115l-16 -5q-63 -18 -126 -18q-71 0 -141 23q-168 57 -270 208q-115 166 -139 388q-4 47 -4 124zM283 702q0 -57 6 -118q29 -223 153 -353q49 -49 99 -69q51 -27 116 -33q47 0 52 4q-27 41 -58 88 q-59 90 -59 96q-9 17 -9 35t9 37q18 37 59 47q10 2 19 2q38 0 61 -28q4 -4 70 -105l65 -98q2 0 24.5 23.5t33.5 35.5q98 125 123 318q6 61 6 118q0 51 -6 119q-25 186 -123 316q-29 37 -62 61q-75 60 -155 72q-12 2 -68 2q-90 -12 -166 -74q-33 -25 -61 -61 q-98 -129 -123 -316q-6 -68 -6 -119z" />
<glyph unicode="R" horiz-adv-x="1224" d="M166 698v256q0 383 8 396q2 2 2 4q18 37 57 43q6 2 230 2q229 0 278 -8q223 -39 324 -215q45 -84 45 -182.5t-45 -184.5q-70 -123 -213 -182q-4 -2 -10 -4t-8 -5l-5 -2q61 -111 138 -249q137 -242 141 -256q2 -4 3 -11.5t1 -11.5v-8q0 -37 -33 -62q-23 -17 -52 -17h-9 q-34 3 -55 28q-10 16 -160 282l-152 275h-157h-158v-256q0 -254 -2 -264q-16 -66 -84 -66q-29 0 -51.5 18.5t-30.5 47.5q-2 10 -2 632zM336 756h160q168 0 176 2q74 6 131 35q55 27 80 57q43 45 55 102q4 20 4 40t-4 40q-12 53 -55 105q-29 33 -80 57q-59 27 -131 33 q-8 2 -176 2h-160v-236v-237z" />
<glyph unicode="S" horiz-adv-x="1169" d="M113 268q-2 11 -2 21q0 35 26 59q25 27 59.5 27t59.5 -25q14 -16 20 -31q27 -53 66 -92q82 -76 199 -94q28 -4 53.5 -4t50.5 4q51 6 100 29q43 23 74 53q29 31 45 66q26 52 26 102q0 68 -48 131q-55 72 -144 98q-2 0 -15 4.5t-28.5 8.5t-40 10t-47.5 10q-102 27 -166 47 q-100 41 -168.5 114t-91.5 165q-8 39 -8 80q0 37 8 77q20 88 81 159t149 110q84 37 168 43q8 2 20 2q4 2 33 2q129 0 234.5 -54.5t160.5 -150.5q14 -23 14 -50q1 -37 -29 -63q-24 -21 -55 -22q-9 0 -18 2q-39 10 -59 47q-45 74 -133 102q-49 17 -113 17h-4q-62 0 -109 -17 q-76 -23 -123 -71.5t-53 -112.5q-4 -29 0 -55q12 -57 60.5 -103.5t117.5 -68.5q2 0 19.5 -5t51.5 -13.5t62 -16.5q135 -33 175 -49q147 -63 219 -195q48 -85 49 -184q0 -17 -2 -35q-16 -174 -152 -285q-37 -27 -63 -43q-74 -41 -170 -53q-41 -6 -82 -6q-126 0 -242 59 q-129 63 -207 193q-23 39 -28 57z" />
<glyph unicode="T" horiz-adv-x="1224" d="M55 1333q13 52 64 64q8 2 491.5 2t493.5 -2q49 -12 61 -64q3 -13 3 -25q0 -35 -31 -61q-12 -10 -33 -16q-10 -2 -209 -2h-199v-576q0 -578 -2 -587q-8 -29 -30.5 -47.5t-51.5 -18.5q-68 0 -84 66q-2 10 -2 587v576h-198q-199 0 -209 2q-18 6 -33 16q-34 27 -34 63 q0 11 3 23z" />
<glyph unicode="U" horiz-adv-x="1280" d="M166 866q0 459 2 469q12 52 63 64q2 0 9.5 1t9.5 1q61 0 82 -60l4 -8v-471q2 -471 4 -483q8 -53 31 -94q66 -129 221 -152q24 -4 47 -4l47 4q156 23 221 152q23 41 31 94q2 12 4 483v471l4 8q6 25 31 43q25 17 50 17q15 1 30 -5q41 -16 53 -61q2 -10 2 -469 q0 -467 -2 -479q-10 -123 -70 -213q-113 -182 -344 -213h-57h-57q-125 14 -220.5 81t-148.5 173q-39 86 -45 172q-2 12 -2 479z" />
<glyph unicode="V" horiz-adv-x="1224" d="M113 1300q-6 23 8 54q14 33 55 45q29 6 55.5 -6.5t40.5 -38.5q18 -37 334 -1016l6 -21l168 512q123 377 172 525q14 29 43 41q16 6 32 6q15 1 31 -5q32 -12 46 -42.5t8 -53.5q0 -8 -211 -649q-213 -647 -215 -649q-8 -16 -24 -27q-23 -17 -48 -17q-10 0 -20 2 q-37 8 -55 42q-2 2 -215 649q-211 641 -211 649z" />
<glyph unicode="W" horiz-adv-x="1781" d="M113 1335q12 52 63 64q13 3 25 3q49 0 71 -48q4 -10 138 -498l133 -485q61 221 135 487q133 489 137 496q14 29 39 39q17 8 34 8q14 1 30 -5q32 -12 47 -42q8 -12 139 -496l133 -487q59 217 133 485q131 473 137 498q14 27 41 39t56 6q51 -12 63 -64q1 -3 1 -8 q0 -21 -12 -69q-16 -60 -161 -596q-176 -643 -178 -648q-14 -39 -53 -51q-23 -8 -54 0q-35 14 -49 43q-6 10 -137 496l-133 487q-61 -219 -135 -487q-131 -485 -138 -496q-14 -31 -47 -43q-33 -8 -53 0q-41 14 -55 51q0 2 -23.5 86t-67.5 246t-87 316q-174 641 -174 668z " />
<glyph unicode="X" horiz-adv-x="1224" d="M113 106q4 14 8 17q0 2 188 289q160 250 193 297l8 12l-180 274q-39 61 -87 135t-72 109t-24 37q-6 12 -6 16q-3 11 -3 21q0 23 12 44q18 30 53 40q13 4 26 4q35 0 58 -31q8 -8 166 -250q155 -241 159 -241l160 241q152 236 164 250q16 16 31 23q31 14 61.5 1.5 t46.5 -40.5q10 -20 10 -39q0 -23 -10 -39q0 -6 -182 -281l-178 -274l8 -12q0 -2 11 -18.5t29.5 -45.5t41 -63.5l52.5 -80.5t58 -89q184 -279 189 -289q2 0 6 -17q3 -13 3 -24q0 -37 -34 -64q-23 -17 -52 -17h-9q-34 3 -55 30q0 2 -24 36.5t-69 102.5t-86 131l-172 262 q-78 -119 -172 -262q-176 -266 -180 -270q-22 -27 -56 -30h-9q-28 0 -52 17q-34 26 -34 63q0 12 4 25z" />
<glyph unicode="Y" horiz-adv-x="1224" d="M113 1333q12 52 63 64q13 3 24 3q37 0 64 -34q0 -2 23.5 -43t67.5 -121t85 -155l172 -312l4 6q0 2 170 312q160 285 175 313q23 29 57 33q6 1 11 1q28 0 52 -20q34 -25 34 -62q0 -14 -5 -30q-4 -12 -207 -381l-205 -370v-232q0 -229 -4 -239q-6 -29 -29.5 -47.5 t-52 -18.5t-52 18.5t-30.5 47.5q-4 10 -4 239v232l-204 370q-203 369 -207 381q-8 27 -2 45z" />
<glyph unicode="Z" horiz-adv-x="1224" d="M116 57q-5 15 -6 31q0 17 7 33q8 8 364 557l361 551h-318h-112.5h-84h-57t-37 1t-19.5 1h-10h-5q-33 12 -49.5 40.5t-10.5 61.5q4 23 23.5 41.5t42.5 22.5q6 2 407 2q397 0 408 -2q14 -2 33 -17q34 -23 34 -60q0 -12 -4 -26l-6 -18q-6 -6 -362 -555l-361 -549l344 -2 q346 0 353 -2q47 -14 59 -64q3 -12 3 -23q0 -36 -34 -63q-10 -10 -32 -16q-8 -2 -435 -2h-2h-2h-4h-2h-2h-2h-2h-2h-2h-4h-2h-2h-2h-2h-2h-3h-4h-2h-2h-2h-2h-2h-2h-4h-2h-2h-2h-2h-2h-2h-2h-2h-4h-3h-2h-2h-2h-2h-2h-2h-2h-2h-4h-2h-2h-2h-2h-2h-2h-2h-2h-2h-2h-3h-2h-2h-2 h-2h-4h-2h-2h-2h-2h-2h-2h-2h-2h-2h-2h-2h-2h-2h-2h-3h-2h-2h-4q-266 0 -276 8l-4 2q-30 14 -42 47z" />
<glyph unicode="[" horiz-adv-x="724" d="M217 512q0 946 4 956q11 52 66 66q6 2 155.5 2t159.5 -2q20 -6 33 -16q43 -35 29 -86q-12 -51 -62 -64q-10 -2 -110 -2h-103v-854v-854h103q100 0 110 -2q16 -2 33 -16q43 -33 29 -86q-12 -51 -62 -64q-10 -2 -158 -2q-158 0 -178 10q-39 18 -45 58q-4 10 -4 956z" />
<glyph unicode="]" horiz-adv-x="724" d="M55 -446q-14 55 31 86q18 14 33 16q10 2 110 2h101v854v854h-101q-100 0 -110 2q-51 12 -64 64q-8 33 10.5 62.5t53.5 39.5q8 2 157.5 2t159.5 -2q49 -12 62 -64q4 -10 4 -958t-4 -958q-12 -51 -62 -64q-10 -2 -160 -2q-147 0 -157 2q-51 12 -64 64z" />
<glyph unicode="^" horiz-adv-x="780" d="M53.5 1153.5q1.5 32.5 26.5 54.5q8 8 136 104.5t134 100.5q2 0 5 1t7.5 3t6.5 2q25 8 57 -6q8 -2 135 -98t137 -107q25 -25 25 -61q0 -16 -8 -37q-14 -31 -48 -42t-67 3q-8 4 -108 82l-103 76q-4 0 -104 -76q-100 -78 -109 -82l-18 -6q-51 -14 -86 29q-20 27 -18.5 59.5z " />
<glyph unicode="_" horiz-adv-x="780" d="M287 1260q0 25 10 43q4 6 20 26q14 12 29 23q19 6 21 6q12 2 45 2q12 -6 20 -8q16 -12 26.5 -22.5t22.5 -26.5q8 -18 8 -43q0 -27 -8 -43q-10 -16 -22 -29q-20 -16 -27 -21q-18 -10 -43 -10q-29 0 -43 10q-8 4 -29 21q-16 20 -20 29q-10 16 -10 43z" />
<glyph unicode="a" d="M66 440q0 66 4 88q10 90 43 154q72 141 209 184q30 11 67 15q18 1 33 1q44 0 74 -8q70 -16 106 -38l12 -7q2 4 4 11q26 42 71 42q9 0 17 -2q56 -8 70 -63q2 -10 2 -377q0 -365 -2 -374q-12 -51 -63 -64q-12 -3 -23 -3q-43 0 -72 44l-4 8q-4 -2 -12 -4q-4 -4 -24 -14 q-75 -34 -152 -34q-22 0 -44 3q-100 12 -177 78q-59 49 -92 119q-33 68 -43 155q-4 20 -4 86zM240 440q0 -76 2 -88q12 -82 61 -131q35 -35 86 -47q16 -4 34.5 -4t37.5 4q61 12 100 53t45 103q2 12 2 111.5t-2 113.5q-6 59 -45 100.5t-98 51.5q-14 4 -62 4 q-119 -20 -153 -150q-8 -33 -8 -121z" />
<glyph unicode="b" d="M111 711q0 635 2 645q12 51 63 63q13 4 25 3q36 0 61 -31q14 -23 17 -35q2 -10 2 -266t2 -256q8 4 18 10q57 29 127 35q23 3 44 3q117 0 214 -81q57 -47 90 -119q33 -61 45 -154q2 -23 2 -88t-2 -86q-16 -137 -88 -223q-66 -85 -164 -115q-51 -16 -104 -15q-48 0 -98 13 q-43 10 -80 33l-11 4q-2 0 -6 -8q-25 -43 -72 -43q-7 0 -14 1q-57 7 -71 65q-2 10 -2 645zM281 441.5q0 -99.5 2 -111.5q8 -61 47 -102.5t98 -53.5q20 -4 38 -4t34 4q125 29 149 178q0 4 1 12.5t1 28v48v48t-1 28.5t-1 13q-16 82 -61 132q-33 33 -88 47q-10 2 -54 2 q-51 -6 -90 -33q-63 -43 -73 -123q-2 -14 -2 -113.5z" />
<glyph unicode="c" horiz-adv-x="780" d="M70 440.5q0 102.5 8 149.5q18 96 74 170q83 107 208 121q12 2 28 1q25 0 61 -3q174 -18 237 -138q24 -42 24 -79q0 -14 -3 -27q-12 -51 -64 -64q-13 -3 -24 -3q-47 0 -70 48q-10 20 -10 35q0 10 -13 23q-37 31 -108 37h-12q-43 0 -68 -13q-35 -18 -55 -53 q-31 -43 -41 -115q-4 -12 -4 -88.5t4 -89.5q14 -125 96 -168q25 -12 68 -12h12q72 6 108 37q12 12 13 22q0 14 10 35q12 27 38.5 39t55.5 4q51 -12 64 -61q2 -10 2 -29q0 -4 -1 -13t-1 -11q-14 -70 -76 -120t-154 -67q-34 -6 -68 -6h-16q-37 0 -53 2q-113 20 -188 119 q-55 74 -74 170q-8 45 -8 147.5z" />
<glyph unicode="d" d="M66 440q0 66 4 88q12 131 86 224q105 130 259 130q24 0 48 -3q70 -6 127 -35l16 -10q2 0 2 256t2 266q13 51 64 63q13 4 25 3q36 0 61 -31q14 -23 16 -35q2 -10 2 -645t-2 -645q-12 -51 -63 -64q-12 -3 -23 -3q-43 0 -72 44l-4 8q-4 -2 -12 -4q-4 -4 -24 -14 q-75 -34 -152 -34q-22 0 -44 3q-100 12 -177 78q-59 49 -92 119q-33 68 -43 155q-4 20 -4 86zM240 440q0 -76 2 -88q12 -82 61 -131q35 -35 86 -47q16 -4 34.5 -4t37.5 4q61 12 100 53t45 103q2 12 2 111.5t-2 113.5q-6 59 -45 100.5t-98 51.5q-14 4 -62 4 q-119 -20 -153 -150q-8 -33 -8 -121z" />
<glyph unicode="e" d="M70 342v98q0 94 8 135q37 184 194 265q64 33 144 41q12 2 27 2q24 0 57 -4q152 -25 241 -144q74 -98 80 -233q0 -27 -6 -56q-8 -29 -31 -49q-29 -29 -69 -37l-10 -2l-234 -2h-229v-2v-6q2 -4 2 -8q14 -66 55 -107q39 -45 109 -59q18 -4 40 -4t48 4q74 10 108 45 q6 4 19 21q14 20 34 28q20 10 38 10q26 0 50 -20q34 -24 34 -61q0 -12 -3 -25q-6 -18 -20 -39q-84 -113 -256 -131q-28 -2 -54.5 -2t-50.5 2q-197 31 -284 207q-29 57 -41 133zM242 526h202h203l-2 13q-10 61 -55 110q-44 46 -107 60q-18 2 -67 2q-88 -12 -137 -86 q-29 -43 -35 -86z" />
<glyph unicode="f" horiz-adv-x="514" d="M2 776q-3 13 -3 25q0 49 48 73q18 8 88 9h60v141q0 147 2 156q4 31 14 59q25 74 87 123t146 57h76q86 -16 146 -69q14 -14 45 -47q29 -37 43 -80q3 -14 3 -26q0 -38 -34 -62q-25 -20 -57.5 -18.5t-53.5 24.5q-10 8 -20 28q-20 37 -27 41q-23 27 -59 37q-33 8 -62 0 q-51 -12 -67 -51q-10 -23 -10 -170v-143h86q90 0 98 -4q51 -12 63 -62q3 -13 3 -25q0 -37 -33 -61q-14 -14 -33 -16q-8 -4 -98 -4h-86v-318q0 -317 -5 -327q-6 -29 -29.5 -47.5t-52 -18.5t-52 18.5t-29.5 47.5q-4 10 -4 327v318h-60q-59 0 -69 4q-51 12 -64 61z" />
<glyph unicode="g" d="M66 442.5q0 65.5 4 87.5q10 90 43 154q70 139 209 182q26 13 67 17q16 1 31 1q39 0 76 -7q63 -14 106 -39l12 -7q2 4 4 11q26 42 71 42q8 0 17 -2q56 -8 70 -65q2 -8 2 -434q0 -424 -2 -442q-10 -66 -31 -117q-18 -51 -57 -103q-98 -118 -239 -118q-18 0 -37 2 q-184 16 -273 151q-28 36 -28 66q0 53 47 78q20 10 39 10q26 0 49 -19q14 -8 28 -32q18 -27 39 -43q20 -18 56 -31q37 -12 71 -12q19 0 37 4q25 6 49 24q59 47 80 152q0 4 1 30.5t1 46t-2 19.5q-8 -4 -16 -10q-57 -29 -127 -35q-21 -2 -42 -2q-121 0 -216 80q-57 45 -92 119 q-33 63 -43 153q-4 23 -4 88.5zM240 442q0 -76 2 -88q12 -82 61 -131q37 -37 86 -49q17 -2 35 -2t37 2q59 12 99 54t46 102q2 12 2 112.5t-2 112.5q-6 59 -45 101.5t-98 52.5q-39 6 -62 2q-117 -16 -153 -148q-8 -33 -8 -121z" />
<glyph unicode="h" d="M111 711q0 635 2 645q12 51 63 63q13 4 25 3q36 0 61 -31q14 -23 17 -35q2 -10 2 -269v-258l12 9q57 35 121 43q19 2 36 2q25 0 46 -4q115 -18 186 -91q76 -70 94 -180q2 -12 4 -274q0 -258 -4 -268q-2 -12 -16 -35q-23 -32 -60 -32q-12 0 -26 3q-49 12 -62 64 q-4 10 -4 256q0 262 -6 286q-2 4 -5 11.5t-7 15.5t-6 10l-33 33q-33 23 -66 29q-21 4 -40 4q-13 0 -25 -2q-47 -14 -78 -58q-41 -53 -55 -137q-6 -33 -6 -248q0 -190 -2 -200q-8 -29 -31 -47.5t-51.5 -18.5t-52 18.5t-31.5 47.5q-2 10 -2 645z" />
<glyph unicode="i" horiz-adv-x="346" d="M70 1259q0 27 10 41q4 8 20 29q20 16 29 21q13 8 21 8q23 4 45 0q4 0 20 -8q6 -4 27 -21q12 -14 22 -29q8 -16 8 -40q0 -27 -8 -46q-12 -16 -22.5 -26t-26.5 -23q-18 -8 -43 -8q-27 0 -43 8q-14 10 -29 23q-16 20 -20 26q-10 18 -10 45zM86 440q0 367 2 377q13 50 64 62 q13 3 25 3q36 0 61 -32q14 -16 16 -33q2 -10 2 -377q0 -365 -2 -374q-16 -66 -84 -66q-29 0 -51.5 18.5t-30.5 47.5q-2 10 -2 374z" />
<glyph unicode="j" horiz-adv-x="458" d="M-106 -211q-5 18 -5 35q0 21 9 39q4 8 16 20q24 26 57 26q6 0 13 -1q41 -6 63 -41q0 -2 4 -12.5t6 -16.5q8 -35 23 -53l2 -4l6 14q18 43 31 127q0 57 2 457l2 436l2 8q16 48 63 58q11 3 20 3q27 0 50 -20q20 -12 31 -47q2 -8 2 -430q0 -444 -4 -487q-16 -162 -84 -244 q-45 -54 -109 -54q-23 0 -49 7q-111 29 -151 180zM104.5 1259.5q-0.5 24.5 10.5 43.5q4 10 20 26q12 12 29 23q18 6 20 6q18 6 45 2q12 -6 21 -8q16 -12 26 -23q14 -12 23 -26q8 -18 8 -43t-8 -43q-8 -14 -23 -27q-10 -10 -26 -23q-25 -10 -43 -10q-23 0 -43 10 q-16 8 -29 23q-16 16 -20 27q-10 18 -10.5 42.5z" />
<glyph unicode="k" d="M111 711q0 635 2 645q12 51 63 63q13 4 25 3q36 0 61 -31q14 -23 17 -35q2 -10 2 -445v-434l192 191l199 198q24 17 49 17q15 -1 31 -7q41 -16 53 -59q6 -31 -8 -59l-4 -10l-105 -107l-104 -102l14 -27q16 -25 48 -80t58.5 -100t59.5 -101.5t48 -83t17 -26.5q8 -20 8 -38 q0 -37 -34 -65q-23 -18 -52.5 -18t-52.5 18q-2 2 -7 6.5t-7 6.5l-16 26q-16 27 -44 75t-55 93l-108 187l-90 -88l-90 -88v-82q0 -78 -2 -88q-8 -29 -31 -47.5t-51.5 -18.5t-52 18.5t-31.5 47.5q-2 10 -2 645z" />
<glyph unicode="l" horiz-adv-x="346" d="M86 711q0 635 2 645q13 51 64 63q13 4 25 3q36 0 61 -31q14 -23 16 -35q2 -10 2 -645t-2 -645q-8 -29 -30.5 -47.5t-51.5 -18.5t-52.5 18.5t-31.5 47.5q-2 10 -2 645z" />
<glyph unicode="m" horiz-adv-x="1337" d="M111 440q0 367 2 377q12 50 63 62q27 8 53.5 -3.5t40.5 -35.5l4 -11l2 2q2 0 5.5 2.5t7.5 4.5q43 29 90 39q27 6 56 6q38 -1 78 -11q71 -18 122 -59q27 -23 39 -39l6 -8l12 14q18 20 39 37q59 53 148 64q15 2 29 2q21 0 42 -4q125 -18 197 -107q66 -74 74 -176 q2 -16 2 -270q0 -250 -2 -260q-8 -29 -31 -47.5t-51.5 -18.5t-52 18.5t-31.5 47.5q-2 10 -2 258q0 250 -2 260q-6 47 -41 86q-41 41 -107 41q-68 0 -115 -90q-20 -47 -32 -115q-2 -20 -4 -230v-206l-4 -11q-6 -25 -31 -43q-25 -17 -50 -17q-15 -1 -30 5q-41 16 -53 62 q-2 10 -2 258q0 250 -2 260q-6 47 -41 86q-41 41 -107 41q-68 0 -115 -90q-20 -47 -32 -115q-2 -20 -4 -230v-206l-5 -11q-6 -25 -30 -43q-25 -17 -50 -17q-15 -1 -30 5q-41 16 -53 62q-2 10 -2 374z" />
<glyph unicode="n" d="M111 440q0 367 2 377q12 50 63 62q29 8 55.5 -5.5t40.5 -39.5l4 -9q8 4 17 11q55 37 121 45q19 2 36 2q25 0 46 -4q115 -18 186 -91q76 -70 94 -180q2 -12 4 -274q0 -258 -4 -268q-2 -12 -16 -35q-23 -32 -60 -32q-12 0 -26 3q-49 12 -62 64q-4 10 -4 256q0 262 -6 286 q-2 4 -5 11.5t-7 15.5t-6 10l-33 33q-33 23 -66 29q-21 4 -40 4q-13 0 -25 -2q-47 -14 -78 -58q-41 -53 -55 -137q-6 -33 -6 -248q0 -190 -2 -200q-16 -66 -84 -66q-29 0 -51.5 18.5t-30.5 47.5q-2 10 -2 374z" />
<glyph unicode="o" d="M70 342v98q0 94 8 135q37 184 194 265q64 33 144 41q12 2 27 2q24 0 57 -4q152 -25 241 -144q55 -76 70 -160q10 -51 10 -135q0 -41 -1 -68.5t-1 -29.5q-12 -76 -41 -133q-88 -176 -282 -207q-26 -2 -51.5 -2t-49.5 2q-197 31 -284 207q-29 57 -41 133zM240 440.5 q0 -73.5 2 -90.5q27 -133 139 -168q25 -10 63.5 -10t63.5 10q113 35 139 168q4 33 4 90.5t-4 89.5q-20 94 -82 142q-37 27 -82 37q-4 0 -15 1t-17 1q-57 0 -99 -23q-92 -45 -110 -158q-2 -16 -2 -89.5z" />
<glyph unicode="p" d="M111 243.5q0 565.5 2 573.5q12 52 63 64q27 8 53.5 -3.5t40.5 -35.5q4 -10 6 -11q4 2 11 7q2 2 6 4t10 4t8 4q74 33 151 33q23 0 46 -3q100 -12 178 -77q55 -47 90 -119q33 -61 45 -154q2 -23 2 -88t-2 -88q-16 -133 -88 -221q-105 -132 -258 -132q-23 0 -47 3 q-70 6 -127 35l-18 10q-2 0 -2 -186q0 -184 -2 -195q-16 -65 -82 -65h-2q-29 0 -51.5 18.5t-30.5 46.5q-2 10 -2 575.5zM281 442.5q0 -100.5 2 -112.5q8 -59 47 -101.5t98 -54.5q20 -2 38 -2t34 2q125 33 149 180q0 4 1 12.5t1 28v47.5v66l-2 24q-14 80 -61 130 q-37 37 -88 49h-54q-55 -6 -90 -31q-63 -43 -73 -125q-2 -12 -2 -112.5z" />
<glyph unicode="q" d="M66 442.5q0 65.5 4 87.5q10 90 43 154q70 139 209 182q26 13 67 17q16 1 31 1q39 0 76 -7q63 -14 106 -39l12 -7q2 4 4 11q26 42 71 42q8 0 17 -2q56 -8 70 -65q2 -8 2 -573.5t-2 -575.5q-16 -65 -82 -65h-2q-29 0 -51.5 18.5t-30.5 46.5q-2 10 -2 195q0 186 -2 186 q-8 -4 -16 -10q-57 -29 -127 -35q-21 -2 -42 -2q-121 0 -216 80q-57 45 -92 119q-33 63 -43 153q-4 23 -4 88.5zM240 442q0 -76 2 -88q12 -82 61 -131q37 -37 86 -49q17 -2 35 -2t37 2q59 12 99 54t46 102q2 12 2 112.5t-2 112.5q-6 59 -45 101.5t-98 52.5q-39 6 -62 2 q-117 -16 -153 -148q-8 -33 -8 -121z" />
<glyph unicode="r" horiz-adv-x="724" d="M111 440q0 367 2 377q12 50 63 62q29 8 55.5 -5.5t40.5 -39.5l4 -9l15 11q43 31 100 41q31 6 60 6q79 0 147 -45q90 -61 96 -168q0 -18 -2 -29q-12 -49 -63 -61q-31 -10 -61.5 7t-39.5 50q-2 2 -3 10t-1 10q-2 25 -14 33q-2 0 -7 4t-9 6q-20 10 -47 10.5t-50 -12.5 q-90 -43 -110 -188q-6 -31 -6 -244q0 -190 -2 -200q-16 -66 -84 -66q-29 0 -51.5 18.5t-30.5 47.5q-2 10 -2 374z" />
<glyph unicode="s" horiz-adv-x="780" d="M70 240q12 51 63 63q13 3 25 3q44 0 71 -46q8 -25 8.5 -37t32.5 -28q37 -18 105 -25q47 0 84 12q80 29 80 88q0 27 -21.5 51.5t-54.5 36.5q-27 10 -78 13q-12 0 -30.5 1t-20.5 1q-129 18 -201 94q-51 53 -63 125q-2 18 -2 34.5t2 32.5q12 72 63 125q78 85 223 97 q10 2 48 1t53 -3q215 -27 237 -160q2 -10 2 -20q0 -27 -13 -47q-17 -28 -52 -38q-10 -3 -20 -3q-23 1 -43 13q-30 18 -40 50q-2 6 -8 12q-39 20 -114 25h-11q-68 0 -110 -23q-31 -16 -41 -39q-4 -10 -4 -22q0 -14 4 -23q10 -25 41 -41q43 -22 101 -22h5q92 0 166 -39 q102 -49 135 -146q10 -27 15 -51q2 -10 2 -34.5t-2 -34.5q-12 -70 -54 -121q-80 -100 -231 -113q-22 -2 -45 -2l-45 2q-188 23 -246 143q-20 34 -20 66q0 15 4 29z" />
<glyph unicode="t" horiz-adv-x="569" d="M14 817q12 49 64 62q8 4 51 4h41v149q0 152 2 162q13 49 64 61q12 3 24 3q35 0 62 -31q10 -12 16 -33q2 -10 2 -162v-149h61q72 0 91 -9q48 -26 48 -72q0 -12 -3 -26q-12 -49 -64 -61q-8 -4 -72 -4h-61v-318q0 -317 -2 -327q-8 -29 -30.5 -47.5t-51.5 -18.5q-68 0 -84 66 q-2 10 -2 327v318h-41q-47 0 -70 8q-48 25 -48 74q0 11 3 24z" />
<glyph unicode="u" d="M111 547q0 258 2 270q12 50 63 62q13 3 25 3q36 0 61 -32q14 -16 17 -33q2 -10 2 -258q0 -262 8 -285q10 -25 18 -38q12 -16 33 -33q30 -21 66 -29q19 -4 35 -4t30 4q49 14 78 57q43 59 55 138q4 33 4 247q0 190 4 201q6 29 30 47.5t52.5 18.5t52 -18.5t29.5 -47.5 q4 -10 4 -377q0 -365 -4 -374q-12 -51 -61 -64q-13 -3 -24 -3q-48 0 -73 48q-4 8 -6 8q-6 -4 -14 -8q-51 -35 -121 -45q-15 -3 -32 -3q-23 0 -50 5q-113 14 -188 88q-74 74 -94 184q0 33 -2 271z" />
<glyph unicode="v" horiz-adv-x="868" d="M55 776q-3 13 -3 25q0 38 34 61q19 15 33 17q27 8 54.5 -4.5t41.5 -38.5q0 -2 111 -265q25 -61 52.5 -127.5t39.5 -99.5l14 -33q0 -2 14.5 32t39 94.5t53.5 129.5q90 225 110 267q18 37 57 46q10 2 19 2q28 0 53 -20q34 -24 34 -61q0 -12 -3 -25q-2 -4 -149.5 -362.5 t-151.5 -366.5q-14 -27 -41 -39t-55 -6q-41 14 -56 45q-4 8 -151.5 366.5t-149.5 362.5z" />
<glyph unicode="w" horiz-adv-x="1280" d="M55 780q-4 12 0 37q13 50 64 62q27 8 54.5 -4.5t41.5 -36.5q0 -10 86 -242q68 -197 84 -246l4 -8l84 246q88 244 92 252q23 43 74 43q49 0 72 -43q2 -2 92 -252l84 -246l4 8l12 35q12 33 32.5 93.5t41.5 117.5q86 240 86 242q16 27 41 36q17 8 34 8q14 0 28 -6 q32 -12 48 -40q12 -25 9 -56q-2 -4 -129 -367.5t-129 -367.5q-25 -46 -72 -46q-12 0 -25 3q-41 14 -55 43q-6 14 -86 244q-86 240 -86 241l-4 9l-84 -242q-18 -55 -42 -120.5t-35 -96.5t-11 -33q-18 -37 -57 -45q-10 -2 -19 -2q-28 0 -53 18q-16 12 -23 27q-2 6 -129 367.5 t-129 367.5z" />
<glyph unicode="x" horiz-adv-x="868" d="M63 125q6 12 238 303l23 29l-117 147q-113 137 -121 154q-16 29 -6 59q12 50 61 62q12 4 23 4q26 0 49 -19q8 -6 145 -178l74 -94l29 37q4 6 22.5 29.5t41 51t40.5 50.5q78 98 84 102q26 20 52.5 20t54.5 -20q23 -18 30 -48t-8 -56q-8 -16 -121 -154l-116 -147l22 -29 q231 -291 238 -303q10 -20 10 -39q0 -23 -10 -39q-16 -35 -55 -44q-11 -2 -21 -2q-27 0 -51 17q-8 6 -148 183q-94 117 -96 116q0 -2 -106 -135q-117 -150 -134 -166q-27 -18 -52 -18q-27 0 -52 20q-34 27 -34 63q0 21 11 44z" />
<glyph unicode="y" d="M111 549q0 258 2 268q12 52 63 64q13 3 25 3q36 0 61 -32q14 -16 17 -35q2 -8 2 -256q0 -262 8 -285q6 -18 18 -38q8 -12 33 -33q23 -18 66 -29q19 -4 38 -4q13 0 27 2q45 14 78 57q43 59 55 140q4 33 4 245q0 193 4 201q2 18 17 35q23 32 60 32q12 0 26 -3 q49 -12 61 -64q4 -8 4 -434q-2 -426 -4 -442q-4 -49 -28 -117q-20 -55 -60 -103q-98 -118 -239 -118q-18 0 -37 2q-180 16 -273 151q-26 38 -26 66q0 53 45 78q20 10 39 10q26 0 51 -19q12 -8 26 -32q27 -41 70 -62q41 -20 80 -22q9 -1 18 -1q35 0 60 13q74 35 96 131 q10 39 10 92v45l-12 -8q-45 -31 -119 -45q-13 -1 -26 -1q-27 0 -56 5q-113 14 -188 88q-74 70 -94 182q0 33 -2 273z" />
<glyph unicode="z" horiz-adv-x="868" d="M63 125q0 6 230 295l229 291h-186q-180 0 -193 4q-47 16 -59 61q-2 10 -2 20q0 22 12 43q18 30 53 40q8 4 285 4q274 0 285 -4q14 -2 33 -17q23 -18 29.5 -48t-7.5 -56q0 -4 -229 -297l-230 -289l215 -2q215 0 222 -2q47 -16 59 -64q3 -12 3 -23q0 -36 -34 -63 q-14 -10 -33 -16q-10 -2 -313 -2t-313 2q-18 6 -33 16q-34 27 -34 63q0 21 11 44z" />
<glyph unicode="}" horiz-adv-x="780" d="M168 1128q-4 23 27 138q8 27 16 53.5t12 40.5t4 16q17 33 56 43q53 14 86 -28q14 -16 16 -35q6 -20 -25 -137q-8 -25 -16 -52.5t-12 -41t-4 -15.5q-18 -37 -57.5 -45t-71.5 16q-20 18 -31 47zM446 1128q-4 23 27 138q8 27 16.5 53.5t12.5 40.5t4 16q16 33 55 43 q53 14 86 -28q14 -16 17 -35q6 -20 -25 -137q-8 -25 -16.5 -52.5t-12.5 -41t-4 -15.5q-18 -37 -57 -45t-72 16q-20 18 -31 47z" />
<glyph unicode="~" horiz-adv-x="780" d="M53 1120q4 47 45 109q62 86 158 98q20 2 61 -2q33 -8 56 -18q51 -27 82 -74q18 -25 26 -29q18 -8 39 6.5t33 51.5q10 27 25 41q35 35 82 21.5t59 -62.5q8 -27 -8 -72q-39 -98 -123 -137q-94 -45 -185 0q-49 25 -81 73q-18 25 -27 29q-37 18 -64 -37q-6 -6 -10 -22.5 t-10 -22.5q-18 -33 -56 -40t-69 18q-37 27 -33 69z" />
<glyph unicode="&#xa1;" horiz-adv-x="1224" d="M113 106q4 14 8 17q0 2 188 289q160 250 193 297l8 12l-180 274q-39 61 -87 135t-72 109t-24 37q-6 12 -6 16q-8 35 9.5 65t52.5 40q53 14 84 -27q8 -8 166 -250q156 -242 159 -241q72 109 160 241q152 236 164 250q16 16 31 23q31 14 61.5 1.5t46.5 -40.5q10 -20 10 -39 q0 -23 -10 -39q0 -6 -182 -281l-178 -274l8 -12q0 -2 11 -18.5t29.5 -45.5t41 -63.5l52.5 -80.5t58 -89q184 -279 189 -289q2 0 6 -17q14 -53 -31 -88q-27 -20 -60.5 -17t-55.5 30q0 2 -24 36.5t-69 102.5t-86 131l-172 262q-78 -119 -172 -262q-176 -266 -180 -270 q-23 -27 -56.5 -30t-60.5 17q-45 35 -30 88z" />
<glyph unicode="&#xa3;" horiz-adv-x="1447" d="M111 709q0 217 88 389q70 135 174 219q139 111 309 123h28.5h44h29.5q96 -12 185 -58q176 -84 280 -284q88 -172 88 -389q0 -180 -75 -351q-45 -96 -111 -176l-8 -10l63 -2q61 0 70 -2q45 -14 57 -64q14 -51 -28 -86q-12 -10 -33 -16q-10 -2 -168 -2q-160 0 -170 2 q-51 12 -64 64q-6 29 9 63q18 18 73 86q16 18 36 41t31 36t15 17q100 135 125 303q23 143 -18 299q-25 70 -41 103q-96 199 -283 246q-92 27 -186 0q-188 -47 -285 -246q-55 -115 -63 -264q-16 -244 131 -441q6 -8 80 -94q74 -84 73 -86q16 -35 8 -63q-12 -51 -61 -64 q-10 -2 -170 -2q-158 0 -168 2q-51 12 -63 64q-6 29 6 56.5t39 39.5q16 8 84 8l63 2l-8 10q-61 72 -111 176q-76 170 -75 351z" />
<glyph unicode="&#xa7;" horiz-adv-x="1001" d="M55 817q13 50 64 62q8 4 379 4q373 0 381 -4q51 -12 63 -62q16 -66 -45 -98q-23 -8 -72 -8h-45v-318q0 -317 -4 -327q-6 -29 -29.5 -47.5t-52 -18.5t-52.5 18.5t-30 47.5q-4 10 -4 327v318h-108h-111v-318q0 -317 -2 -327q-8 -29 -30.5 -47.5t-51.5 -18.5q-68 0 -84 66 q-2 10 -2 327v318h-45q-51 0 -74 8q-59 31 -45 98z" />
<glyph unicode="&#xab;" horiz-adv-x="780" d="M221.5 1153.5q1.5 32.5 24.5 54.5q12 12 149 105q145 98 148 100q2 0 8 2t8 4q53 14 86 -28q20 -27 19.5 -59t-23.5 -54q-10 -10 -149 -107q-33 -23 -71 -48t-56 -38l-21 -14q-27 -12 -56.5 -6t-47.5 29q-20 27 -18.5 59.5z" />
<glyph unicode="&#xad;" horiz-adv-x="780" d="M119 1260q0 25 10 43q4 6 21 26q14 12 28 23q19 6 21 6q12 2 45 2q12 -6 20 -8q16 -12 26.5 -22.5t22.5 -26.5q8 -18 9 -43q0 -27 -9 -43q-10 -16 -22 -29q-20 -16 -27 -21q-18 -10 -43 -10q-29 0 -43 10q-8 4 -28 21q-16 20 -21 29q-10 16 -10 43zM453 1260q0 18 10 43 q12 16 22 26q12 14 27 23q18 6 20 6q12 2 46 2q8 -4 20 -8q14 -8 27 -23q10 -10 22 -26q10 -25 10 -43q0 -23 -10 -43q-8 -16 -22 -29q-16 -16 -27 -21q-18 -10 -43 -10t-43 10q-10 4 -27 21q-14 12 -22 29q-10 20 -10 43z" />
<glyph unicode="&#xbb;" horiz-adv-x="780" d="M55 1356q13 51 64 63q25 8 57 -6q20 -10 109 -82l102 -76l14 11q12 8 39 28.5t52 36.5q88 72 108 82l18 6q53 14 87 -28q20 -27 18 -60t-25 -55q-8 -8 -136 -103.5t-136 -101.5q-37 -16 -76 0q-262 197 -270 205q-35 35 -25 80z" />
<glyph unicode="&#xbf;" horiz-adv-x="1447" d="M55 1333q11 52 66 66h24q88 -4 146 -82q74 -96 94 -279q6 -55 6 -110q2 -63 12 -101q27 -106 107 -168q59 -41 111 -53l12 -6q4 0 4 362.5t2 370.5q16 66 82 66q68 0 84 -66q2 -8 2 -370.5t2 -362.5q2 2 14 6q98 29 158 101q43 47 59 120q10 39 11 101q2 57 8 110 q20 182 94 279q59 80 143 82q18 0 29 -2q49 -12 61 -64q8 -29 -5 -55.5t-40 -40.5q-16 -8 -32 -8q-2 0 -13 -6q-12 -16 -24 -41q-23 -45 -35 -107q-14 -63 -14 -155q-4 -57 -4 -68q-12 -100 -56 -176q-63 -119 -186 -191q-61 -37 -154 -55l-16 -2v-176q0 -176 -2 -186 q-8 -29 -31.5 -47.5t-52.5 -18.5t-51.5 18.5t-30.5 47.5q-2 10 -2 186v176l-16 2q-90 18 -156 55q-123 72 -184 191q-45 80 -58 176q0 39 -2 68q-2 90 -14 155q-12 61 -35 107q-12 25 -25 41q-8 6 -12 6q-18 0 -35 10q-59 29 -45 94z" />
<glyph unicode="&#xc0;" horiz-adv-x="1558" d="M113 1296q-8 33 10 63t53 40q8 2 602 2t604 -2q20 -6 33 -17q43 -35 29 -86q0 -6 -293 -645q-295 -641 -295 -643q-16 -33 -49 -44t-66 3q-27 12 -39 41q-2 2 -37.5 81t-115.5 254t-141 308q-293 641 -295 645zM330 1229q100 -219 225 -488l223 -489q96 205 219 475 q53 113 109.5 236.5t85.5 188.5t31 67l6 12h-451q-449 0 -448 -2z" />
<glyph unicode="&#xc1;" horiz-adv-x="2004" d="M2 -68q13 52 64 64q8 2 935.5 2t937.5 -2q49 -12 62 -64q14 -51 -29 -86q-12 -10 -33 -16q-10 -2 -938 -2q-926 0 -935 2q-18 6 -33 16q-45 35 -31 86z" />
<glyph unicode="&#xc2;" horiz-adv-x="557" d="M63 1356q13 51 64 63q53 14 88 -30q4 -4 56.5 -99.5t58.5 -107.5q10 -25 4 -54q-12 -51 -64 -63q-53 -14 -88 31q-4 4 -56 99t-58 108q-10 29 -5 53zM276 1356q13 51 62 63q53 14 88 -30q4 -4 57.5 -99.5t57.5 -107.5q10 -25 4 -54q-12 -51 -64 -63q-51 -14 -86 31 q-4 4 -57 99t-57 108q-12 23 -5 53z" />
<glyph unicode="&#xc3;" horiz-adv-x="557" d="M276 1356q13 51 64 63q53 14 88 -30q4 -4 56.5 -99.5t58.5 -107.5q10 -25 4 -54q-12 -51 -64 -63q-53 -14 -88 31q-4 4 -56 99t-58 108q-10 29 -5 53z" />
<glyph unicode="&#xc4;" horiz-adv-x="290" d="M-100.5 -201.5q-22.5 99.5 28.5 189.5q35 68 119 133q55 43 80 49q41 8 73.5 -19.5t30.5 -68.5q-4 -33 -22 -51q0 -2 -25 -21q-82 -59 -108 -108q-10 -27 -10 -47q0 -18 2 -29q10 -18 20 -33q25 -20 55 -20q20 0 68 65q20 27 51 33q47 10 79 -24.5t21 -79.5 q-6 -16 -20 -39q-84 -119 -188 -125q-80 -4 -150 43q-82 53 -104.5 152.5z" />
<glyph unicode="&#xc5;" horiz-adv-x="1558" d="M168 530q12 52 63 64q8 2 547 2q537 0 547 -2q14 -2 33 -16q45 -31 31 -86q-12 -51 -64 -64q-10 -2 -546.5 -2t-547.5 2q-18 6 -32 16q-45 35 -31 86zM676 139q0 18 10 43q12 16 23 27q12 14 26 22q19 7 21 7q12 2 45 2q8 -4 20 -9q14 -8 27 -22q10 -10 22 -27 q10 -25 11 -43q0 -23 -11 -43q-10 -14 -22 -28q-16 -16 -27 -21q-18 -10 -42.5 -10t-43.5 10q-10 4 -26 21q-12 14 -23 28q-10 20 -10 43zM676 905q0 18 10 43q12 16 23 27q12 14 26 22q19 7 21 7q12 2 45 2q8 -4 20 -9q14 -8 27 -22q10 -10 22 -27q10 -25 11 -43 q0 -23 -11 -43q-10 -14 -22 -28q-16 -16 -27 -21q-18 -10 -42.5 -10t-43.5 10q-10 4 -26 21q-12 14 -23 28q-10 20 -10 43z" />
<glyph unicode="&#xff;" horiz-adv-x="1224" d="M166 698v256q0 383 8 396q2 2 2 4q18 37 57 43q8 4 256 4t269 -4q133 -14 227 -102.5t121 -221.5q31 -166 -72 -295q-29 -35 -67 -67q-61 -49 -138 -78q-76 -31 -184 -43q-25 -2 -168 -4h-141v-256q0 -254 -2 -264q-16 -66 -84 -66q-29 0 -51.5 18.5t-30.5 47.5 q-2 10 -2 632zM336 756h137q150 2 195 8q141 27 217 104q57 57 57 125q0 127 -94 195q-33 25 -90 39q-31 0 -217 2h-205v-236v-237z" />
<glyph unicode="&#x178;" horiz-adv-x="569" d="M119 514q0 291 2 303q12 50 63 62q53 14 86 -29q14 -16 17 -33q2 -10 2 -289q0 -281 2 -290q0 -2 1 -11.5t3 -11.5q8 -31 18 -41q4 -4 13 -2q29 4 49 31q14 14 24 41q12 27 25 37q20 23 53 24.5t58 -18.5q45 -31 30 -84q-6 -29 -30 -74q-74 -115 -193 -127 q-66 -10 -119 27q-78 51 -100 178q-2 16 -4 307z" />
<glyph unicode="&#x2000;" horiz-adv-x="768" />
<glyph unicode="&#x2001;" horiz-adv-x="1537" />
<glyph unicode="&#x2002;" horiz-adv-x="768" />
<glyph unicode="&#x2003;" horiz-adv-x="1537" />
<glyph unicode="&#x2004;" horiz-adv-x="512" />
<glyph unicode="&#x2005;" horiz-adv-x="384" />
<glyph unicode="&#x2006;" horiz-adv-x="256" />
<glyph unicode="&#x2007;" horiz-adv-x="256" />
<glyph unicode="&#x2008;" horiz-adv-x="192" />
<glyph unicode="&#x2009;" horiz-adv-x="307" />
<glyph unicode="&#x200a;" horiz-adv-x="85" />
<glyph unicode="&#x2010;" horiz-adv-x="667" d="M23 461q12 51 63 63q8 2 200.5 2t202.5 -2q49 -12 62 -63q14 -51 -29 -86q-12 -10 -33 -17q-10 -2 -202 -2q-190 0 -201 2q-18 6 -33 17q-45 35 -30 86z" />
<glyph unicode="&#x2011;" horiz-adv-x="667" d="M23 461q12 51 63 63q8 2 200.5 2t202.5 -2q49 -12 62 -63q14 -51 -29 -86q-12 -10 -33 -17q-10 -2 -202 -2q-190 0 -201 2q-18 6 -33 17q-45 35 -30 86z" />
<glyph unicode="&#x2012;" horiz-adv-x="667" d="M23 461q12 51 63 63q8 2 200.5 2t202.5 -2q49 -12 62 -63q14 -51 -29 -86q-12 -10 -33 -17q-10 -2 -202 -2q-190 0 -201 2q-18 6 -33 17q-45 35 -30 86z" />
<glyph unicode="&#x2013;" horiz-adv-x="780" d="M82 1333q-1 70 65 86q61 16 97 -43q8 -25 8 -39q0 -49 41 -75q23 -16 61 -25q10 -4 34 -4t32 4q37 6 63 25q39 29 39 75q0 18 10 39q16 35 56.5 44.5t73 -17.5t32.5 -70q0 -68 -41 -133q-66 -104 -192 -129q-29 -6 -74 -6q-43 0 -74 6q-127 25 -192 129q-39 61 -39 133z " />
<glyph unicode="&#x2014;" horiz-adv-x="780" d="M55 1100q13 51 64 63q8 2 268 2t270 -2q16 -2 33 -16q43 -33 29 -86q-12 -51 -62 -64q-10 -2 -270 -2q-258 0 -268 2q-18 6 -33 17q-45 35 -31 86z" />
<glyph unicode="&#x2018;" horiz-adv-x="557" d="M139 1157q0 141 43 213q21 43 60 49q43 6 71 -16q25 -18 31 -50t-10 -59q-18 -35 -25 -108v-21l13 -4q8 -6 24 -22q10 -10 23 -27q10 -25 10 -43q0 -23 -10 -43q-10 -14 -23 -29q-16 -16 -27 -20q-18 -10 -42.5 -10t-43.5 10q-10 4 -26 20q-6 4 -25 29l-10 21 q-23 27 -31 69q-2 6 -2 41z" />
<glyph unicode="&#x2019;" horiz-adv-x="557" d="M176 1353.5q0 26.5 10 41.5q4 8 21 28q20 16 29 21q12 8 20 8q23 4 45 0q4 0 21 -8q6 -4 26 -21q12 -14 23 -28l8 -17q12 -8 20 -28q6 -12 17 -45q4 -49 -4 -131q-14 -106 -58 -150q-23 -23 -55.5 -25t-56.5 19q-23 18 -30 49t7 57q25 43 25 111l2 20l-10 5q-14 8 -29 22 q-16 20 -21 27q-10 18 -10 44.5z" />
<glyph unicode="&#x201c;" horiz-adv-x="346" d="M86 440q0 367 2 377q13 50 64 62q53 14 86 -29q14 -16 16 -33q2 -10 2 -377q0 -365 -2 -374q-16 -66 -84 -66q-29 0 -51.5 18.5t-30.5 47.5q-2 10 -2 374z" />
<glyph unicode="&#x201d;" horiz-adv-x="458" d="M-106 -211q-12 43 4 74q4 8 16 20q29 31 70 25t63 -41q0 -2 4 -12.5t6 -16.5q8 -35 23 -53l2 -4l6 14q18 43 31 127q0 57 2 457l2 436l2 8q16 48 63 58q39 10 70 -17q20 -12 31 -47q2 -8 2 -430q0 -444 -4 -487q-16 -162 -84 -244q-61 -74 -158 -47q-111 29 -151 180z " />
<glyph unicode="&#x201e;" horiz-adv-x="780" d="M168 1356q12 51 63 63q39 10 68 -12q12 -8 122.5 -105.5t115.5 -101.5q27 -33 16 -72q-12 -51 -64 -63q-39 -6 -67 12q-14 10 -125 106.5t-113 102.5q-27 33 -16 70z" />
<glyph unicode="&#x202f;" horiz-adv-x="307" />
<glyph unicode="&#x205f;" horiz-adv-x="384" />
<glyph unicode="&#x25fc;" horiz-adv-x="880" d="M0 0v881h881v-881h-881z" />
<glyph unicode="&#xfb01;" d="M70 344v98v99q12 74 41 135q90 176 284 205q47 4 101 0q23 -4 36 -9q4 6 15 31q10 29 18 37q16 31 53 41q41 10 72 -16q37 -27 33 -70q-2 -23 -21 -64l-14 -34l2 -2q2 -4 7 -9.5t8 -9.5q92 -90 114 -235q0 -2 1 -30t1 -69t-1 -68.5t-1 -29.5q-12 -76 -41 -133 q-90 -178 -282 -207q-53 -4 -101 0q-23 2 -39 8q-4 -6 -14 -30q-10 -29 -18 -37q-18 -35 -56.5 -42t-68.5 17q-37 27 -33 70q2 23 20 63l15 35l-17 21q-92 90 -114 235zM240 442.5q0 -73.5 2 -90.5q4 -25 20 -65q2 -4 6 -11q4 -8 6 -10l2 4q2 2 8.5 16.5t16.5 38t27.5 64.5 t42.5 98l94 224q-2 2 -20.5 2t-28.5 -2q-39 -6 -64 -21q-92 -45 -110 -158q-2 -16 -2 -89.5zM424 174h57q43 8 84 37q63 51 82 141q4 33 4 90.5t-4 89.5q-4 21 -20 68q-4 4 -9 12l-4 6l-2 -4q-2 -2 -8 -16t-16 -37.5t-27.5 -64.5t-42.5 -99z" />
<glyph unicode="&#xfb02;" horiz-adv-x="1894" d="M119 121q4 8 418 627q418 621 424 626q17 19 40 23q8 2 356.5 2t358.5 -2q51 -12 64 -64q14 -51 -31 -86q-14 -10 -33 -16q-10 -2 -309 -2h-301v-207v-209h244q246 0 254 -2q51 -12 63 -63q14 -51 -31 -86q-10 -10 -32 -17q-8 -2 -254 -2h-244v-235v-238h301 q299 0 309 -2q51 -12 64 -64q14 -51 -31 -86q-14 -10 -33 -16q-10 -2 -356 -2q-348 0 -356 2q-39 6 -60 45q-8 20 -8 160v127h-236h-235l-98 -148q-102 -152 -107 -155l-12 -13q-23 -18 -52.5 -18t-52.5 18q-51 41 -24 103zM582 506h178h176v262v264z" />
<glyph unicode="&#xfb03;" horiz-adv-x="1894" d="M117 801q25 289 205 471q141 147 340 168q8 2 20 2q31 4 86 -2q100 -14 178 -74l10 -8l7 8q16 27 51 33q8 2 350 2t352 -2q18 -6 33 -17q45 -35 31 -86q-12 -51 -64 -63q-10 -2 -305 -2h-295v-209v-207h238q242 0 250 -2q51 -12 63 -63q14 -55 -31 -86q-14 -14 -32 -17 q-8 -2 -250 -2h-238v-237v-236h295q295 0 305 -2q18 -6 33 -16q45 -35 31 -86q-12 -51 -64 -64q-10 -2 -352 -2t-350 2q-35 6 -51 31l-7 8l-10 -8q-76 -55 -182 -74q-47 -4 -102 0q-131 14 -242 86q-131 88 -209 234q-127 227 -94 520zM283 702q0 -51 6 -110 q18 -154 98 -275q109 -160 279 -184q47 -8 86 0q47 6 90 39q31 20 51 51q20 29 33 62q10 23 18 80v673q-8 57 -18 78q-10 33 -33 64q-14 25 -51 51.5t-90 38.5q-12 2 -64 2q-80 -6 -151 -47q-25 -10 -52 -33q-135 -102 -180 -299q-23 -88 -22 -191z" />
<glyph unicode="&#xfb04;" horiz-adv-x="1337" d="M113 702q0 74 4 123q25 221 139 387q106 154 270 207q176 59 353 -28l24 -13l8 -4l21 43q23 45 29 51q20 23 47 29q53 14 86 -29q29 -31 14 -77l-33 -70q-31 -63 -28 -66l2 -2q2 -4 6 -8t6 -8q59 -72 98 -172q43 -113 60 -240q4 -49 4 -123q0 -78 -4 -124 q-25 -221 -140 -388q-102 -152 -270 -208q-180 -57 -352 28q-8 6 -25 15l-8 4l-21 -43q-23 -45 -28 -52q-20 -27 -56 -31.5t-63 17.5q-37 27 -33 70q0 12 4 20q0 4 33 70q31 63 29 65q0 2 -15 21q-59 72 -98 172q-43 113 -59 240q-4 47 -4 124zM283 701.5q0 -50.5 2 -70.5 q12 -160 69 -269q2 -10 17 -36l8 -11l225 453l230 451q0 6 -43 24q-37 21 -84 27q-12 2 -68 2q-90 -12 -166 -74q-49 -39 -86 -94q-88 -141 -102 -332q-2 -20 -2 -70.5zM502 182q25 -14 43 -24q55 -27 122.5 -27t127.5 31q49 20 98 69q57 61 92 136q53 113 66 264 q2 20 2 70.5t-2 70.5q-13 155 -70 270q-6 16 -16 33l-9 12l-225 -452z" />
</font>
</defs>
</svg>
