<?xml version="1.0" standalone="no"?>
<!DOCTYPE svg PUBLIC "-//W3C//DTD SVG 1.1//EN" "http://www.w3.org/Graphics/SVG/1.1/DTD/svg11.dtd" >
<svg xmlns="http://www.w3.org/2000/svg" xmlns:xlink="http://www.w3.org/1999/xlink" version="1.1">
<metadata></metadata>
<defs>
<font id="mtdbt2f4d-55" horiz-adv-x="890" >
<font-face units-per-em="2048" ascent="1638" descent="-410" />
<missing-glyph horiz-adv-x="614" />
<glyph unicode="&#x2019;&#x2019;" horiz-adv-x="1001" d="M66 1362q0 18 6 31q12 20 24 26q8 2 25 2q51 -2 98 -49q53 -53 53 -117q0 -43 -12 -86q-29 -100 -119 -161l-12 -9h-12q-20 4 -33 17q-16 14 -16 33q-2 12 16 24q43 25 68 64q35 47 47 108q2 12 2 35t-2 29l-2 4l-2 -4q-14 -16 -25 -23q-6 -2 -20 -2q-18 0 -39 12 q-39 27 -45 66zM455 1047q0 8 2 12q4 6 20 18q41 27 68 66q43 66 43 141q0 25 -4 25q0 -10 -25 -23q-6 -2 -20 -2q-18 0 -39 12q-39 27 -45 66q0 18 6 31q12 20 24 26q8 2 25 2q37 -4 70 -24q72 -53 79 -123q4 -43 -8 -92q-29 -111 -123 -174l-10 -9h-12q-20 4 -33 17 q-14 12 -18 31z" />
<glyph unicode="&#x21;&#x2018;" horiz-adv-x="557" d="M209 965q0 20 6 32q15 21 25 25q8 4 22 4q31 -2 55 -27q35 -35 29 -67q-8 -31 -33 -41q-6 -4 -20 -4q-23 2 -39 14q-39 25 -45 64zM242 162v524l2 2q2 4 4 6l4 6h10q4 0 9 -1t10 -3q16 -8 28 -28l4 -9v-522v-522l-4 -6l-4 -4h-12q-12 0 -17 2q-23 10 -28 28l-4 9z" />
<glyph unicode="&#x3f;&#x2018;" horiz-adv-x="946" d="M113 -59q-6 61 16 127q41 100 160 194q37 31 71 66q8 8 20.5 21t14.5 16q49 66 66 131q2 10 4 102v92l6 6l2 4h12l17 -4q23 -10 28 -28l7 -9v-79q0 -98 -7 -127q-4 -27 -24 -70q-29 -59 -90 -121q-47 -43 -78 -69q-123 -102 -148 -203q-16 -61 3 -113q20 -61 85.5 -118.5 t137.5 -75.5q25 -8 63 -9q84 0 160 58q78 63 119 172q10 18 12 20q4 4 12 4q18 0 35 -16t17 -33q0 -12 -25 -59q-37 -78 -94 -133q-63 -63 -150 -82q-41 -4 -96 0q-66 12 -119 41q-74 37 -135 98q-90 94 -102 197zM432 965q0 20 6 32q15 21 25 25q6 4 22 4q29 -2 56 -27 q33 -33 26 -67q-4 -29 -30 -41q-6 -4 -21 -4q-25 4 -39 14q-39 25 -45 64z" />
<glyph unicode="&#x2018;&#x2018;" horiz-adv-x="1001" d="M340 1147q-6 33 8 94q29 109 123 172l12 8h9q20 -4 34.5 -16t18.5 -31q0 -8 -4 -12q-2 -6 -21 -19q-41 -27 -65 -65q-45 -63 -45 -141l4 -25h2q0 8 22 23q8 2 21 2q20 0 41 -13q39 -25 45 -65q0 -14 -8 -31q-8 -18 -25 -27q-8 -2 -25 -2q-39 4 -67 25q-70 51 -80 123z M727 1165q0 35 14 86q25 99 119 162l12 8h11q18 -2 35 -16q16 -16 16 -33q0 -14 -16 -24q-41 -25 -70 -64q-31 -41 -45 -106q-4 -14 -4 -37t4 -27v-4l4 4q8 10 22 21q6 2 21 2q20 0 39 -13q39 -25 45 -65q0 -18 -6 -31q-12 -20 -27 -27q-6 -2 -22 -2q-49 2 -97 50 q-55 55 -55 116z" />
<glyph unicode="&#x2d;&#x2d;" horiz-adv-x="1001" d="M2 555q-6 10 4 20l4 7h475h476l8 -4q33 -18 32 -46q0 -10 -4 -14l-4 -4h-475h-475l-8 2q-27 12 -33 39z" />
<glyph unicode="&#x7b;&#x2d;" horiz-adv-x="2004" d="M2 555q-6 10 4 20l4 7h975h979l6 -4q33 -18 33 -46q0 -10 -4 -14l-4 -4h-977h-975l-8 2q-27 12 -33 39z" />
<glyph unicode="ff" horiz-adv-x="1015" d="M2 862q0 8 4 12l4 9h92h93v147q0 152 2 160q6 51 26 88q29 53 64 88q45 41 92 53q27 8 70 -2q53 -10 96 -47q66 -55 102 -149q14 -39 6 -50l-4 -6h-10q-29 4 -45 29l-10 20q-33 86 -80 119q-33 23 -68 17q-51 -6 -94 -50q-49 -49 -70 -122l-4 -13v-143v-139h213h215v147 q0 152 2 160q6 49 25 88q27 49 65 88q47 47 97 53q27 8 65 -2q53 -10 97 -47q66 -55 102 -149q14 -37 4 -50l-4 -6h-8q-33 4 -45 29l-11 20q-41 106 -104 132q-29 8 -45 4q-51 -6 -94 -50q-51 -53 -70 -122l-2 -13l-2 -143v-139h106h105l6 -4q33 -16 33 -45q0 -10 -4 -15 l-4 -6h-119h-123v-401v-400l-4 -6l-4 -4h-12q-12 0 -17 2q-23 10 -29 29l-4 8l-2 387v385h-215h-213v-401v-400l-6 -6l-4 -4h-10q-12 0 -19 2q-16 8 -28 29l-4 8l-2 387v385h-76h-76l-8 4q-33 12 -33 45z" />
<glyph unicode="fl" horiz-adv-x="903" d="M2 862q0 8 4 12l4 9h92h93v159q2 174 10 205q8 45 33 99q41 76 90 127q20 20 39 32q30 23 65 29t103 -4q102 -16 176 -78q43 -39 55 -68q2 -6 2 -690v-682l-4 -6l-4 -4h-12q-12 0 -17 2q-23 10 -29 29l-4 8l-2 674v676l-10 8q-61 66 -178 65q-25 0 -35 -2 q-51 -16 -90 -55q-102 -102 -115 -238v-151v-135h105h104l8 -4q33 -18 33 -45q0 -10 -4 -15l-4 -6h-121h-121v-401v-400l-6 -6l-4 -4h-10q-12 0 -19 2q-16 8 -28 29l-4 8l-2 387v385h-76h-76l-8 4q-33 12 -33 45z" />
<glyph unicode="&#xb8;i" horiz-adv-x="1404" d="M2 862q0 8 4 12l4 9h92h93v147q0 152 2 160q6 51 26 88q29 53 64 88q47 47 96 53q29 6 66 -2q53 -10 96 -47q66 -55 102 -149q14 -39 6 -50l-4 -6h-10q-29 4 -45 29l-10 20q-33 86 -80 119q-33 23 -68 17q-51 -6 -94 -50q-49 -49 -70 -122l-4 -13v-143v-139h213h215v147 q0 166 9 199q16 63 59 114q82 101 168 113q49 10 123 -8q80 -20 135 -66q25 -18 53 -53q2 -2 4 -5t4 -5t4 -2q20 -12 33 -33q25 -33 8 -65q-14 -20 -26 -25q-6 -4 -21 -4q-25 4 -39 14q-53 33 -45 80q2 10 13 25l6 8l-10 8q-57 55 -152 64q-55 6 -113 -27 q-111 -68 -137 -184q-2 -12 -4 -156v-139h229h232l6 -4q23 -16 29 -29l6 -8v-416v-414l-6 -6l-4 -4h-11q-12 0 -18 2q-16 8 -29 29l-4 8v387v385h-215h-215v-401v-400l-4 -6l-4 -4h-12q-12 0 -17 2q-23 10 -29 29l-4 8l-2 387v385h-215h-213v-401v-400l-6 -6l-4 -4h-10 q-12 0 -19 2q-16 8 -28 29l-4 8l-2 387v385h-76h-76l-8 4q-33 12 -33 45z" />
<glyph unicode="&#xb8;l" horiz-adv-x="1404" d="M2 862q0 8 4 12l4 9h92h93v147q0 152 2 160q6 51 26 88q29 53 64 88q47 47 96 53q29 6 66 -2q53 -10 96 -47q66 -55 102 -149q14 -39 6 -50l-4 -6h-10q-29 4 -45 29l-10 20q-33 86 -80 119q-33 23 -68 17q-51 -6 -94 -50q-49 -49 -70 -122l-4 -13v-143v-139h213h215v159 q2 174 11 205q8 45 32 99q35 72 90 127q20 20 39 32q31 23 66 29q37 8 100 -4q100 -14 176 -78q45 -37 58 -68v-2q2 -82 2 -688v-682l-6 -6l-4 -4h-11q-12 0 -18 2q-16 8 -29 29l-4 8v674v676l-10 8q-61 66 -178 65q-25 0 -37 -2q-47 -14 -88 -55q-100 -98 -115 -238 q-2 -10 -2 -151v-135h106h105l6 -4q33 -16 33 -45q0 -10 -4 -15l-4 -6h-119h-123v-401v-400l-4 -6l-4 -4h-12q-12 0 -17 2q-23 10 -29 29l-4 8l-2 387v385h-215h-213v-401v-400l-6 -6l-4 -4h-10q-12 0 -19 2q-16 8 -28 29l-4 8l-2 387v385h-76h-76l-8 4q-33 12 -33 45z" />
<glyph horiz-adv-x="0" />
<glyph unicode="&#xd;" horiz-adv-x="681" />
<glyph unicode=" "  horiz-adv-x="614" />
<glyph unicode="&#x09;" horiz-adv-x="614" />
<glyph unicode="&#xa0;" horiz-adv-x="614" />
<glyph unicode="!" horiz-adv-x="557" d="M209 78q0 18 6 31q13 20 25 26q8 2 22 2q31 0 55 -24q35 -35 29 -68q-8 -31 -33 -43q-6 -2 -20 -2q-23 2 -39 14q-39 25 -45 64zM242 883v524l2 2q2 4 4 6l4 6h10q4 0 9 -1t10 -3q16 -8 28 -28l4 -9v-522v-520l-4 -6l-4 -6h-12q-12 0 -17 4q-23 12 -28 28l-4 9z" />
<glyph unicode="#" horiz-adv-x="1558" d="M113 328q0 10 4 14l4 6h201h200v164v166h-184h-184l-9 4q-33 12 -32 45q0 8 4 12l4 9h201h200v208v213q2 1 6 9l2 4h13l16 -4q23 -16 29 -29l6 -8v-197v-196h186h185v208v213l4 5l4 8l12 -2q12 0 16 -2q23 -16 29 -29l6 -8v-197v-196h185h186l6 -5q33 -18 33 -45 q0 -10 -4 -14l-4 -6h-201h-201v-166v-164h183q182 0 188 -2q39 -14 39 -47q0 -10 -4 -14l-4 -4l-201 -2h-201v-211v-211l-6 -7l-4 -4h-10q-12 0 -19 2q-16 8 -28 29l-4 8v197v197h-187h-184v-211v-211l-6 -7l-4 -4h-11q-12 0 -18 2q-16 8 -29 29l-4 8v197v197h-184l-184 2 l-9 2q-33 16 -32 45zM594 348h186h185v166v164h-185h-186v-164v-166z" />
<glyph unicode="$" horiz-adv-x="1001" d="M117 223l4 6h12q27 -2 47 -36q20 -31 43 -54q88 -96 226 -108q8 -2 20 -2h6v319v320l-29 8q-14 4 -51 16q-127 43 -205 156q-43 68 -51 123q-27 121 60 233q47 53 75 76q90 74 191 82h10v80q0 80 2 82q0 4 4 8l4 4h11q12 0 18 -4q18 -10 29 -29l4 -8v-70v-67l12 -2 q31 -4 62 -17q90 -31 184 -108q27 -20 37 -37q6 -16 -2 -29l-4 -6h-11q-18 0 -45 23q-102 90 -209 106q-8 2 -18 2h-6v-291v-292l8 -2q25 -8 41 -13l43 -16q49 -16 102 -60q16 -12 60 -55q47 -61 69 -127q18 -53 21 -104q4 -141 -123 -262q-43 -45 -104 -78 q-49 -25 -107 -31h-10v-82v-80l-4 -6l-4 -4h-13q-12 0 -16 2q-23 10 -29 29l-4 8l-2 68v67l-6 2q-113 12 -209 76q-41 27 -78 63q-27 29 -49 62q-31 45 -16 59zM211 1055q-14 -61 4 -125q37 -119 158 -166q31 -12 96 -33l6 -2v279q0 279 -2 278q-4 -2 -10 -4 q-94 -25 -174 -102q-57 -63 -78 -125zM547 35l12 4q61 16 122.5 64.5t96.5 109.5q29 51 35 90q4 14 4 45q0 41 -8 74q-33 125 -145 180q-29 15 -76 29l-37 12q-4 0 -4 -303v-305z" />
<glyph unicode="%" horiz-adv-x="1337" d="M135 1174q33 96 88 151q25 25 58 35q23 8 61 -2q33 -10 49 -23q29 -25 49 -51q49 -61 74 -135q49 -152 0 -299q-41 -125 -111 -172q-27 -18 -65 -16q-23 0 -53 12q-23 10 -52 37q-31 35 -61 86q-102 186 -37 377zM199 883q18 -59 61 -123q29 -35 57 -27q49 8 97 92 q20 35 30 72q41 117 7 244q-18 59 -62 123q-16 20 -28.5 24t-30.5 2q-49 -14 -94 -92q-18 -37 -31 -72q-41 -121 -6 -243zM223 49q0 6 2 12q4 6 410 626t412 630q4 4 16 4q31 -4 45 -33q6 -20 2 -28l-205 -312q-203 -311 -406.5 -621.5t-207.5 -316.5l-6 -8h-11 q-18 0 -34.5 16.5t-16.5 30.5zM821 473q33 94 88 152q27 26 56 32q27 8 61 0q31 -8 49 -24q20 -14 51 -49q45 -61 72 -138q51 -150 2 -296q-49 -133 -113 -173q-27 -20 -63 -18q-33 2 -55 14q-27 12 -49 37q-33 31 -62 84q-102 186 -37 379zM885 182q20 -66 61 -123 q27 -35 58 -28q51 12 96 92q18 35 30 72q41 121 7 243q-20 66 -62 123q-12 15 -28 27q-14 6 -31 0q-49 -10 -94 -90q-18 -33 -31 -74q-43 -115 -6 -242z" />
<glyph unicode="&#x26;" horiz-adv-x="1337" d="M117 383q18 121 119 240q59 74 147 143l4 2l-6 25q-33 106 -45 229q-4 80 0 127q8 55 35 106q20 45 69 99q50 55 105 65q27 4 51 0q55 -6 98 -53q94 -88 82 -199q-6 -80 -45 -161q-45 -84 -127 -166q-70 -70 -127 -111q-8 -8 -6 -10q10 -33 33 -80q80 -176 219 -332l6 -6 l6 12q31 72 53 150l8.5 25.5l8.5 25.5q41 125 100 211q59 88 144 131q49 25 110 25q25 0 31 -2q33 -16 33 -45q0 -10 -4 -15l-5 -6h-14q-51 -6 -100 -27q-104 -51 -172 -188q-37 -72 -70 -180q-35 -109 -57 -158l-10 -20l6 -7q37 -33 92 -71q94 -63 190 -82q27 -6 80 -10 q25 -2 31 -4q33 -16 33 -46q0 -10 -4 -14l-5 -4h-22q-166 0 -322 107q-61 41 -98 77l-8 4l-6 -10q-84 -135 -191 -166q-45 -16 -98 -14q-76 2 -141 37q-43 20 -72 43q-84 66 -119 139q-37 72 -20 164zM184 297q0 -33 2 -41q14 -51 62 -98q98 -98 213 -86q119 12 201 118 q41 51 40 62q-8 8 -18 20q-162 175 -258 394l-6 16q-6 4 -94 -84q-115 -123 -140 -254q-2 -14 -2 -47zM408 1104q-6 -43 4 -127q6 -78 26 -156l2 -12l19 14q90 74 135 129q94 115 108 230q2 6 3 39q0 29 -3 36q-14 41 -40 68q-19 19 -37 25q-12 2 -29 0q-66 -12 -119 -82 q-59 -78 -69 -164z" />
<glyph unicode="(" horiz-adv-x="724" d="M141 651q18 252 99 451q70 176 188 317q28 35 100 101l21 18h10q18 -2 35 -16q16 -16 16 -31q2 -12 -24 -35q-55 -47 -99 -98q-141 -166 -213 -402q-70 -225 -65 -483q2 -55 8 -123q23 -285 131 -495q88 -178 234 -304q4 -4 12 -10l6 -6q10 -14 10 -27q0 -10 -4 -14 l-4 -4h-10q-18 0 -43 21q-166 137 -266 344q-115 229 -140 532q-12 125 -2 264z" />
<glyph unicode=")" horiz-adv-x="724" d="M111 -459q2 6 30 33q35 29 92 92q197 231 256 586q25 150 23 301q-4 90 -6 123q-25 281 -131 495q-92 180 -236 304q-25 20 -26 34q-6 13 4 23l4 6h12q16 -2 39 -22q164 -137 268 -345q115 -236 140 -530q10 -135 0 -266q-18 -250 -99 -451q-66 -176 -188 -317 q-47 -55 -103 -103l-18 -16h-10q-23 4 -33 14q-23 23 -18 39z" />
<glyph unicode="*" horiz-adv-x="1001" d="M131 1319q2 2 6 10q4 4 13 4h12q12 -6 153 -92l148 -90v186l2 189l4 8l4 4h10q4 0 9.5 -1t9.5 -3q18 -12 28 -29l5 -8v-164l2 -164l133 82l135 82h12q16 0 33 -16q16 -12 16 -33q0 -10 -15 -21.5t-136 -84.5q-139 -84 -146 -91l82 -51l2 -2h2l2 -2h2l3 -2h2v-2l2 -2h2 l2 -2h2l2 -2h2l2 -2l2 -2h2l2 -2h2l2 -2h2l2 -2l2 -2l2 -2h2l2 -2l5 -2q135 -82 145 -93q16 -12 16 -32q0 -8 -4 -13l-4 -6h-10q-12 0 -19 4q-6 2 -151 90l-141 88l-2 -188v-186l-5 -6l-4 -5h-12q-12 0 -16 2q-23 10 -29 29l-4 8l-2 164v164l-135 -84l-135 -82h-11 q-16 2 -31.5 15.5t-17.5 29.5q-4 8 6 23q2 0 20.5 12t55.5 35.5t72 44.5l141 86l-29 20q-4 2 -18 11q-49 31 -88 55q-141 88 -143 90q-23 18 -19 39z" />
<glyph unicode="+" horiz-adv-x="1558" d="M113 526q0 10 4 15l4 6h311h311v309v313q3 1 7 9l2 4h12l16 -4q23 -16 29 -29l6 -8v-297v-297h295h297l6 -4q33 -14 33 -45q0 -8 -4 -13l-4 -6l-312 -2h-311v-309v-311l-6 -7l-4 -4h-10q-12 0 -19 2q-16 8 -28 29l-5 8v297v295h-294l-295 2l-9 2q-33 16 -32 45z" />
<glyph unicode="," horiz-adv-x="557" d="M209 80q0 18 6 31q13 20 25 26q8 2 24 2q51 -2 98 -49q53 -53 54 -117q0 -43 -13 -86q-29 -100 -118 -161l-13 -9h-12q-20 4 -33 17q-16 14 -16 33q-2 12 16 24q43 25 68 64q35 47 47 108q2 12 2 34.5t-2 29.5l-2 4l-2 -4q-14 -16 -25 -23q-6 -2 -20 -2q-18 0 -39 12 q-39 27 -45 66z" />
<glyph unicode="-" horiz-adv-x="667" d="M23 451q-6 10 4 20l4 6h241h242l6 -4q33 -18 33 -45q0 -10 -4 -14l-4 -4h-242h-240l-8 2q-27 12 -32 39z" />
<glyph unicode="." horiz-adv-x="557" d="M209 78q0 18 6 31q13 20 25 26q8 2 22 2q31 0 55 -24q35 -35 29 -68q-8 -31 -33 -43q-6 -2 -20 -2q-23 2 -39 14q-39 25 -45 64z" />
<glyph unicode="/" horiz-adv-x="1001" d="M113 -463q0 8 354 998q356 995 358 997q4 4 17 4q16 -2 32 -16q16 -16 17 -33q0 -2 -354 -998q-98 -272 -196.5 -545.5t-130.5 -360.5t-32 -89l-4 -4h-12q-12 0 -17 2q-33 16 -32 45z" />
<glyph unicode="0" horiz-adv-x="946" d="M111 676q0 358 6 391q12 51 49 115q47 68 104 112q68 56 146 66q16 2 69 2q96 -12 181 -82q29 -20 79 -78q76 -96 89 -198v-359q0 -356 -7 -391q-18 -92 -98 -174q-72 -82 -154 -107q-41 -14 -81 -14q-113 0 -215 82q-43 37 -80 80q-74 96 -86 198q-2 6 -2 357zM182 657 q0 -356 2 -366q10 -90 92 -176q80 -80 168 -86q92 -4 181 69q111 88 133 203l4 16v349q0 354 -2 364q-6 94 -92 176q-66 70 -140 82q-66 14 -145 -24q-74 -37 -127 -103.5t-70 -138.5l-2 -16z" />
<glyph unicode="1" horiz-adv-x="946" d="M170 924l25 28q25 29 74.5 86.5t90.5 106.5l189 217h10q4 0 9 -1t10 -3q18 -12 28 -29l4 -8v-655v-654l-4 -6l-4 -4h-12q-12 0 -17 2q-20 10 -28 29l-4 8l-2 590v588l-156 -179l-154 -178h-12q-10 0 -18 4q-18 10 -27.5 27.5t-1.5 30.5z" />
<glyph unicode="2" horiz-adv-x="946" d="M111 1004q0 25 6 59q14 70 71 147q37 45 82 82q68 56 146 66q27 6 69 2q90 -8 181 -80q43 -37 79 -80q66 -84 84 -172q6 -51 2 -88q-14 -164 -215 -416q-33 -43 -231 -276l-154 -176l281 -2h281l8 -4q33 -18 33 -46q0 -10 -5 -14l-4 -4h-336h-335l-9 2q-18 10 -28.5 26.5 t-3.5 28.5q8 8 186 220q254 299 297 356q152 203 164 340q8 70 -25 139q-51 102 -149 154q-78 41 -168 10q-61 -20 -118.5 -72.5t-88.5 -113.5q-23 -51 -29 -107q0 -18 -4 -24l-4 -5h-10q-10 0 -21 5q-29 12 -32 43z" />
<glyph unicode="3" horiz-adv-x="946" d="M117 252l4 4h12q16 0 33 -16q6 -4 16 -25q41 -82 105 -127q66 -51 147 -57q63 -6 129 26q70 35 124 103.5t71 140.5q2 14 4 125q0 115 -2 125q-10 96 -92 176q-63 66 -140 82q-12 4 -84 4l-69 2l-8 2q-41 25 -33 53l18 23q18 20 59.5 69.5t84.5 100.5l161 188h-225h-223 l-8 4q-27 12 -33 37q-4 15 4 23l4 6h281h280l6 -4q43 -25 33 -53l-18 -21q-16 -20 -59.5 -72.5t-82.5 -99.5l-161 -186l6 -2q43 0 84 -15q84 -27 162 -104q39 -39 65 -80q49 -72 62 -160v-116q0 -123 -7 -154q-14 -63 -49 -113q-53 -80 -131 -135q-57 -35 -100 -41 q-70 -16 -148 6q-180 45 -276 234q-16 33 -6 47z" />
<glyph unicode="4" horiz-adv-x="946" d="M88 453q0 4 113 450l114 447l4 8l5 4h10q18 -2 35 -16q12 -12 16 -29q0 -10 -104 -420q-104 -416 -107 -416v-4h182h183v197l2 196l4 4l4 9l10 -2q12 0 19 -2q18 -12 28 -29l4 -8v-185v-180h131h129l7 -4q33 -16 32 -45q0 -10 -4 -14l-4 -6h-143h-148v-197v-199l-4 -6 l-4 -4h-12q-12 0 -17 2q-20 10 -28 29l-4 8l-2 182v185h-205h-203l-8 4q-31 16 -35 41z" />
<glyph unicode="5" horiz-adv-x="946" d="M117 252l4 4h12q16 0 33 -16q6 -4 16 -25q41 -82 105 -127q66 -51 147 -57q63 -6 129 26q70 35 124 103.5t71 140.5q2 14 4 125q0 115 -2 125q-10 96 -92 176q-94 96 -197 86q-96 -12 -170 -74q-35 -35 -59 -77q-10 -18 -23 -19q-33 4 -49 35l-2 8l-2 307q0 309 2 312 q0 6 6 10l4 6h279h280l6 -4q33 -16 33 -45q0 -10 -4 -15l-4 -6h-264h-264v-227v-227l12 12q86 74 201 74q111 0 213 -82q29 -20 79 -78q76 -96 89 -199v-116q0 -123 -7 -154q-14 -63 -49 -113q-53 -80 -131 -135q-57 -35 -100 -41q-70 -16 -148 6q-180 45 -276 234 q-16 33 -6 47z" />
<glyph unicode="6" horiz-adv-x="946" d="M111 676q0 358 6 391q12 51 49 115q47 68 104 112q68 56 146 66q16 2 76 2q68 -6 114 -27q66 -25 119 -67q10 -8 68 -66q25 -33 36 -57q8 -16 0 -29l-4 -6h-10q-10 0 -20 4q-12 6 -31 31q-47 74 -123 112q-57 29 -127 35q-31 2 -70 -4q-68 -16 -125 -65 q-106 -82 -133 -201q-2 -16 -4 -139v-140l2 -16l9 10q27 35 77 78q66 53 152 68h63q96 -12 181 -82q29 -20 79 -78q76 -96 89 -199v-116q0 -123 -7 -154q-18 -92 -98 -174q-72 -82 -154 -107q-41 -14 -81 -14q-113 0 -215 82q-43 37 -80 80q-74 96 -86 198q-2 6 -2 357z M182 416q0 -115 2 -125q10 -90 92 -176q80 -80 168 -86q92 -4 181 69q111 88 133 203q2 14 4 125q0 115 -2 125q-10 96 -92 176q-66 70 -140 82q-66 14 -145 -25q-74 -37 -127 -103.5t-70 -137.5q-2 -16 -4 -127z" />
<glyph unicode="7" horiz-adv-x="946" d="M111 1182q0 119 2 123q0 4 4 8l4 6h364h365l6 -4q33 -18 33 -45q0 -8 -211 -633q-209 -612 -217 -631l-4 -4h-13q-12 0 -16 2q-33 16 -33 45q0 8 201 598q201 592 201 596l4 6h-309h-310v-108v-109l-4 -6l-4 -4h-10q-10 0 -21 4q-18 10 -28 29l-2 8z" />
<glyph unicode="8" horiz-adv-x="946" d="M111 358q0 78 32 152q29 55 72 100q55 57 113 88l16 11l-12 6q-43 33 -88 86q-41 49 -66 110q-49 131 12 254q12 29 48 74q33 41 65 66q58 47 121 57q47 4 90 -6q61 -16 115 -62q39 -29 71 -71q41 -49 66 -111q53 -129 -10 -254q-33 -59 -76 -104q-39 -39 -70 -60l-6 -4 q2 -2 6 -4q14 -6 58 -39q41 -33 77 -78q66 -84 84 -172q4 -23 5 -67q0 -82 -33 -148q-45 -88 -127 -155q-72 -57 -152 -66q-29 -4 -61 0q-94 10 -182 80q-43 37 -80 80q-66 86 -82 172q-6 35 -6 65zM183 344q-1 -33 1 -51q8 -92 92 -178q80 -80 168 -86q92 -4 181 69 q111 88 133 203q10 47 2 96q-10 96 -92 178q-62 66 -140 82q-70 12 -145 -24q-74 -37 -127 -104.5t-70 -139.5q-2 -12 -3 -45zM242 1079q-43 -129 45 -245q29 -39 63 -64q55 -45 117 -39q82 10 151 80q61 61 84 133q43 129 -45 246q-33 41 -61 63q-41 33 -86 39 q-61 6 -133 -39q-96 -63 -135 -174z" />
<glyph unicode="9" horiz-adv-x="946" d="M111 915q0 123 6 152q12 51 49 115q47 68 104 112q68 56 146 66q16 2 69 2q96 -12 181 -82q29 -20 79 -78q76 -96 89 -198v-359q0 -356 -7 -391q-18 -92 -98 -174q-72 -82 -154 -107q-35 -14 -86 -14q-104 0 -192 47q-115 53 -176 160q-16 27 -4 41l4 6h12q27 -2 47 -35 q45 -74 123 -115q53 -27 127 -32q35 -6 70 4q63 12 125 63q111 88 133 203q2 14 4 139v140v16l-10 -12q-41 -49 -78 -78q-72 -57 -152 -66q-29 -4 -61 0q-94 10 -182 80q-43 37 -80 80q-74 96 -86 199q-2 6 -2 116zM182 895q0 -115 2 -125q10 -90 92 -176q80 -80 168 -86 q92 -4 181 70q111 88 133 202q2 14 4 125q0 115 -2 125q-10 96 -92 176q-66 70 -140 82q-66 14 -145 -24q-74 -37 -127 -103.5t-70 -138.5q-2 -16 -4 -127z" />
<glyph unicode=":" horiz-adv-x="557" d="M209 78q0 18 6 31q13 20 25 26q8 2 22 2q31 0 55 -24q35 -35 29 -68q-8 -31 -33 -43q-6 -2 -20 -2q-23 2 -39 14q-39 25 -45 64zM209 821q0 20 6 33q15 21 25 25q8 4 22 4q31 -2 55 -27q35 -35 29 -68q-8 -31 -33 -40q-6 -4 -20 -5q-23 2 -39 15q-39 25 -45 63z" />
<glyph unicode=";" horiz-adv-x="557" d="M209 80q0 18 6 31q13 20 25 26q8 2 24 2q51 -2 98 -49q53 -53 54 -117q0 -43 -13 -86q-29 -100 -118 -161l-13 -9h-12q-20 4 -33 17q-16 14 -16 33q-2 12 16 24q43 25 68 64q35 47 47 108q2 12 2 34.5t-2 29.5l-2 4l-2 -4q-14 -16 -25 -23q-6 -2 -20 -2q-18 0 -39 12 q-39 27 -45 66zM209 823q0 18 6 31q13 21 25 27q8 2 22 2q31 0 55 -25q35 -35 29 -67q-8 -31 -33 -43q-6 -2 -20 -3q-23 2 -39 15q-39 25 -45 63z" />
<glyph unicode="=" horiz-adv-x="1558" d="M113 322q-6 10 4 20l4 6h639q641 0 647 -2q39 -14 39 -47q0 -10 -4 -14l-4 -4h-643h-641l-9 2q-27 12 -32 39zM113 719q-6 12 4 22l4 7h643h643l6 -5q33 -18 33 -45q0 -10 -4 -14l-4 -6h-641h-643l-9 4q-27 12 -32 37z" />
<glyph unicode="?" horiz-adv-x="946" d="M111 1143q0 8 6 24q25 59 59 109q41 53 84 88q61 49 137 55h21.5h35h23.5q66 -14 115 -39q78 -41 133 -96q39 -41 59 -72q49 -74 50 -153q0 -53 -17 -98q-20 -51 -61 -99q-31 -43 -107 -106q-55 -47 -78 -72q-72 -78 -86 -154q-4 -12 -4 -102v-90l-6 -6l-4 -6h-10 q-12 0 -19 4q-18 10 -28 28l-4 9l-2 79q0 96 6 125q16 76 75 148q41 49 111 106q68 59 94 93q66 84 68 159q2 72 -45 137q-39 45 -64 64q-72 55 -151 72q-37 4 -72 0q-145 -29 -225 -189q-14 -29 -19 -39q-2 -6 -10 -22q-6 -4 -14 -4q-16 2 -32.5 16t-18.5 31zM375 78 q0 14 8 31q7 18 25 26q6 2 20 2q31 0 57 -24q33 -33 27 -68q-4 -27 -31 -43q-8 -2 -20 -2q-25 4 -41 14q-39 25 -45 64z" />
<glyph unicode="@" horiz-adv-x="1558" d="M117 641q-35 260 149 504q133 178 287 250q78 39 172 47q12 2 48 1t48 -3q178 -25 344 -172q41 -37 78 -78q154 -172 191 -359q35 -160 -27 -296q-55 -125 -137 -168q-27 -14 -64 -15q-29 -2 -61 10q-61 33 -90 91l-6 12l-15 -14q-92 -96 -203 -109q-49 0 -67 2 q-100 12 -189 94q-100 90 -118 189q-4 27 -4 98q0 59 4 74q10 59 51 116q31 41 76 78q49 39 96 56q45 14 88 12q39 -2 72 -10q35 -8 67 -27q55 -25 119 -84l8 -10v53q0 57 8 64q4 4 13 4q29 -4 47 -33l4 -8v-265l2 -264l2 -10q8 -18 23 -33q18 -18 34 -16q35 0 72 27 q78 57 117 176q18 55 18 106q10 250 -221 475q-135 131 -281 160q-43 6 -73 6q-35 0 -78 -6q-193 -39 -363 -240q-137 -164 -168 -342q-6 -55 -6 -98q0 -47 6 -98q39 -215 226 -395q139 -137 297 -162q111 -12 264 16q158 25 272 90q61 37 125 96l12 13h11q20 -4 33 -17 q23 -20 16 -41q-2 -8 -37 -38q-96 -90 -248 -142q-129 -41 -291 -47q-72 -4 -110 0q-135 12 -262 94q-72 49 -140 119q-211 213 -241 467zM524 679.5q0 -56.5 2 -71.5q20 -68 72 -119q84 -88 182 -77q100 12 189 94q53 51 63 110q2 6 2 107q-2 86 -3 98.5t-11 34.5 q-16 35 -56 68.5t-85 50.5q-40 14 -60 14q-57 6 -123 -24q-47 -25 -92 -66q-66 -68 -78 -145q-2 -18 -2 -74.5z" />
<glyph unicode="A" horiz-adv-x="1224" d="M111 47q0 8 233 694q230 681 238 695l4 6h10q4 0 9 -1t9 -3q20 -12 27 -25q2 -2 238 -694q233 -690 233 -698.5t-4 -14.5l-4 -4h-10q-12 0 -19 2q-20 16 -24 23q-2 2 -8.5 18t-21.5 61.5t-32 90.5q-45 139 -63 190l-8 25h-302h-299l-67 -201q-63 -188 -72 -205l-4 -6h-12 q-20 4 -33 16q-14 12 -18 31zM342 483q0 -2 274 -2q276 0 277 2q-61 183 -137 406l-140 405q-61 -182 -137 -403q-137 -403 -137 -408z" />
<glyph unicode="B" horiz-adv-x="1224" d="M166 711q0 672 2 673q0 3 4 11l4 4h219q233 0 269 -4q158 -27 286 -152q106 -103 106 -209q0 -27 -7 -55q-6 -27 -19 -51q-27 -53 -83 -104.5t-124 -84.5l-22 -12l6 -2q25 -8 78 -39q86 -53 149 -127q77 -96 77 -188q0 -13 -1 -25q-2 -43 -25 -90q-37 -74 -127 -145 q-125 -98 -262 -109q-14 -2 -254 -2l-233 2l-10 4q-18 10 -29 29l-2 8zM238 70h196q203 0 213 2q141 12 264 110q104 84 125 176q2 12 2 39q0 29 -2 35q-14 63 -78 131q-110 104 -253 127q-10 2 -242 4h-225v-311v-313zM238 764h192q193 0 211 4q131 18 236 111 q84 66 102 143q4 14 4 41t-4 37q-12 53 -64 104q-49 49 -118 84q-57 31 -125 39q-8 2 -221 2h-213v-282v-283z" />
<glyph unicode="C" horiz-adv-x="1337" d="M113 657q-2 30 -2 60.5t2 62.5q25 193 135 355q84 129 201 215q82 63 167 82q42 10 62 10q18 2 37 2t39 -2q109 -10 198 -53q27 -12 70 -41q102 -66 180 -187q20 -35 21 -49q0 -10 -4 -14l-5 -6h-8q-12 0 -20 4q-16 8 -35 39q-59 104 -156.5 166.5t-216.5 70.5 q-14 1 -28 1q-206 0 -388 -224q-158 -188 -176 -406q-2 -18 -2 -59t2 -61q12 -121 70 -230q45 -94 119 -178t149 -129q97 -57 194 -57h7q193 10 330 141q49 45 96 123q4 10 10 14q4 4 13 4q20 -4 32 -16q14 -12 19 -31q0 -8 -6 -20q-35 -68 -107 -140q-111 -104 -256 -135 q-41 -8 -104 -8q-59 0 -95 8q-201 43 -374 275q-145 195 -170 413z" />
<glyph unicode="D" horiz-adv-x="1280" d="M166 711q0 672 2 673q0 3 4 11l4 4h209q211 0 229 -4q78 -12 136 -43q145 -74 260 -230q159 -212 159 -437q0 -22 -2 -44q-6 -90 -39 -197q-63 -188 -202 -331q-41 -37 -74 -62q-68 -43 -135 -49q-10 -2 -262 -2l-246 2l-10 4q-18 10 -29 29l-2 8zM238 70h208 q213 0 222 2q154 16 286 209q121 178 140 372q2 32 2 62.5t-2 60.5q-20 170 -136 324q-158 211 -340 229h-196h-184v-629v-630z" />
<glyph unicode="E" horiz-adv-x="1114" d="M166 711q0 672 2 673q0 3 4 11l4 4h393h392l6 -4q33 -12 32 -45q0 -8 -4 -13l-4 -6l-377 -2h-376v-282v-283h305h305l8 -4q33 -18 33 -45q0 -10 -4 -15l-4 -6h-322h-321v-311v-313h360h363l6 -4q33 -16 32 -46q0 -10 -4 -14l-4 -4h-391h-391l-10 4q-18 10 -29 29l-2 8z " />
<glyph unicode="F" horiz-adv-x="1058" d="M166 711q0 672 2 673q0 3 4 11l4 4h393h392l6 -4q33 -12 32 -45q0 -8 -4 -13l-4 -6l-377 -2h-376v-297v-297h305h305l8 -4q33 -18 33 -45q0 -10 -4 -14l-4 -6h-322h-321v-328v-326l-5 -6l-4 -4h-12q-12 0 -16 2q-20 10 -29 29l-4 8z" />
<glyph unicode="G" horiz-adv-x="1337" d="M111 700v19q0 129 51 250q31 70 53 110q39 68 111 152q70 70 90 88q133 111 270 123q20 2 42 2t46 -2q86 -6 162 -31q88 -29 158 -80q61 -43 116 -117q12 -20 13 -32q0 -8 -4 -13l-5 -6h-8q-12 0 -20 4q-18 8 -29 27q-57 82 -151.5 127t-210.5 51q-13 1 -25 1 q-85 0 -168 -36q-139 -66 -248 -204q-117 -150 -151 -295q-20 -76 -20 -153q0 -145 73 -290q47 -94 122 -177t152 -130q70 -43 152 -57q22 -2 48 -2t56 2q164 18 277 104q47 35 80 80l10 12v203v203h-201h-198l-11 4q-8 4 -14 10q-23 18 -18 39q0 4 6 10l4 6h231h232l6 -4 q23 -16 29 -28l6 -8v-240v-240l-6 -8l-19 -24q-129 -162 -362 -189q-38 -2 -70 -2t-57 2q-113 16 -222 86q-137 94 -245 254q-127 195 -133 399z" />
<glyph unicode="H" horiz-adv-x="1280" d="M166 711v673l2 5q2 4 4 6l4 4h10q12 0 19 -4q18 -10 28 -29l5 -8v-311v-312h401h401v326v325l4 7l5 6h12q12 0 16 -4q23 -12 29 -29l6 -8v-672v-674l-6 -6l-4 -4h-10q-12 0 -19 2q-16 8 -29 29l-4 8v313v312h-401h-401v-328v-326l-5 -6l-4 -4h-12q-12 0 -16 2 q-20 10 -29 29l-4 8z" />
<glyph unicode="I" horiz-adv-x="401" d="M164 711v673l2 5q2 4 4 6l4 4h10q12 0 19 -4q18 -10 28 -29l5 -8v-672v-674l-5 -6l-4 -4h-12q-12 0 -16 2q-23 10 -29 29l-4 8z" />
<glyph unicode="J" horiz-adv-x="946" d="M111 401q0 27 6 35l4 4h12q31 0 45 -32q4 -8 4 -29q6 -68 19 -105q23 -78 73 -145q66 -86 134 -98q16 -2 36 0q96 14 179 135q66 96 79 201q2 14 5 520v504l6 6l2 4h12l16 -4q23 -10 29 -29l6 -8v-502v-500l-4 -24q-16 -100 -63 -187q-59 -102 -138 -155q-41 -25 -79 -31 q-14 -3 -30 -3q-21 0 -44 5q-119 25 -215 170q-84 123 -94 268z" />
<glyph unicode="K" horiz-adv-x="1280" d="M166 711v673l2 5q2 4 4 6l4 4h10q12 0 19 -4q18 -10 28 -29l5 -8v-438l2 -437l419 459l420 457h11q18 0 32 -17q23 -20 17 -41q0 -2 -209 -229q-51 -55 -102.5 -112.5t-77.5 -86.5l-29 -30q100 -190 221 -424q184 -350 225 -432q2 -10 -4 -21l-4 -6h-12q-20 4 -35 18 q-8 8 -219 414l-213 406q-100 -109 -221 -242l-219 -238l-2 -172v-174l-5 -6l-4 -4h-12q-12 0 -16 2q-20 10 -29 29l-4 8z" />
<glyph unicode="L" horiz-adv-x="1114" d="M166 711v673l2 5q2 4 4 6l4 4h10q12 0 19 -4q18 -10 28 -29l5 -8v-643v-645h360h363l6 -4q33 -16 32 -46q0 -10 -4 -14l-4 -4h-391h-391l-10 4q-18 10 -29 29l-2 8z" />
<glyph unicode="M" horiz-adv-x="1392" d="M166 711v673l2 5q2 4 4 6l4 4h10q18 0 35 -17q2 -2 236 -315l229 -307q109 143 238 319l237 320h10q12 0 19 -4q18 -10 29 -29l6 -8v-672v-674l-6 -6l-5 -4h-10q-12 0 -18 2q-16 8 -29 29l-4 8l-2 602v600l-215 -289l-215 -288h-10q-18 0 -35 16q-8 8 -221 297l-215 289 l-2 -627v-629l-5 -6l-4 -4h-12q-12 0 -16 2q-20 10 -29 29l-4 8z" />
<glyph unicode="N" horiz-adv-x="1280" d="M166 711v673l2 5q2 4 4 6l4 4h10q18 0 31 -13q18 -18 414 -540l409 -533v537v536l4 7l5 6h12q12 0 16 -4q23 -12 29 -29l6 -8v-672v-674l-6 -6l-4 -4h-10q-12 0 -19 2q-16 8 -29 29l-4 8v92v90l-401 525l-399 524l-2 -631v-629l-5 -6l-4 -4h-12q-12 0 -16 2 q-20 10 -29 29l-4 8z" />
<glyph unicode="O" horiz-adv-x="1337" d="M117 633q-6 47 -6 93q0 272 196 517q149 181 305 199q16 2 32 2q25 0 54 -4q47 -6 101 -29q123 -57 223 -188q172 -217 197 -455q6 -47 5 -93q0 -272 -196 -513q-150 -188 -309 -201q-14 -3 -34.5 -3t-47.5 3q-129 20 -238 125q-104 92 -186 242q-82 152 -96 305z M190 784q-6 -49 -7 -97q0 -88 22 -171q39 -162 157 -313q123 -150 246 -170q23 -4 47 -4q151 0 289 164q170 195 201 425q6 48 6 95q0 87 -21 174q-39 162 -157 315q-123 148 -246 168q-25 4 -43 4q-12 0 -22 -2q-184 -23 -340 -252q-106 -166 -132 -336z" />
<glyph unicode="P" horiz-adv-x="1224" d="M166 711q0 672 2 673q0 3 4 11l4 4h234h249q152 -14 295 -127q49 -37 80 -78q77 -92 77 -187q0 -13 -1 -26q-2 -41 -25 -88q-37 -78 -127 -145q-121 -98 -260 -111h-239h-221v-311v-314l-5 -6l-4 -4h-12q-12 0 -16 2q-20 10 -29 29l-4 8zM238 707h196h213q137 12 264 110 q102 82 125 176q2 12 2 41t-2 35q-14 66 -78 129q-114 109 -253 129q-12 2 -242 2h-225v-311v-311z" />
<glyph unicode="Q" horiz-adv-x="1337" d="M117 633q-6 47 -6 93q0 273 196 517q149 181 305 199q16 2 32 2q26 0 54 -4q47 -6 101 -29q123 -57 223 -188q172 -217 197 -455q6 -48 6 -94q0 -289 -219 -541q-47 -55 -91 -86l-4 -4l99 -143q98 -143 98 -148q4 -4 4 -14t-4 -14l-4 -5h-12q-18 0 -33 13q-2 2 -90 131 l-95 135l-8 12l-6 -4q-72 -39 -141 -45q-15 -3 -35 -3t-47 3q-129 20 -238 125q-104 92 -186 242q-82 152 -96 305zM190 784q-8 -50 -8 -100q0 -142 62 -281q43 -104 113.5 -194t142.5 -133q74 -47 152 -47q53 0 108 22q49 25 53 29l4 4l-80 119q-20 27 -41.5 58.5t-35 52 t-15.5 22.5q-20 31 -6 45l4 6h10q20 -4 33 -16l90 -129l86 -125q2 -2 15 8q106 88 182 235q68 125 86 258q6 48 6 95q0 87 -21 174q-39 162 -157 315q-123 148 -246 168q-25 4 -43 4q-12 0 -22 -2q-184 -23 -340 -252q-106 -166 -132 -336z" />
<glyph unicode="R" horiz-adv-x="1224" d="M166 711q0 672 2 673q0 3 4 11l4 4h234h249q84 -8 185 -53q86 -45 151 -111q61 -61 88 -115q28 -61 28 -119q0 -39 -13 -77q-8 -33 -33 -66q-66 -100 -193 -168q-63 -31 -106 -41l-10 -4l22 -39q23 -37 69 -117.5t85 -148.5q170 -293 178 -309q4 -12 -4 -25l-4 -4h-10 q-12 0 -19 2q-18 12 -24 25q-2 2 -181 309q-172 299 -176 299h-229h-225v-311v-314l-5 -6l-4 -4h-12q-12 0 -16 2q-20 10 -29 29l-4 8zM238 707h196h213q137 12 264 110q102 82 125 176q2 12 2 41t-2 35q-14 66 -78 129q-114 109 -253 129q-12 2 -242 2h-225v-311v-311z" />
<glyph unicode="S" horiz-adv-x="1169" d="M115 236q-8 23 2 32q6 4 14 4q18 0 33 -14q8 -8 20 -27q25 -37 43 -55q113 -127 299 -145q21 -2 42 -2q41 0 81 8q127 25 238 133q20 18 53 63q46 64 46 143q0 9 -1 19q-10 90 -69.5 159t-157.5 101q-4 0 -26.5 6.5t-59.5 16.5t-72 18q-164 41 -188 52q-49 16 -105 53 q-35 23 -69 57q-63 59 -88 139q-15 46 -15 90q0 108 92 203q33 33 86 72q109 72 222 80q18 2 40.5 2t47.5 -2q57 -2 120 -21q154 -45 238 -157q31 -37 14 -54q-6 -4 -14 -4q-14 0 -31 13q0 2 -3 5l-7 7t-6 8q-49 66 -141 102q-82 33 -165 33q-20 0 -40 -2 q-147 -16 -275 -121q-88 -74 -106 -153q-4 -25 0 -62q6 -72 58 -130t138 -93q23 -8 187 -49q158 -41 196 -57q86 -35 156 -103q51 -53 76 -106q39 -76 39 -156q0 -70 -31 -131q-33 -55 -80 -102q-94 -90 -186 -123q-66 -25 -133 -27h-20q-114 0 -216 43q-37 10 -78 37 q-98 59 -161 143q-20 29 -37 54z" />
<glyph unicode="T" horiz-adv-x="1224" d="M55 1372q-6 11 4 23l4 4h533h532l7 -4q33 -14 32 -45q0 -8 -4 -13l-4 -6l-256 -2h-256v-657v-660l-6 -6l-4 -4h-10q-12 0 -19 2q-16 8 -28 29l-5 8v645v643h-241l-238 2l-8 2q-25 12 -33 39z" />
<glyph unicode="U" horiz-adv-x="1280" d="M166 885v501l2 3q2 4 4 6l4 6h10q4 0 9.5 -1t9.5 -3q16 -8 28 -29l5 -8v-502v-219q2 -293 8 -311q2 -4 2 -6q20 -78 92 -156q106 -113 238 -135q20 -2 41 -2t43 2q76 12 147 53q51 31 84 61q119 106 143 228l2 16l2 500v500l4 6l5 6l12 -2q12 0 16 -2q20 -10 29 -29l6 -8 v-490q0 -494 -2 -505q-12 -147 -156 -279q-109 -102 -241 -125q-18 -2 -56.5 -1t-54.5 3q-88 12 -166 60q-135 80 -213 208q-37 59 -53 140l-2 18z" />
<glyph unicode="V" horiz-adv-x="1224" d="M113 1376q-4 7 4 19l4 6h10q4 0 9 -1t10 -3q18 -10 26 -25l25 -69q23 -70 77 -229t115 -339l215 -629q98 289 217 642q219 643 224 647l4 6h10q20 -4 33 -17q14 -12 18 -30q0 -8 -233 -695q-227 -674 -238 -694l-4 -4h-10q-12 0 -19 2q-20 12 -26 25q-4 4 -237.5 692 t-233.5 696z" />
<glyph unicode="W" horiz-adv-x="1781" d="M113 1372q-4 11 4 23l4 6h10q14 -4 19 -6q20 -8 28 -27q2 -4 170 -620l166 -615q78 281 170 623q37 137 82 304t66.5 244.5t21.5 79.5q0 6 6 13q4 4 14 4q31 -4 46 -31q4 -6 172 -622q39 -147 80.5 -304t64.5 -235l20 -78q72 258 156 571q37 135 78 289t64.5 242 t27.5 100q18 59 21 64q4 4 16 4q16 -2 33 -17q16 -16 16 -30q0 -4 -186 -697q-186 -688 -191 -694q-4 -4 -16 -4q-2 2 -8 3t-8 1q-16 8 -27 25q-6 20 -170 622l-168 617q-78 -283 -172 -629q-168 -627 -174 -633q-4 -4 -14 -4q-12 0 -19 4q-14 6 -29 25q-2 2 -183 671.5 t-191 710.5z" />
<glyph unicode="X" horiz-adv-x="1224" d="M111 53q4 10 225 336q53 78 111.5 164t88 129t29.5 45l4 6l-213 314q-213 315 -215 315q-4 12 -4 20l6 13l4 4h11q20 0 35 -17q8 -6 206 -303l203 -295q0 -2 60.5 87.5t146.5 213.5q47 70 101.5 150t82 119t27.5 41l6 4h8q18 0 33 -17q25 -20 16 -41q-10 -18 -217 -319 l-211 -315l29 -41q27 -41 88.5 -131.5t108.5 -161.5q227 -332 227 -338q4 -4 4 -14.5t-4 -14.5l-4 -4h-12q-10 0 -19 2q-4 2 -14 12q-4 4 -213 308q-47 70 -100.5 149.5t-82 121.5t-30.5 46l-12 16l-222 -323q-217 -324 -223 -330q-4 -4 -14 -4q-20 4 -33 16q-23 18 -18 37z " />
<glyph unicode="Y" horiz-adv-x="1224" d="M111 1382l6 13l4 4h10q25 0 43 -25q0 -2 28.5 -50t83 -142.5t105.5 -184.5l213 -366l221 381q49 84 107.5 185t87.5 151l29 47q4 4 14 4q18 0 33 -17q25 -20 16 -39q0 -4 -231 -403l-232 -399v-265v-264l-6 -6l-4 -4h-10q-12 0 -19 2q-16 8 -28 29l-4 8l-3 262v262 l-229 398l-231 399q-4 12 -4 20z" />
<glyph unicode="Z" horiz-adv-x="1224" d="M113 49v8l20 31q129 195 430 637l412 604h-397l-396 2l-10 4q-10 4 -14 11q-20 16 -21 38l2 5l6 6l5 4h446h448l7 -4q33 -12 32 -45l2 -9l-22 -30q-129 -195 -430 -637l-412 -602l424 -2h426l8 -4q33 -18 33 -46q0 -10 -4 -14l-4 -4h-475h-475l-11 4q-31 14 -30 43z" />
<glyph unicode="[" horiz-adv-x="724" d="M268 522q0 995 2 1000q0 4 4 8l5 6h174h174l6 -4q33 -18 33 -45q0 -10 -4 -14l-5 -5l-157 -2h-160v-954v-954h143h144l6 -4q33 -18 33 -46q0 -10 -4 -14l-5 -4h-174h-172l-10 4q-18 10 -29 29l-2 8z" />
<glyph unicode="]" horiz-adv-x="724" d="M55 -463q0 10 4 14l4 7h158h158v954v954h-141l-142 2l-8 2q-27 12 -33 39q-6 11 4 21l4 6h173h176l6 -4q16 -8 28 -29l7 -8v-997v-998l-7 -6l-4 -4h-174h-172l-8 2q-33 16 -33 45z" />
<glyph unicode="^" horiz-adv-x="780" d="M55 1118q0 7 195 195l112 108h9q16 0 26 -8q4 0 160 -151q158 -156 160 -158q10 -20 2 -35q-4 -6 -12 -6q-18 0 -29 8q-29 27 -141 135l-138 133q-66 -63 -143 -139l-141 -137h-11q-20 4 -32 16q-25 20 -17 39z" />
<glyph unicode="_" horiz-adv-x="780" d="M319 1268q0 18 7 30q12 21 24 27q8 2 23 2q31 0 55 -24q35 -35 29 -68q-8 -31 -33 -43q-6 -2 -21 -2q-23 2 -38 14q-39 25 -46 64z" />
<glyph unicode="a" d="M68 465q2 84 10 121q8 39 26 71q27 51 66 99q37 41 63 61q70 58 144 64q8 2 28.5 2t30.5 -2q96 -10 191 -84q35 -27 67 -66l13 -14v76l2 77l4 4l4 9l10 -2q12 0 18 -2q18 -12 29 -29l4 -8v-416v-414l-4 -6l-4 -4h-12q-12 0 -17 2q-20 10 -28 29l-4 8l-2 51v49l-15 -16 q-63 -74 -147 -107q-41 -16 -92 -18q-45 0 -78 8q-113 27 -213 154q-70 84 -88 184q-6 31 -6 119zM141 428q0 -82 2 -94q12 -76 66 -146q91 -118 193 -118h12q92 6 174 73q94 78 114 172q4 25 5 142q0 51 -1 82.5t-1 42v12.5q-18 74 -82 133q-68 68 -144 82q-35 6 -53 2h-8 q-6 -2 -10 -2q-80 -16 -150 -86q-84 -80 -108 -174q-8 -29 -9 -121z" />
<glyph unicode="b" d="M111 721v686l2 2q2 4 4 6l4 6h10q4 0 9 -1t10 -3q16 -8 28 -28l4 -9v-319l2 -320l15 15q66 78 147 106q45 18 92 21q43 0 76 -9q119 -33 213 -153q74 -90 88 -184q6 -31 6 -121q0 -82 -10 -119q-8 -39 -27 -72q-27 -57 -65 -98q-43 -47 -64 -64q-59 -47 -123 -59 q-23 -5 -45 -5q-16 0 -30 3q-96 8 -193 82q-47 43 -69 68l-11 14l-2 -78v-76l-4 -6l-4 -4h-12q-12 0 -17 2q-23 10 -28 29l-4 8zM184 428q0 -141 9 -164q35 -102 145 -164q52 -31 103 -31q20 0 40 5q80 14 152 84q82 82 106 176q8 27 9 121v96q-12 70 -66 143 q-82 105 -178 117q-20 4 -33 0q-10 0 -14 -2q-61 -8 -127 -51t-105 -103q-27 -41 -39 -88q-2 -12 -2 -139z" />
<glyph unicode="c" horiz-adv-x="780" d="M68 445q0 69 2 96q12 119 94 219q84 107 172 121q10 2 44 1t50 -3q109 -18 201 -82q35 -27 53 -54q25 -37 25 -69q0 -12 -4 -17l-5 -6h-10q-10 0 -20 4q-31 16 -33 47q0 8 -4 17q-12 23 -55 45q-70 43 -158 49q-43 0 -82 -16q-66 -29 -121 -104t-70 -154q-8 -29 -8 -123 q2 -78 4 -86q10 -78 70 -160q31 -43 66 -66q27 -20 59 -30q10 -2 37 -2q86 0 162 41q57 29 77 49q23 27 23 49q0 10 8 16q4 4 14 4q31 0 46 -32q4 -8 4 -21q0 -76 -121 -135q-57 -31 -121 -39q-16 -2 -53 -2t-49 2q-84 18 -160 96q-55 51 -92 127q-31 63 -43 131 q-2 18 -2 87z" />
<glyph unicode="d" d="M68 465q2 84 10 121q8 39 26 71q27 51 66 99q37 41 63 61q57 49 123 62q17 4 42 4q16 0 36 -2q98 -10 193 -84q35 -27 67 -66l13 -14v346v82v74.5t1 64.5t1 53.5v39v24.5v10q2 4 4 6l4 4h10q4 0 9 -1t9 -3q16 -8 29 -28l4 -9v-684v-684l-4 -6l-4 -4h-12q-12 0 -17 2 q-20 10 -28 29l-4 8l-2 51v49l-15 -16q-63 -74 -147 -107q-41 -16 -92 -18q-45 0 -78 8q-113 27 -213 154q-70 84 -88 184q-6 31 -6 119zM141 428q0 -82 2 -94q12 -76 66 -146q91 -118 193 -118h12q92 6 174 73q94 78 114 172q4 25 5 142q0 51 -1 82.5t-1 42v12.5 q-18 74 -82 133q-68 68 -144 82q-35 6 -53 2h-8q-6 -2 -10 -2q-80 -16 -150 -86q-84 -80 -108 -174q-8 -29 -9 -121z" />
<glyph unicode="e" d="M70 455q0 92 6 125q29 115 135 211q88 78 180 90q13 2 29 2q24 0 55 -4q86 -16 172 -82q41 -37 82 -82q72 -90 88 -191q8 -43 2 -59q-4 -31 -33 -49q-16 -8 -335 -8h-312v-31q0 -8 1 -17.5t2 -15.5t1 -10q14 -90 99 -174q72 -72 147 -86q12 -2 43 -2q117 0 207 51 q29 16 59 47l21 20h10q29 0 45 -30q6 -20 2 -29q-2 -6 -24.5 -27.5t-34.5 -31.5q-72 -53 -187 -70h-59q-41 0 -57 2q-88 16 -170 82q-37 29 -84 82q-70 88 -88 190q-2 16 -2 97zM139 477h287q295 0 309 8q8 6 10 11q4 6 5 22q-6 109 -103 205q-71 72 -147 86q-39 4 -58 2 q-78 -10 -147 -63q-145 -109 -156 -256v-15z" />
<glyph unicode="f" horiz-adv-x="514" d="M2 862q0 8 4 12l4 9h92h93v147q0 152 2 160q6 51 26 88q29 53 64 88q45 41 92 53q12 4 27 4q19 0 43 -6q53 -10 96 -47q66 -55 102 -149q14 -39 6 -50l-4 -6h-10q-29 4 -45 29l-10 20q-33 86 -80 119q-26 18 -54 18q-7 0 -14 -1q-51 -6 -94 -50q-49 -49 -70 -122l-4 -13 v-143v-139h105h104l8 -4q33 -18 33 -45q0 -10 -4 -15l-4 -6h-121h-121v-401v-400l-6 -6l-4 -4h-10q-12 0 -19 2q-16 8 -28 29l-4 8l-2 387v385h-76h-76l-8 4q-33 12 -33 45z" />
<glyph unicode="g" d="M68 467q2 84 10 121q10 41 26 71q29 53 66 97q31 39 63 63q74 58 144 64h59q98 -12 191 -84q49 -45 67 -68l13 -12v76l2 75l4 7l4 6h10q12 0 18 -4q18 -10 29 -29l4 -8v-443v-442l-4 -20q-8 -70 -41 -125q-25 -53 -84 -119q-41 -41 -88 -68q-37 -20 -90 -22h-13 q-108 0 -204 63q-35 25 -66 58q-43 39 -65 86q-16 31 -4 43l4 6h10q29 -4 47 -37q53 -94 148 -131q50 -20 90 -20q7 0 14 1q111 10 199 129q57 82 71 166q2 12 5 96v80l-11 -10q-57 -68 -118 -98q-63 -33 -125 -33q-53 0 -78 8q-111 27 -213 152q-70 88 -88 184 q-6 33 -6 121zM141 428q0 -82 2 -94q12 -74 66 -144q91 -118 193 -118h12q92 6 174 73q94 78 114 172q4 25 5 140q0 53 -1 83.5t-1 42v13.5q-20 74 -82 133q-72 68 -144 80q-12 4 -53 4q-2 0 -18 -4q-78 -12 -150 -84q-84 -80 -108 -174q-8 -29 -9 -123z" />
<glyph unicode="h" d="M111 721v686l2 2q2 4 4 6l4 6h10q4 0 9 -1t10 -3q16 -8 28 -28l4 -9v-338l2 -337l6 12q33 49 72 88t78 57q33 18 78 21q74 0 149 -35q61 -31 115 -84q76 -76 94 -160l4 -16v-289v-287l-6 -6l-4 -4h-10q-12 0 -19 2q-16 8 -28 29l-4 8l-2 289v286l-5 13q-12 55 -65 102 q-72 76 -162 82h-8q-88 0 -162 -88q-88 -98 -115 -223q-6 -27 -8 -264v-226l-4 -6l-4 -4h-12q-12 0 -17 2q-23 10 -28 29l-4 8z" />
<glyph unicode="i" horiz-adv-x="346" d="M102 1268q0 18 7 30q12 21 24 27q8 2 23 2q31 -2 55 -27q30 -30 30 -56q0 -4 -1 -9q-8 -35 -33 -43q-6 -2 -21 -2q-18 0 -39 12q-39 27 -45 66zM135 453v413l2 4q2 5 4 7l4 6h11q4 0 9 -1t9 -3q18 -12 29 -29l4 -8v-416v-414l-4 -6l-4 -4h-13q-12 0 -16 2q-23 10 -29 29 l-4 8z" />
<glyph unicode="j" horiz-adv-x="458" d="M-106 -147l4 6h12q16 -2 33 -17q12 -12 20 -43q35 -102 78 -121q15 -6 28 -6q19 0 35 11q23 14 50 67q49 94 63 203q0 47 2 467v85v77.5v70.5t1 62.5t1 53.5v44v31.5v19.5v8q0 3 4 7l4 4h11q12 0 18 -4q18 -10 29 -29l4 -8v-449v-448l-4 -27q-10 -104 -66 -217 q-37 -78 -82 -94q-27 -8 -57 -2q-121 18 -184 194q-12 41 -4 54zM186 1268q0 20 7 32q14 21 24 25q8 4 23 4q31 -2 55 -26q30 -30 30 -58q0 -5 -1 -10q-8 -31 -33 -41q-6 -4 -21 -4q-23 2 -39 14q-39 25 -45 64z" />
<glyph unicode="k" d="M111 721v686l2 2q2 4 4 6l4 6h10q4 0 9 -1t10 -3q16 -8 28 -28l4 -9v-520l2 -518l281 270l280 271h11q20 -4 32 -17q23 -20 17 -41q0 -4 -178 -176l-103 -98q-4 -4 154 -258q152 -252 156 -262q4 -12 -5 -25l-4 -4h-10q-10 0 -18 2q-14 8 -36 40t-134 222l-146 242 l-151 -143l-148 -142v-106v-105l-4 -6l-4 -4h-12q-12 0 -17 2q-23 10 -28 29l-4 8z" />
<glyph unicode="l" horiz-adv-x="346" d="M135 721v686l2 2q2 4 4 6l4 6h11q4 0 9 -1t9 -3q16 -8 29 -28l4 -9v-684v-684l-4 -6l-4 -4h-13q-12 0 -16 2q-23 10 -29 29l-4 8z" />
<glyph unicode="m" horiz-adv-x="1337" d="M111 453v413l2 4q2 5 4 7l4 6h10q4 0 9 -1t10 -3q18 -12 28 -29l4 -8v-62l2 -59l11 18q35 57 77 97q55 47 115 47q125 0 231 -123q41 -43 56 -82l4 -8l12 24q53 102 119 156q47 33 98 33q106 0 205 -95q98 -92 111 -204v-291v-281l-4 -6l-5 -4h-12q-12 0 -16 2 q-23 10 -29 29l-4 8l-2 289q-2 297 -8 315q-14 51 -64 103q-53 51 -102 61q-29 6 -57 0q-74 -20 -140 -125q-55 -92 -73 -203q-2 -10 -5 -241v-228l-4 -6l-4 -4h-12q-12 0 -16 2q-23 10 -29 29l-4 8l-2 289q-2 297 -8 315q-14 51 -64 103q-53 51 -102 61q-29 6 -58 0 q-74 -20 -139 -125q-55 -92 -74 -203q-2 -10 -4 -241v-228l-4 -6l-4 -4h-12q-12 0 -17 2q-23 10 -28 29l-4 8z" />
<glyph unicode="n" d="M111 453v413l2 4q2 5 4 7l4 6h10q4 0 9 -1t10 -3q18 -12 28 -29l4 -8v-70l2 -67l6 12q33 49 72 88t78 57q33 18 78 21q74 0 149 -35q61 -31 115 -84q76 -76 94 -160l4 -16v-289v-287l-6 -6l-4 -4h-10q-12 0 -19 2q-16 8 -28 29l-4 8l-2 289v286l-5 13q-12 55 -65 102 q-72 76 -162 82h-8q-88 0 -162 -88q-88 -98 -115 -223q-6 -27 -8 -264v-226l-4 -6l-4 -4h-12q-12 0 -17 2q-23 10 -28 29l-4 8z" />
<glyph unicode="o" d="M70 455q0 92 6 125q29 115 135 211q88 78 180 90q13 2 29 2q24 0 55 -4q86 -16 172 -82q41 -37 82 -82q70 -86 88 -193q4 -33 4 -94q0 -82 -8 -123q-29 -117 -135 -213q-86 -80 -184 -90q-15 -3 -32 -3q-22 0 -48 5q-88 16 -170 82q-37 29 -84 82q-70 88 -88 190 q-2 16 -2 97zM141 428v-30q0 -57 6 -87q23 -82 95 -151q59 -59 118 -78q29 -12 63 -12q36 0 77 14q80 27 148.5 98.5t90.5 153.5q8 31 9 119v28q0 59 -7 88q-20 78 -94 152q-71 72 -147 86q-39 4 -58 2q-4 -2 -12 -3t-12 -1q-86 -16 -164 -93t-104 -167q-8 -33 -9 -119z" />
<glyph unicode="p" d="M111 254v614l2 4q2 5 4 7l4 4h10q12 0 19 -4q18 -10 28 -29l4 -8v-49l2 -50l15 15q66 78 147 106q47 18 92 19q51 0 76 -9q115 -29 213 -151q74 -92 88 -184q6 -33 6 -121q0 -84 -10 -121q-10 -43 -27 -70q-25 -53 -65 -98q-31 -39 -64 -63q-59 -47 -123 -60 q-25 -5 -50 -5q-12 0 -25 1q-98 12 -193 84q-47 43 -69 68l-11 12l-2 -275v-276l-4 -6l-4 -4h-12q-12 0 -17 2q-23 10 -28 28l-4 9zM184 428q0 -141 9 -162q35 -102 145 -164q52 -31 103 -31q20 0 40 5q80 14 152 84q80 78 106 174q8 29 9 123v94q-12 74 -66 143 q-84 107 -178 119h-33q-10 0 -14 -2q-61 -8 -126 -51t-106 -103q-27 -41 -39 -90q-2 -12 -2 -139z" />
<glyph unicode="q" d="M68 467q2 84 10 121q10 41 26 71q29 53 66 97q31 39 63 63q74 58 144 64h59q98 -12 191 -84q49 -45 67 -68l13 -12v76l2 75l4 7l4 6h10q12 0 18 -4q18 -10 29 -29l4 -8v-615v-612l-4 -6l-4 -4h-12q-12 0 -17 2q-20 10 -28 28l-4 9l-2 250v247l-15 -14q-68 -78 -147 -107 q-49 -18 -92 -18q-53 0 -78 8q-111 27 -213 152q-70 88 -88 184q-6 33 -6 121zM141 428q0 -82 2 -94q12 -74 66 -144q91 -118 193 -118h12q92 6 174 73q94 78 114 172q4 25 5 140q0 53 -1 83.5t-1 42v13.5q-20 74 -82 133q-72 68 -144 80q-12 4 -53 4q-2 0 -18 -4 q-78 -12 -150 -84q-84 -80 -108 -174q-8 -29 -9 -123z" />
<glyph unicode="r" horiz-adv-x="724" d="M111 453v413l2 4q2 5 4 7l4 6h10q4 0 9 -1t10 -3q18 -12 28 -29l4 -8v-72v-70l13 19q49 70 100 110q45 37 100 50q12 2 40 2t42 -2q82 -18 150 -88q33 -31 47 -66q21 -38 21 -67q0 -6 -1 -11q0 -10 -4 -14l-4 -4h-10q-10 0 -21 4q-18 8 -28 26q0 2 -4 23q-2 41 -43 82 q-51 47 -107 47q-98 0 -184 -108.5t-101 -217.5l-4 -16v-6v-19.5v-27t-1 -36t-1 -42v-48v-50.5v-228l-4 -6l-4 -4h-12q-12 0 -17 2q-23 10 -28 29l-4 8z" />
<glyph unicode="s" horiz-adv-x="780" d="M70 229q0 14 4 19l4 8h8q8 0 20 -6q29 -14 33 -47q2 -12 8 -29q14 -23 39 -41q80 -57 172 -63h11q84 0 168 55q100 63 100 135q0 39 -35 76q-51 53 -131 76q-20 6 -70 10q-63 2 -110 18q-96 31 -166 105q-47 47 -55 100q-2 12 -2 24q0 81 108 154q74 48 156 58q18 2 37 2 l37 -2q104 -10 188 -64q86 -51 98 -115q6 -25 -2 -32l-4 -6h-10q-10 0 -21 4q-27 14 -32 45q0 14 -9 22q-10 18 -59 41q-63 33 -125 35q-12 1 -25 1q-111 0 -208 -81q-57 -45 -58 -98q2 -29 25 -53q59 -61 143 -80q16 -4 66 -8q47 -2 80 -11q80 -18 157 -80q33 -27 62 -63 q20 -29 28 -57q8 -25 8 -50q0 -34 -16 -67q-20 -37 -45 -62q-90 -88 -201 -100q-18 -2 -36 -2q-43 0 -91 10q-117 27 -198 111q-51 55 -51 108z" />
<glyph unicode="t" horiz-adv-x="569" d="M14 862q0 8 4 12l5 9h98h98v180v184q2 0 6 8l2 5h13l16 -5q23 -16 29 -28l6 -8v-168v-168h104h103l8 -4q33 -18 33 -45q0 -10 -4 -15l-5 -6h-118h-121v-401v-400l-6 -6l-4 -4h-11q-12 0 -18 2q-16 8 -29 29l-4 8v387v385h-82h-82l-8 4q-33 12 -33 45z" />
<glyph unicode="u" d="M111 580v286l2 4q2 5 4 7l4 6h10q4 0 9 -1t10 -3q18 -12 28 -29l4 -8v-289l2 -287l2 -12q14 -53 66 -104q78 -74 164 -80h8q88 0 162 88q90 100 112 221q8 37 9 266l2 225l4 4l4 9l10 -2q12 0 18 -2q18 -12 29 -29l6 -8v-416v-414l-6 -6l-4 -4h-10q-12 0 -19 2 q-16 8 -28 29l-4 8l-2 68v69l-9 -12q-35 -53 -69 -90q-39 -37 -78 -58q-37 -16 -78 -18h-7q-68 0 -140 35q-66 31 -117 82q-72 72 -94 159l-2 19z" />
<glyph unicode="v" horiz-adv-x="868" d="M55 856q-6 11 4 21l4 6h11q4 0 9 -1t9 -3q20 -16 25 -25q4 -2 155 -365q152 -360 154 -360q0 -2 21.5 47t58.5 137t78 187q158 373 161 377l5 6h10q20 -4 33 -17q16 -14 16 -32q0 -10 -172 -416q-172 -412 -176 -414l-2 -4h-10q-4 0 -9.5 1t-9.5 3q-18 12 -27 23 q-6 10 -177 416.5t-171 412.5z" />
<glyph unicode="w" horiz-adv-x="1280" d="M53 858q-2 7 6 19l4 6h11q4 0 9 -1t9 -3q14 -8 27 -25l6 -16q6 -16 16.5 -47t23.5 -71t33.5 -99.5t41.5 -122.5q10 -29 21 -63t20.5 -59.5t18.5 -54t16.5 -49t14.5 -41t12 -35t8 -25.5t5 -15l2 -6q4 0 123 360q125 365 127 367l4 6l11 -2q12 0 18 -2q20 -12 27 -27 q4 -4 120 -354q10 -29 21.5 -63t21 -59.5t18.5 -54t16 -49t14.5 -41t12.5 -35t8 -25.5t5 -15l2 -6q2 0 123 360q123 362 127 367l4 6h13q16 -2 32 -17q16 -16 17 -30q0 -6 -138 -416q-137 -406 -141 -414l-4 -4h-12q-12 0 -17 2q-23 12 -28 27q-4 4 -121 354 q-10 29 -21.5 62.5t-20.5 59t-18.5 54.5t-16.5 49.5l-14 41t-12.5 34.5t-8.5 25.5t-5 17.5l-2 4l-123 -360q-117 -350 -125 -367l-4 -4h-12q-12 0 -17 2q-18 10 -28 25q-2 4 -140.5 412.5t-140.5 416.5z" />
<glyph unicode="x" horiz-adv-x="868" d="M55 57q0 6 168 207l164 203l-8 10q-295 358 -297 367q-6 8 -6 22q2 2 3 4l3 7l4 6h10q16 -2 33 -13q0 -2 18.5 -24.5t59.5 -71.5t69 -86q33 -39 71 -86t56 -70l19 -20q0 -2 43 50t104 128q141 174 152 184l6 9h10q20 -4 33 -17q25 -20 16 -41q-4 -6 -155 -192l-154 -189 l4 -8q6 -2 164 -198q160 -195 160 -201q12 -18 0 -31l-4 -4h-10q-16 0 -35 12q-2 6 -158 195q-33 41 -74 90t-61 74l-19 24l-4 2l-161 -200l-162 -199h-13q-20 4 -32 16q-25 20 -17 41z" />
<glyph unicode="y" d="M111 580v288l2 4q2 5 4 7l4 4h10q12 0 19 -4q18 -10 28 -29l4 -8v-287l2 -287l2 -12q14 -53 66 -104q78 -74 164 -80h11q84 0 159 86q90 98 112 223q8 35 9 264l2 225l4 7l4 6h10q12 0 18 -4q18 -10 29 -29l6 -8v-443v-442l-4 -20q-12 -70 -41 -125q-33 -63 -86 -119 q-45 -45 -88 -68q-37 -20 -88 -22h-7q-111 0 -210 63q-37 23 -68 58q-39 39 -65 86q-16 31 -4 43l4 6h10q31 -2 49 -37q49 -94 148 -131q49 -20 88 -20q7 0 14 1q111 10 199 129q57 78 71 166q4 14 5 113v98q-6 -8 -13 -18q-68 -102 -143 -140q-37 -18 -78 -18h-8 q-72 0 -139 33q-63 31 -117 84q-72 72 -94 160l-2 18z" />
<glyph unicode="z" horiz-adv-x="868" d="M55 57q0 2 305 379l304 377h-271h-268l-8 4q-27 12 -33 37q-6 13 4 23l4 6h324h325l7 -4q18 -8 27 -25.5t5 -28.5l-305 -381l-303 -372l299 -2h299l6 -4q33 -16 33 -46q0 -10 -4 -14l-4 -4h-352h-353l-8 2q-18 8 -27.5 24.5t-5.5 28.5z" />
<glyph unicode="}" horiz-adv-x="780" d="M168 1112q0 10 74 154q78 149 82 151l2 4h10q20 0 35 -16q16 -12 16 -33q0 -6 -75.5 -153.5t-80.5 -151.5l-2 -4h-12q-20 4 -33 16q-16 14 -16 33zM446 1112q0 10 74 154q78 149 82 151l2 4h10q20 0 35 -16q16 -12 17 -33q0 -6 -76 -153.5t-80 -151.5l-2 -4h-12 q-20 4 -33 16q-16 14 -17 33z" />
<glyph unicode="~" horiz-adv-x="780" d="M53 1077q0 8 15 64q23 102 71 151q25 25 62 35q6 2 28.5 1t30.5 -3q39 -6 72 -31q35 -25 51 -51q12 -14 37 -59q18 -43 45 -68q18 -10 27 -12q35 -8 67 14q55 31 90 189q2 10 8 16l5 6h10q20 -4 33 -16q8 -8 18 -29l-4 -24q-35 -143 -84 -191q-18 -20 -47 -31 q-10 -4 -37 -6q-45 0 -82 19q-29 14 -53 39q-33 37 -60 88q-20 47 -45 65q-14 12 -26 14q-31 6 -70 -14q-55 -33 -90 -188q0 -8 -4 -17l-4 -6h-13q-20 4 -32 17q-16 16 -19 28z" />
<glyph unicode="&#xa1;" horiz-adv-x="1224" d="M111 53q4 10 225 336q53 78 111.5 164t88 129t29.5 45l4 6l-213 314q-213 315 -215 315q-4 12 -4 20l6 13l4 4h11q20 0 35 -17q8 -6 206 -303l203 -295q0 -2 60.5 87.5t146.5 213.5q47 70 101.5 150t82 119t27.5 41l6 4h8q18 0 33 -17q25 -20 16 -41q-10 -18 -217 -319 l-211 -315l29 -41q27 -41 88.5 -131.5t108.5 -161.5q227 -332 227 -338q4 -4 4 -14.5t-4 -14.5l-4 -4h-12q-10 0 -19 2q-4 2 -14 12q-4 4 -213 308q-47 70 -100.5 149.5t-82 121.5t-30.5 46l-12 16l-222 -323q-217 -324 -223 -330q-4 -4 -14 -4q-20 4 -33 16q-23 18 -18 37z " />
<glyph unicode="&#xa3;" horiz-adv-x="1447" d="M111 752q-6 250 190 475q31 35 86 84q136 117 277 129q41 4 79 0q86 -6 172 -49q70 -35 129 -86q39 -31 89 -86q221 -250 202 -521q-12 -199 -118 -360q-25 -39 -138 -168l-86 -98q0 -2 152 -2h151l7 -4q33 -18 32 -46q0 -10 -4 -14l-4 -4h-209h-207l-8 2 q-18 8 -27.5 24.5t-5.5 28.5l15 19q14 18 47 56t57 67q115 125 135 155q109 143 133 318q16 109 -4 209q-41 182 -188 331q-80 80 -154 117q-123 63 -258 31q-133 -33 -256 -156q-186 -186 -211 -403q-8 -74 2 -148q23 -174 129 -319q2 -2 21.5 -24.5t51.5 -58.5t61 -69 q117 -133 124 -147q6 -16 -2 -29l-4 -4h-209h-206l-9 2q-33 16 -32 45q0 10 4 14l4 7h176h180l-96 108q-115 131 -125 148q-74 109 -106 206q-37 111 -39 220z" />
<glyph unicode="&#xa7;" horiz-adv-x="1001" d="M55 854q-6 13 4 23l4 6h420h420l8 -4q33 -18 33 -45q0 -10 -4 -15l-4 -6h-102h-103v-401v-400l-6 -6l-4 -4h-10q-12 0 -19 2q-16 8 -28 29l-5 8l-2 387v385h-159h-158v-401v-400l-6 -6l-4 -4h-11q-12 0 -18 2q-16 8 -29 29l-4 8v387v385h-86h-86l-8 4q-27 12 -33 37z" />
<glyph unicode="&#xab;" horiz-adv-x="780" d="M223 1118l6 12q2 0 27 19.5t73 57.5t91 71l184 143h8q20 0 35 -16q25 -20 17 -39l-5 -6q-2 -4 -4 -6q-2 0 -26.5 -20.5t-72.5 -58.5t-91 -71l-182 -141h-11q-20 4 -32 16q-25 20 -17 39z" />
<glyph unicode="&#xad;" horiz-adv-x="780" d="M152 1268q0 18 6 30q12 21 24 27q8 2 23 2q31 0 55 -24q35 -35 29 -68q-8 -31 -33 -43q-6 -2 -20 -2q-23 2 -39 14q-39 25 -45 64zM485 1268q0 14 9 30q6 19 24 27q6 2 21 2q31 0 57 -24q33 -33 27 -68q-4 -27 -31 -43q-8 -2 -21 -2q-25 4 -41 14q-39 25 -45 64z" />
<glyph unicode="&#xbb;" horiz-adv-x="780" d="M59 1380q-10 21 0 37q4 4 13 4q16 0 26 -8q6 0 142 -135l137 -131q2 0 143 137l142 137h12q16 0 33 -16q6 -4 16 -25q2 -12 -6 -24l-154 -150l-149 -143h-6q-18 0 -29 8q-31 31 -160 154q-113 109 -160 155z" />
<glyph unicode="&#xbf;" horiz-adv-x="1447" d="M53 1384q2 3 6 11l4 4h17q25 0 51 -17q25 -14 55 -55q33 -47 62 -145q45 -139 45 -283q0 -61 24 -123q49 -117 166 -205q92 -70 191 -79h12v448v446l4 7l4 6h13q12 0 16 -4q23 -12 29 -29l6 -8v-430v-432l6 2q18 0 57 14q98 35 186.5 121t120.5 180q20 49 21 121 q2 84 12 137q10 72 45 174q35 94 70 129q27 27 59 25q20 0 37 -17q29 -25 14 -45q-2 -6 -16 -8q-23 -4 -37 -18q-20 -20 -45 -82q-43 -106 -59 -221q-6 -45 -6 -103q-2 -61 -13 -100q-14 -47 -28 -76q-37 -80 -117 -160q-57 -53 -96 -77q-96 -61 -199 -72h-12v-205v-203 l-6 -6l-4 -4h-11q-12 0 -18 2q-16 8 -29 29l-4 8v192v191l-12 2q-23 2 -62 14q-119 39 -231 148q-100 104 -141 221q-16 53 -19 125q-4 109 -18 174q-16 68 -42 135.5t-42 81.5q-4 4 -17 4q-18 4 -30 17q-23 18 -19 38z" />
<glyph unicode="&#xc0;" horiz-adv-x="1558" d="M113 1374q-6 11 4 21l4 6h643h643l6 -4q33 -18 33 -45q0 -8 -318 -695q-315 -690 -319 -694l-4 -4h-10q-4 0 -9.5 1t-9.5 3q-18 14 -24 23q-6 10 -322.5 697t-316.5 691zM195 1331l2 -4l36 -78q37 -80 112 -242.5t140 -304.5l287 -622l146 311q143 311 286 625l146 313 q0 2 -578 2h-577z" />
<glyph unicode="&#xc1;" horiz-adv-x="2004" d="M2 -80q-6 11 4 21l4 6h975h979l6 -4q33 -18 33 -45q0 -10 -4 -15l-4 -4h-977h-975l-8 2q-27 12 -33 39z" />
<glyph unicode="&#xc2;" horiz-adv-x="557" d="M162 1360v47q0 6 4 10l4 4h10q18 0 35 -16q6 -4 16 -25l2 -77q0 -78 1.5 -152t1.5 -76q0 -4 -5 -8l-4 -4h-10q-18 2 -35 16q-8 6 -16 27l-2 49q0 47 -1 101.5t-1 103.5zM373 1407q0 2 4 10l4 4h10q20 0 35 -16q12 -10 16 -25q6 -25 7 -305q-2 -2 -4.5 -4t-2.5 -4l-2 -4 h-12q-20 4 -33 16q-12 10 -16 27q-2 4 -5 150.5t-1 150.5z" />
<glyph unicode="&#xc3;" horiz-adv-x="557" d="M375 1360v47q0 6 4 10l4 4h10q18 0 35 -16q6 -4 16 -25l2 -77q0 -78 1.5 -152t1.5 -76q0 -4 -5 -8l-4 -4h-10q-18 2 -35 16q-8 6 -16 27l-2 49q0 47 -1 101.5t-1 103.5z" />
<glyph unicode="&#xc4;" horiz-adv-x="290" d="M-51 -131q24 94 153 190l19 13h8q18 -2 34.5 -17.5t16.5 -31.5q2 -14 -22 -29q-4 -4 -35 -29q-86 -70 -105 -139q-8 -35 0 -64q10 -33 41 -59.5t62 -30.5q23 0 41 9q37 16 78 71q6 14 12 17q4 4 12 4q18 -2 33.5 -18.5t15.5 -30.5q0 -8 -8 -23q-47 -70 -94 -90 q-47 -16 -102 2q-51 18 -99 63q-25 27 -33 41q-47 70 -28 152z" />
<glyph unicode="&#xc5;" horiz-adv-x="1558" d="M168 518q-6 13 4 23l4 6h586h588l6 -4q33 -16 33 -45q0 -10 -5 -15l-4 -6h-585h-586l-8 4q-27 12 -33 37zM709 147q0 14 8 31q8 19 24 27q6 2 21 2q29 0 57 -25q33 -33 27 -67q-4 -27 -31 -43q-8 -2 -20 -2q-25 4 -41 14q-39 25 -45 63zM709 913q0 14 8 31q8 19 24 27 q6 2 21 2q29 0 57 -25q33 -33 27 -67q-4 -27 -31 -43q-8 -2 -20 -2q-25 4 -41 14q-39 25 -45 63z" />
<glyph unicode="&#xff;" horiz-adv-x="1224" d="M166 711q0 672 2 673q0 3 4 11l4 4h275q291 0 327 -8q147 -33 258 -181q72 -98 76 -196q2 -82 -53 -154q-31 -39 -66 -67q-139 -119 -317 -148q-45 -8 -246 -8h-192v-311v-314l-5 -6l-4 -4h-12q-12 0 -16 2q-20 10 -29 29l-4 8zM238 707h168q174 0 219 8q154 25 291 127 t122 217q-10 96 -100 180q-78 78 -172 90h-270h-258v-311v-311z" />
<glyph unicode="&#x178;" horiz-adv-x="569" d="M217 552.5q0 313.5 2 317.5l4 9l4 4h11q4 0 9 -1t9 -3q18 -12 29 -29l4 -8v-326q2 -326 4 -336q4 -33 26 -76q20 -33 25 -32q8 -8 39 6q70 27 109 147q10 25 10 27q4 4 16 4q2 -2 8 -2t9 -2q18 -10 28 -29q6 -16 0 -33q-12 -51 -43 -102q-39 -63 -86 -80q-37 -16 -80 -4 q-61 18 -102 105q-27 57 -33 116q-2 14 -2 327.5z" />
<glyph unicode="&#x2000;" horiz-adv-x="769" />
<glyph unicode="&#x2001;" horiz-adv-x="1538" />
<glyph unicode="&#x2002;" horiz-adv-x="769" />
<glyph unicode="&#x2003;" horiz-adv-x="1538" />
<glyph unicode="&#x2004;" horiz-adv-x="512" />
<glyph unicode="&#x2005;" horiz-adv-x="384" />
<glyph unicode="&#x2006;" horiz-adv-x="256" />
<glyph unicode="&#x2007;" horiz-adv-x="256" />
<glyph unicode="&#x2008;" horiz-adv-x="192" />
<glyph unicode="&#x2009;" horiz-adv-x="307" />
<glyph unicode="&#x200a;" horiz-adv-x="85" />
<glyph unicode="&#x2010;" horiz-adv-x="667" d="M23 451q-6 10 4 20l4 6h241h242l6 -4q33 -18 33 -45q0 -10 -4 -14l-4 -4h-242h-240l-8 2q-27 12 -32 39z" />
<glyph unicode="&#x2011;" horiz-adv-x="667" d="M23 451q-6 10 4 20l4 6h241h242l6 -4q33 -18 33 -45q0 -10 -4 -14l-4 -4h-242h-240l-8 2q-27 12 -32 39z" />
<glyph unicode="&#x2012;" horiz-adv-x="667" d="M23 451q-6 10 4 20l4 6h241h242l6 -4q33 -18 33 -45q0 -10 -4 -14l-4 -4h-242h-240l-8 2q-27 12 -32 39z" />
<glyph unicode="&#x2013;" horiz-adv-x="780" d="M82 1397q0 12 6 20l4 4h10q12 0 19 -4q16 -6 29 -28q4 -6 4 -25q2 -18 8 -41q20 -92 110 -156q20 -16 50 -26q59 -20 131 14q61 31 107 89.5t58 119.5q0 2 1.5 12t1.5 17q2 16 6 22l4 6h10q12 0 18 -4q31 -14 35 -45q0 -25 -8 -61q-20 -86 -102 -168q-63 -59 -131 -76 q-43 -8 -78 -2q-43 6 -84 27q-72 37 -129.5 107.5t-73.5 143.5q-6 25 -6 54z" />
<glyph unicode="&#x2014;" horiz-adv-x="780" d="M55 1141q-6 10 4 20l4 6h308h311l6 -4q33 -18 33 -45q0 -10 -4 -14l-4 -4h-310h-307l-8 2q-27 12 -33 39z" />
<glyph unicode="&#x2018;" horiz-adv-x="557" d="M141 1147q-6 33 9 94q28 109 122 172l13 8h8q20 -4 34.5 -16t18.5 -31q0 -8 -4 -12q-2 -6 -20 -19q-41 -27 -66 -65q-45 -63 -45 -141l4 -25h2q0 8 23 23q8 2 20 2q18 0 41 -13q39 -25 45 -65q0 -14 -8 -31q-6 -18 -25 -27q-8 -2 -24 -2q-39 4 -68 25q-70 51 -80 123z " />
<glyph unicode="&#x2019;" horiz-adv-x="557" d="M209 1362q0 18 6 31q13 20 25 26q8 2 24 2q51 -2 98 -49q53 -53 54 -117q0 -43 -13 -86q-29 -100 -118 -161l-13 -9h-12q-20 4 -33 17q-16 14 -16 33q-2 12 16 24q43 25 68 64q35 47 47 108q2 12 2 35t-2 29l-2 4l-2 -4q-14 -16 -25 -23q-6 -2 -20 -2q-18 0 -39 12 q-39 27 -45 66z" />
<glyph unicode="&#x201c;" horiz-adv-x="346" d="M135 453v413l2 4q2 5 4 7l4 6h11q4 0 9 -1t9 -3q18 -12 29 -29l4 -8v-416v-414l-4 -6l-4 -4h-13q-12 0 -16 2q-23 10 -29 29l-4 8z" />
<glyph unicode="&#x201d;" horiz-adv-x="458" d="M-106 -147l4 6h12q16 -2 33 -17q12 -12 20 -43q35 -102 78 -121q35 -14 63 5q23 14 50 67q49 94 63 203q0 47 2 467v85v77.5v70.5t1 62.5t1 53.5v44v31.5v19.5v8q0 3 4 7l4 4h11q12 0 18 -4q18 -10 29 -29l4 -8v-449v-448l-4 -27q-10 -104 -66 -217q-37 -78 -82 -94 q-27 -8 -57 -2q-121 18 -184 194q-12 41 -4 54z" />
<glyph unicode="&#x201e;" horiz-adv-x="780" d="M168 1395q-4 10 4 22q4 4 12 4q16 0 27 -8q4 0 168 -151q129 -119 150.5 -139.5t23.5 -32.5q6 -10 -4 -21q-4 -6 -12 -6q-16 0 -27 8l-23 21q-23 20 -64.5 58t-80.5 75q-123 111 -146.5 134t-27.5 36z" />
<glyph unicode="&#x202f;" horiz-adv-x="307" />
<glyph unicode="&#x205f;" horiz-adv-x="384" />
<glyph unicode="&#x25fc;" horiz-adv-x="880" d="M0 0v881h881v-881h-881z" />
<glyph unicode="&#xfb01;" d="M70 457v94q10 49 26 88q31 68 91.5 130t123.5 89q55 27 123 25q61 0 135 -35q16 -10 21 -10q12 33 31 69q34 70 36 72l2 4h13q20 -4 33 -16q16 -14 16 -33q0 -12 -33 -76l-33 -67l31 -29q39 -39 68 -84q49 -72 63 -154q4 -33 4 -96q0 -41 -2 -68v-26q-10 -49 -26 -88 q-31 -68 -91.5 -130.5t-123.5 -88.5q-55 -27 -123 -25q-61 0 -136 35q-16 10 -20 10q-12 -33 -31 -70q-35 -70 -37 -71l-2 -4h-12q-20 4 -33 16q-16 14 -16 33q0 12 33 76l32 67l-30 29q-39 39 -68 84q-49 72 -63 153q-2 16 -2 97zM141 430q-2 -80 6 -117q14 -57 60 -114 q45 -53 49 -54l154 322l155 321l-12 5q-22 12 -53 16q-16 4 -58 4q-12 -4 -24 -4q-86 -18 -164 -94t-104 -166q-8 -33 -9 -119zM324 98l12 -6q35 -16 80 -20q31 -2 84 12q80 29 148.5 100.5t90.5 153.5q8 31 9 119q2 78 -7 114q-22 80 -90 148l-18 20q-70 -145 -154 -321z " />
<glyph unicode="&#xfb02;" horiz-adv-x="1894" d="M113 57q2 4 441 669t443 669l4 4h369h371l6 -4q33 -12 33 -45q0 -8 -4 -13l-4 -6l-355 -2h-354v-282v-283h283h282l8 -4q33 -18 33 -45q0 -10 -4 -15l-4 -6h-299h-299v-311v-313h338h340l6 -4q33 -16 33 -46q0 -10 -4 -14l-4 -4h-369h-371l-10 4q-14 6 -29 29l-2 8 l-2 170v172h-280h-281l-123 -186l-127 -193l-4 -6h-12q-20 4 -33 16q-25 20 -16 41zM475 457l256 -2h258v389v389l-258 -389z" />
<glyph unicode="&#xfb03;" horiz-adv-x="1894" d="M117 621q-45 313 184 600q160 203 336 221q14 2 45 1t43 -3q66 -12 127 -51q76 -49 133 -125l8 -13v66q0 74 8 80l5 4h368h367l6 -4q33 -16 33 -45q0 -10 -4 -15l-4 -4l-353 -2h-352v-282v-285h281h280l8 -4q33 -14 33 -45q0 -8 -4 -13l-4 -6l-297 -2h-297v-311v-311h336 h338l6 -4q33 -16 33 -45q0 -10 -4 -15l-4 -6h-367h-369l-10 4q-16 12 -29 29l-2 8l-2 41v41l-12 -16q-31 -39 -66 -66q-68 -63 -155 -82h-47q-53 0 -84 8q-170 37 -320 228q-158 195 -192 424zM190 782q-16 -100 5 -219q37 -186 163 -342q129 -166 277 -190q37 -4 76 0 q98 18 182 106q78 82 96 174l4 19v385q0 391 -8 422q-27 106 -131 184q-49 37 -102 49q-39 4 -64 2q-184 -18 -342 -229q-131 -176 -156 -361z" />
<glyph unicode="&#xfb04;" horiz-adv-x="1337" d="M117 633q-39 324 190 610q135 168 277 195q63 12 143 -2q37 -10 72 -25q80 -35 133 -90l14 -12l47 90q12 20 25.5 44.5t21.5 39.5l7 12l4 6h10q18 -2 35 -16q16 -16 16 -33q0 -10 -53 -106l-53 -101q8 -10 16 -22q172 -217 197 -455q39 -324 -191 -606 q-135 -172 -276 -197q-74 -12 -144 2q-37 10 -71 25q-78 35 -134 90l-12 12l-49 -92q-12 -20 -25.5 -44t-21.5 -36l-6 -14l-4 -6h-11q-18 2 -34 16q-16 16 -17 33q0 10 53 106l54 101l-17 20q-172 217 -196 455zM186 750q-8 -78 2 -150q23 -180 134 -340q31 -49 36 -49 q559 1044 562 1049q0 8 -50 43q-75 59 -159 69q-76 8 -168 -37q-102 -53 -193 -178q-145 -193 -164 -407zM416 143q0 -8 49 -43q78 -63 164 -69q49 -6 102 12q135 41 254 201q145 197 164 409q8 78 -2 150q-25 199 -158 375q-6 14 -12 14q-559 -1047 -561 -1049z" />
</font>
</defs>
</svg>
