<?xml version="1.0" standalone="no"?>
<!DOCTYPE svg PUBLIC "-//W3C//DTD SVG 1.1//EN" "http://www.w3.org/Graphics/SVG/1.1/DTD/svg11.dtd" >
<svg xmlns="http://www.w3.org/2000/svg" xmlns:xlink="http://www.w3.org/1999/xlink" version="1.1">
<metadata></metadata>
<defs>
<font id="mtdbt2f4d-22" horiz-adv-x="890" >
<font-face units-per-em="2048" ascent="1638" descent="-410" />
<missing-glyph horiz-adv-x="614" />
<glyph unicode="&#x2019;&#x2019;" horiz-adv-x="1001" d="M66 1022q0 10 4 25q6 23 32 40q117 76 129 154q0 8 -6 14q-6 10 -27.5 31t-23.5 21l-16 -9q-23 -14 -35 -14q-8 0 -35 14q-18 16 -20 23q-12 37 20 70q16 16 45 28q14 4 23 0q25 -10 43 -28q2 -2 11 -10.5t15 -14.5q31 -27 41 -45q6 -8 6 -39q-6 -133 -127 -235 q-53 -43 -67 -48q-4 0 -8 6.5t-4 16.5zM457 1031q4 26 16 40q0 2 21 16q111 76 122 146q4 16 -8 29q-4 6 -22.5 24.5t-22.5 20.5l-16 -9q-23 -14 -35 -14q-8 0 -35 14q-18 16 -20 23q-12 37 20 70q16 16 45 28q18 6 43 -10q16 -10 25 -20q18 -18 28 -27q33 -33 39 -47 q14 -33 -12 -109q-23 -74 -88 -139q-37 -33 -65 -53q-25 -16 -31 -13q-8 4 -4 30z" />
<glyph unicode="&#x21;&#x2018;" horiz-adv-x="557" d="M211 926q-4 14 2 35.5t18 31.5q22 23 45 29q14 8 48 -12q16 -8 22 -23q8 -39 -20 -67q-20 -20 -45 -29q-16 -6 -50 12q-18 12 -20 23zM256 137l2 518l2 11q9 24 21 32q14 6 16 -8q2 -6 2 -524v-516l-4 -10q-10 -37 -27 -37q-8 0 -10 10q-2 6 -2 524z" />
<glyph unicode="&#x3f;&#x2018;" horiz-adv-x="946" d="M113 -55q0 94 59 182q18 31 61 76q53 49 86 73q43 33 76 66q68 66 82 125q0 23 2 98q2 90 4 101q9 24 21 32q8 2 12 0q6 -4 6 -94q0 -84 -4 -98q-6 -76 -57 -158q-27 -41 -64 -75.5t-82 -71.5q-45 -33 -79 -68q-49 -51 -66 -88q-16 -29 -16 -55q0 -14 4 -23 q20 -41 133 -139q141 -121 198 -139q27 -10 72 2q133 29 236 221q20 35 32 27q10 -10 0 -43q-6 -27 -61 -109q-109 -166 -254 -182q-29 -6 -49 2q-47 12 -152 98q-180 154 -198 205q-2 10 -2 35zM432 926q-8 39 21 67q20 21 45 29q16 6 49 -12q18 -12 20 -23q4 -14 -2 -35.5 t-18 -31.5q-23 -23 -45 -29q-14 -8 -47 12q-16 8 -23 23z" />
<glyph unicode="&#x2018;&#x2018;" horiz-adv-x="1001" d="M340 1151q6 76 51 143q45 70 129 121l12 6q10 0 10.5 -20.5t-10.5 -40.5q-4 -12 -28 -27q-106 -72 -123 -145q-2 -16 8 -29q29 -35 47 -45q6 4 15 8q27 14 37 14.5t32 -14.5q20 -14 23 -22q10 -33 -21 -70q-16 -16 -45 -29q-18 -6 -43 11q-16 10 -24 20q-18 18 -29 27 q-33 33 -39 47q-8 18 -2 45zM727 1139q6 121 104 215q39 36 78 61q8 6 15 6q10 0 10 -20.5t-10 -40.5q-4 -10 -27 -27q-117 -76 -127 -153q0 -8 4 -15q6 -8 27.5 -29.5t25.5 -21.5q6 4 15 8q27 14 35 14.5t34 -14.5q18 -12 23 -22q8 -37 -21 -70q-12 -12 -45 -29 q-16 -4 -24 0q-31 16 -41 29q-4 4 -29 25q-31 27 -41 45q-6 12 -6 39z" />
<glyph unicode="&#x2d;&#x2d;" horiz-adv-x="1001" d="M4 551q9 25 21 33q4 2 487 2q481 0 485 -2q4 -4 4 -25q-4 -43 -24 -53q-4 -2 -488 -2q-481 0 -483 2q-14 6 -2 45z" />
<glyph unicode="&#x7b;&#x2d;" horiz-adv-x="2004" d="M4 551q9 25 21 33q4 2 989 2q983 0 985 -2q6 -6 6 -25q-8 -43 -27 -53q-4 -2 -987 -2t-985 2q-14 6 -2 45z" />
<glyph unicode="ff" horiz-adv-x="1015" d="M2 832.5q4 25.5 16 41.5q8 8 95 9h82v127q0 131 2 141q8 55 79 139q95 113 132 129q8 2 24 2q102 -6 184 -166l13 -22l-2 -12q0 -35 -19 -54q-12 -8 -16 -4l-2 4q-2 4 -6 10.5t-6 12.5q-43 82 -91 119q-39 29 -77 30q-12 0 -19 -2q-29 -18 -108 -110q-20 -27 -39 -53 l-6 -9v-143v-139h229h229v127q0 131 2 141q8 53 78 139q96 111 127 125l10 6l17 -2q29 0 59 -12q70 -37 127 -152l12 -22v-12q0 -37 -20 -54q-10 -8 -14 -4t-15 27q-43 82 -90 119q-37 27 -78 30q-12 0 -20 -2q-29 -18 -107 -110q-33 -41 -39 -53l-6 -9v-143v-139h121 q121 0 125 -2q8 -6 4 -32t-16 -40q-8 -8 -123 -8h-111v-377v-377l-4 -10q-12 -35 -28 -37q-6 0 -9 10q-2 4 -2 398v393h-229h-229v-377v-377l-5 -10q-10 -35 -26 -37q-8 0 -10 10q-2 4 -2 398v393h-93h-96q-8 6 -4 31.5z" />
<glyph unicode="fl" horiz-adv-x="903" d="M2 832.5q4 25.5 16 41.5q8 8 95 9h82v135q2 135 4 147q18 72 112 201q66 92 109 135q27 27 47 33q14 4 59 0q109 -18 195 -102q14 -12 16 -21q2 -6 2 -686v-678l-4 -10q-12 -35 -28 -37q-6 0 -9 10q-2 4 -2 672v668l-14 12q-90 82 -201 90q-27 4 -39 -4 q-33 -18 -116 -133q-72 -100 -84 -133l-4 -8v-146v-145h120q123 0 125 -2q8 -6 4 -32t-16 -40q-8 -8 -123 -8h-110v-377v-377l-5 -10q-10 -35 -26 -37q-8 0 -10 10q-2 4 -2 398v393h-93h-96q-8 6 -4 31.5z" />
<glyph unicode="&#xb8;i" horiz-adv-x="1404" d="M2 832.5q4 25.5 16 41.5q8 8 95 9h82v127q0 131 2 141q8 55 79 139q94 111 125 125l11 6l16 -2q27 0 61 -12q66 -37 127 -152l13 -22l-2 -12q0 -35 -19 -54q-12 -8 -16 -4l-2 4q-2 4 -6 10.5t-6 12.5q-43 82 -91 119q-39 29 -77 30q-12 0 -19 -2q-29 -18 -108 -110 q-20 -27 -39 -53l-6 -9v-143v-139h229h229v127q0 141 11 168q14 45 77 114q55 63 111 113q45 37 70 45q6 2 26 2q123 -4 223 -104l17 -17l8 -6q31 -10 41 -25q10 -10 4 -40q-8 -27 -18 -37q-23 -23 -45 -29q-16 -6 -47 12q-25 14 -25 33q0 14 10 41l6 8l-12 10 q-92 72 -186 72h-19l-10 -4q-37 -20 -119 -106q-53 -57 -76 -89l-4 -8v-141v-139h246q188 0 221 -1t33 -10v-2v-415v-408l-4 -10q-10 -35 -27 -37q-8 0 -10 10v398v393h-229h-230v-377v-377l-4 -10q-12 -35 -28 -37q-6 0 -9 10q-2 4 -2 398v393h-229h-229v-377v-377l-5 -10 q-10 -35 -26 -37q-8 0 -10 10q-2 4 -2 398v393h-93h-96q-8 6 -4 31.5z" />
<glyph unicode="&#xb8;l" horiz-adv-x="1404" d="M2 832.5q4 25.5 16 41.5q8 8 95 9h82v127q0 131 2 141q8 55 79 139q94 111 125 125l11 6l16 -2q27 0 61 -12q66 -37 127 -152l13 -22l-2 -12q0 -35 -19 -54q-12 -8 -16 -4l-2 4q-2 4 -6 10.5t-6 12.5q-43 82 -91 119q-39 29 -77 30q-12 0 -19 -2q-29 -18 -108 -110 q-20 -27 -39 -53l-6 -9v-143v-139h229h229v135q2 135 4 147q20 78 113 201q70 98 107 135q31 29 49 33q12 4 57 0q106 -18 197 -102q14 -14 16 -21v-686v-678l-4 -10q-10 -35 -27 -37q-8 0 -10 10v672v668l-16 12q-86 80 -199 90q-27 4 -39 -4q-35 -18 -117 -133 q-72 -100 -84 -133l-4 -8v-146v-145h121q121 0 125 -2q8 -6 4 -32t-16 -40q-8 -8 -123 -8h-111v-377v-377l-4 -10q-12 -35 -28 -37q-6 0 -9 10q-2 4 -2 398v393h-229h-229v-377v-377l-5 -10q-10 -35 -26 -37q-8 0 -10 10q-2 4 -2 398v393h-93h-96q-8 6 -4 31.5z" />
<glyph horiz-adv-x="0" />
<glyph unicode="&#xd;" horiz-adv-x="681" />
<glyph unicode=" "  horiz-adv-x="614" />
<glyph unicode="&#x09;" horiz-adv-x="614" />
<glyph unicode="&#xa0;" horiz-adv-x="614" />
<glyph unicode="!" horiz-adv-x="557" d="M211 39q-4 12 2 34.5t18 32.5q16 17 45 29q14 8 48 -12q18 -12 22 -23q8 -37 -20 -69q-12 -12 -45 -29q-18 -6 -50 12q-18 14 -20 25zM256 860l2 516l2 10q9 25 21 33q14 6 16 -8q2 -6 2 -524v-516l-4 -9q-10 -37 -27 -36q-8 0 -10 10q-2 6 -2 524z" />
<glyph unicode="#" horiz-adv-x="1558" d="M113 306q4 26 16 40l2 2q4 6 111 6h88h192v160v158h-200q-203 0 -205 2q-8 6 -4 31.5t16 39.5l2 3q4 6 111 6h88h192v190v193l4 8q7 27 21 33q4 4 6 4q6 0 10 -11v-210v-207h215h215v190l2 193l2 8q12 35 29 37q6 0 8 -11q2 -6 2 -210v-207h201q203 0 205 -2q8 -6 4 -32 t-16 -40l-3 -2q-4 -6 -106 -6h-2h-4h-88h-191v-158v-160h201h205q8 -6 4 -32.5t-16 -40.5q-8 -8 -203 -9h-191v-190v-191l-4 -10q-10 -35 -26 -37q-8 0 -11 11q-2 4 -2 213v204h-213h-217v-190v-191l-4 -10q-10 -35 -27 -37q-8 0 -10 11v213v204h-200q-203 0 -205 2 q-8 6 -4 32zM563 354h217h213v160v158h-213h-217v-158v-160z" />
<glyph unicode="$" horiz-adv-x="1001" d="M113 168q-8 25 10 53q10 20 20 17l15 -15q82 -94 192 -145q53 -20 82 -27q35 -10 55 -10q2 0 2 303v305l-61 19q-82 27 -111 41q-51 27 -90 63q-70 70 -88 162q-20 90 31 160q31 39 131 127q123 102 170 127l18 8v67q2 68 5 78q8 25 20 33q6 2 12 2q6 -4 6 -94v-80l19 -2 q135 -8 272 -119q18 -16 21 -22q6 -33 -17 -64q-8 -8 -14 -8l-16 12q-98 80 -205 109q-18 6 -53 10h-7v-277v-276l3 -2q96 -27 131 -43q100 -37 168 -135q20 -33 36 -70q31 -86 17 -143q-10 -72 -133 -189q-147 -143 -207 -172l-15 -6v-67q-2 -68 -4 -76q-6 -20 -15 -29.5 t-15 -5.5q-8 4 -9 92v80h-14q-12 0 -33 4q-156 23 -284 152q-45 41 -45 53zM174 1024l2 -8q4 -47 25 -86q53 -104 172 -152q6 -2 104 -37l12 -4v271v270q-6 0 -12 -2q-43 -16 -147 -102q-125 -106 -148 -142zM532.5 338q-0.5 -297 2.5 -297q4 0 28 12q43 25 129 103 q125 117 150 155l6 8l-2 19q-2 49 -29 100q-45 94 -143 148q-20 9 -94 32l-45 17q-2 0 -2.5 -297z" />
<glyph unicode="%" horiz-adv-x="1337" d="M111 993q2 70 112 258q55 99 90 111q10 4 33 -14q31 -31 92 -142q72 -127 72 -188q-6 -74 -113 -258q-39 -63 -64.5 -90t-43.5 -19q-14 4 -33 33q-25 33 -69 110.5t-58 116.5q-20 49 -18 82zM154 1024q0 -18 12 -43q6 -23 51 -102q61 -113 88 -140q16 -10 23 -4 q14 10 51 74q88 147 88 178q0 33 -51 125q-84 152 -111 166q-2 2 -6 2q-10 0 -59 -76q-86 -152 -86 -180zM223 12q-4 23 8 49q0 2 212 311.5t425 618.5t217.5 317.5t10.5 8.5q6 6 12 2t5 -24.5t-9 -34.5q-2 -4 -217 -316.5t-428 -624t-215 -313.5q-14 -14 -21 6zM825 303 q6 74 113 258q59 99 90 111q14 6 33 -15q27 -25 92 -141q74 -131 72 -186q-2 -72 -113 -258q-37 -63 -63.5 -91t-42.5 -20q-12 6 -35 33q-25 35 -69 112.5t-58 116.5q-18 43 -19 80zM868 334q0 -12 13 -41q8 -27 51 -105q63 -113 90 -139q14 -10 20 -4q12 8 54 74 q86 150 86 178q0 31 -52 127q-85 152 -108 164l-8 4q-12 0 -58 -78q-88 -150 -88 -180z" />
<glyph unicode="&#x26;" horiz-adv-x="1337" d="M111 305q6 164 133 313q45 51 88 87q74 61 90 71l20 17q-6 10 -10 20q-82 129 -96 215q-4 37 0 64q12 63 108 184q105 127 148 143q14 6 33 -2q18 -12 53 -47q76 -76 92 -110q8 -23 8 -50q-6 -160 -127 -305q-43 -53 -100 -100l-21 -17l19 -24q33 -43 96 -127 q160 -197 162 -197l8 17q35 82 51 116q43 98 103 172q25 37 65 68q59 49 123 61q18 6 40 7.5t22 -0.5q8 -6 4 -32t-17 -40q-6 -8 -18 -8q-25 0 -78 -15q-70 -25 -133 -100q-43 -55 -88 -151q-55 -117 -55 -127q0 -4 81 -97q199 -221 291 -229q14 0 17 -10q8 -35 -17 -64 q-8 -8 -22 -8q-61 6 -160 92q-96 86 -217 232l-6 6q-6 -12 -13 -29q-23 -45 -51 -94q-115 -190 -266 -205q-41 -6 -72 10q-43 20 -106 74q-150 117 -174 168q-8 18 -8 51zM154 356q-2 -27 6 -39q10 -18 39 -47q37 -37 123 -104q100 -84 147 -84q27 0 47 6q70 12 131.5 73.5 t116.5 176.5q10 23 8 24l-4 7q-4 6 -13.5 17t-17.5 22q-176 215 -248 317l-14 18q-8 -4 -16 -12q-6 -4 -20.5 -14t-18.5 -12q-86 -66 -133 -113q-121 -121 -133 -236zM375 1102l2 -15q4 -33 24 -81q29 -68 88 -158l11 -14l18 16q154 123 199 237q14 37 18 82q0 16 -2 21 q-18 37 -86 104q-29 29 -49 41q-12 6 -23 2q-29 -14 -114 -114q-57 -70 -82 -111z" />
<glyph unicode="(" horiz-adv-x="724" d="M137 469q-4 268 73 505.5t226 411.5q86 99 154 146q8 4 10 4q8 0 10 -14.5t-4 -32.5q-6 -25 -35 -43q-61 -53 -82 -74q-154 -154 -235 -379q-57 -162 -70 -338q-27 -352 90 -641q104 -268 316 -434q18 -16 20 -20q8 -35 -16 -64q-8 -8 -14 -8q-8 0 -88 72 q-285 270 -342 733q-8 72 -13 176z" />
<glyph unicode=")" horiz-adv-x="724" d="M113 1460q-6 8 2 41q12 25 20 33l6 2q6 0 21 -14q276 -219 377 -607q29 -121 39 -241q23 -266 -37 -515t-191 -438q-57 -80 -117 -139q-35 -35 -86 -76q-27 -23 -32 -12q-8 8 0 41q6 20 35 43q43 35 81 74q154 154 236 379q57 162 70 340q16 190 -17 377 q-55 330 -248 559q-61 76 -135 133q-4 4 -10 9t-10 9z" />
<glyph unicode="*" horiz-adv-x="1001" d="M150 862q-4 14 3 37t17 31q2 2 133 82l129 78q-63 39 -139 84q-33 20 -69 42.5t-54 34.5l-18 13q-12 14 2 49q14 29 24 28q4 0 152 -92l149 -92v168l2 168l2 8q11 29 21 33l6 4q8 0 8 -8q4 -4 4 -193v-192l158 98q160 96 162 98q6 0 10 -12q8 -41 -18 -63 q-2 0 -19.5 -12.5t-51.5 -33t-65 -38.5l-127 -80l19 -12q16 -10 53 -33t68 -41q139 -84 139 -88q8 -12 0 -39q-6 -20 -16.5 -30.5t-24.5 -0.5q-2 2 -23.5 15.5t-57.5 36t-69 40.5l-137 84v-166v-166l-4 -10q-8 -27 -24 -35q-6 -6 -13 5v6q0 8 -1 22.5t-1 34.5v55v76v191 l-157 -97q-160 -96 -162 -98q-10 0 -10 10z" />
<glyph unicode="+" horiz-adv-x="1558" d="M111 498q4 41 26 53q4 2 312 2h309v291l2 291l2 10q8 25 20 33l6 2q6 0 11 -11q2 -4 2 -311v-305h319q319 0 322 -2q6 -6 6 -25q-8 -43 -27 -53q-4 -2 -313 -2h-307v-291v-289l-4 -10q-12 -35 -29 -37q-6 0 -8 11q-2 4 -2 311v305h-320q-319 0 -321 2q-6 6 -6 25z" />
<glyph unicode="," horiz-adv-x="557" d="M209 -260q0 10 4 24q6 23 33 41q117 76 129 154q0 8 -6 14q-6 8 -28 30t-24 22l-16 -9q-23 -14 -35 -14q-8 0 -35 14q-18 16 -20 23q-12 37 20 70q16 16 45 28q14 4 23 0q25 -10 43 -28q2 -2 11 -10.5t16 -14.5q31 -27 41 -45q6 -8 6 -39q-6 -133 -127 -236 q-53 -43 -68 -47q-4 0 -8 6.5t-4 16.5z" />
<glyph unicode="-" horiz-adv-x="667" d="M23 406q2 -4 0 6q-4 16 3 38.5t19 30.5q4 2 252 2q254 0 256 -4q-2 2 0 -6q8 -35 -16 -63q-6 -8 -23.5 -8.5t-237.5 -0.5q-252 0 -253 5z" />
<glyph unicode="." horiz-adv-x="557" d="M211 39q-4 12 2 34.5t18 32.5q16 17 45 29q14 8 48 -12q18 -12 22 -23q8 -37 -20 -69q-12 -12 -45 -29q-18 -6 -50 12q-18 14 -20 25z" />
<glyph unicode="/" horiz-adv-x="1001" d="M113 -475q0 2 182 487.5t370.5 987t190.5 509.5q12 21 18 25q2 0 7 2q18 0 10 -37q-2 -4 -367.5 -978t-378.5 -1006q-6 -16 -18 -25q-6 -2 -10 0q-10 6 -4 35z" />
<glyph unicode="0" horiz-adv-x="946" d="M111 647l2 344l2 10q18 61 78 127q76 86 169 166q68 58 105 66q16 6 43 -2q37 -16 123 -92q104 -98 139 -142q43 -47 53 -75q8 -23 9 -375v-342l-5 -10q-20 -74 -131 -185q-125 -125 -180 -157q-39 -23 -61 -21q-39 2 -146 96q-104 98 -139 142q-45 53 -53 75 q-8 25 -8 375zM154 350l2 -8q10 -25 51 -74q45 -49 133 -133q80 -74 121 -88q8 -4 22.5 -4t22.5 4q51 20 190 160q59 57 90 102l7 8v328v328l-5 8q-10 29 -51 72q-66 76 -133 133q-76 70 -119 90q-23 8 -34 4q-41 -12 -140 -102q-131 -127 -153 -164l-4 -8v-328v-328z" />
<glyph unicode="1" horiz-adv-x="946" d="M168 874q0 25 10 46q4 6 207 220t209 220q10 4 16 -10v-656v-647l-4 -10q-6 -27 -22 -35q-8 -6 -13 4q-2 4 -2 631v625l-192 -203q-195 -203 -197 -205q-4 -2 -10 4q-2 4 -2 16z" />
<glyph unicode="2" horiz-adv-x="946" d="M111 26.5q2 20.5 12 36.5q4 8 190 218q268 297 328 372q133 172 150 291q2 29 -5 41q-29 55 -151 172q-113 106 -162 121q-20 4 -57 -16q-45 -29 -144 -125q-115 -109 -120 -140q-2 -16 -9.5 -28.5t-13.5 -16.5t-12 0q-10 6 -4 39q12 63 96 154q49 55 115 112 q94 89 145 103q27 8 78 -25q53 -35 184 -166q88 -92 100 -135q4 -25 0 -73q-27 -180 -219 -414q-31 -39 -278 -316l-133 -147l313 -2h78h64.5h52h41t31 -1t23.5 -1h14h9h2q4 -4 5 -25q-4 -43 -25 -53q-4 -2 -347 -2t-345 2q-8 4 -6 24.5z" />
<glyph unicode="3" horiz-adv-x="946" d="M111 207q4 41 26 53q6 4 19 -12q92 -133 206 -180q55 -25 113 -25q20 0 31 4q55 25 190 160q59 57 90 102l7 8v89v88l-5 8q-10 29 -51 71q-66 76 -133 134q-78 74 -119 90l-12 4h-65q-66 0 -70 4q-4 2 -4 24q0 20 12 37q10 18 172 189l168 184h-256q-256 0 -258 2 q-6 4 -6 25q8 41 24 51q4 4 293 4q287 0 289 -2q8 -4 6 -25.5t-12 -38.5q-6 -10 -172 -188l-168 -182l35 -2h37l12 -4q43 -18 123 -93q104 -98 139 -141q43 -47 53 -76q8 -23 9 -133q0 -106 -5 -114q-18 -72 -131 -185q-145 -145 -204 -172q-18 -6 -45 -6q-125 6 -236 109 q-55 53 -92 106q-10 18 -10 33z" />
<glyph unicode="4" horiz-adv-x="946" d="M88 428q0 2 56.5 212t115.5 433t66 248q10 31 22 37q4 4 6 4q14 0 11 -29q0 -4 -110 -418.5t-116 -429.5q0 -4 209 -4h209v178v179l4 8q10 35 27 37q8 0 10 -11v-198v-193h152h155q8 -6 4 -31.5t-16 -41.5q-8 -8 -152 -9h-143v-176v-176l-4 -10q-10 -35 -27 -37 q-8 0 -10 10v197v192h-229q-231 0 -234 2q-6 6 -6 27z" />
<glyph unicode="5" horiz-adv-x="946" d="M111 207q4 41 26 53q6 4 19 -12q92 -133 206 -180q55 -25 113 -25q20 0 31 4q55 25 190 160q59 57 90 102l7 8v89v88l-5 8q-10 29 -51 71q-66 76 -133 134q-78 74 -119 90q-12 4 -32 4q-139 0 -248 -139q-8 -10 -13.5 -16.5t-8.5 -9.5t-6 -3t-5 4q-4 8 -4 10q-2 4 -2 318 l2 311l2 10q10 25 20 31l5 4h286q289 0 291 -2q8 -6 4 -31.5t-16 -40.5q-6 -8 -24.5 -8h-256.5h-270v-250q0 -250 2 -250q8 10 47 49q104 94 217 95q23 0 35 -4q43 -18 123 -93q104 -98 139 -141q43 -47 53 -76q8 -23 9 -133q0 -106 -5 -114q-18 -72 -131 -185 q-145 -145 -204 -172q-18 -6 -45 -6q-125 6 -236 109q-55 53 -92 106q-10 18 -10 33z" />
<glyph unicode="6" horiz-adv-x="946" d="M111 647l2 344l2 10q18 61 78 127q76 86 169 166q68 58 105 66q39 12 115 -10q129 -35 237 -156q16 -18 15 -37q-4 -45 -29 -53q-4 0 -14 12q-43 43 -60 58q-109 94 -242 106q-29 2 -49 -4q-59 -27 -192 -160q-70 -74 -90 -106l-4 -6v-201v-201l10 14q27 35 84 91 q117 117 178 155q39 23 63 21q41 -2 144 -97q104 -98 139 -141q43 -47 53 -76q8 -23 9 -133q0 -106 -5 -114q-18 -72 -131 -185q-125 -125 -180 -157q-39 -23 -61 -21q-39 2 -146 96q-104 98 -139 142q-45 53 -53 75q-8 25 -8 375zM154 350l2 -8q10 -25 51 -74 q45 -49 133 -133q80 -74 121 -88q8 -4 22.5 -4t22.5 4q51 20 190 160q59 57 90 102l7 8v89v88l-5 8q-10 29 -51 71q-66 76 -133 134q-76 70 -119 90q-23 8 -34 4q-41 -12 -140 -103q-131 -127 -153 -163l-4 -9v-90v-86z" />
<glyph unicode="7" horiz-adv-x="946" d="M111 1153l2 121l2 10q10 23 20 33l4 2h371q373 0 375 -2q8 -8 4 -29q-2 -12 -225 -637q-223 -629 -228 -633q-6 -14 -16 -18q-8 -2 -12.5 8t0.5 27q0 8 213 598q209 592 213 598l2 6h-342h-340v-88l-2 -88l-2 -10q-12 -31 -27 -37q-10 0 -10 14q-2 4 -2 125z" />
<glyph unicode="8" horiz-adv-x="946" d="M111 338q0 33 4 43q10 41 37.5 79t91.5 103q104 100 137 127l10 8l-12 9q-31 25 -103 102q-78 82 -101 123t-17 80q10 68 114 180q148 156 197 168q8 2 29 2q14 -4 65 -41l24.5 -24.5t43 -42t39.5 -40.5q86 -90 106.5 -133t3.5 -92q-10 -45 -78 -123q-55 -68 -129 -135 l-18 -18q6 -6 14 -13q43 -33 138 -127q68 -63 90 -96q27 -39 37 -69q2 -10 -0.5 -44t-4.5 -42q-18 -72 -131 -185q-125 -125 -180 -157q-39 -23 -61 -21q-39 2 -146 96q-104 98 -139 142q-49 55 -59 96q-2 12 -2 45zM154 367q0 -25 12 -45q29 -43 102 -117 q143 -141 193 -158q8 -4 22.5 -4t22.5 4q51 20 190 160q59 57 90 102l7 8v17q0 23 -15 45q-16 31 -102 119q-142 139 -191 157q-23 8 -34 4q-41 -10 -140 -102q-125 -119 -153 -164l-4 -8v-18zM199 1026q0 -18 43 -65q82 -104 170 -179q47 -39 73 -39q18 0 58 33 q45 33 139 137q63 72 63 84q0 8 -20 37q-31 45 -92 109q-121 125 -160 137q-14 0 -24 -2q-41 -14 -136 -115q-51 -53 -80 -88q-35 -43 -34 -49z" />
<glyph unicode="9" horiz-adv-x="946" d="M111 887q2 113 10 135q23 51 72 106q76 86 169 166q68 58 105 66q16 6 43 -2q37 -16 123 -92q104 -98 139 -142q43 -47 53 -75q8 -23 9 -375v-342l-5 -10q-20 -74 -131 -185q-125 -125 -180 -157q-41 -23 -90 -19q-147 12 -268 131q-47 47 -47 55q-8 27 10 54q8 18 20 18 q12 -12 15 -16l32 -33q117 -115 265 -127q33 -4 51 4q51 20 190 160q70 66 92 104l5 6v201v201l-13 -12q-16 -25 -82 -91q-125 -123 -180 -157q-39 -23 -61 -21q-39 2 -146 97q-104 98 -139 141q-45 53 -53 75.5t-8 135.5zM154 829l2 -8q10 -25 51 -73q45 -49 133 -134 q80 -74 121 -88q8 -4 22.5 -4t22.5 4q51 20 190 160q59 57 90 102l7 9v88v88l-5 8q-10 29 -51 72q-66 76 -133 133q-76 70 -119 90q-23 8 -34 4q-41 -12 -140 -102q-131 -127 -153 -164l-4 -8v-91v-86z" />
<glyph unicode=":" horiz-adv-x="557" d="M211 39q-4 12 2 34.5t18 32.5q16 17 45 29q14 8 48 -12q18 -12 22 -23q8 -37 -20 -69q-12 -12 -45 -29q-18 -6 -50 12q-18 14 -20 25zM211 782q-4 14 2 36t18 32q22 23 45 29q14 8 48 -13q16 -8 22 -22q8 -39 -20 -68q-20 -20 -45 -28q-16 -6 -50 12q-18 12 -20 22z" />
<glyph unicode=";" horiz-adv-x="557" d="M209 -260q0 10 4 24q6 23 33 41q117 76 129 154q0 8 -6 14q-6 8 -28 30t-24 22l-16 -9q-23 -14 -35 -14q-8 0 -35 14q-18 16 -20 23q-12 37 20 70q16 16 45 28q14 4 23 0q25 -10 43 -28q2 -2 11 -10.5t16 -14.5q31 -27 41 -45q6 -8 6 -39q-6 -133 -127 -236 q-53 -43 -68 -47q-4 0 -8 6.5t-4 16.5zM211 784q-4 12 2 35t18 33q16 17 45 29q14 8 48 -13q18 -12 22 -22q8 -37 -20 -70q-12 -12 -45 -28q-18 -6 -50 12q-18 14 -20 24z" />
<glyph unicode="=" horiz-adv-x="1558" d="M115 319q8 25 20 33q4 2 653 2q651 0 654 -2q6 -6 6 -24q-8 -43 -27 -54q-4 -2 -653 -2t-651 2q-14 6 -2 45zM115 717q10 29 20 33q4 4 653 4q651 0 654 -2q6 -6 6 -27q-8 -41 -27 -53h-653h-651q-14 10 -2 45z" />
<glyph unicode="?" horiz-adv-x="946" d="M111 1112q2 25 34 76q121 211 279 231q31 6 57 -2q51 -16 160 -108q102 -84 143 -128t50 -77q8 -59 -25 -139q-31 -72 -98 -144q-39 -37 -86 -73q-51 -39 -76 -66q-68 -68 -80 -125q-4 -12 -4 -96q0 -90 -4 -99q-12 -39 -29 -36q-6 0 -8 8v46v88v50q18 137 139 250 q31 27 68 57q55 43 78 66q74 76 82 131q2 25 -3 33q-27 53 -176 176q-104 88 -155 104q-25 8 -82 -2q-125 -35 -223 -213q-25 -43 -35 -33q-6 6 -6 25zM377 39q-4 12 3 34.5t17 32.5q16 17 45 29q16 6 47 -12q20 -14 23 -23q10 -33 -20 -69q-16 -16 -46 -29q-18 -6 -47 12 q-20 14 -22 25z" />
<glyph unicode="@" horiz-adv-x="1558" d="M113 657q-12 66 43 166q59 100 180 234q168 188 272 282q99 87 162 103q27 4 51 -2q61 -18 176 -121q76 -70 234 -238q199 -211 213 -309q8 -45 -17 -106q-23 -55 -108 -177q-82 -117 -123 -135q-23 -10 -72 37q-63 68 -67 92q-2 4 -2 33v27l-21 -21q-27 -29 -86 -78 q-115 -92 -160 -102q-27 -10 -57 8q-55 27 -190 162q-59 61 -74 94q-6 18 -6 82q0 53 4 66q12 45 55 94q55 66 146 143q82 74 125 74t159 -94q61 -49 88 -76l17 -16v63l2 64l2 12q14 27 24 33q4 0 9 -2q4 -4 4 -9q2 -2 2 -254v-247l6 -9q12 -18 39 -47q45 -51 61 -51 q14 0 43 37q6 8 62 78q74 109 94 151q4 10 -4 37q-16 53 -90 144q-80 100 -232 254q-164 170 -250 210q-57 29 -112 3q-76 -37 -217 -185q-135 -147 -166 -180q-141 -162 -170 -229q-12 -27 -6 -52q25 -90 190 -276q8 -8 32.5 -35t50.5 -54.5t44 -47.5q63 -70 143 -144 q104 -92 162 -100q6 -2 41 -2q336 10 592 197q4 2 10 6t9.5 6t5.5 2q8 2 10 -10q6 -23 -10 -52q-4 -10 -37 -34q-240 -170 -541 -193q-88 -8 -104 -2q-57 8 -166 105q-84 76 -150 149q-137 145 -202 227q-109 131 -123 215zM502 680l6 -10q12 -29 80 -99q121 -115 170 -141 q27 -12 43 -10q43 12 131 86q86 66 112 96l11 12v74v74l-8 12q-29 41 -125 117q-97 78 -138 90q-18 4 -43 -6q-43 -23 -120 -98q-84 -78 -111 -115l-8 -10v-37v-35z" />
<glyph unicode="A" horiz-adv-x="1224" d="M113 8q-4 10 0 27q0 6 242.5 693t246.5 695q4 7 14 17q6 2 13 0l243 -686l242 -682l-2 -13q0 -35 -18 -53q-10 -10 -17 -4q0 2 -6 18.5t-25.5 71.5t-39.5 111l-72 200l-2 5h-326h-325l-66 -189q-68 -190 -72 -196q-12 -18 -18 -23q-8 -2 -12 8zM309 489h299l295 3 l-145 411q-143 406 -150 420l-2 6q-4 -8 -150.5 -422.5t-146.5 -417.5z" />
<glyph unicode="B" horiz-adv-x="1224" d="M166 686l2 668l2 12q10 21 20 31l5 2h219q225 0 252 -8q68 -27 211 -136q96 -72 135 -110q45 -47 45 -86q-6 -47 -37 -86q-16 -23 -62 -64q-100 -86 -206 -155l-19 -13l6 -2q16 -6 60 -37q23 -14 110 -79q190 -143 201 -203q1 -8 1 -16q0 -35 -21 -72q-33 -57 -187 -174 q-168 -129 -233 -150q-27 -8 -264 -8h-232l-2 4q-4 2 -4 10q-2 4 -2 672zM209 82h227l230 2l10 2q63 20 209 129q86 63 143 115q37 37 37 41q0 6 -21 32q-43 51 -163 140q-158 121 -228 139l-10 4h-217h-217v-301v-303zM209 768h209q219 0 244 8q61 27 194 125 q115 88 145 121l9 8l-2 4q-18 33 -93 90q-35 31 -135 103q-111 80 -162 88q-10 2 -210 2h-199v-275v-274z" />
<glyph unicode="C" horiz-adv-x="1337" d="M326 1063q143 170 222 251t136 111q10 7 39 15q8 4 35 4q252 -10 450 -268q18 -25 17 -39q-4 -47 -31 -56q-2 0 -20 23q-61 80 -148 149q-137 102 -289 109q-23 0 -32 -4q-74 -18 -213 -174q-131 -147 -203 -240q-131 -160 -135 -221v-4q0 -23 22 -70q39 -82 162 -233 q14 -16 44 -50t61.5 -72t39.5 -46q156 -174 234 -201q12 -4 39 -4q47 0 98 12q143 35 264 160q41 43 78 92l12 12q6 2 11 0q14 -8 2 -43q-4 -18 -23 -40q-98 -131 -220 -203t-245 -72h-26l-15 4q-80 27 -243 211q-84 94 -187 219q-151 189 -151 284q0 128 215 384z" />
<glyph unicode="D" horiz-adv-x="1280" d="M166 686l2 668l2 12q10 21 20 31l5 2h198q176 0 195.5 -1t42.5 -12q55 -29 143 -114q49 -53 158 -176q190 -219 223 -312q12 -31 12 -65q0 -49 -24 -107q-45 -119 -250 -391q-143 -190 -215 -217l-12 -4h-246h-246l-2 4q-4 2 -4 10q-2 4 -2 672zM209 82h237q238 0 246 2 q16 6 33 18q57 45 160 181q10 16 55 77.5t59 81.5q127 178 127 238q0 63 -127 223q-127 147 -163 189q-129 145 -201 196q-43 25 -57 27q-10 2 -191 2h-178v-617v-618z" />
<glyph unicode="E" horiz-adv-x="1114" d="M166 686l2 668l2 12q10 21 20 31l5 2h399h401q6 -6 6 -27q-4 -41 -26 -53q-4 -2 -385 -2h-381v-275v-274h336h340q4 -4 4 -27q-4 -43 -25 -53q-4 -2 -329 -2h-326v-301v-303h391q393 0 395 -2q6 -6 6 -25q-4 -41 -26 -53q-4 -2 -402 -2h-399l-2 4q-4 2 -4 10q-2 4 -2 672 z" />
<glyph unicode="F" horiz-adv-x="1058" d="M166 686l2 668l2 12q10 21 20 31l5 2h399h401q6 -6 6 -27q-4 -41 -26 -53q-4 -2 -385 -2h-381v-287v-289h336q336 0 340 -2q4 -4 4 -24q-4 -43 -25 -53q-4 -2 -329 -3h-326v-307v-305l-4 -10q-12 -37 -29 -37q-6 0 -8 10q-2 6 -2 676z" />
<glyph unicode="G" horiz-adv-x="1337" d="M158 829q63 115 286 365q106 117 164 168q80 66 133 80q6 2 35 2q125 -6 242 -62q100 -51 180 -131q25 -23 25 -28q2 -10 2 -19q0 -29 -21 -47q-8 -6 -12 -4t-23 21q-59 57 -102 83q-154 102 -315 103q-29 0 -39 -2q-49 -18 -113 -78q-61 -55 -147 -150 q-133 -150 -217 -256q-80 -111 -82 -149v-5q0 -68 143 -247q63 -76 182 -211q168 -184 252 -215l14 -4h27q96 0 193 37q70 31 96 49q68 41 108 82l13 12v199v199h-224h-223l-4 4q-8 8 -4 26q8 37 25 47q4 4 233 4q236 -2 238 -10v-2q2 -4 2 -241v-234l-4 -8q-8 -23 -23 -37 q-82 -88 -192 -145q-127 -63 -254 -64h-31l-14 4q-86 29 -269 232q-10 10 -135 153q-192 226 -192 331q0 67 47 148z" />
<glyph unicode="H" horiz-adv-x="1280" d="M166 686l2 668l2 10q8 25 20 33l7 2q6 0 10 -8q2 -6 2 -328v-322h430h430v306l2 307l2 10q12 35 29 35q6 0 8 -10q2 -6 2 -674v-668l-4 -10q-10 -35 -27 -37q-8 0 -10 10q-2 4 -2 328v321h-430h-430v-307v-305l-4 -10q-12 -37 -29 -37q-6 0 -8 10q-2 6 -2 676z" />
<glyph unicode="I" horiz-adv-x="401" d="M178 686l2 668l2 10q9 25 21 33q12 10 16 -8q2 -6 2 -674v-668l-4 -10q-12 -37 -29 -37q-6 0 -8 10q-2 6 -2 676z" />
<glyph unicode="J" horiz-adv-x="946" d="M113 401q4 20 14 35t18 13q6 -2 9 -21q0 -16 14 -47q29 -55 113 -166q72 -92 106 -131q46 -41 73 -41q6 0 11 2q45 25 152 166q88 115 108 162l4 10v487l2 486l2 10q9 25 21 33q2 0 6 2h2q8 0 8 -10q2 -4 2 -490q0 -494 -8 -522q-18 -68 -113 -197q-88 -117 -133 -165 t-78 -56q-4 -1 -10 -1q-30 0 -80 50q-41 41 -110 131q-70 94 -92 131q-42 72 -42 116q0 7 1 13z" />
<glyph unicode="K" horiz-adv-x="1280" d="M166 686l2 668l2 10q8 25 20 33l7 2q8 0 8 -6q4 -4 4 -478v-475l457 480q457 477 460 479h9q8 -6 5 -28.5t-14 -37.5q0 -2 -26.5 -29.5t-80.5 -86t-99 -105.5l-203 -213l221 -407q223 -410 225 -412q4 -8 4 -21q0 -29 -18 -51q-10 -10 -14 -6q-4 0 -234 422l-231 426 q-6 0 -232 -240l-229 -239v-164v-160l-4 -10q-12 -37 -29 -37q-6 0 -8 10q-2 6 -2 676z" />
<glyph unicode="L" horiz-adv-x="1114" d="M166 686l2 668l2 10q8 25 20 33l7 2q6 0 10 -8q2 -6 2 -658v-651h391q393 0 395 -2q6 -6 6 -25q-4 -41 -26 -53q-4 -2 -402 -2h-399l-2 4q-4 2 -4 10q-2 4 -2 672z" />
<glyph unicode="M" horiz-adv-x="1392" d="M166 686l2 668l2 10q8 25 20 33q8 2 13 0q4 -4 252 -326l250 -321q111 145 247 321q53 68 122 157t100 128l30 39q14 14 19 -6q2 -6 2 -674v-668l-4 -10q-8 -27 -25 -35q-6 -6 -12 4v6v19.5v32v48t-1 65.5t-1 86v106.5v130v153.5v641l-242 -313l-244 -315q-8 -6 -12 -7 q-2 0 -240 306l-235 307v-615v-610l-4 -10q-12 -37 -29 -37q-6 0 -8 10q-2 6 -2 676z" />
<glyph unicode="N" horiz-adv-x="1280" d="M166 686l2 668l2 10q8 25 20 33q8 4 13 0q8 -8 436 -547l430 -545v524l2 525l2 10q12 35 29 35q6 0 8 -10q2 -6 2 -674v-668l-4 -10q-6 -20 -15.5 -29.5t-15.5 -5.5q-8 4 -8 100v86l-430 543l-430 541v-613v-612l-4 -10q-12 -37 -29 -37q-6 0 -8 10q-2 6 -2 676z" />
<glyph unicode="O" horiz-adv-x="1337" d="M112 661l-2 20q0 39 17 85q29 82 102 192q53 78 140 191q84 109 141 172q41 43 80 78q45 35 72 41q25 8 53 -6q39 -20 90 -72q72 -72 188 -227q150 -199 191 -281q35 -66 40 -112q1 -9 1 -18q0 -39 -17 -87q-31 -86 -102 -193q-35 -51 -139 -190q-104 -137 -185 -219 q-53 -51 -88 -66q-18 -9 -36.5 -9t-36.5 9q-39 18 -91 70q-76 78 -188 229q-143 188 -190 279q-34 68 -40 114zM246 518q66 -94 131 -178q127 -166 186 -223q45 -47 84 -66q17 -9 33 -9l29 7q66 35 190 193q131 166 166 219q117 162 117 219q0 74 -129 256q-70 98 -152 201 q-121 158 -188 200q-20 19 -45 23q-23 4 -43 -8q-61 -35 -189 -191q-117 -150 -166 -219q-116 -161 -116 -218q0 -62 92 -206z" />
<glyph unicode="P" horiz-adv-x="1224" d="M166 686l2 668l2 12q10 21 20 31l5 2h235h238l10 -4q74 -20 231 -142q190 -143 201 -202q1 -8 1 -16q0 -35 -21 -72q-33 -57 -187 -175q-168 -129 -233 -149q-27 -8 -248 -8h-213v-293v-291l-4 -10q-12 -37 -29 -37q-6 0 -8 10q-2 6 -2 676zM209 713h227l230 2l10 2 q63 20 209 129q86 63 143 115q37 37 37 40q0 6 -21 33q-43 51 -163 140q-158 121 -228 139l-10 4h-217h-217v-301v-303z" />
<glyph unicode="Q" horiz-adv-x="1337" d="M112 661q-2 10 -2 20q0 38 17 85q29 82 102 192q53 78 140 191q84 109 141 172q41 43 80 78q45 35 72 41q25 8 53 -6q39 -20 90 -72q72 -72 188 -227q150 -199 191 -281q39 -70 41 -125v-11q0 -52 -31 -118q-37 -88 -119 -201q-45 -66 -174 -229q-25 -27 -29 -37 q-2 -2 -2 -4t16.5 -23.5t47.5 -63.5t57 -83q117 -164 121 -170q2 -9 2 -17q0 -29 -22 -48q-12 -8 -17 -3l-129 179l-125 176l-24 -27q-57 -57 -99 -77q-22 -11 -42 -11q-18 0 -35 8q-39 18 -91 70q-76 78 -188 229q-143 188 -190 279q-35 68 -40 114zM246 518 q66 -94 131 -178q127 -166 186 -223q45 -47 84 -66q17 -8 33 -8t31 8q33 14 71 58l11 8l-72 98l-72 107q-8 25 10 53q10 20 21 16q4 0 82 -110l80 -111l8 10q8 10 23.5 28.5t25.5 31.5q94 119 166 221q117 162 117 219q0 74 -129 256q-70 98 -152 201q-121 158 -188 200 q-20 19 -45 23q-23 4 -43 -8q-61 -35 -189 -191q-117 -150 -166 -219q-116 -161 -116 -218q0 -62 92 -206z" />
<glyph unicode="R" horiz-adv-x="1224" d="M166 686l2 668l2 12q10 21 20 31l5 2h235h238l10 -4q74 -20 231 -142q190 -143 201 -202q1 -8 1 -16q0 -35 -21 -72q-29 -49 -127 -129q-96 -76 -199 -148l-19 -8l183 -301q182 -301 182 -305q4 -14 -2 -36t-16 -30q-12 -8 -17 -2q-10 10 -194 322l-193 317h-5t-11 -2 q-29 -10 -250 -10h-213v-293v-291l-4 -10q-12 -37 -29 -37q-6 0 -8 10q-2 6 -2 676zM209 713h227l230 2l10 2q63 20 209 129q86 63 143 115q37 37 37 40q0 6 -21 33q-43 51 -163 140q-158 121 -228 139l-10 4h-217h-217v-301v-303z" />
<glyph unicode="S" horiz-adv-x="1169" d="M113 215q-4 16 4 38.5t20 29.5q2 2 6 2l23 -23q59 -70 139 -125q25 -16 68 -39q102 -49 198 -55q11 -1 22 -1q31 0 54 9q57 23 184 125q68 53 113 92q37 33 64 66l8 12l-2 14q-6 70 -58 144q-57 78 -172 129q-29 12 -159 45q-229 57 -283 82q-74 37 -125 88 q-53 53 -76 133q-9 38 -9 69q0 10 1 19q4 31 19 51q33 59 141 140q211 162 293 182q6 2 33.5 1t46.5 -3q88 -12 172 -51q80 -41 149 -107q12 -10 14 -18q4 -16 -4 -38t-20 -30q-2 -2 -6 -2q-6 0 -19 16q-154 141 -350 152q-41 0 -84 -21q-72 -35 -201 -135 q-100 -72 -135 -114q-8 -8 -6 -17q2 -49 33 -98q51 -86 158 -135q53 -25 282 -82q139 -35 195 -62q133 -70 186 -186q29 -68 29 -122q0 -15 -2 -28q-6 -49 -47 -96q-18 -25 -74 -76q-57 -53 -174 -141q-72 -53 -121 -76q-36 -13 -73 -13q-9 0 -19 1q-119 6 -232 72 q-55 31 -79 55q-59 45 -109 102q-16 18 -16 25z" />
<glyph unicode="T" horiz-adv-x="1224" d="M55 1327v2q-4 14 4.5 37t18.5 31q4 2 543 2h542q8 -6 4 -33t-16 -41q-6 -6 -33.5 -7t-230.5 -1h-254v-635v-635l-4 -10q-12 -35 -29 -37q-6 0 -8 10q-2 4 -2 656v651h-264q-268 2 -271 10z" />
<glyph unicode="U" horiz-adv-x="1280" d="M166 868l2 488l2 10q8 25 20 33l7 2q6 0 10 -10q2 -4 2 -486q0 -479 2 -485q8 -35 82 -109q78 -78 164 -151q111 -94 166 -113q25 -12 53 -2q59 20 203 150q150 133 186 188l4 8v483l2 482l2 10q12 35 29 35q6 0 8 -10q2 -6 2 -496v-487l-4 -13q-14 -47 -45 -88 q-51 -68 -189 -188q-111 -98 -169 -133q-31 -16 -48 -21q-12 -4 -28 -4q-18 0 -31 4q-39 12 -96 55q-57 45 -129 109q-193 172 -205 242q-2 8 -2 497z" />
<glyph unicode="V" horiz-adv-x="1224" d="M113 1329v12q-1 44 22 58q10 6 17 -8l30 -88q31 -86 90.5 -251t114.5 -325l231 -655q104 293 230 651q49 137 112.5 316.5t92 258t28.5 80.5q12 18 19 23q8 2 12 -8.5t0 -26.5q0 -8 -243.5 -695t-247.5 -694q-6 -14 -17 -18q-4 0 -6 2q-2 0 -244 684z" />
<glyph unicode="W" horiz-adv-x="1781" d="M113 1341q-1 44 22 58l6 2q6 0 11 -12q2 -2 182 -654q27 -94 57.5 -202.5t51 -181t38 -137t27.5 -95.5l8 -31q80 287 178 639q180 639 180 643q0 2 2.5 5t4.5 6t2 5q12 23 24 11q0 -2 185 -658l182 -655q80 289 178 639q176 629 182 649q10 20 19 27q6 2 10 0q6 -2 6 -25 q0 -10 -191.5 -697t-197.5 -695q-6 -18 -18 -23q-6 -2 -11 10q-8 23 -184 652l-182 655q0 -4 -178 -643q-143 -510 -165 -585t-32 -83q-10 -12 -16 -2q0 4 -193 686q-188 680 -188 692z" />
<glyph unicode="X" horiz-adv-x="1224" d="M113 10q-8 23 8 49q0 4 229 328l225 320q0 2 -217 309q-215 305 -219 313q-4 25 11 49q4 15 12 19q6 2 12 2l27 -39l87 -123t109 -154q49 -72 107.5 -153.5t85.5 -120.5l28 -39l154 213l2 2l2 2v2l2 2l2 2l2 2l2 2l2 2v2l2 3l3 2l2 4l2 2v2l2 2l2 2v2l2 2l2 2v2l2 2h2v2 l2 2l2 2v2l2 2l2 2v2l2 2l2 3v2l2 2l2 2v2l2 2l2 2l2 2v2l2 2l3 2v2l2 2l2 2v2l2 2l2 2q217 309 223 316q14 12 18 -6q8 -23 -8 -50q0 -2 -215 -307l-215 -301l234 -328q231 -330 233 -331q2 -9 2 -17q0 -29 -22 -49q-8 -8 -17 -4l-237 336l-234 332q-106 -147 -233 -330 q-233 -328 -238 -334q-18 -14 -20 4z" />
<glyph unicode="Y" horiz-adv-x="1224" d="M113 1329q-8 23 8 49q8 15 14 19q8 4 12 0t238 -393l236 -392l8 15q47 78 165.5 274.5t205.5 342t90 145.5q0 2 4 5t4 5h10q14 -12 0 -53q-2 -2 -31.5 -52.5t-92 -155t-116.5 -190.5l-233 -389l-2 -258v-254l-4 -10q-10 -35 -27 -37q-8 0 -10 10v262v258l-240 398 q-240 397 -239 401z" />
<glyph unicode="Z" horiz-adv-x="1224" d="M117 4q-8 8 -8 20q0 19 20 50q2 2 59.5 84t169 239.5t215.5 304.5l437 615h-432h-433l-2 4q-8 8 -4 29q5 33 23 47q4 2 461 2h456q16 -16 -2 -58q0 -2 -56 -80.5t-173 -243.5t-217 -308l-445 -625l459 -2h113.5h95.5h77h61.5t45 -1t32.5 -1h21.5h12.5h4q4 -4 4 -25 q-4 -43 -25 -53q-4 -2 -487 -2h-481z" />
<glyph unicode="[" horiz-adv-x="724" d="M283 500l2 991l2 10q8 23 20 33l4 2h174q172 0 177 -2q8 -6 4 -31.5t-17 -40.5q-8 -8 -168 -8h-155v-942v-942h166q166 0 170 -2q8 -6 4 -31.5t-17 -40.5l-2 -2q-4 -6 -98 -6h-2h-2h-80h-174l-2 4q-4 2 -4 10q-2 4 -2 998z" />
<glyph unicode="]" horiz-adv-x="724" d="M55 -478.5q4 25.5 17 40.5q8 8 168 8h155v942v942h-168q-166 0 -168 2q-14 6 -2 45q9 25 21 33q4 2 178 2q172 0 176 -2l4 -8v-1000v-991l-4 -10q-6 -29 -20 -35q-4 -2 -177.5 -2t-175.5 2q-8 6 -4 31.5z" />
<glyph unicode="^" horiz-adv-x="780" d="M54 1091.5q3 22.5 14 38.5q23 23 161 148q162 139 164 141t6 2l76 -65q74 -63 153 -133t87 -76q8 -8 8 -29q-2 -20 -11.5 -37.5t-19.5 -17.5q-2 0 -157 137l-156 137l-27 -22q-29 -29 -153 -135q-129 -115 -131 -115q-4 -2 -9 0q-8 4 -5 26.5z" />
<glyph unicode="_" horiz-adv-x="780" d="M322 1229q-4 12 2 34.5t18 32.5q16 17 45 29q14 8 47 -12q18 -12 23 -23q8 -37 -21 -69q-12 -12 -45 -29q-18 -6 -49 12q-18 14 -20 25z" />
<glyph unicode="a" d="M68 428q2 53 2 72q27 94 209 272q72 76 118 98q17 9 21 9q8 4 16 4q45 0 152 -92q78 -68 119 -111l32 -31v94v95l4 8q10 35 27 35q8 0 10 -11v-415v-408l-4 -10q-10 -35 -26 -37q-8 0 -11 10v127v119l-4 -4q-37 -45 -90 -92q-119 -109 -164 -135q-39 -24 -67 -24 q-13 0 -23 5q-49 18 -160 135q-94 94 -131 150q-27 43 -28 65q-2 6 -2 72zM111 408l4 -9q6 -16 20 -37q29 -45 127 -147q96 -100 144 -123q23 -14 40 -8q39 8 138 94q106 92 143 139l10 13v96v96l-6 10q-18 41 -166 170q-90 83 -137 95q-20 4 -41 -4q-33 -14 -111 -91 q-117 -121 -153 -172q-12 -18 -12 -73v-49z" />
<glyph unicode="b" d="M111 698l2 678l2 10q8 25 20 33l6 2q6 0 11 -10q2 -4 2 -395v-389l4 4q25 35 90 92q100 92 164 135q39 23 67 23q12 0 23 -4q49 -18 160 -136q104 -111 131 -149q23 -37 28 -66v-73q0 -63 -2 -70q-14 -51 -57 -108.5t-150 -165.5q-82 -80 -118 -97q-20 -12 -39 -12 q-45 0 -150 92q-57 45 -121 111l-30 30v-94l-2 -92l-2 -10q-12 -37 -29 -37q-6 0 -8 10q-2 6 -2 688zM154 358l4 -8q20 -45 166 -172q111 -96 154 -96h3q29 4 80 51q4 2 12.5 10.5t19.5 18.5t19 18q121 119 154 172q14 23 14 72v49l-4 10q-16 43 -94 127q-100 106 -147 148 q-39 33 -70 41q-18 4 -45 -11q-39 -18 -113 -83q-102 -86 -145 -142l-8 -12v-94v-99z" />
<glyph unicode="c" horiz-adv-x="780" d="M68 428q2 53 2 74q12 47 42.5 93t108.5 138q115 132 164 146q6 2 15 2q48 0 171 -68q88 -47 114 -68.5t24 -48.5q-4 -47 -29 -55q-4 0 -8 4t-4 6q0 4 -27 27q-78 53 -190 102q-55 20 -76 21q-33 -6 -115 -96q-10 -10 -35 -39q-90 -109 -110 -148l-4 -8v-53v-49l4 -13 q18 -47 96 -139q119 -143 168 -168q4 -2 10 -4t8 -2h3q21 0 83 27q82 35 162 86q25 16 35 28q4 10 10 15.5t11.5 3.5t7.5 -11q6 -27 -13 -59q-14 -25 -47 -47q-76 -51 -192 -102q-51 -23 -78 -23h-4q-18 4 -23 6q-41 20 -135 129q-125 143 -143 199q-6 20 -6 94z" />
<glyph unicode="d" d="M68 428q2 53 2 72q27 94 209 272q72 76 118 98q25 12 37 13q45 0 152 -92q78 -68 119 -111l32 -31v363v364l4 10q7 21 21 33q10 6 16 -8v-686v-678l-4 -10q-10 -35 -26 -37q-8 0 -11 10v127v119l-4 -4q-37 -45 -90 -92q-119 -109 -164 -135q-39 -24 -67 -24q-13 0 -23 5 q-49 18 -160 135q-94 94 -131 150q-27 43 -28 65q-2 6 -2 72zM111 408l4 -9q6 -16 20 -37q29 -45 127 -147q96 -100 144 -123q23 -14 40 -8q39 8 138 94q106 92 143 139l10 13v96v96l-6 10q-18 41 -166 170q-90 83 -137 95q-20 4 -41 -4q-33 -14 -111 -91 q-117 -121 -153 -172q-12 -18 -12 -73v-49z" />
<glyph unicode="e" d="M68 428q2 63 4 74q16 61 71 123q59 72 174 176q84 72 127 80q14 4 27 -2q35 -6 104 -66q86 -74 181 -180q55 -63 63 -105q1 -9 1 -19q0 -28 -13 -58q-20 -41 -57 -48q-8 -4 -322 -4h-313q0 -4 14 -28q20 -31 96 -111q139 -139 197 -168q23 -10 51 -10q156 8 277 108 q2 2 6 5.5t6 5.5l4 2q6 0 9 -6.5t3 -17.5t-4 -23q-8 -29 -45 -56q-125 -94 -278 -100q-33 0 -54 10q-57 27 -202 174q-98 98 -119 150q-8 20 -8 94zM111 481h323q328 0 332 2q8 2 0 19q-29 43 -102 121q-125 121 -170 151q-32 23 -48 23q-20 6 -45 -6q-49 -25 -151 -127 q-104 -100 -135 -150q-4 -8 -4 -20v-13z" />
<glyph unicode="f" horiz-adv-x="514" d="M2 832.5q4 25.5 16 41.5q8 8 95 9h82v127q0 131 2 141q8 55 79 139q95 113 132 129q8 2 24 2q102 -6 184 -166l13 -22l-2 -12q0 -35 -19 -54q-12 -8 -16 -4l-2 4q-2 4 -6 10.5t-6 12.5q-43 82 -91 119q-39 29 -77 30q-12 0 -19 -2q-29 -18 -108 -110q-20 -27 -39 -53 l-6 -9v-143v-139h120q123 0 125 -2q8 -6 4 -32t-16 -40q-8 -8 -123 -8h-110v-377v-377l-5 -10q-10 -35 -26 -37q-8 0 -10 10q-2 4 -2 398v393h-93h-96q-8 6 -4 31.5z" />
<glyph unicode="g" d="M68 430q2 51 2 72q27 94 209 272q74 76 118 96q15 11 21 11q4 2 16 2q43 0 152 -90q57 -49 119 -111l32 -33v94v95l4 10q10 35 27 35q8 0 10 -11v-440v-430l-4 -16q-23 -80 -151 -226q-109 -125 -158 -147q-20 -10 -45 -10q-109 6 -207 84q-23 16 -56.5 52t-41.5 50 q-8 12 0 39q16 35 28 35q2 0 21 -21q43 -59 102 -94q84 -61 180 -61q20 0 29 4q39 20 139 133q98 113 117 149l6 11v137v137l-4 -6q-45 -49 -90 -90q-119 -109 -164 -135q-41 -25 -69 -25q-12 0 -21 4q-53 25 -160 135q-94 96 -131 152q-27 39 -28 65q-2 6 -2 72zM111 410 l4 -11q6 -14 20 -37q29 -45 127 -145q100 -104 144 -125q23 -10 40 -8q43 12 138 94q109 98 143 141l10 13v96v96l-6 11q-20 43 -166 170q-96 84 -137 94q-20 6 -41 -6q-39 -18 -111 -91q-117 -117 -153 -172q-10 -14 -11 -21t-1 -50v-49z" />
<glyph unicode="h" d="M111 698l2 678l2 10q8 25 20 33l6 2q6 0 11 -10q2 -4 2 -434v-428l4 6q59 106 182 242q68 74 100 82q6 2 12 1q49 0 158 -89q145 -121 166 -170l4 -11v-280v-283l-4 -10q-10 -35 -28 -37q-6 0 -9 10q-2 4 -2 275v270l-6 8q-31 49 -153 152q-106 84 -148 84q-7 0 -12 -2 q-37 -18 -117 -119q-115 -141 -143 -201l-4 -10v-211v-209l-4 -10q-12 -37 -29 -37q-6 0 -8 10q-2 6 -2 688z" />
<glyph unicode="i" horiz-adv-x="346" d="M104 1227q-3 10 -3 19q0 26 24 50q16 17 45 29q18 6 47 -12q16 -12 23 -25q4 -12 -3.5 -34.5t-17.5 -32.5q-12 -12 -45 -29q-16 -6 -49 12q-18 16 -21 23zM150 428l2 410l2 8q10 29 20 33q14 10 16 -9q2 -4 3 -415v-408l-5 -10q-10 -37 -26 -37q-8 0 -10 10q-2 6 -2 418z " />
<glyph unicode="j" horiz-adv-x="458" d="M-111 -209q-6 16 4.5 42t24.5 30q8 0 8 -4t29 -62q29 -51 57 -76q33 -33 78 -36h12l7 6q20 25 75 131q47 94 62 137l2 10l2 434v435l4 10q6 21 20 33q10 8 17 -9v-440q0 -434 -2 -446q-14 -68 -76 -189q-66 -133 -102 -176q-12 -12 -21 -14q-8 -4 -20 -4q-27 4 -47 12 q-55 27 -103 111q-16 29 -31 65zM203 1229q-4 14 3 35.5t17 31.5q22 23 45 29q16 6 47 -12q20 -10 23 -23q4 -14 -3 -35.5t-18 -31.5q-23 -23 -45 -29q-16 -6 -47 12q-20 10 -22 23z" />
<glyph unicode="k" d="M111 698l2 678l2 10q8 25 20 33l6 2q8 0 9 -6q4 -8 4 -557v-553l317 287q315 285 322 289q4 2 8 0q8 -4 6 -25.5t-12 -38.5q-4 -6 -133 -125q-29 -27 -64 -57.5t-52.5 -47t-19.5 -16.5l-6 -8l156 -241q158 -248 158 -250q6 -12 -3 -37q-4 -16 -14 -26.5t-16 -6.5 q-4 0 -168 258l-164 256l-160 -141l-155 -142v-94q-2 -94 -4 -102q-12 -37 -29 -37q-6 0 -8 10q-2 6 -2 688z" />
<glyph unicode="l" horiz-adv-x="346" d="M152 698l2 678l2 10q8 25 20 33q14 6 17 -8q2 -6 2 -686v-678l-5 -10q-12 -37 -28 -37q-6 0 -8 10q-2 6 -2 688z" />
<glyph unicode="m" horiz-adv-x="1337" d="M111 428l2 410l2 8q10 29 20 33l6 4q8 0 9 -9q4 -4 4 -159v-156l8 12q41 72 119 187q76 106 116 121q20 8 60 -15q39 -29 98 -86q100 -96 121 -139q10 -20 12 -55l2 -25l6 12q18 33 119 187q76 106 117 121q23 8 59 -15q39 -27 99 -86q100 -98 120 -141q10 -20 11.5 -45 t1.5 -268v-277l-4 -10q-10 -35 -27 -37q-8 0 -10 10v275v270l-6 12q-27 45 -123 140q-74 74 -109 88q-20 8 -31 2q-27 -14 -88 -99q-45 -66 -94 -145q-25 -37 -39 -76l-2 -8l-2 -211v-211l-4 -10q-10 -35 -27 -37q-8 0 -10 10q-2 4 -2 275v270l-4 12q-27 45 -123 140 q-76 74 -110 88q-18 8 -29 2q-29 -14 -88 -99q-66 -94 -96 -145q-31 -53 -37 -76l-4 -8v-211v-211l-4 -10q-12 -37 -29 -37q-6 0 -8 10q-2 6 -2 418z" />
<glyph unicode="n" d="M111 428l2 410l2 8q10 29 20 33l6 4q6 0 11 -11q2 -6 2 -165v-158l4 6q59 106 182 242q68 74 100 82q6 2 12 1q49 0 158 -89q145 -121 166 -170l4 -11v-280v-283l-4 -10q-10 -35 -28 -37q-6 0 -9 10q-2 4 -2 275v270l-6 8q-31 49 -153 152q-106 84 -148 84q-7 0 -12 -2 q-37 -18 -117 -119q-115 -141 -143 -201l-4 -10v-211v-209l-4 -10q-12 -37 -29 -37q-6 0 -8 10q-2 6 -2 418z" />
<glyph unicode="o" d="M68 428q2 63 4 74q16 61 71 123q59 72 174 176q84 72 127 80q14 4 27 -2q35 -6 104 -66q86 -74 181 -180q43 -51 57 -84q8 -20 8 -96q-2 -63 -4 -74q-16 -61 -72 -121q-59 -72 -174 -176q-92 -81 -141 -81q-6 0 -12 1q-37 8 -105 68q-68 57 -180 178q-43 51 -57 86 q-8 20 -8 94zM111 457q0 -49 2 -58q20 -47 114 -139q131 -135 195 -168q16 -7 32.5 -7t32.5 7q49 25 152 127q102 96 135 148l4 8v49q0 49 -2 57q-12 31 -55 80q-82 94 -174 172q-68 58 -101 64q-20 6 -45 -6q-49 -25 -151 -127q-104 -100 -135 -150l-4 -8v-49z" />
<glyph unicode="p" d="M111 229l2 609l2 10q8 25 20 33q6 2 12 2q6 -4 7 -135v-119l4 4q29 35 90 90q111 102 164 135q41 25 69 25q12 0 21 -4q53 -25 160 -136q100 -106 131 -151q23 -33 28 -66v-71q0 -63 -2 -72q-14 -51 -57 -108.5t-150 -163.5q-76 -76 -118 -97q-20 -12 -39 -12 q-47 0 -150 90q-18 16 -121 111l-30 33v-295v-291l-4 -10q-12 -37 -29 -37q-6 0 -8 10q-2 6 -2 616zM154 360l4 -10q20 -43 166 -170q110 -96 152 -96h5q29 4 80 49q2 2 20.5 19.5t30.5 29.5q125 125 154 172q14 20 14 72v49l-4 10q-16 43 -94 127q-100 106 -147 148 q-45 35 -70 41q-18 2 -45 -10q-39 -20 -113 -84q-109 -94 -145 -142l-8 -12v-96v-97z" />
<glyph unicode="q" d="M68 430q2 51 2 72q27 94 209 272q74 76 118 96q15 11 21 11q4 2 16 2q43 0 152 -90q57 -49 119 -111l32 -33v94v95l4 10q10 35 27 35q8 0 10 -11v-616v-606l-4 -10q-10 -35 -26 -37q-8 0 -11 10v326v319l-4 -6q-45 -49 -90 -90q-119 -109 -164 -135q-41 -25 -69 -25 q-12 0 -21 4q-53 25 -160 135q-94 96 -131 152q-27 39 -28 65q-2 6 -2 72zM111 410l4 -11q6 -14 20 -37q29 -45 127 -145q100 -104 144 -125q23 -10 40 -8q43 12 138 94q109 98 143 141l10 13v96v96l-6 11q-20 43 -166 170q-96 84 -137 94q-20 6 -41 -6q-39 -18 -111 -91 q-117 -117 -153 -172q-10 -14 -11 -21t-1 -50v-49z" />
<glyph unicode="r" horiz-adv-x="724" d="M111 428l2 410l2 8q10 29 20 33l6 4q6 0 11 -11q2 -6 2 -165v-5v-6v-4v-4v-6v-4v-4v-4v-6v-5v-4v-6v-4v-4v-4v-6v-4v-4v-5v-6v-4v-4v-4v-6v-4v-4v-4v-7v-4v-4v-18q25 37 49 69q39 55 116 146q66 72 89 90q39 29 61 29q33 0 129 -82q82 -66 92 -99q8 -18 0 -45 q-6 -27 -24 -36q-10 0 -13 14q-4 20 -90 92q-70 57 -102 70q-16 6 -31 0q-43 -20 -145 -146q-98 -123 -127 -176l-4 -10v-209v-209l-4 -10q-12 -37 -29 -37q-6 0 -8 10q-2 6 -2 418z" />
<glyph unicode="s" horiz-adv-x="780" d="M70 203q0 23 8 41q12 16 20 18q6 0 11 -10q6 -25 122 -94q121 -74 175 -74q9 0 16 2q25 8 57 27q86 51 164 114l14 13l-10 8q-23 25 -92 74q-131 92 -180 94q-51 6 -207 106q-80 53 -94 80q-7 13 -7 29q0 21 13 47q18 35 98 92q148 99 205 111q2 0 9 1t11 1 q37 -2 134 -49q139 -68 155 -99q6 -14 1 -38.5t-17 -34.5q-12 -8 -16.5 -4t-4.5 8q-6 18 -131 79q-74 39 -118 52q-29 6 -54 0q-33 -12 -86 -43q-119 -70 -141 -95q-2 -2 6 -10q31 -27 117 -80q102 -66 151 -71q25 0 58 -17q39 -20 127 -80q76 -55 100 -79q18 -18 25 -41 q2 -8 2 -15q0 -32 -27 -67q-23 -31 -117 -101q-104 -74 -159 -92q-14 -4 -31 -4q-29 0 -49 10q-72 27 -185 105q-61 39 -71 63q-2 6 -2 23z" />
<glyph unicode="t" horiz-adv-x="569" d="M14 832.5q4 25.5 17 41.5q8 8 106 9h96v164l3 167l2 9q10 28 20 32l6 5q6 0 10 -11q2 -6 2 -186v-180h127q127 0 132 -2q8 -6 4 -32t-17 -40q-8 -8 -129 -8h-117v-377v-377l-4 -10q-12 -35 -28 -37q-6 0 -8 10q-2 4 -3 398v393h-106h-109q-8 6 -4 31.5z" />
<glyph unicode="u" d="M113 272v283v281l2 10q10 29 20 33l6 4q6 0 11 -11q2 -6 2 -276v-270l4 -9q27 -43 155 -149q103 -85 146 -84q8 0 14 2q37 23 117 119q117 143 141 201l6 10v211l2 211l2 8q10 35 27 35q8 0 10 -11q2 -4 2 -415v-408l-4 -10q-12 -35 -28 -37q-6 0 -9 10q-2 4 -2 164v160 l-4 -8q-68 -109 -182 -240q-66 -72 -102 -84q-5 -1 -11 -1q-49 0 -157 91q-145 121 -166 170z" />
<glyph unicode="v" horiz-adv-x="868" d="M55 811v12q0 42 23 56q8 4 10 2t172 -379t178 -398l6 15q6 12 22.5 48t33 74t48.5 108.5t60 131.5q170 383 176 389l11 11q6 2 10 0q14 -6 2 -45q-4 -12 -186.5 -417t-184.5 -409q-10 -10 -14 -10h-2q-2 2 -4 2q0 4 -183 406z" />
<glyph unicode="w" horiz-adv-x="1280" d="M55 811v12q0 42 23 56q10 8 16 -7q4 -8 133 -380l133 -375q0 -2 2.5 1t7.5 15t13 36t23.5 65.5t36 101t51.5 147.5q127 362 135 379q12 27 24 19q2 -2 138 -385l135 -383q59 166 131 368q29 80 64.5 181.5t52 148.5t16.5 49q12 20 20 23q18 0 13 -37 q-4 -10 -145.5 -412.5t-145.5 -410.5q-14 -35 -29 -21q0 2 -135 385q-35 98 -67.5 190.5t-50 142.5t-17.5 48q-59 -164 -129 -360q-31 -88 -63.5 -181.5t-50 -142.5t-17.5 -51q-4 -12 -11.5 -21.5t-12.5 -10.5t-9 3t-145 406z" />
<glyph unicode="x" horiz-adv-x="868" d="M53 26.5q2 22.5 13 36.5q2 6 165 195l160 186l-2 2l-20 23q-18 23 -60.5 72t-75.5 88q-150 172 -155 182q-4 23 10 51q2 12 12.5 16.5t14.5 -1.5q14 -14 166 -191l159 -184q74 84 164 188q166 188 168 191q4 2 8 0q8 -6 7 -25.5t-11 -38.5q-2 -4 -151 -176 q-35 -41 -73 -85t-56 -67l-21 -22q-2 -2 166 -196.5t168 -198.5q4 -14 -2 -36t-16.5 -30t-16.5 -2q-12 12 -178 203l-172 201q-4 0 -176 -203q-158 -182 -178 -203q-6 -2 -11 0q-8 2 -6 24.5z" />
<glyph unicode="y" d="M113 274v281v283l2 8q8 27 20 35l6 2q6 0 11 -9q2 -6 2 -276v-270l4 -9q31 -47 155 -149q103 -85 146 -85q8 0 14 3q33 16 117 119q113 137 141 201l6 10v211l2 209l2 10q10 35 27 35q8 0 10 -11q2 -6 2 -440l-2 -430l-2 -16q-20 -78 -153 -226q-109 -125 -158 -147 q-20 -10 -45 -10q-109 6 -207 84q-23 16 -56.5 52t-41.5 50q-6 10 2 39q12 35 26 35q4 0 21 -21q43 -59 102 -94q88 -61 183 -61q18 0 26 4q43 23 141 133q94 106 115 149l6 11v176v176l-4 -8q-59 -100 -182 -240q-66 -74 -102 -84q-5 -2 -12 -2q-46 0 -156 90 q-147 127 -166 172z" />
<glyph unicode="z" horiz-adv-x="868" d="M53 27.5q2 21.5 13 38.5l40 47q39 47 122 143t155 180l311 365h-303q-303 0 -303 2q-6 4 -6 24q4 40 24 52q4 4 336 4t334 -2q8 -4 6 -25.5t-12 -38.5l-317 -371l-312 -362l332 -2l332 -2q6 -6 6 -25q-4 -41 -27 -53q-2 -2 -362.5 -2t-362.5 2q-8 4 -6 25.5z" />
<glyph unicode="}" horiz-adv-x="780" d="M167 1090.5q1 13.5 5 27.5l31 47q31 47 64.5 100.5t64 99.5t33.5 48q4 4 8 6t10 0q12 -12 -2 -49q-2 -6 -94 -153q-92 -133 -99 -148q-8 -4 -8 -6q-8 0 -11 7t-2 20.5zM445 1090.5q1 13.5 6 27.5l30 47q31 47 65 100.5t64.5 99.5t32.5 48q4 4 8 6t11 0q12 -12 -3 -49 q-2 -6 -94 -153q-92 -133 -98 -148q-8 -4 -8 -6q-8 0 -11.5 7t-2.5 20.5z" />
<glyph unicode="~" horiz-adv-x="780" d="M55 1069q4 14 37 113q43 100 101 131q18 10 34 12q25 8 49 0q41 -6 84 -49q23 -25 46 -59q29 -41 40 -54q45 -49 99 -49q55 0 88 51q23 35 45 107q10 35 16 41q10 16 17 16q14 0 10 -33q-6 -43 -39 -116q-35 -86 -82 -121q-6 -6 -41 -23q-35 -8 -59 -2q-41 8 -84 51 q-23 25 -45 60q-27 39 -41 53q-49 49 -99 49q-53 0 -90 -51q-18 -35 -43 -104q-12 -37 -14 -41q-6 -14 -16 -19q-8 -2 -12.5 9.5t-0.5 27.5z" />
<glyph unicode="&#xa1;" horiz-adv-x="1224" d="M113 10q-8 23 8 49q0 4 229 328l225 320q0 2 -217 309q-215 305 -219 313q-4 25 11 49q4 15 12 19q6 2 12 2l27 -39l87 -123t109 -154q49 -72 107.5 -153.5t85.5 -120.5l28 -39l154 213l2 2l2 2v2l2 2l2 2l2 2l2 2l2 2v2l2 3l3 2l2 4l2 2v2l2 2l2 2v2l2 2l2 2v2l2 2h2v2 l2 2l2 2v2l2 2l2 2v2l2 2l2 3v2l2 2l2 2v2l2 2l2 2l2 2v2l2 2l3 2v2l2 2l2 2v2l2 2l2 2q217 309 223 316q14 12 18 -6q8 -23 -8 -50q0 -2 -215 -307l-215 -301l234 -328q231 -330 233 -331q8 -41 -20 -66q-8 -8 -17 -4l-237 336l-234 332q-106 -147 -233 -330 q-233 -328 -238 -334q-18 -14 -20 4z" />
<glyph unicode="&#xa3;" horiz-adv-x="1447" d="M113 33.5q4 25.5 16 40.5q8 8 176 8h168l-106 121q-121 139 -144 174q-111 164 -110 366q0 33 2 45q20 94 147 244q137 160 260 275q125 119 195 133q33 6 76 -15q68 -35 188 -155q125 -125 184 -193q156 -174 170 -262q2 -12 2 -41q-10 -252 -166 -446q-2 -2 -17 -20.5 t-43 -50.5t-52 -58l-103 -115l189 -2h56.5h44h33.5t24.5 -1t15.5 -1h8h4q6 -6 6 -25q-8 -43 -26 -53q-4 -2 -219 -2t-218 2q-6 4 -5 23.5t10 35.5q4 8 141 166q137 156 149 172q111 135 123 318q4 53 -16 92q-31 63 -148 197q-117 127 -180 188q-168 172 -241 166 q-63 -6 -211 -150q-66 -61 -185 -194q-127 -139 -151 -201l-6 -12v-27q0 -168 104 -327q27 -37 178 -213q135 -152 142 -164q8 -35 -17 -64l-2 -2q-4 -6 -119 -6h-2h-4h-100q-215 0 -217 2q-8 6 -4 31.5z" />
<glyph unicode="&#xa7;" horiz-adv-x="1001" d="M57 846q11 29 21 33q4 4 432 4q426 0 430 -2q8 -6 4 -32t-16 -40q-8 -8 -113 -8h-100v-377v-377l-4 -10q-10 -35 -27 -37q-8 0 -10 10v398v393h-174h-174v-377v-377l-4 -10q-12 -35 -29 -37q-6 0 -8 10q-2 4 -2 398v393h-111h-113q-14 10 -2 45z" />
<glyph unicode="&#xab;" horiz-adv-x="780" d="M223 1077q-2 14 4 33q2 16 17 31q2 0 198.5 136t202.5 140l8 4q10 0 11.5 -16t-7.5 -37q-6 -16 -39 -39q-12 -8 -178 -125q-203 -139 -204 -139q-10 -6 -13 12z" />
<glyph unicode="&#xad;" horiz-adv-x="780" d="M154 1229q-4 12 2 34.5t18 32.5q16 17 45 29q14 8 47 -12q18 -12 23 -23q8 -37 -21 -69q-12 -12 -45 -29q-18 -6 -49 12q-18 14 -20 25zM487 1229q-4 12 3.5 34.5t17.5 32.5q16 17 45 29q16 6 47 -12q20 -14 23 -23q10 -33 -21 -69q-16 -16 -45 -29q-18 -6 -47 12 q-20 14 -23 25z" />
<glyph unicode="&#xbb;" horiz-adv-x="780" d="M53 1368q5 39 25 51l6 2q2 0 160 -135l153 -139l27 24q2 2 154 136q31 27 63.5 55.5t50.5 42.5l17 16h8q8 -6 6 -27.5t-12 -37.5q0 -2 -164 -148q-39 -35 -79 -69.5t-62 -53.5l-21 -20l-6 -2q-2 0 -151.5 131t-164.5 145q-10 10 -10 29z" />
<glyph unicode="&#xbf;" horiz-adv-x="1447" d="M55 1339q0 14 2 25q11 23 21 33q8 6 18 -2q29 -23 97 -201q47 -129 63 -197q8 -49 8 -61q0 -14 12 -39q33 -57 132 -154q209 -197 278 -229l14 -4v422l2 422l3 10q12 39 28 35q6 0 8 -8q2 -6 2 -447v-440q18 0 39 14q59 31 172 133q182 168 220 232q6 12 6 22 q6 80 75 264q68 182 103 217q25 25 31 5q8 -23 -11 -58q-6 -8 -18 -16q-14 -8 -76 -168q-47 -131 -57 -188q-4 -12 -4 -31q-4 -37 -13 -58q-16 -47 -71 -112q-121 -131 -265 -250q-78 -61 -118 -78l-13 -6v-190v-189l-4 -10q-8 -27 -24 -35q-6 -6 -13 4v6q0 8 -1 23.5t-1 38 v59.5v82v205l-10 4q-78 18 -311 244q-121 113 -148 178q-6 14 -10 45q-2 37 -18 90q-20 82 -78 221q-39 102 -59 115q-12 4 -11 22z" />
<glyph unicode="&#xc0;" horiz-adv-x="1558" d="M113 1329v12q-1 44 22 58q4 2 653 2q651 0 654 -2q12 -8 0 -45q-4 -14 -330 -697q-326 -684 -332 -690q-10 -12 -16 -6q-129 270 -328 684zM186 1317l600 -1258q135 285 299 631q68 139 148 306t117 245l36 76q0 2 -600 2t-600 -2z" />
<glyph unicode="&#xc1;" horiz-adv-x="2004" d="M4 -82q9 25 21 33q4 2 989 2q983 0 985 -2q6 -6 6 -25q-8 -43 -27 -53q-4 -2 -987 -2t-985 2q-14 6 -2 45z" />
<glyph unicode="&#xc2;" horiz-adv-x="557" d="M168 1073q-2 10 0 41q8 74 12 148q12 119 15 124q8 25 20 33q12 10 16 -8q2 -8 -2 -41q0 -20 -12 -147q-10 -117 -12 -123q-12 -37 -29 -37q-6 0 -8 10zM379 1073q-2 10 2 41q0 25 12 148q10 117 13 124q8 25 20 33q12 10 16 -8q2 -8 0 -41q-6 -59 -12 -147 q-10 -109 -14 -123q-10 -37 -27 -37q-8 0 -10 10z" />
<glyph unicode="&#xc3;" horiz-adv-x="557" d="M379 1073q-2 10 0 41q8 74 12 148q12 119 15 124q8 25 20 33q12 10 16 -8q2 -8 -2 -41q0 -20 -12 -147q-10 -117 -12 -123q-12 -37 -29 -37q-6 0 -8 10z" />
<glyph unicode="&#xc4;" horiz-adv-x="290" d="M-39 -186q6 86 68 159q36 52 116 105l13 6q6 0 10 -16q4 -35 -18 -58l-7 -6q-8 -6 -12 -10q-88 -57 -121 -119q-8 -25 -8 -37q0 -16 49 -67q63 -66 90 -80q16 -8 33 -4q47 8 94 75q14 18 21 23q6 0 9 -6t3 -17.5t-4 -23.5q-6 -18 -21 -37q-63 -88 -122 -96q-27 -4 -58 16 q-57 43 -110 111q-31 35 -25 82z" />
<glyph unicode="&#xc5;" horiz-adv-x="1558" d="M170 518q8 25 20 33q4 2 598 2t596 -2q6 -6 7 -25q-4 -41 -27 -53q-4 -2 -596 -2q-594 0 -596 2q-14 6 -2 45zM711 109q-4 12 3 34.5t17 32.5q16 17 45 29q16 6 47 -12q20 -14 23 -23q10 -33 -21 -70q-16 -16 -45 -28q-18 -6 -47 12q-20 14 -22 25zM711 874q-4 12 3 35 t17 33q16 17 45 29q16 6 47 -13q20 -14 23 -22q10 -33 -21 -70q-16 -16 -45 -28q-18 -6 -47 12q-20 14 -22 24z" />
<glyph unicode="&#xff;" horiz-adv-x="1224" d="M166 686l2 668l2 12q10 21 20 31l5 2h276q283 0 303 -8q37 -14 86 -58q37 -31 100.5 -92t90.5 -92q74 -82 55 -145q-12 -43 -49 -78q-45 -45 -201 -146q-190 -119 -266 -139q-31 -10 -211 -10h-170v-293v-291l-4 -10q-12 -37 -29 -37q-6 0 -8 10q-2 6 -2 676zM209 713 h180q180 0 193 2q76 14 278 139q154 100 193 139l12 13v6q-16 31 -55 71q-80 88 -176 168q-66 56 -105 66h-262h-258v-301v-303z" />
<glyph unicode="&#x178;" horiz-adv-x="569" d="M250 205v315v316l2 10q10 29 20 33l7 4q8 0 8 -9q4 -4 4 -311v-309l4 -10q8 -20 35.5 -72.5t44.5 -75.5q12 -14 26 -14q39 4 70 37q27 27 59 106q12 27 23 35h8q10 -4 6 -37q-14 -57 -63 -133q-53 -84 -125 -90q-12 0 -19 2q-16 8 -61 86q-39 72 -47 105z" />
<glyph unicode="&#x2000;" horiz-adv-x="769" />
<glyph unicode="&#x2001;" horiz-adv-x="1538" />
<glyph unicode="&#x2002;" horiz-adv-x="769" />
<glyph unicode="&#x2003;" horiz-adv-x="1538" />
<glyph unicode="&#x2004;" horiz-adv-x="512" />
<glyph unicode="&#x2005;" horiz-adv-x="384" />
<glyph unicode="&#x2006;" horiz-adv-x="256" />
<glyph unicode="&#x2007;" horiz-adv-x="256" />
<glyph unicode="&#x2008;" horiz-adv-x="192" />
<glyph unicode="&#x2009;" horiz-adv-x="307" />
<glyph unicode="&#x200a;" horiz-adv-x="85" />
<glyph unicode="&#x2010;" horiz-adv-x="667" d="M23 406q2 -4 0 6q-4 16 3 38.5t19 30.5q4 2 252 2q254 0 256 -4q-2 2 0 -6q8 -35 -16 -63q-6 -8 -23.5 -8.5t-237.5 -0.5q-252 0 -253 5z" />
<glyph unicode="&#x2011;" horiz-adv-x="667" d="M23 406q2 -4 0 6q-4 16 3 38.5t19 30.5q4 2 252 2q254 0 256 -4q-2 2 0 -6q8 -35 -16 -63q-6 -8 -23.5 -8.5t-237.5 -0.5q-252 0 -253 5z" />
<glyph unicode="&#x2012;" horiz-adv-x="667" d="M23 406q2 -4 0 6q-4 16 3 38.5t19 30.5q4 2 252 2q254 0 256 -4q-2 2 0 -6q8 -35 -16 -63q-6 -8 -23.5 -8.5t-237.5 -0.5q-252 0 -253 5z" />
<glyph unicode="&#x2013;" horiz-adv-x="780" d="M86 1335q-8 29 0 49q8 27 20 35q6 2 13 2q4 -8 6 -20q4 -23 47 -70q47 -53 109 -106q84 -84 122 -80q29 2 109 76q90 84 115 116q25 29 26 43q12 41 29 41q8 0 10 -12q6 -27 -14 -72q-29 -53 -115 -137q-92 -92 -141 -123q-49 -27 -96 6q-33 20 -115 101 q-109 106 -125 151z" />
<glyph unicode="&#x2014;" horiz-adv-x="780" d="M57 1133q9 24 21 32q4 2 321 2q315 0 318 -2q6 -6 6 -24q-8 -43 -27 -54q-4 -2 -319.5 -2t-317.5 2q-14 6 -2 46z" />
<glyph unicode="&#x2018;" horiz-adv-x="557" d="M141 1151q6 76 52 143q45 70 129 121l12 6q10 0 10 -20.5t-10 -40.5q-4 -12 -29 -27q-106 -72 -123 -145q-2 -16 8 -29q29 -35 48 -45q6 4 14 8q27 14 37 14.5t33 -14.5q20 -14 22 -22q10 -33 -20 -70q-16 -16 -45 -29q-18 -6 -43 11q-16 10 -25 20q-18 18 -29 27 q-33 33 -39 47q-8 18 -2 45z" />
<glyph unicode="&#x2019;" horiz-adv-x="557" d="M209 1022q0 10 4 25q6 23 33 40q117 76 129 154q0 8 -6 14q-6 10 -28 31t-24 21l-16 -9q-23 -14 -35 -14q-8 0 -35 14q-18 16 -20 23q-12 37 20 70q16 16 45 28q14 4 23 0q25 -10 43 -28q2 -2 11 -10.5t16 -14.5q31 -27 41 -45q6 -8 6 -39q-6 -133 -127 -235 q-53 -43 -68 -48q-4 0 -8 6.5t-4 16.5z" />
<glyph unicode="&#x201c;" horiz-adv-x="346" d="M152 428l2 410l2 8q10 29 20 33q14 10 17 -9q2 -4 2 -415v-408l-5 -10q-12 -37 -28 -37q-6 0 -8 10q-2 6 -2 418z" />
<glyph unicode="&#x201d;" horiz-adv-x="458" d="M-111 -209q-6 16 4.5 42t24.5 30q8 0 8 -4t29 -62q29 -51 57 -76q33 -33 78 -36h12l7 6q20 25 75 131q47 94 62 137l2 10l2 434v435l4 10q6 21 20 33q10 8 17 -9v-440q0 -434 -2 -446q-14 -68 -76 -189q-66 -133 -102 -176q-12 -12 -21 -14q-8 -4 -20 -4q-27 4 -47 12 q-55 27 -103 111q-16 29 -31 65z" />
<glyph unicode="&#x201e;" horiz-adv-x="780" d="M168 1362q-1 43 22 57l7 2q2 0 177 -139t177 -143q8 -8 0 -39q-6 -20 -15.5 -29.5t-15.5 -5.5q-8 6 -178 142t-172 139q-2 4 -2 16z" />
<glyph unicode="&#x202f;" horiz-adv-x="307" />
<glyph unicode="&#x205f;" horiz-adv-x="384" />
<glyph unicode="&#x25fc;" horiz-adv-x="880" d="M0 0v881h881v-881h-881z" />
<glyph unicode="&#xfb01;" d="M68 430q2 63 4 74q16 59 71 121q76 90 174 176q102 94 154 82q45 -14 115 -78l16 -14q20 41 45 88q10 23 22.5 44t18.5 35l8 15l9 8q2 0 4 2h4q20 0 4 -47q0 -10 -45 -92l-41 -80l55 -55q106 -106 127 -158q8 -20 8 -96q-2 -63 -4 -74q-16 -59 -72 -121 q-76 -90 -174 -176q-102 -94 -153 -82q-45 14 -115 78l-16 14l-45 -90q-53 -100 -62 -102q-10 -2 -13 12t5 35q0 10 45 92l41 80l-55 55q-106 106 -127 158q-8 20 -8 96zM111 459q0 -49 2 -58q14 -35 55 -79l38 -38t62 -63l27 -26q270 522 270 524q-33 29 -47 39 q-39 33 -72 41q-16 4 -45 -6q-49 -25 -151 -127q-104 -100 -135 -150l-4 -8v-49zM324 168q0 -8 47 -41q55 -43 83.5 -43t86.5 45q33 27 98 90q104 100 135 150l4 8v49q0 49 -2 57q-21 44 -117 146q-10 10 -24 23.5t-22.5 20.5t-10.5 9l-8 8l-135 -260z" />
<glyph unicode="&#xfb02;" horiz-adv-x="1894" d="M113 10q-6 27 14 62q6 8 448.5 659t446.5 655q2 2 6 7l2 4q4 2 375 2h371q6 -6 6 -27q-4 -41 -27 -53q-4 -2 -354 -2h-352v-275v-274h305h311q8 -6 4 -32.5t-16 -41.5q-8 -8 -80 -8h-227h-297v-301v-303h362q362 0 365 -2q6 -6 6 -25q-4 -41 -27 -53q-4 -2 -373 -2h-368 l-2 2l-4 8q-2 4 -2 189v180h-310h-309l-125 -184q-121 -180 -131 -189q-16 -12 -18 4zM444 463l281 -2h281v413v414l-281 -414z" />
<glyph unicode="&#xfb03;" horiz-adv-x="1894" d="M113 702q14 123 202 367q102 131 134 164q155 191 231 207q23 6 43 0q25 -10 82 -56q88 -78 192 -198l13 -17v95v92l4 10q6 23 20 33l4 2h367q369 0 371 -2q6 -6 6 -25q-4 -41 -27 -53q-4 -2 -352 -2h-352v-275v-274h305q305 0 309 -2q8 -6 4 -31.5t-16 -40.5 q-6 -8 -26.5 -8h-280.5h-295v-301v-303h360q362 0 365 -2q6 -6 6 -27q-4 -37 -27 -53h-371h-366l-4 2q0 4 -4 8v125v119l-9 -12q-39 -47 -131 -144q-84 -82 -118 -108q-43 -31 -71 -33t-67 25q-41 29 -88 75q-57 59 -155 183q-170 213 -224 313q-43 88 -34 147zM156 741 q-4 -25 2 -49q20 -78 135 -231q63 -84 182 -232q119 -141 187 -176q27 -14 46 -11t54 30q33 25 100 92q74 74 109 117q37 47 39 53v354v350l-9 13q-23 51 -131 159q-123 130 -172 148q-16 6 -34 2q-63 -16 -193 -170q-61 -70 -164 -205q-127 -168 -151 -244z" />
<glyph unicode="&#xfb04;" horiz-adv-x="1337" d="M111.5 661q-5.5 46 15.5 105q29 82 102 192q53 78 140 191q109 141 184 217q49 49 88 66q37 20 74 2q39 -20 90 -72q57 -57 117 -133q10 -10 10 -12q4 0 78 137q16 29 36.5 65.5t30.5 55.5l10 18q2 0 7 2l2 2q4 4 6 4q8 0 10 -15.5t-4 -33.5q-4 -12 -78 -139l-72 -131 l31 -39q147 -193 195 -289q35 -66 40 -112t-16 -105q-31 -86 -102 -193q-35 -51 -139 -190q-104 -137 -185 -219q-53 -51 -88 -66q-37 -18 -73 0q-39 18 -91 70q-63 68 -116 135l-11 12q-4 0 -77 -137q-82 -145 -90 -147q-6 0 -9.5 6t-3.5 17.5t4 23.5t78 141l72 131l-31 39 q-145 188 -194 287q-35 68 -40.5 114zM154 721q0 -29 18 -70q8 -25 43 -84l70 -104q125 -170 131 -170q109 190 239 426l240 426l-12 14q-111 139 -170 178q-20 19 -45 23q-23 4 -43 -8q-61 -35 -189 -191q-117 -150 -166 -219q-117 -162 -116 -221zM440 256l13 -12 q109 -137 170 -181q37 -20 47 -20q12 -4 39 6q66 35 190 193q131 166 166 219q117 162 117 219q0 63 -92 203q-52 76 -134 180l-36 49q-106 -193 -240 -428z" />
</font>
</defs>
</svg>
