<?xml version="1.0" standalone="no"?>
<!DOCTYPE svg PUBLIC "-//W3C//DTD SVG 1.1//EN" "http://www.w3.org/Graphics/SVG/1.1/DTD/svg11.dtd" >
<svg xmlns="http://www.w3.org/2000/svg" xmlns:xlink="http://www.w3.org/1999/xlink" version="1.1">
<metadata></metadata>
<defs>
<font id="mtdbt2f4d-77" horiz-adv-x="890" >
<font-face units-per-em="2048" ascent="1638" descent="-410" />
<missing-glyph horiz-adv-x="614" />
<glyph unicode="&#x2019;&#x2019;" horiz-adv-x="1001" d="M67.5 1335.5q-6.5 28.5 8 53t41.5 30.5q20 4 53 0q90 -23 102 -119q2 -23 -2 -77q-10 -59 -32 -107q-33 -63 -80 -94q-18 -12 -37 -21q-35 -10 -51 23q-8 16 0 35q4 12 22 22q84 45 94 166q2 12 2 31.5t-2 21.5q0 2 -4 0q-4 -6 -30 -16q-31 -6 -54.5 8.5t-30 43z M457 1370q6 39 49 49q29 4 55 -2q100 -23 101 -143q0 -96 -44 -172q-25 -45 -63 -74q-31 -23 -45 -27q-35 -10 -51 23q-8 16 0 35q4 12 22 22q66 35 86 123q8 31 8 68v26q-2 2 -8 -2q-37 -25 -80 -4q-45 23 -30 78z" />
<glyph unicode="&#x21;&#x2018;" horiz-adv-x="557" d="M211 940q-6 29 8 53.5t41 28.5q33 6 53 -6q43 -20 33 -76q-6 -29 -30.5 -43t-55.5 -8q-43 10 -49 51zM236 150q0 516 2 522q6 20 26 26q14 6 31 -2q14 -6 20 -20l4 -6v-518v-519l-4 -6q-6 -14 -20 -20q-18 -8 -35 0q-14 6 -20 20l-4 6v517z" />
<glyph unicode="&#x3f;&#x2018;" horiz-adv-x="946" d="M111 -57q-2 53 14 106q37 106 164 215q96 76 133 137q25 41 31 78q4 12 4 103q2 94 10 102q10 10 18 14q14 6 33 -2q14 -6 21 -20l4 -6v-82q0 -96 -8 -139q-27 -98 -123 -191q-31 -31 -70 -63q-141 -115 -147 -230q0 -90 32 -155q59 -113 234 -121q82 -6 135 22 q106 51 152 189q6 23 16 33t28.5 10t28.5 -13q12 -12 13 -30q0 -37 -41 -105q-35 -68 -95 -121q-55 -41 -102 -55q-63 -20 -143 -14q-117 6 -201 57q-121 74 -139 242q0 25 -2 39zM432 940q-6 29 8 53.5t41 28.5q35 6 56 -6q45 -23 30 -76q-6 -29 -29.5 -43t-54.5 -8 q-41 10 -51 51z" />
<glyph unicode="&#x2018;&#x2018;" horiz-adv-x="1001" d="M338 1147q0 102 43 172q25 45 61 72q27 22 45 28q37 10 54 -22q8 -16 0 -35q-4 -12 -25 -23q-63 -35 -86 -120q-6 -37 -6 -68v-29q2 -2 6 2q39 27 82 4q41 -20 31 -77q-10 -43 -54 -50q-47 -10 -94 21q-57 33 -57 125zM727 1159q2 76 35 146q31 63 82 94q25 16 35 20 q37 12 51 -22q4 -6 4 -18.5t-4 -16.5q-4 -12 -23 -23q-84 -45 -94 -165q-2 -12 -1 -32t3 -22q0 -2 2 0t31 17q31 6 55.5 -8.5t30.5 -43.5q10 -53 -33 -77q-18 -8 -45 -9q-98 6 -123 95q-6 27 -6 65z" />
<glyph unicode="&#x2d;&#x2d;" horiz-adv-x="1001" d="M2.5 536.5q-4.5 20.5 7.5 34.5q7 11 19 15q6 2 475 2h469l4 -4q14 -6 20 -21q4 -4 4 -16t-4 -19q-6 -14 -20 -20l-4 -2h-471h-471l-6 2q-18 8 -22.5 28.5z" />
<glyph unicode="&#x7b;&#x2d;" horiz-adv-x="2004" d="M2.5 536.5q-4.5 20.5 7.5 34.5q7 11 19 15q6 2 977 2h968l6 -4q14 -6 21 -21q8 -18 0 -35q-6 -14 -21 -20l-6 -2h-973h-970l-6 2q-18 8 -22.5 28.5z" />
<glyph unicode="ff" horiz-adv-x="1015" d="M4 821q-8 18 0 37q6 14 21 21l6 4h82h82v155q2 162 4 176q18 121 94 168q43 31 106 37q39 4 72 0q76 -16 129 -76q45 -55 64 -112q6 -16 6 -29q0 -14 -13 -31q-10 -10 -28.5 -10t-28.5 10q-10 6 -16 31q-33 104 -119 131q-10 2 -35 2q-41 0 -65 -10q-76 -27 -84 -137 v-162v-143h206h209v155q2 170 11 207q18 94 86 137q61 43 147 39q35 -2 59 -10q70 -23 123 -96q25 -37 43 -84q4 -16 4 -29q0 -18 -10 -31q-10 -10 -29 -10q-20 0 -30 10q-8 8 -15 31q-37 106 -118 131q-10 2 -35 2q-39 0 -66 -10q-76 -27 -84 -137q-2 -10 -2 -162v-143h111 h110l7 -4q14 -6 20 -21q2 -6 2 -18.5t-2 -18.5q-6 -14 -20 -20l-7 -2l-110 -2h-111v-383v-383l-4 -6q-6 -14 -20 -21q-16 -8 -35 0q-14 6 -21 21l-2 6l-2 383v383h-209h-206v-383v-383l-5 -6q-6 -14 -20 -21q-18 -8 -37 0q-14 6 -20 21l-2 6l-2 383v383h-82l-82 2l-6 2 q-14 6 -21 20z" />
<glyph unicode="fl" horiz-adv-x="903" d="M4 821q-8 18 0 37q6 14 21 21l6 4h82h82v151q0 176 6 213q14 139 94 219q57 53 151 68h17h86q96 -16 153 -53q51 -37 74 -82l4 -8v-680v-680l-4 -6q-6 -14 -20 -21q-16 -8 -35 0q-14 6 -21 21l-2 6l-2 669v670l-6 6q-18 23 -37 35q-51 35 -149 41q-72 0 -115 -25 q-84 -41 -102 -174q-6 -35 -6 -206v-164h110h111l4 -4q14 -6 20 -21q2 -6 2 -18.5t-2 -18.5q-6 -14 -20 -20l-4 -2l-111 -2h-110v-383v-383l-5 -6q-6 -14 -20 -21q-18 -8 -37 0q-14 6 -20 21l-2 6l-2 383v383h-82l-82 2l-6 2q-14 6 -21 20z" />
<glyph unicode="&#xb8;i" horiz-adv-x="1404" d="M4 821q-8 18 0 37q6 14 21 21l6 4h82h82v155q2 170 10 207q23 94 86 137q61 43 147 39q35 -2 60 -10q74 -25 123 -96q31 -45 43 -84q6 -16 6 -29q0 -14 -13 -31q-10 -10 -28.5 -10t-28.5 10q-10 6 -16 31q-33 104 -119 131q-10 2 -35 2q-41 0 -65 -10q-76 -27 -84 -137 v-162v-143h208h207v143q0 154 2 164q6 78 33 127q14 27 41 57q61 64 176 76q43 4 99 -2q94 -12 151 -53q35 -25 62 -58q10 -14 18 -18q33 -16 32 -59t-34 -60q-35 -20 -72 0q-45 23 -30 76q0 4 2 9t2 7q6 6 2 6q0 6 -29 27q-72 51 -195 41q-86 -10 -127 -55 q-41 -41 -47 -125q-2 -8 -2 -160v-143h236h235l6 -4q14 -6 21 -21l4 -6v-412v-409l-4 -6q-6 -14 -21 -21q-18 -8 -34 0q-14 6 -21 21l-4 6v383v383h-209h-209v-383v-383l-4 -6q-6 -14 -20 -21q-16 -8 -35 0q-14 6 -21 21l-2 6l-2 383v383h-207h-208v-383v-383l-5 -6 q-6 -14 -20 -21q-18 -8 -37 0q-14 6 -20 21l-2 6l-2 383v383h-82l-82 2l-6 2q-14 6 -21 20z" />
<glyph unicode="&#xb8;l" horiz-adv-x="1404" d="M4 821q-8 18 0 37q6 14 21 21l6 4h82h82v155q2 170 10 207q23 94 86 137q61 43 147 39q35 -2 60 -10q74 -25 123 -96q31 -45 43 -84q6 -16 6 -29q0 -14 -13 -31q-10 -10 -28.5 -10t-28.5 10q-10 6 -16 31q-33 104 -119 131q-10 2 -35 2q-41 0 -65 -10q-76 -27 -84 -137 v-162v-143h208h207v151q0 176 6 213q12 139 95 219q57 53 151 68h17h86q98 -16 151 -53q55 -39 74 -82l6 -8v-680v-680l-4 -6q-6 -14 -21 -21q-18 -8 -34 0q-14 6 -21 21l-4 6v669v670l-6 6q-14 18 -39 35q-51 35 -147 41q-72 0 -115 -25q-84 -39 -103 -174q-6 -35 -8 -206 v-164h111h110l7 -4q14 -6 20 -21q2 -6 2 -18.5t-2 -18.5q-6 -14 -20 -20l-7 -2l-110 -2h-111v-383v-383l-4 -6q-6 -14 -20 -21q-16 -8 -35 0q-14 6 -21 21l-2 6l-2 383v383h-207h-208v-383v-383l-5 -6q-6 -14 -20 -21q-18 -8 -37 0q-14 6 -20 21l-2 6l-2 383v383h-82l-82 2 l-6 2q-14 6 -21 20z" />
<glyph horiz-adv-x="0" />
<glyph unicode="&#xd;" horiz-adv-x="681" />
<glyph unicode=" "  horiz-adv-x="614" />
<glyph unicode="&#x09;" horiz-adv-x="614" />
<glyph unicode="&#xa0;" horiz-adv-x="614" />
<glyph unicode="!" horiz-adv-x="557" d="M211 86q6 43 49 49q41 10 70 -18q23 -25 16.5 -58.5t-33.5 -48.5q-35 -20 -71 0q-45 23 -31 76zM236 356v514q0 516 2 523q6 20 26 26q14 6 31 -2q14 -6 20 -20l4 -6v-517v-518l-4 -6q-6 -14 -20 -20q-18 -8 -35 0q-14 6 -20 20z" />
<glyph unicode="#" horiz-adv-x="1558" d="M111.5 313q-0.5 27 21.5 37l8 6h191h190v158v156h-190l-191 2l-8 4q-23 10 -21.5 36.5t23.5 39.5l6 4h191h190v194q0 203 8 215q11 11 21 13q14 8 31 0q14 -6 20 -21l4 -6v-199v-196h174h172v196v199l4 6q6 14 21 21q16 8 35 0q14 -6 20 -21l4 -6v-199v-196h191h190l6 -4 q23 -12 24 -39t-24 -37l-8 -4l-188 -2h-191v-156v-158h191h188l8 -6q25 -10 24 -36.5t-24 -37.5l-6 -4h-190h-191v-198v-199l-4 -6q-6 -14 -20 -21q-18 -8 -35 0q-14 6 -21 21l-4 6v199v198h-174h-172v-198v-199l-4 -6q-6 -14 -20 -21q-18 -8 -35 0q-14 6 -21 21l-4 6v199 v198h-190h-191l-6 4q-23 10 -23.5 37zM606 356h174h172v158v156h-172h-174v-156v-158z" />
<glyph unicode="$" horiz-adv-x="1001" d="M111 199q0 25 24 39q6 2 19 2q27 0 41 -31q39 -80 127 -123q66 -33 143 -41h4v305v305l-27 9q-61 18 -94 32q-154 66 -198 217q-16 49 -17 103q0 72 17 123q25 88 86 139q43 35 90 53q49 20 131 29h12v72q0 76 10 88q9 12 19 14q14 6 32 -2q14 -6 21 -21q4 -8 4 -77v-74 l10 -2q96 -14 191 -80q57 -35 82 -66q10 -14 6 -34.5t-23 -28.5q-6 -2 -16 -2q-18 -2 -41 16q-86 76 -170 103q-33 8 -37 8h-2v-279v-278l8 -2q119 -39 160 -68q35 -23 55 -45q78 -78 101 -176q18 -72 6 -168q-8 -92 -56 -158q-31 -45 -69 -75q-72 -51 -185 -64l-20 -2v-72 q0 -66 -4 -77q-6 -14 -21 -21q-18 -8 -36 0q-14 6 -21 21q-4 12 -4 77v72h-8q-96 10 -174 49q-59 29 -105 74q-31 33 -41 53q-31 43 -30 64zM217 1028q-2 -88 43 -151q53 -80 139 -109q45 -23 70 -23v267v264h-4q-6 0 -8 -2h-17q-61 -6 -114 -35q-45 -27 -64 -57 q-43 -59 -45 -154zM555 45h8q113 12 174 74q68 68 68 213q0 160 -135 250q-29 18 -62 28q-4 2 -17 6.5t-18 6.5l-18 6v-293v-291z" />
<glyph unicode="%" horiz-adv-x="1337" d="M111 1006q0 150 36 231q23 41 27 47q47 64 129 76q27 6 68 -2q57 -12 96 -51q33 -33 47 -70q37 -82 37 -231q0 -152 -37 -234q-2 -6 -6 -14t-6 -13q-47 -78 -131 -96q-39 -8 -78 0q-57 12 -98 53q-27 27 -48 70q-37 82 -36 234zM195 1005.5q0 -147.5 41 -221.5 q27 -39 69 -51q27 -4 53 0q45 14 68 51q41 68 41 222q0 152 -41 217q-25 41 -68 51q-27 6 -41 2q-55 -6 -81 -53q-41 -70 -41 -217.5zM223 55q2 2 43 66.5t145.5 224.5t219.5 336q408 623 411 627q9 8 15 8q16 8 30 0q33 -12 25 -51q-4 -8 -408.5 -628t-410.5 -624 q-10 -12 -29 -12q-12 0 -16 4q-33 12 -25 49zM784 317.5q0 147.5 37 233.5q8 20 27 45q49 66 129 78q29 6 65 -2q57 -12 99 -51q25 -25 47 -70q37 -86 37 -233.5t-37 -233.5q-10 -20 -14 -25q-43 -78 -132 -96q-39 -8 -77 0q-53 12 -97 51q-31 31 -47 70q-37 86 -37 233.5z M868 317.5q0 -151.5 41 -219.5q23 -37 68 -51q27 -8 53 0q43 12 70 51q41 74 41 219.5t-41 219.5q-23 37 -68 51q-29 6 -43 2q-51 -6 -80 -53q-41 -68 -41 -219.5z" />
<glyph unicode="&#x26;" horiz-adv-x="1337" d="M113 256q-4 53 0 106q25 160 170 310q47 47 67 65l6 4l-4 29q-18 127 -18 274q-2 123 18 197q47 160 209 178q33 4 72 0q37 -10 69 -28q61 -43 74 -138q4 -47 0 -100q-18 -121 -98 -227q-76 -100 -207 -203l-22 -16l2 -5q0 -4 2 -12t2 -14q63 -279 227 -424l16 -12l7 10 q14 27 40 84q16 45 35 110q25 100 58 177q55 119 137 186q43 37 98 55q45 18 101 19q20 0 26 -2q14 -6 21 -21q2 -6 2 -18q0 -18 -11 -31q-10 -10 -38 -12q-27 0 -48 -6q-145 -39 -227 -244q-20 -49 -35 -115q-14 -57 -18 -70q-29 -86 -70 -159l-8 -13l14 -8q74 -41 144 -61 q111 -31 237 -37q31 0 37 -4q14 -6 21 -21q8 -18 0 -34q-6 -14 -21 -21q-6 -2 -39 -2q-242 0 -430 111l-14 8l-15 -17q-104 -104 -245 -104q-188 0 -275 96q-53 59 -69 160zM199 264q12 -78 53 -119q43 -37 102 -49q70 -18 133 -10q80 8 148 74l12 10l-14 12q-47 41 -70 74 q-102 117 -162 295q-18 55 -24 86v2l-2 4q-37 -35 -58 -57q-98 -111 -118 -228q-8 -49 0 -94zM420 1130q-6 -57 4 -231q0 -10 2 -34.5t4 -43.5l2 -18l19 14q143 117 200 225q31 55 39 119q2 14 2 46t-2 44q-12 68 -63 82q-35 4 -60 2q-76 -10 -106 -59q-35 -53 -41 -146z " />
<glyph unicode="(" horiz-adv-x="724" d="M137 512.5q0 73.5 2 101.5q18 270 103 488q74 180 190 317q80 90 115 111q4 4 10 4q12 6 29 -2q18 -8 23 -28.5t-7 -35.5l-20 -20q-41 -35 -90 -88q-227 -268 -263 -698q-6 -53 -6 -149.5t6 -150.5q35 -430 263 -696q41 -49 90 -90l20 -20q12 -16 7 -35t-23 -29 q-12 -8 -35 0q-20 12 -72 64q-152 152 -237 366q-84 217 -103 490q-2 27 -2 100.5z" />
<glyph unicode=")" horiz-adv-x="724" d="M113 -455q4 8 41 43q158 141 245 359q80 205 99 469q2 27 2 96.5t-2 97.5q-12 166 -47 312q-86 326 -297 514q-37 35 -41 43q-6 25 8 43q8 6 20.5 12t28.5 -2t64.5 -57.5t82.5 -92.5q209 -258 254 -661q12 -96 13 -209q0 -154 -19 -266q-53 -362 -248 -604 q-45 -61 -122 -131q-20 -20 -41 -20.5t-31 11.5q-18 18 -10 43z" />
<glyph unicode="*" horiz-adv-x="1001" d="M127 1300q0 20 17.5 34t37.5 7q2 -2 140 -86q31 -18 66.5 -39.5t53.5 -31.5l17 -10v163q0 133 1 153.5t9 31.5q6 10 18 12q16 8 31 0q14 -6 21 -21l4 -6v-168q0 -166 2 -165q59 37 135 81q125 78 141 86q25 6 42.5 -12t10.5 -41q-4 -12 -21 -24.5t-130 -81.5l-139 -86 q61 -39 139 -86q113 -70 130 -81t21 -24q6 -23 -11 -41t-42 -12q-33 16 -141 84l-135 84q-2 0 -2 -166v-168l-4 -6q-6 -14 -21 -21q-16 -8 -35 0q-14 6 -20 21l-2 6l-2 168q0 166 -2 166q-59 -37 -135 -84q-31 -18 -67 -40t-54 -32l-19 -12q-4 -2 -16 -2q-27 4 -36 27.5 t7 44.5q2 2 144 90l139 84q-61 39 -139 86q-141 88 -144 90q-10 14 -10 28z" />
<glyph unicode="+" horiz-adv-x="1558" d="M115 494q-8 18 0 36q6 14 20 21l6 4h299h297v295v121q0 184 8 190l3 2q6 8 18 14.5t31 -1.5q14 -6 20 -21l4 -6v-297v-297h299h299l4 -4q14 -6 21 -21q2 -6 2 -18t-2 -18q-6 -14 -21 -21l-4 -2l-299 -2h-299v-297v-297l-4 -6q-6 -14 -20 -21q-16 -8 -35 0q-14 6 -21 21 l-2 6l-2 297v297h-297l-299 2l-6 2q-14 6 -20 21z" />
<glyph unicode="," horiz-adv-x="557" d="M211 53.5q-6 28.5 8 53t41 30.5q20 4 53 0q90 -23 103 -119q2 -23 -2 -77q-10 -59 -33 -107q-33 -63 -80 -94q-18 -12 -37 -21q-35 -10 -51 23q-8 16 0 35q4 12 23 22q84 45 94 166q2 12 2 31.5t-2 21.5q0 2 -4 0q-4 -6 -31 -16q-31 -6 -54.5 8.5t-29.5 43z" />
<glyph unicode="-" horiz-adv-x="667" d="M22.5 432q-4.5 21 8.5 35q6 10 18 14q6 2 240 2h235l6 -4q14 -6 21 -20q8 -16 0 -35q-6 -14 -21 -21l-6 -2h-235h-238l-6 2q-18 8 -22.5 29z" />
<glyph unicode="." horiz-adv-x="557" d="M211 86q6 43 49 49q41 10 70 -18q23 -25 16.5 -58.5t-33.5 -48.5q-35 -20 -71 0q-45 23 -31 76z" />
<glyph unicode="/" horiz-adv-x="1001" d="M113 -459l348 983q350 987 352 989q7 13 23 21q25 8 43 -10q12 -16 12 -29v-10l-348 -985q-82 -231 -173 -485.5t-137 -379.5l-43 -124q-6 -10 -20 -19q-4 -2 -16 -2q-20 0 -31 10q-10 12 -10 31v10z" />
<glyph unicode="0" horiz-adv-x="946" d="M111 660q0 370 2 391q12 121 73 200q82 99 242 111q57 4 123 -4q254 -37 280 -307q2 -20 2.5 -390t-2.5 -389q-12 -123 -73 -200q-55 -66 -140 -92q-147 -45 -292 0q-188 61 -213 292q-2 18 -2 388zM195 660.5q0 -349.5 2 -369.5q2 -49 18 -101q43 -109 158 -135 q98 -27 198 0q164 39 177 236q2 20 2 369.5t-2 369.5q-6 125 -76 189q-66 51 -162 57q-70 6 -137 -8q-162 -41 -176 -238q-2 -20 -2 -369.5z" />
<glyph unicode="1" horiz-adv-x="946" d="M170 911q2 4 186 224q43 51 91.5 106t72.5 84l25 29q4 4 10 4q14 8 31 0q14 -6 20 -21l4 -6v-649v-651l-4 -6q-6 -14 -20 -21q-16 -8 -35 0q-14 6 -21 21l-2 6l-2 585v586l-143 -168q-33 -41 -71 -84t-56 -65l-18 -23q-10 -10 -29 -10q-20 0 -31 12q-18 18 -8 47z" />
<glyph unicode="2" horiz-adv-x="946" d="M111 1012q2 76 24 141q37 113 135 164q56 33 158 43q43 4 86 0q74 -6 135 -31q90 -39 135 -121q31 -49 41 -121q12 -61 9 -135q-18 -147 -152 -336q-66 -90 -305 -374l-133 -156l280 -2h281l4 -4q14 -6 20 -21q4 -4 4.5 -16t-4.5 -18q-6 -14 -20 -21l-4 -2h-332h-332 l-6 2q-14 6 -20 21q-10 16 0 34q6 10 174 209q254 301 299 365q121 160 151 278q16 66 4 152q-27 186 -213 211q-59 4 -114 0q-139 -18 -189 -119q-27 -51 -32 -149q0 -29 -5 -33q-6 -14 -20 -21q-16 -8 -35 0q-16 6 -22 25q-2 6 -2 35z" />
<glyph unicode="3" horiz-adv-x="946" d="M113 236q8 18 27.5 25t37.5 -5q10 -6 17 -27q16 -41 45 -75q8 -12 53 -52q68 -47 151 -57q66 -6 127 10q164 39 177 236q2 20 2 130.5t-2 129.5q-6 125 -76 188q-59 47 -146 58q-2 0 -15 1t-33.5 1h-39.5l-73 2l-7 2q-14 6 -20 20q-8 16 0 35q0 8 156 193l151 184h-223 l-223 2l-9 2q-18 8 -22 28.5t8 37.5q11 10 19 12q6 4 280 4h273l6 -4q14 -6 20 -21q8 -18 0 -36l-20 -25q-20 -25 -60.5 -74t-75.5 -92l-153 -184l14 -2q96 0 174 -33q141 -63 172 -238q8 -41 9 -190q0 -139 -3 -158q-14 -123 -73 -192q-90 -113 -283 -113q-166 0 -276 115 q-51 51 -78 110q-12 37 -8 52z" />
<glyph unicode="4" horiz-adv-x="946" d="M88 438q0 8 111 451q25 94 55.5 216t44.5 177l12 53q8 14 17 19q4 4 10 4q14 8 31 0q25 -14 24 -35q0 -14 -102 -424q-106 -412 -107 -416h174h174v185v184l5 6q6 14 20 21q16 8 35 0q14 -6 20 -21l4 -6v-184v-185h134h131l6 -4q14 -6 20 -20q8 -16 0 -35q-6 -14 -20 -21 l-6 -4h-131h-134v-184v-184l-4 -6q-6 -14 -20 -21q-18 -8 -35 0q-14 6 -20 21l-5 6v184v184h-206h-207l-6 4q-20 8 -25 35z" />
<glyph unicode="5" horiz-adv-x="946" d="M113 236q8 18 27.5 25t37.5 -5q10 -6 17 -27q16 -41 45 -75q8 -12 53 -52q68 -47 151 -57q66 -6 127 10q164 39 177 236q2 20 2 130.5t-2 129.5q-6 125 -76 188q-66 51 -162 58q-88 6 -152 -23q-53 -29 -86 -74q-16 -23 -24 -47q-8 -12 -21 -18q-14 -8 -37 0 q-12 6 -20 22l-4 9v311v307l4 8q6 17 29 27q4 2 276 2h273l6 -4q14 -6 20 -21q8 -18 0 -36q-6 -14 -20 -21l-6 -2l-248 -2h-248v-215v-215l8 6q41 31 92 51q88 31 199 17q233 -37 274 -267q8 -41 9 -190q0 -139 -3 -158q-14 -123 -73 -192q-90 -113 -283 -113 q-166 0 -276 115q-51 51 -78 110q-12 37 -8 52z" />
<glyph unicode="6" horiz-adv-x="946" d="M111 660q0 370 2 391q12 121 73 200q82 99 242 111h41q207 0 315 -127q29 -35 41 -64q8 -14 9 -26q0 -14 -13 -31q-10 -10 -28 -10q-29 0 -41 29q-20 37 -41 57q-86 82 -226 88q-119 4 -190 -43q-78 -55 -94 -168q-6 -43 -6 -172v-115l14 15q92 88 264 88q193 0 285 -111 q59 -74 73 -194q2 -18 3 -156q0 -139 -3 -158q-8 -76 -38 -137q-66 -137 -242 -162q-119 -18 -225 15q-188 61 -213 292q-2 18 -2 388zM195 422q0 -111 2 -131q2 -49 18 -101q43 -109 158 -135q98 -27 198 0q164 39 177 236q2 20 2 130.5t-2 129.5q-6 125 -76 188 q-66 52 -162 58q-70 6 -137 -9q-162 -41 -176 -237q-2 -18 -2 -129z" />
<glyph unicode="7" horiz-adv-x="946" d="M111 1165q0 119 2 127q8 19 28 25q4 2 363 2h356l6 -4q14 -6 21 -21q2 -4 2 -16v-10l-209 -623q-219 -635 -223 -639q-16 -10 -36 -4t-28 22.5t-2 28.5q0 2 191 565q199 586 198 588l8 29h-296h-297v-96v-95l-5 -6q-6 -14 -20 -20q-16 -8 -35 0q-16 6 -22 22q-2 8 -2 125 z" />
<glyph unicode="8" horiz-adv-x="946" d="M111 351q0 67 2 89q12 102 57 170q41 57 100 92l15 9l-11 6q-39 27 -67 71q-31 51 -39 103q-10 37 -10 121q0 59 4 92q20 121 88 182q63 64 184 76h35q150 0 225 -76q72 -66 88 -182q6 -33 6 -92q0 -76 -12 -121q-8 -51 -39 -103q-29 -45 -67 -71l-11 -6l15 -9 q61 -33 102 -92q43 -63 55 -170q2 -23 2.5 -88t-2.5 -88q-8 -76 -38 -137q-80 -168 -320 -168q-193 0 -287 113q-55 66 -73 192q-2 20 -2 87zM195 352.5q0 -73.5 12 -133.5q35 -133 166 -164q98 -27 198 0q131 31 166 164q12 47 12.5 133t-12.5 133q-39 160 -227 174 q-39 4 -78 0q-186 -14 -225 -174q-12 -59 -12 -132.5zM242 1012q0 -43 2 -64q8 -74 41 -121q12 -23 41 -43q55 -39 147 -39q88 0 148 39q31 27 41 43q29 47 40 121q4 63 0 127q-18 135 -104 176q-33 19 -94 25q-90 10 -158 -25q-84 -43 -102 -176q-2 -20 -2 -63z" />
<glyph unicode="9" horiz-adv-x="946" d="M111 178q0 27 24 37q6 4 19 4q25 0 41 -29q23 -47 69 -86q76 -55 197 -61q123 0 188 45q76 49 94 166q6 45 7 172v115l-15 -15q-88 -88 -262 -88q-193 0 -287 113q-55 66 -73 192v158v156q18 125 73 194q82 99 242 111q57 4 123 -4q254 -37 280 -307q2 -20 2.5 -390 t-2.5 -389q-12 -123 -73 -200q-90 -113 -285 -113q-209 0 -311 129q-51 59 -51 90zM195 901.5q0 -110.5 2 -131.5q2 -49 18 -100q43 -109 158 -135q98 -27 198 0q164 39 177 235q2 20 2 131t-2 129q-6 125 -76 189q-66 51 -162 57q-70 6 -137 -8q-162 -41 -176 -238 q-2 -18 -2 -128.5z" />
<glyph unicode=":" horiz-adv-x="557" d="M211 86q6 43 49 49q41 10 70 -18q23 -25 16.5 -58.5t-33.5 -48.5q-35 -20 -71 0q-45 23 -31 76zM211 797q-6 29 8 53.5t41 28.5q33 6 53 -7q43 -20 33 -75q-6 -29 -30.5 -43.5t-55.5 -8.5q-43 10 -49 52z" />
<glyph unicode=";" horiz-adv-x="557" d="M211 53.5q-6 28.5 8 53t41 30.5q20 4 53 0q90 -23 103 -119q2 -23 -2 -77q-10 -59 -33 -107q-33 -63 -80 -94q-18 -12 -37 -21q-35 -10 -51 23q-8 16 0 35q4 12 23 22q84 45 94 166q2 12 2 31.5t-2 21.5q0 2 -4 0q-4 -6 -31 -16q-31 -6 -54.5 8.5t-29.5 43zM211 797 q-6 31 8 55.5t41 28.5q29 6 53 -7q43 -23 33 -77q-6 -27 -30.5 -41.5t-55.5 -7.5q-18 2 -32.5 16t-16.5 33z" />
<glyph unicode="=" horiz-adv-x="1558" d="M113 303q-4 21 8 35q4 8 20 16h639h635l8 -4q25 -12 24 -38.5t-24 -37.5l-6 -2h-637h-639l-6 2q-18 8 -22 29zM121 737q6 9 18 15q6 2 641 2h637l6 -4q23 -10 24 -37t-24 -39l-8 -4h-635h-639l-8 4q-41 23 -12 63z" />
<glyph unicode="?" horiz-adv-x="946" d="M113 1108q-6 16 4 41q35 106 104 176q12 14 55 45q66 43 138 49q29 4 80 0q113 -6 198 -55q117 -72 139 -240q4 -68 -2 -104q-14 -92 -90 -176q-37 -47 -80 -78q-68 -55 -106 -100q-49 -63 -61 -119q-2 -10 -5 -103v-88l-4 -6q-6 -14 -20 -20q-18 -8 -35 0q-14 6 -20 20 l-5 6v80q0 102 5 127q14 61 47 111q49 74 149 155q61 51 88 91q43 55 56 112q4 35 0 82q-18 135 -117 186q-33 14 -64 23q-88 27 -164 10q-100 -18 -167 -123q-23 -43 -37 -80q-8 -29 -17 -36q-10 -10 -28 -11q-29 0 -41 25zM379 86q6 43 49 49q41 10 70 -18 q23 -25 16.5 -58.5t-33.5 -48.5q-35 -20 -71 0q-45 23 -31 76z" />
<glyph unicode="@" horiz-adv-x="1558" d="M110.5 702.5q0.5 346.5 149.5 528.5q39 51 88 88q147 113 383 123q49 4 105 0q201 -10 333 -92q53 -33 97 -74q104 -104 149 -268q33 -123 33 -297q-2 -109 -27 -181q-39 -113 -129 -153q-51 -27 -108.5 -27t-96.5 25q-27 16 -43 45l-2 6l-12 -12q-78 -76 -250 -76 q-164 0 -250 86q-63 66 -77 178q-2 16 -2 100q0 82 2 99q14 113 77 178q86 86 250 86q113 0 189 -35q8 -4 51 -33l4 -4v13q0 29 25 41q6 4 18 4q25 0 37 -25l4 -6v-264v-119q2 -160 8 -170l2 -2q8 -18 21 -21q14 -8 43 -8q27 0 53 8q53 16 82 62q35 57 43 149q2 16 2 76 t-2 82q-14 213 -100 336q-61 94 -173 149q-90 43 -229 58q-78 4 -156 0q-164 -14 -270 -82q-78 -49 -129 -125q-90 -135 -104 -358q-2 -23 -2 -89.5t2 -89.5q14 -223 104 -358q37 -55 76 -86q121 -102 321 -121q127 -12 277 6q186 18 297 92q53 35 90 82q16 20 25 23 q18 8 34 0q14 -6 21 -21q8 -16 0 -34q-20 -41 -78 -86q-135 -115 -385 -140q-139 -18 -287 -8q-215 23 -346 123q-41 27 -88 86q-150 186 -149.5 532.5zM535 702q0 -77 2 -94q14 -96 73 -143q16 -10 54 -27q61 -20 157 -14q104 6 158 61q31 27 43 97q2 12 2 119.5t-2 119.5 q-14 66 -43 97q-49 53 -158 61q-86 6 -157 -14q-29 -12 -54 -29q-59 -45 -73 -141q-2 -16 -2 -93z" />
<glyph unicode="A" horiz-adv-x="1224" d="M113 43v10l229 682q229 680 238 690q6 9 18 15q18 6 39 -4q8 -6 41 -101q6 -16 203 -600l231 -682v-10q0 -14 -4 -18q-8 -20 -29.5 -24.5t-36.5 9.5q-6 6 -10 15q0 2 -65 194l-64 189h-291h-290l-66 -193l-66 -192q-6 -10 -20 -19q-4 -2 -16 -2q-20 0 -31 10 q-10 12 -10 31zM350 494q0 -2 262 -2t262 2q-59 174 -131 385l-131 387q-59 -174 -131 -387z" />
<glyph unicode="B" horiz-adv-x="1224" d="M166 35v665v664l2 8q9 17 29 27h473q172 -12 268 -86q39 -27 70 -80q51 -85 51 -183q0 -53 -15 -110q-25 -88 -81 -145q-37 -37 -74 -56l-8 -4l14 -6q66 -25 117 -74q80 -80 98 -213q2 -30 2 -58t-2 -54q-25 -174 -145 -254q-80 -51 -203 -70q-49 -4 -313 -4h-250l-9 2 q-14 6 -22 23zM250 84h225q238 2 283 8q166 23 227 125q31 51 39 121q4 14 4 47t-4 47q-18 147 -139 209q-58 29 -162 41q-14 2 -248 4h-225v-301v-301zM250 770h196q205 0 218 2q102 6 176 39q82 39 110 119q8 14 17 61q4 14 4 51t-4 54q-20 125 -127 178q-74 33 -176 39 q-12 2 -218 2h-196v-273v-272z" />
<glyph unicode="C" horiz-adv-x="1337" d="M111 702q0 281 86 447q49 94 112 151q138 126 369 142q26 2 49 2t45 -2q66 -4 123 -23q231 -68 319 -266q8 -20 9 -33q0 -18 -11 -28q-12 -12 -28 -13q-29 0 -45 37q-39 84 -113 144q-123 98 -299 98q-164 0 -274 -62q-92 -47 -152 -135q-106 -160 -106 -459 q0 -272 86 -428q63 -111 172 -170q117 -61 274 -61q172 0 299 98q74 59 113 146q14 35 45 35q18 0 28 -11q10 -12 11 -30q0 -12 -9 -31q-29 -63 -71 -113q-72 -84 -181.5 -131t-234.5 -47q-258 0 -418 141q-66 61 -112 154q-86 166 -86 448z" />
<glyph unicode="D" horiz-adv-x="1280" d="M166 35v665v664l2 8q9 17 29 27h219q223 0 274 -8q172 -25 283 -123q66 -53 112 -148q70 -137 82 -354q0 -143 -2 -178q-14 -211 -80 -338q-55 -113 -141 -168q-88 -61 -201 -76q-37 -6 -301 -6l-243 2l-9 2q-14 6 -22 23zM250 84h229q233 2 238 4q98 12 174 62 q53 35 90 88q102 156 102 458q0 154 -28 269q-25 94 -72 163q-39 55 -90 97q-23 16 -62 37q-77 39 -186 51q-43 0 -207 2h-188v-615v-616z" />
<glyph unicode="E" horiz-adv-x="1114" d="M166 35v665v664l2 8q9 17 29 27h389h385l6 -4q14 -6 20 -21q8 -18 0 -35q-6 -14 -20 -20l-6 -2l-361 -2h-360v-273v-272h305h305l4 -4q14 -6 21 -21q8 -16 0 -34q-6 -14 -21 -21l-4 -4h-305h-305v-301v-301h360h361l6 -4q14 -6 20 -21q8 -18 0 -34q-6 -14 -20 -21l-6 -2 h-385h-387l-9 2q-14 6 -22 23z" />
<glyph unicode="F" horiz-adv-x="1058" d="M166 698v666l2 8q9 17 29 27h389h385l6 -4q14 -6 20 -21q8 -18 0 -35q-6 -14 -20 -20l-6 -2l-361 -2h-360v-285v-287h305h305l4 -4q14 -6 21 -20q8 -18 0 -37q-6 -14 -21 -20l-4 -3l-305 -2h-305v-313v-313l-4 -6q-6 -14 -21 -21q-16 -8 -35 0q-14 6 -20 21l-2 6z" />
<glyph unicode="G" horiz-adv-x="1337" d="M113 702q0 119 12 201q41 305 242 438q106 70 254 93q44 8 77 8q26 2 50 2t47 -2q182 -12 305 -96q66 -41 114 -123q10 -20 11 -35q-4 -27 -25 -35q-6 -4 -16 -4q-27 0 -45 33q-63 106 -195 147q-93 30 -205 30q-19 0 -39 -1q-221 -16 -342 -133q-121 -121 -151 -338 q-10 -76 -10 -185q0 -80 2 -94q14 -229 102 -360q74 -109 203 -164q110 -41 230 -41q47 0 95 6q129 16 213 72q55 35 93 92l6 10v197v196h-203l-203 2l-8 3q-25 16 -25 38.5t25 38.5l8 4h230h229l6 -4q14 -6 21 -20l4 -6v-234v-96q0 -143 -8 -158q-2 -2 -3 -4 q-49 -80 -114 -125q-113 -76 -264 -90q-48 -6 -97 -6q-74 0 -151 14q-193 39 -305 160q-127 135 -158 367q-12 82 -12 202z" />
<glyph unicode="H" horiz-adv-x="1280" d="M166 698q0 666 2 672q7 21 27 27q14 6 30 -2q14 -6 21 -21l4 -4v-315v-312h389h389v312v315l4 4q6 14 21 21q16 8 34 0q14 -6 21 -21l4 -4v-670v-669l-4 -6q-6 -14 -21 -21q-18 -8 -34 0q-14 6 -21 21l-4 6v313v313h-389h-389v-313v-313l-4 -6q-6 -14 -21 -21 q-16 -8 -35 0q-14 6 -20 21l-2 6z" />
<glyph unicode="I" horiz-adv-x="401" d="M158 698q0 666 2 672q6 21 26 27q14 6 31 -2q14 -6 21 -21l4 -4v-670v-669l-4 -6q-6 -14 -21 -21q-16 -8 -35 0q-14 6 -20 21l-2 6z" />
<glyph unicode="J" horiz-adv-x="946" d="M111 393q0 31 12 43q10 12 31 13q18 0 28 -11q12 -10 13 -55q6 -170 63 -252q49 -72 148 -84q12 -2 38.5 -2t38.5 2q98 12 148 84q47 68 59 188q2 18 4 537q0 514 2 518q11 19 27 25q14 6 31 -2q14 -6 20 -21l4 -6v-496q0 -528 -6 -573q-12 -145 -84 -235 q-66 -86 -194 -105q-24 -2 -49 -2t-50 2q-129 18 -194 105q-90 119 -90 327z" />
<glyph unicode="K" horiz-adv-x="1280" d="M166 698q0 666 2 672q7 21 27 27q14 6 30 -2q14 -6 21 -21l4 -4v-438l2 -438l407 448q383 418 416 451q27 20 53 -7q10 -10 11 -28q0 -12 -2 -18.5t-203 -227.5q-49 -53 -99.5 -107.5t-76.5 -82.5l-27 -31q96 -182 211 -406q213 -406 217 -417q8 -14 8 -25q0 -14 -12 -31 q-10 -10 -29 -10q-20 0 -30 10q-6 6 -215 408l-211 403q0 2 -28 -27.5t-79 -85t-104 -114.5l-209 -229v-168v-168l-4 -6q-6 -14 -21 -21q-16 -8 -35 0q-14 6 -20 21l-2 6z" />
<glyph unicode="L" horiz-adv-x="1114" d="M166 35v665q0 664 2 670q7 21 27 27q14 6 30 -2q14 -6 21 -21l4 -4v-643v-643h360h361l6 -4q14 -6 20 -21q2 -4 2 -16t-2 -18q-6 -14 -20 -21l-6 -2h-385h-387l-9 2q-14 6 -22 23z" />
<glyph unicode="M" horiz-adv-x="1392" d="M166 698q0 666 2 672q7 21 27 27q23 12 43 -8l229 -310l229 -307q102 139 228 307q53 70 111.5 151t86.5 120l31 39q10 10 29 10q12 0 18 -4q14 -6 21 -21l4 -4v-670v-669l-4 -6q-6 -14 -21 -21q-18 -8 -37 0q-14 6 -20 21l-2 6l-2 598v598l-205 -277l-209 -280 q-10 -10 -29 -11q-20 0 -28 11q-6 2 -211 282l-205 277l-2 -600v-598l-4 -6q-6 -14 -21 -21q-16 -8 -35 0q-14 6 -20 21l-2 6z" />
<glyph unicode="N" horiz-adv-x="1280" d="M166 698q0 666 2 672q7 21 27 27q23 12 43 -8q0 -2 397 -523l393 -520v512v512l4 4q6 14 21 21q16 8 34 0q14 -6 21 -21l4 -4v-670v-669l-4 -6q-6 -14 -21 -21q-18 -8 -34 0q-14 6 -21 21l-4 6v88v88l-389 512l-387 512l-2 -600v-600l-4 -6q-6 -14 -21 -21q-16 -8 -35 0 q-14 6 -20 21l-2 6z" />
<glyph unicode="O" horiz-adv-x="1337" d="M111 701.5q0 80.5 2 109.5q12 182 61 305q49 127 131 197q123 113 318 129q4 0 18 1t25 1q225 0 366 -131q33 -29 72 -86q94 -137 115 -367q4 -51 4 -158q0 -111 -4 -159q-20 -227 -115 -369q-41 -57 -72 -86q-113 -100 -280 -123q-49 -6 -95 -6q-208 0 -352 129 q-82 72 -131 197q-49 123 -61 307q-2 29 -2 109.5zM197 700.5q0 -77.5 2 -104.5q14 -238 102 -375q88 -133 264 -168q53 -10 105 -10l133 16q154 43 231 162q63 100 88 242q16 96 17 239q0 166 -25 279q-35 168 -129 258q-106 107 -278 119q-21 1 -41 1q-146 0 -260 -75 q-47 -29 -82 -74q-23 -31 -60 -94q-53 -123 -65 -309q-2 -29 -2 -106.5z" />
<glyph unicode="P" horiz-adv-x="1224" d="M166 698v666l2 8q9 17 29 27h258q254 0 274 -2q84 -8 143 -29q82 -31 140 -84q80 -80 98 -213v-57v-56q-25 -172 -145 -251q-86 -55 -199 -70q-49 -6 -287 -8h-229v-299v-299l-4 -6q-6 -14 -21 -21q-16 -8 -35 0q-14 6 -20 21l-2 6zM250 715h225q238 0 283 6 q166 23 227 125q31 51 39 123q4 12 4 45t-4 47q-16 147 -139 209q-64 33 -162 43q-51 0 -248 2h-225v-301v-299z" />
<glyph unicode="Q" horiz-adv-x="1337" d="M111 701.5q0 80.5 2 109.5q12 182 61 305q49 127 131 197q123 113 318 129q4 0 18 1t25 1q225 0 366 -131q33 -29 72 -86q94 -137 115 -367q4 -51 4 -158q0 -111 -4 -159q-20 -227 -115 -369q-61 -92 -152 -143l-10 -6q0 -2 84 -123q25 -35 46.5 -68t29.5 -46t10 -15 q4 -14 -4 -31q-8 -20 -29.5 -24.5t-36.5 10.5q-2 2 -12 17t-32.5 48t-49.5 70l-86 127q-4 0 -10 -4q-43 -14 -100 -21q-49 -6 -95 -6q-209 0 -352 129q-82 72 -131 197q-49 123 -61 307q-2 29 -2 109.5zM197 700.5q0 -77.5 2 -104.5q14 -238 102 -375q80 -119 234 -162 q63 -15 128 -15t132 15l18 4l-8 11l-14 20q-12 20 -34 51t-42 62q-78 115 -86 129q-10 25 8 43q10 12 33 12q18 0 28 -10q0 -4 99 -143q94 -139 94 -142q6 0 18 8q76 43 125 117q63 100 88 242q16 96 17 239q0 166 -25 279q-35 168 -129 258q-106 107 -278 119q-21 1 -41 1 q-147 0 -260 -75q-47 -29 -82 -74q-23 -31 -60 -94q-53 -123 -65 -309q-2 -29 -2 -106.5z" />
<glyph unicode="R" horiz-adv-x="1224" d="M166 698v666l2 8q9 17 29 27h258q254 0 274 -2q84 -8 143 -29q82 -31 140 -84q80 -80 98 -213v-57v-56q-18 -137 -98 -213q-76 -80 -213 -102q-16 -4 -21 -4q-2 0 21.5 -42t142.5 -247q37 -68 81 -143.5t67 -112.5l20 -39q6 -14 -2 -30q-18 -33 -51 -23q-12 2 -32.5 36 t-166.5 288l-176 303h-215h-217v-299v-299l-4 -6q-6 -14 -21 -21q-16 -8 -35 0q-14 6 -20 21l-2 6zM250 715h225q238 0 283 6q166 23 227 125q31 51 39 123q4 12 4 45t-4 47q-16 147 -139 209q-64 33 -162 43q-51 0 -248 2h-225v-301v-299z" />
<glyph unicode="S" horiz-adv-x="1169" d="M111 244q0 14 12 30q10 12 31 13q25 0 41 -29q35 -72 104 -125q119 -89 298 -89q22 0 44 1q131 8 201 49q49 27 82 74q39 59 49 154q1 16 1 31q0 46 -13 89q-53 147 -226 207q-4 2 -26.5 7.5t-60.5 15.5t-68 18q-180 43 -238 74q-96 51 -152 127q-57 82 -57 184 q0 131 68 221q35 45 61 62q104 76 270 84h15.5h27h25.5q57 0 109 -8q170 -29 252 -127q27 -37 36 -54q12 -29 -8 -49q-10 -12 -28 -12q-25 0 -43 31q-70 113 -256 131q-32 4 -74 4t-96 -4q-141 -18 -207 -90q-49 -47 -66 -142v-45q0 -33 2 -47q10 -41 21 -57q25 -51 77 -94 q55 -47 134 -70q2 0 24.5 -6t58 -15.5t68.5 -17.5t73 -18.5t59.5 -15.5t25.5 -7q104 -33 182 -111q100 -100 113 -231q2 -20 1 -38q0 -27 -3 -52q-27 -233 -240 -307q-86 -29 -215 -29q-70 0 -111 6q-129 20 -224 85t-144 163q-6 12 -10 29z" />
<glyph unicode="T" horiz-adv-x="1224" d="M55.5 1347.5q-4.5 20.5 7.5 34.5q7 11 19 15q6 2 530 2h525l6 -4q14 -6 20 -21q8 -18 0 -35q-6 -14 -20 -20l-6 -2l-242 -2h-242v-641v-643l-4 -6q-6 -14 -20 -21q-18 -8 -37 0q-14 6 -21 21l-2 6l-2 643v641h-241l-242 2l-6 2q-18 8 -22.5 28.5z" />
<glyph unicode="U" horiz-adv-x="1280" d="M166 874q0 492 2 498q7 21 27 27q14 6 30 -2q14 -6 21 -21l4 -6v-504v-115.5v-107.5v-94t1 -80t1 -60.5v-39.5v-15q0 -2 1 -5t2 -8t1 -9q4 -35 14 -72q29 -94 97 -143q94 -74 272 -74q135 0 225 45q41 18 70 49q72 66 88 195q0 4 1 9t2 8t1 5v15v39.5t1 60.5t1 80v94 v107.5v115.5v504l4 6q6 14 21 21q16 8 34 0q14 -6 21 -21l4 -6v-489q0 -514 -6 -559q-12 -117 -70 -197q-119 -166 -397 -166q-233 0 -352 113q-106 104 -119 290q-2 12 -2 512z" />
<glyph unicode="V" horiz-adv-x="1224" d="M111 1356q-5 33 28 43q12 6 31 -2q14 -8 20 -19q0 -2 28 -80.5t82 -238.5t103 -305l209 -619q94 279 209 619q209 621 213 624q0 4 8 13q14 14 36 10t30 -25q4 -4 4 -16v-10l-231 -684q-238 -696 -244 -701q-27 -12 -49 0q-8 6 -43 103q-8 25 -203 598q-111 328 -231 690 z" />
<glyph unicode="W" horiz-adv-x="1781" d="M111 1356q-5 33 28 43q4 2 17 2q25 -4 34 -23q4 -10 168 -610l164 -602q74 270 164 602l166 610q8 12 20 19q18 8 35 0q12 -6 21 -19q4 -10 168 -610l164 -602q74 270 163 600q164 600 164 608q6 16 27 25q20 6 36.5 -5.5t18.5 -31.5q0 -12 -184 -692 q-41 -150 -91.5 -334t-74 -268t-23.5 -86q-8 -12 -20 -19q-16 -8 -35 0q-14 6 -20 21l-166 608l-164 602q-74 -270 -164 -602q-164 -604 -168 -608q-6 -14 -20 -21q-16 -8 -35 0q-12 6 -21 19q0 4 -185 687t-187 687z" />
<glyph unicode="X" horiz-adv-x="1224" d="M113 55q4 6 225 334l221 330q-94 139 -209 311q-209 309 -209 313q-6 16 1.5 33t23.5 21q25 10 43 -11q4 0 203 -296l200 -293q90 131 199 293q203 297 205 299q14 14 35.5 10t29.5 -25q8 -16 2 -28q-2 -6 -211 -316l-208 -311l28 -41q27 -41 85.5 -128t109.5 -161 q66 -96 124 -183t78.5 -118t22.5 -33q4 -14 -4 -30q-8 -20 -29.5 -24.5t-36.5 9.5q0 2 -9 14.5t-26.5 38t-41 60.5t-61.5 90t-79 117l-213 313q-4 0 -213 -313q-211 -311 -217 -318q-10 -10 -28 -10q-12 0 -19 2q-33 18 -22 51z" />
<glyph unicode="Y" horiz-adv-x="1224" d="M115 1337q-6 14 -6 25q0 25 30 35q25 10 43 -11q4 -2 217 -372l213 -369q94 166 211 369q215 375 226 381q2 0 8 2q37 12 51 -23q8 -14 4 -28q0 -2 -30.5 -54.5t-88 -153t-110.5 -194.5l-228 -393l-2 -260v-260l-4 -6q-6 -14 -20 -21q-16 -8 -35 0q-14 6 -21 21l-2 6 l-2 260v260l-225 389q-227 395 -229 397z" />
<glyph unicode="Z" horiz-adv-x="1224" d="M113 57l426 633q424 621 424 625h-396l-397 2l-8 2q-25 12 -25 39q0 16 13 28q14 11 20 13h444h441l6 -4q14 -6 20 -20.5t2 -28.5q-4 -10 -426 -633l-424 -627q0 -2 424 -2h426l4 -4q14 -6 21 -21q8 -18 0 -34q-6 -14 -21 -21l-4 -2h-471h-469l-8 2q-14 6 -21.5 22.5 t-0.5 30.5z" />
<glyph unicode="[" horiz-adv-x="724" d="M262 -477v989v989l2 8q9 19 29 25q4 2 174 2h170l4 -4q14 -6 21 -21q8 -16 0 -34q-6 -14 -21 -21l-4 -4h-145h-146v-940v-940h146h145l4 -4q14 -6 21 -21q8 -18 0 -34q-6 -14 -21 -21l-4 -2h-172h-170l-8 2q-14 6 -23 23z" />
<glyph unicode="]" horiz-adv-x="724" d="M55 -469q0 12 2 16q6 14 21 21l6 4h143h146v940v940h-146h-143l-6 4q-18 8 -22.5 27.5t7.5 36.5q7 8 19 14q6 2 176 2h170l4 -4q14 -6 21 -21l4 -6v-993v-993l-4 -6q-6 -14 -21 -21l-4 -2h-172h-172l-6 2q-14 6 -21 21q-2 6 -2 18z" />
<glyph unicode="^" horiz-adv-x="780" d="M53.5 1096.5q-4.5 21.5 9.5 36.5q8 8 152.5 144t149.5 138q2 2 4 2q4 2 6 2q14 6 31 -2q10 -4 153 -139q150 -143 152 -145q8 -4 8 -15q14 -33 -21 -51q-18 -8 -36 0q-8 4 -140 129l-135 125q-61 -57 -133 -125q-135 -127 -141 -129q-16 -8 -35 0q-20 8 -24.5 29.5z" />
<glyph unicode="_" horiz-adv-x="780" d="M322 1276q6 43 49 49q41 10 69 -18q23 -25 17 -59t-33 -48q-35 -20 -72 0q-45 23 -30 76z" />
<glyph unicode="a" d="M70 319v121v123q18 141 88 219q43 45 110 74q45 19 113 25q20 2 41.5 2t44.5 -2q90 -6 160 -41q29 -16 55 -39l12 -13v33q0 25 4 37q6 14 21 21q18 8 35 0q14 -6 20 -21l4 -6v-412v-409l-4 -6q-6 -14 -20 -21q-16 -8 -35 0q-14 6 -21 21q-4 12 -4 36v31l-12 -10 q-23 -23 -55 -39q-63 -35 -162 -41q-28 -2 -51.5 -2t-44.5 2q-94 12 -162 55q-39 27 -68 66q-55 76 -69 196zM152 439.5q0 -72.5 2 -93.5q10 -139 79 -201q68 -61 191 -61q113 0 180 45q23 12 47 43q35 49 41 133q2 18 2 136t-2 134q-6 82 -41 136q-18 23 -47 43 q-55 37 -143 43q-17 1 -34 1q-53 0 -99 -14q-160 -39 -174 -249q-2 -23 -2 -95.5z" />
<glyph unicode="b" d="M111 709q0 678 2 684q6 20 26 26q12 6 31 -2q14 -6 20 -20l5 -6v-301v-302l12 13q18 18 55 39q70 35 164 41q23 2 43 2q30 0 53 -4q96 -12 160 -54q35 -25 70 -65q53 -74 67 -197q2 -18 2 -123q0 -102 -2 -121q-14 -137 -88 -219q-49 -59 -147 -86q-49 -12 -105 -14h-20 q-117 0 -197 43q-37 20 -55 39l-12 10v-31q0 -31 -5 -36q-6 -14 -20 -21q-16 -8 -35 0q-14 6 -20 21l-2 6zM195 441.5q0 -117.5 2 -136.5q6 -82 43 -133q18 -29 45 -43q55 -37 143 -43q19 -2 38 -1q50 0 97 11q160 43 172 250q2 20 2 94t-2 95q-6 98 -47 165q-59 85 -186 97 h-76q-86 -6 -141 -43q-31 -23 -45 -43q-37 -55 -43 -136q-2 -16 -2 -133.5z" />
<glyph unicode="c" horiz-adv-x="780" d="M68 440.5q0 79.5 2 102.5q8 164 90 254q70 70 182 82q6 2 18 2q8 2 53.5 1t61.5 -3q168 -18 217 -121q19 -38 19 -67q0 -16 -6 -29q-6 -14 -21 -21q-16 -8 -35 0q-25 14 -24 41q0 16 -11 41q-4 8 -16 25q-27 25 -68 34q-43 14 -114 15h-16q-59 0 -101 -13 q-133 -45 -145 -245q-2 -23 -2 -98.5t2 -98.5q12 -199 145 -244q45 -14 117 -14q74 2 114 16q66 18 84 60q10 25 11 41q0 29 24 39q18 8 35 0q14 -6 21 -21q6 -12 6 -28q0 -28 -19 -66q-8 -18 -37 -51q-53 -55 -182 -72q-20 -2 -68.5 -2t-62.5 2q-117 18 -182 84 q-82 86 -90 252q-2 23 -2 102.5z" />
<glyph unicode="d" d="M70 319v121v123q18 141 88 219q55 61 147 84q45 14 107 17q135 0 215 -43q33 -16 55 -39l12 -13v299v123q0 186 8 193l3 2q4 8 18 14t31 -2q14 -6 20 -20l4 -6v-680v-680l-4 -6q-6 -14 -20 -21q-16 -8 -35 0q-14 6 -21 21q-4 12 -4 36v31l-12 -10q-23 -23 -55 -39 q-63 -35 -162 -41q-28 -2 -51.5 -2t-44.5 2q-94 12 -162 55q-39 27 -68 66q-55 76 -69 196zM152 439.5q0 -72.5 2 -93.5q10 -139 79 -201q68 -61 191 -61q113 0 180 45q23 12 47 43q35 49 41 133q2 18 2 136t-2 134q-6 82 -41 136q-18 23 -47 43q-55 37 -143 43q-17 1 -34 1 q-53 0 -99 -14q-160 -39 -174 -249q-2 -23 -2 -95.5z" />
<glyph unicode="e" d="M68 441.5q0 93.5 2 111.5q4 33 20 106q27 72 76 125q25 25 59 45q65 42 174 52q24 2 45.5 2t42.5 -2q156 -12 236 -97q49 -53 76 -125q20 -68 20 -153q0 -33 -2 -43q-12 -35 -47 -51q-18 -10 -50 -11.5t-274 -1.5h-294v-14q0 -104 34 -170q63 -131 260 -131h17 q63 2 115 16q84 27 118 78q16 25 41 25q12 0 17 -2q31 -16 24 -51q-12 -33 -59 -72q-94 -78 -273 -78q-184 0 -280 98q-49 49 -76 125q-16 68 -20 107q-2 18 -2 111.5zM152 483h288q289 0 293 2l4 4v11q0 23 -2 32q-8 143 -92 211q-60 44 -162 54q-16 1 -31 1 q-109 0 -178 -38q-57 -33 -86 -92q-34 -64 -34 -164v-6v-15z" />
<glyph unicode="f" horiz-adv-x="514" d="M4 821q-8 18 0 37q6 14 21 21l6 4h82h82v155q2 162 4 176q18 121 94 168q43 31 106 37q19 2 37 2t35 -2q76 -16 129 -76q45 -55 64 -112q6 -16 6 -29q0 -14 -13 -31q-10 -10 -28.5 -10t-28.5 10q-10 6 -16 31q-33 104 -119 131q-10 2 -35 2q-41 0 -65 -10 q-76 -27 -84 -137v-162v-143h110h111l4 -4q14 -6 20 -21q2 -6 2 -18.5t-2 -18.5q-6 -14 -20 -20l-4 -2l-111 -2h-110v-383v-383l-5 -6q-6 -14 -20 -21q-18 -8 -37 0q-14 6 -20 21l-2 6l-2 383v383h-82l-82 2l-6 2q-14 6 -21 20z" />
<glyph unicode="g" d="M70 322v120v121q18 143 88 221q43 45 110 74q45 19 113 25h86q90 -6 160 -41q33 -23 55 -41l12 -10v30q0 29 4 37q6 14 21 21q18 8 35 0q14 -6 20 -21l4 -4v-438q0 -465 -4 -506q-14 -135 -90 -217q-57 -61 -152 -80q-36 -8 -73 -8h-15q-39 0 -55 2q-94 16 -156 57 q-72 47 -108 121q-18 33 -10 53q8 16 20 23q23 8 37 0q14 -6 21 -21q37 -82 114 -121q43 -23 92 -28q14 -2 45 -2t48 2q43 6 81 24q94 49 115 185q4 29 6 120v74l-12 -10q-18 -20 -55 -41q-70 -35 -162 -41q-76 0 -96 2q-94 12 -162 55q-39 27 -68 66q-55 74 -69 197z M152 441.5q0 -72.5 2 -93.5q10 -139 79 -203q70 -59 191 -59q117 0 180 43q25 16 47 45q35 49 41 133q2 16 2 135t-2 136q-6 84 -41 133q-23 29 -47 45q-53 35 -143 41q-18 2 -36 2q-50 0 -97 -13q-160 -39 -174 -249q-2 -23 -2 -95.5z" />
<glyph unicode="h" d="M111 709q0 678 2 684q6 20 26 26q12 6 31 -2q14 -6 20 -20l5 -6v-312v-309l12 14q66 76 188 95q26 4 54.5 4t60.5 -4q94 -12 154 -52q94 -63 112 -198q4 -33 4 -307v-291l-4 -6q-6 -14 -20 -21q-18 -8 -37 0q-14 6 -21 21l-2 6l-2 291q0 293 -8 327q-31 127 -180 146 q-27 2 -86 2q-80 -8 -133 -54q-61 -51 -84 -176q-6 -45 -8 -299v-237l-5 -6q-6 -14 -20 -21q-16 -8 -35 0q-14 6 -20 21l-2 6z" />
<glyph unicode="i" horiz-adv-x="346" d="M104 1241q-6 29 8.5 53.5t41.5 30.5q29 6 53 -8q35 -16 35 -56q0 -9 -2 -20q-6 -29 -31 -43t-55 -8q-43 10 -50 51zM129 31v407q4 422 8 428q11 11 21 13q14 8 30 0q14 -6 21 -21l4 -6v-412v-409l-4 -6q-6 -14 -21 -21q-18 -8 -34 0q-14 6 -21 21z" />
<glyph unicode="j" horiz-adv-x="458" d="M-113 -178q0 29 25 39q18 8 35 0q12 -6 20 -19q0 -2 3 -9t5 -13q18 -84 70 -119q16 -10 39 -14q33 0 59 26q23 23 33 54q23 55 29 133v21.5v56t1 89t1 137.5v183v161v120t1 82.5t1 55v32v16.5v4q11 17 27 23q14 6 30 -2q14 -6 21 -21l4 -4v-467q0 -479 -6 -532 q-10 -88 -43 -148q-20 -47 -62 -76q-44 -28 -90 -28q-24 0 -49 8q-88 29 -131 135q-23 49 -23 76zM182 1276q10 43 49 49q14 4 26 4q26 0 44 -20q19 -20 19 -47q0 -6 -2 -13q-5 -35 -31 -49q-19 -10 -37 -10l-37 10q-33 16 -33 55q0 10 2 21z" />
<glyph unicode="k" d="M111 709q0 678 2 684q6 20 26 26q12 6 31 -2q14 -6 20 -20l5 -6v-521l2 -520l272 262q258 252 279 267q16 8 34 0q25 -12 25 -38q0 -8 -2 -16q-8 -12 -12 -16q-63 -63 -134 -131q-127 -119 -127 -123l150 -246q145 -242 152 -252q4 -10 4 -18q0 -22 -27 -35q-6 -2 -18 -2 q-18 0 -29 10q-2 0 -150 244l-145 240q-61 -59 -137 -134l-137 -131v-100v-100l-5 -6q-6 -14 -20 -21q-16 -8 -35 0q-14 6 -20 21l-2 6z" />
<glyph unicode="l" horiz-adv-x="346" d="M129 709q0 678 2 684q7 20 27 26q14 6 30 -2q14 -6 21 -20l4 -6v-680v-680l-4 -6q-6 -14 -21 -21q-16 -8 -34 0q-14 6 -21 21l-2 6z" />
<glyph unicode="m" horiz-adv-x="1337" d="M111 438v168q0 252 8 258l2 2q6 11 18 13q16 8 31 0q14 -6 20 -21q4 -6 5 -41v-35l8 11q70 76 180 88q18 2 35 2q26 0 49 -4q96 -12 154 -64q25 -20 53 -67l6 -13l8 13q55 104 178 126q35 8 74 9q109 -6 172 -49q84 -57 105 -168q8 -39 8 -342v-293l-4 -6q-6 -14 -21 -21 q-18 -8 -35 0q-14 6 -20 21l-4 6v291q-2 295 -8 327q-25 135 -177 148q-11 1 -22 1q-75 0 -125 -38q-39 -33 -57 -72q-31 -63 -39 -160q-2 -14 -2 -258v-239l-4 -6q-6 -14 -21 -21q-18 -8 -37 0q-14 6 -20 21l-2 6l-2 291q0 295 -7 327q-27 135 -178 148q-11 1 -21 1 q-73 0 -126 -38q-35 -29 -55 -72q-29 -57 -39 -160q-4 -29 -4 -258v-239l-5 -6q-6 -14 -20 -21q-16 -8 -35 0q-14 6 -20 21l-2 6z" />
<glyph unicode="n" d="M111 438v168q0 252 8 258l2 2q6 11 18 13q16 8 31 0q14 -6 20 -21q4 -6 5 -47v-41l12 14q66 76 188 95q26 4 54.5 4t60.5 -4q94 -12 154 -52q94 -63 112 -198q4 -33 4 -307v-291l-4 -6q-6 -14 -20 -21q-18 -8 -37 0q-14 6 -21 21l-2 6l-2 291q0 293 -8 327 q-31 127 -180 146q-27 2 -86 2q-80 -8 -133 -54q-61 -51 -84 -176q-6 -45 -8 -299v-237l-5 -6q-6 -14 -20 -21q-16 -8 -35 0q-14 6 -20 21l-2 6z" />
<glyph unicode="o" d="M68 441.5q0 93.5 2 111.5q4 33 20 106q27 72 76 125q25 25 59 45q65 42 174 52q24 2 45.5 2t42.5 -2q156 -12 236 -97q49 -53 76 -125q16 -74 20 -106q2 -18 2 -111.5t-2 -111.5q-4 -39 -20 -107q-27 -76 -76 -125q-51 -51 -129 -75q-66 -23 -150 -23t-149 23 q-78 25 -129 75q-49 49 -76 125q-16 68 -20 107q-2 18 -2 111.5zM152 441.5q0 -70.5 2 -91.5q12 -170 118 -227q64 -39 165 -39q21 0 44 2q119 8 187 76q57 61 67 188q2 10 2 90q0 82 -2 92q-8 143 -92 211q-60 44 -162 54q-17 1 -34 1q-34 0 -66 -5q-96 -12 -160 -72 q-59 -66 -67 -189q-2 -20 -2 -90.5z" />
<glyph unicode="p" d="M111 240q0 608 2 614q6 21 26 27q12 6 31 -2q14 -6 20 -21q4 -4 5 -37v-30l12 10q12 12 55 41q70 35 164 41q74 0 96 -2q92 -12 160 -56q35 -23 70 -65q53 -70 67 -197q2 -16 2 -120.5t-2 -120.5q-14 -139 -88 -222q-55 -61 -147 -84q-49 -14 -105 -14h-11 q-122 0 -206 41q-43 29 -55 41l-12 10v-231v-230l-5 -6q-6 -14 -20 -20q-16 -8 -35 0q-14 6 -20 20l-2 6zM195 443q0 -119 2 -136q6 -80 43 -133q16 -25 45 -45q53 -35 143 -41q19 -2 38 -2q50 0 97 12q160 41 172 250q2 23 2 95.5t-2 93.5q-6 100 -47 165q-59 87 -186 95 q-18 2 -37 2t-39 -2q-90 -6 -141 -41q-29 -20 -45 -45q-37 -53 -43 -133q-2 -16 -2 -135z" />
<glyph unicode="q" d="M70 322v120v121q18 143 88 221q43 45 110 74q45 19 113 25h86q90 -6 160 -41q33 -23 55 -41l12 -10v30q0 29 4 37q6 14 21 21q18 8 35 0q14 -6 20 -21l4 -4v-610v-611l-4 -6q-6 -14 -20 -20q-16 -8 -35 0q-14 6 -21 20l-2 6l-2 230v231l-12 -10q-18 -20 -55 -41 q-70 -35 -162 -41q-76 0 -96 2q-94 12 -162 55q-39 27 -68 66q-55 74 -69 197zM152 441.5q0 -72.5 2 -93.5q10 -139 79 -203q70 -59 191 -59q117 0 180 43q25 16 47 45q35 49 41 133q2 16 2 135t-2 136q-6 84 -41 133q-23 29 -47 45q-53 35 -143 41q-18 2 -36 2 q-50 0 -97 -13q-160 -39 -174 -249q-2 -23 -2 -95.5z" />
<glyph unicode="r" horiz-adv-x="724" d="M111 438v168q0 252 8 258l2 2q6 11 18 13q16 8 31 0q14 -6 20 -21q4 -6 5 -49v-41l12 12q63 74 170 94q36 7 71 8q4 0 9 -1q51 0 88 -11q133 -31 149 -180q2 -43 -12 -57q-12 -12 -29 -12q-18 0 -30.5 12t-12.5 39q-2 80 -61 108q-37 16 -82 17q-10 1 -19 1 q-58 0 -102 -22q-74 -29 -115 -110q-25 -57 -32 -148q-4 -20 -4 -250v-237l-5 -6q-6 -14 -20 -21q-16 -8 -35 0q-14 6 -20 21l-2 6z" />
<glyph unicode="s" horiz-adv-x="780" d="M72 240q6 14 20 20q6 2 19 2q18 0 28 -12q12 -12 13 -35q6 -66 51 -92q59 -39 200 -39q74 2 115 16q84 31 103 111q4 20 4 39.5t-4 38.5q-18 80 -103 110q-47 14 -133 17q-72 0 -111 8q-92 16 -141 65q-39 35 -51 78q-15 41 -15 82q-1 33 9 65q22 74 82 113q67 46 186 54 q12 2 63.5 1t65.5 -3q143 -14 195 -95q18 -25 25 -57.5t-1 -48.5q-6 -14 -20 -21q-14 -8 -37 0q-25 16 -25 39t-10 39.5t-33 30.5q-37 20 -86 27q-48 7 -93 7q-51 0 -99 -9q-80 -14 -113 -62q-25 -34 -24 -79q0 -47 24 -83q27 -39 90 -55q39 -10 125 -12q88 -2 129 -15 q29 -6 62 -20q94 -47 118 -148q11 -39 11 -76q0 -74 -45 -137q-23 -29 -52 -51q-82 -53 -229 -53q-150 0 -231 53q-39 25 -66 76q-23 48 -23 80q0 18 7 31z" />
<glyph unicode="t" horiz-adv-x="569" d="M16 821q-8 18 0 37q6 14 21 21l6 4h86h84v170q0 139 1 159.5t9 30.5q7 10 19 12q16 8 30 0q14 -6 21 -20l4 -6v-174v-172h106h107l4 -4q14 -6 21 -21q2 -6 2 -18.5t-2 -18.5q-6 -14 -21 -20l-4 -2l-107 -2h-106v-383v-383l-4 -6q-6 -14 -21 -21q-16 -8 -34 0 q-14 6 -21 21l-2 6l-2 383v383h-84l-86 2l-6 2q-14 6 -21 20z" />
<glyph unicode="u" d="M111 557v119q0 182 8 188l2 2q6 11 18 13q16 8 31 0q14 -6 20 -21l5 -6v-289q2 -303 8 -330q31 -127 182 -145q25 -4 51 -4q17 0 35 2q80 8 133 53q63 53 82 176q8 45 8 299l2 238l2 6q6 14 21 21q18 8 37 0q14 -6 20 -21l4 -6v-412v-409l-4 -6q-6 -14 -20 -21 q-18 -8 -37 0q-14 6 -21 21q-4 12 -4 47v41l-12 -15q-61 -78 -186 -96q-26 -2 -55 -2t-62 2q-92 12 -152 53q-92 59 -114 197q0 41 -2 305z" />
<glyph unicode="v" horiz-adv-x="868" d="M55 850v2q7 21 27 27q16 8 31 0q12 -6 22 -25q0 -2 20.5 -49t58.5 -136t73 -171l145 -344q68 156 148 344q145 348 151 356q6 12 12 16q16 14 36 10.5t30 -22.5q2 -6 2 -18v-11l-170 -401q-166 -399 -172 -405q-4 -10 -18 -19q-18 -8 -35 0q-12 6 -21 19q0 2 -172 405 q-172 410 -168 422z" />
<glyph unicode="w" horiz-adv-x="1280" d="M53 838q-4 33 29 41q16 8 31 0q14 -6 20 -21q2 -2 119 -344q29 -86 56.5 -169t43 -127t15.5 -42q53 154 116 340q25 74 56.5 166t46.5 133l14 43q6 14 21 21q12 4 18 4q2 0 18 -4q14 -8 19 -21q6 -6 117 -342l116 -340q0 -2 15.5 43t43 126t58.5 169q113 340 119 344 q0 8 8 12q16 14 35.5 10.5t30.5 -22.5q4 -4 4 -16v-13l-136 -397q-131 -389 -139 -405q-6 -23 -35 -27q-25 -4 -39 18q-8 14 -118 347l-117 342q-53 -152 -117 -340q-117 -340 -119 -347q-8 -14 -20 -16q-16 -8 -33 0q-14 6 -22 23q-2 4 -138 405q-74 215 -137 406z" />
<glyph unicode="x" horiz-adv-x="868" d="M57 59q6 12 162 201l158 195l-148 182q-150 183 -150 186q0 4 -3 15q-1 35 28 41q25 8 39 -5q6 -6 146 -178l143 -174l139 172q143 174 148 176q18 18 42.5 8t26.5 -36q0 -12 -17 -35t-136 -170l-148 -182q72 -88 158 -195q156 -188 162 -201q2 -4 2 -16q0 -18 -10 -31 q-15 -15 -29 -15q-13 0 -27 13q-2 0 -21.5 23.5t-62.5 76t-75 91.5q-152 184 -154 184q-14 -14 -154 -188l-155 -191q-16 -10 -35.5 -4t-28 22.5t-0.5 34.5z" />
<glyph unicode="y" d="M111 559v119q0 180 8 186l2 2q6 11 18 15q12 6 31 -2q14 -6 20 -21l5 -4v-291q2 -303 8 -327q31 -129 182 -148q25 -2 46 -2t40 2q80 6 133 53q63 49 82 176q8 45 8 299l2 238l2 4q6 14 21 21q18 8 37 0q14 -6 20 -21l4 -4v-438q0 -465 -6 -506q-16 -139 -90 -217 q-57 -61 -152 -80q-34 -8 -72 -8h-16q-39 0 -55 2q-92 16 -156 57q-72 47 -108 121q-16 37 -10 53q8 16 22 23q18 8 35 0q12 -4 21 -21q37 -82 116 -121q39 -23 90 -28q14 -2 46 -2t49 2q45 6 81 24q92 51 113 185q6 35 6 131v82l-12 -13q-61 -78 -186 -96q-26 -2 -55 -2 t-62 2q-96 12 -152 51q-92 59 -114 199q0 39 -2 305z" />
<glyph unicode="z" horiz-adv-x="868" d="M57 25q-8 16 0 34q6 12 297 373l297 365h-268l-270 2l-7 2q-18 8 -22 28.5t8 36.5q7 11 19 13q6 4 323 4h318l6 -4q14 -6 20 -21q8 -18 0 -37l-39 -47q-39 -49 -113.5 -142t-144.5 -181l-297 -365l297 -2h299l6 -4q14 -6 21 -21q8 -18 0 -34q-6 -14 -21 -21l-6 -2h-348 h-348l-6 2q-14 6 -21 21z" />
<glyph unicode="}" horiz-adv-x="780" d="M168 1106v10l70 141l73 148q9 12 21 14q14 6 33 -2q14 -6 20 -20q2 -4 2 -17l2 -12l-74 -143q-76 -150 -84 -154q-2 -2 -6 -4t-16 -2q-20 0 -31 10q-10 12 -10 31zM446 1106v10l70 141l74 148q8 12 20 14q14 6 33 -2q14 -6 21 -20q2 -4 2 -17l2 -12l-74 -143 q-76 -150 -84 -154q-2 -2 -6 -4t-17 -2q-20 0 -30 10q-10 12 -11 31z" />
<glyph unicode="~" horiz-adv-x="780" d="M57 1102q16 72 39 121q16 31 51 65q40 33 97 39q12 4 53 -4q49 -12 86 -53q31 -33 47 -82q16 -47 55 -64q16 -8 37 -8q78 0 113 158q8 35 14 41q12 12 33 12q16 0 29 -12q16 -16 8 -58q-18 -92 -53 -141q-41 -59 -95 -76q-74 -27 -137 17q-29 16 -57 53q-14 20 -31 61 q-20 49 -57 64q-14 8 -35 8q-82 0 -113 -160q-8 -31 -16 -39q-12 -12 -29 -12q-18 0 -30 12q-16 14 -9 58z" />
<glyph unicode="&#xa1;" horiz-adv-x="1224" d="M113 55q4 6 225 334l221 330q-94 139 -209 311q-209 309 -209 313q-6 16 1.5 33t23.5 21q25 10 43 -11q4 0 203 -296l200 -293q90 131 199 293q203 297 205 299q14 14 35.5 10t29.5 -25q8 -16 2 -28q-2 -6 -211 -316l-208 -311l28 -41q27 -41 85.5 -128t109.5 -161 q66 -96 124 -183t78.5 -118t22.5 -33q4 -14 -4 -30q-8 -20 -29.5 -24.5t-36.5 9.5q0 2 -9 14.5t-26.5 38t-41 60.5t-61.5 90t-79 117l-213 313q-4 0 -213 -313q-211 -311 -217 -318q-10 -10 -28 -10q-12 0 -19 2q-33 18 -22 51z" />
<glyph unicode="&#xa3;" horiz-adv-x="1447" d="M113 817q8 203 77 340q45 88 111 143q135 128 377 140h125q193 -20 313.5 -112.5t175.5 -254.5q35 -104 43 -256q8 -162 -37 -307q-37 -104 -96 -191q-29 -43 -119 -143l-77 -90l149 -2h152l6 -4q14 -6 20 -21q8 -18 0 -34q-6 -14 -20 -21l-6 -2h-203h-205l-6 2 q-14 6 -21 21q-8 16 0 34q2 6 117 138l123 143q94 123 127 276q12 61 12 144q0 109 -18 205q-57 281 -297 360q-84 29 -188.5 32t-196.5 -20q-72 -20 -109 -41q-178 -92 -227 -331q-18 -96 -18 -205q-2 -70 12 -144q29 -152 125 -276q12 -14 125 -143q115 -131 116 -138 q8 -18 0 -34q-6 -14 -20 -21l-6 -2h-203h-205l-6 2q-14 6 -20 21q-8 16 0 34q6 14 20 21l6 4h152l149 2l-80 90q-84 96 -118 143q-66 98 -94 191q-45 137 -37 307z" />
<glyph unicode="&#xa7;" horiz-adv-x="1001" d="M55.5 829.5q-4.5 20.5 7.5 36.5q7 11 19 13q6 4 420 4h413l5 -4q14 -6 20 -21q4 -6 4 -18.5t-4 -18.5q-6 -14 -20 -20l-5 -2l-90 -2h-90v-383v-383l-4 -6q-6 -14 -20 -21q-16 -8 -35 0q-14 6 -21 21l-2 6l-2 383v383h-151h-154v-383v-383l-4 -6q-6 -14 -20 -21 q-16 -8 -35 0q-14 6 -21 21l-2 6l-2 383v383h-88l-90 2l-6 2q-18 8 -22.5 28.5z" />
<glyph unicode="&#xab;" horiz-adv-x="780" d="M233 1075q-29 31 0 60q4 4 177.5 137t189.5 143q0 2 4 2l4 2q14 6 33 -2q18 -10 22.5 -29.5t-10.5 -35.5q-6 -6 -186 -144.5t-186 -140.5q-4 -2 -17 -2q-20 0 -31 10z" />
<glyph unicode="&#xad;" horiz-adv-x="780" d="M154 1276q6 43 49 49q41 10 69 -18q23 -25 17 -59t-33 -48q-35 -20 -72 0q-45 23 -30 76zM487 1276q11 43 50 49q45 10 69 -18q23 -25 17.5 -59t-31.5 -48q-37 -20 -74 0q-41 20 -31 76z" />
<glyph unicode="&#xbb;" horiz-adv-x="780" d="M53 1380q0 29 29 39q12 6 31 -2q8 -2 141 -127l133 -125q61 55 135 125q125 121 140 127q18 8 36 0q18 -10 22.5 -29.5t-9.5 -35.5q-2 -6 -152 -144q-147 -139 -153 -141q-18 -8 -35 0q-8 2 -156 141q-35 33 -73 69t-57 54.5t-22 20.5q-10 14 -10 28z" />
<glyph unicode="&#xbf;" horiz-adv-x="1447" d="M55 1372q9 17 29 27q31 0 45 -4q76 -18 121 -109q33 -74 45 -162q10 -88 10 -186q2 -98 12 -154q37 -176 181 -239q63 -29 168 -39h14v432l2 432l2 4q6 14 21 21q18 8 34 0q14 -6 21 -21l4 -4v-432v-432h14q297 20 348 278q10 43 13 154q2 119 10 186q12 88 45 162 q55 113 152 113q16 0 20 -4q14 -6 20 -21q8 -18 0 -35q-10 -20 -36 -24q-29 -2 -50 -23q-31 -29 -53 -110q-25 -100 -24 -256v-64q-14 -209 -125 -315q-111 -111 -310 -123l-24 -2v-195v-196l-4 -6q-6 -14 -21 -21q-16 -8 -34 0q-14 6 -21 21l-2 6l-2 196v195l-23 2 q-106 6 -194 45q-100 41 -166 137q-57 86 -70 215q-6 49 -6 105q0 166 -24 256q-23 82 -54 110q-20 20 -47 23q-23 4 -30 14q-18 18 -11 43z" />
<glyph unicode="&#xc0;" horiz-adv-x="1558" d="M111 1356q-5 33 28 43q6 2 643 2h637l4 -4q14 -6 21 -21q4 -6 4 -18v-10l-313 -678q-313 -680 -318 -684q-6 -16 -20 -23q-16 -8 -35 0q-14 6 -21 23q-23 45 -317 684q-309 670 -313 686zM219 1313l561 -1209q557 1203 559 1209q0 4 -559 4q-561 0 -561 -4z" />
<glyph unicode="&#xc1;" horiz-adv-x="2004" d="M2.5 -98.5q-4.5 20.5 7.5 35.5q7 10 19 14q6 2 977 2h968l6 -4q14 -6 21 -21q8 -18 0 -34q-6 -14 -21 -21l-6 -2h-973h-970l-6 2q-18 8 -22.5 28.5z" />
<glyph unicode="&#xc2;" horiz-adv-x="557" d="M150 1393q6 20 26 26q18 6 39 -4q14 -20 14 -22q2 -6 12.5 -147.5t8.5 -147.5q-4 -31 -39 -35q-33 -4 -43 31q-4 8 -12 147q-8 143 -6 152zM360 1393q11 20 27 26q20 6 39 -4q14 -14 14 -22q2 -6 12.5 -146.5t8.5 -148.5q-4 -31 -39 -35q-33 -4 -43 31q0 2 -1 15t-4 51 t-7 81q-8 143 -7 152z" />
<glyph unicode="&#xc3;" horiz-adv-x="557" d="M362 1393q7 20 27 26q18 6 39 -4q14 -20 14 -22q2 -6 12.5 -147.5t8.5 -147.5q-4 -31 -39 -35q-33 -4 -43 31q-4 8 -12 147q-8 143 -7 152z" />
<glyph unicode="&#xc4;" horiz-adv-x="290" d="M-63 -199q-2 59 26 119q39 76 143 148q19 14 29 16l4 2h8q25 -2 36.5 -24.5t-3.5 -43.5q-10 -10 -24 -18q-129 -96 -136 -182q0 -31 7 -56q12 -53 69 -69q14 -4 35 -5t29 1q37 10 82 75q12 20 39 21q10 0 16 -2q20 -8 25 -35q2 -14 -17 -41q-63 -84 -125 -100 q-31 -8 -69 -2q-76 8 -121 53q-51 53 -53 143z" />
<glyph unicode="&#xc5;" horiz-adv-x="1558" d="M168 501.5q-4 20.5 8 37.5q7 10 19 12q6 4 585 4h580l6 -4q14 -6 20 -21q2 -6 2.5 -18t-2.5 -18q-6 -14 -20 -21l-6 -2h-582h-581l-7 2q-18 8 -22 28.5zM711 156q10 43 49 49q45 10 69 -19q23 -25 18 -58.5t-32 -47.5q-37 -20 -74 0q-41 20 -30 76zM711 887q-6 31 8 55.5 t41 28.5q31 6 55 -6q41 -20 31 -78q-6 -29 -29.5 -42.5t-54.5 -6.5q-41 6 -51 49z" />
<glyph unicode="&#xff;" horiz-adv-x="1224" d="M166 698v666l2 8q9 17 29 27q573 0 591 -2q76 -8 134 -33q160 -72 184 -270q10 -76 4 -131q-12 -84 -57 -154q-35 -49 -88 -86q-125 -84 -336 -92q-18 -2 -205 -2h-174v-299v-299l-4 -6q-6 -14 -21 -21q-16 -8 -35 0q-14 6 -20 21l-2 6zM250 715h172h201q160 8 254 53 q43 25 65 43q86 76 86 207q0 147 -74 221q-61 64 -188 74q-12 2 -268 2h-248v-301v-299z" />
<glyph unicode="&#x178;" horiz-adv-x="569" d="M205 516v135q0 207 8 213l2 2q6 11 18 13q16 8 31 0q14 -6 21 -21l4 -6v-330q0 -326 4 -342q6 -39 16 -61q12 -23 29 -31q8 -2 24.5 -2t24.5 2q66 27 94 131q8 25 17 31q10 10 28.5 10t28.5 -10q20 -25 -4 -88q-43 -123 -143 -156q-57 -14 -103 4q-39 18 -59 49 q-23 29 -33 80q-6 29 -8 377z" />
<glyph unicode="&#x2000;" horiz-adv-x="769" />
<glyph unicode="&#x2001;" horiz-adv-x="1538" />
<glyph unicode="&#x2002;" horiz-adv-x="769" />
<glyph unicode="&#x2003;" horiz-adv-x="1538" />
<glyph unicode="&#x2004;" horiz-adv-x="512" />
<glyph unicode="&#x2005;" horiz-adv-x="384" />
<glyph unicode="&#x2006;" horiz-adv-x="256" />
<glyph unicode="&#x2007;" horiz-adv-x="256" />
<glyph unicode="&#x2008;" horiz-adv-x="192" />
<glyph unicode="&#x2009;" horiz-adv-x="307" />
<glyph unicode="&#x200a;" horiz-adv-x="85" />
<glyph unicode="&#x2010;" horiz-adv-x="667" d="M22.5 432q-4.5 21 8.5 35q6 10 18 14q6 2 240 2h235l6 -4q14 -6 21 -20q8 -16 0 -35q-6 -14 -21 -21l-6 -2h-235h-238l-6 2q-18 8 -22.5 29z" />
<glyph unicode="&#x2011;" horiz-adv-x="667" d="M22.5 432q-4.5 21 8.5 35q6 10 18 14q6 2 240 2h235l6 -4q14 -6 21 -20q8 -16 0 -35q-6 -14 -21 -21l-6 -2h-235h-238l-6 2q-18 8 -22.5 29z" />
<glyph unicode="&#x2012;" horiz-adv-x="667" d="M22.5 432q-4.5 21 8.5 35q6 10 18 14q6 2 240 2h235l6 -4q14 -6 21 -20q8 -16 0 -35q-6 -14 -21 -21l-6 -2h-235h-238l-6 2q-18 8 -22.5 29z" />
<glyph unicode="&#x2013;" horiz-adv-x="780" d="M84 1393q7 20 27 26q12 6 30 -2q14 -6 21 -20q4 -4 4 -31q4 -29 4 -43q20 -152 168 -172q14 -4 49 -4t51 4q49 6 80 25q35 20 53 49q35 51 37 141q2 31 13 43q12 12 30 12q12 0 19 -4q14 -6 20 -20q6 -10 2 -56q-6 -72 -33 -133q-39 -82 -124 -118q-33 -14 -91 -25 q-59 -4 -112 0q-55 8 -90 25q-86 37 -125 118q-12 18 -23 60q-20 80 -10 125z" />
<glyph unicode="&#x2014;" horiz-adv-x="780" d="M55.5 1114q-4.5 21 7.5 35q7 10 19 14q6 2 309 2h301l6 -4q14 -6 21 -20q8 -18 0 -35q-6 -14 -21 -21l-6 -2h-305h-303l-6 2q-18 8 -22.5 29z" />
<glyph unicode="&#x2018;" horiz-adv-x="557" d="M139 1147q0 102 43 172q25 45 62 72q27 22 45 28q37 10 53 -22q8 -16 0 -35q-6 -12 -25 -23q-63 -35 -86 -120q-6 -37 -6 -68v-29q2 -2 6 2q39 27 82 4q41 -20 31 -77q-10 -43 -53 -50q-47 -10 -94 21q-57 33 -58 125z" />
<glyph unicode="&#x2019;" horiz-adv-x="557" d="M211 1335.5q-6 28.5 8 53t41 30.5q20 4 53 0q90 -23 103 -119q2 -23 -2 -77q-10 -59 -33 -107q-33 -63 -80 -94q-18 -12 -37 -21q-35 -10 -51 23q-8 16 0 35q4 12 23 22q84 45 94 166q2 12 2 31.5t-2 21.5q0 2 -4 0q-4 -6 -31 -16q-31 -6 -54.5 8.5t-29.5 43z" />
<glyph unicode="&#x201c;" horiz-adv-x="346" d="M129 438v168q0 252 8 258l2 2q7 11 19 13q14 8 30 0q14 -6 21 -21l4 -6v-412v-409l-4 -6q-6 -14 -21 -21q-16 -8 -34 0q-14 6 -21 21l-2 6z" />
<glyph unicode="&#x201d;" horiz-adv-x="458" d="M-113 -178q0 29 25 39q18 8 35 0q12 -6 20 -19q0 -2 3 -9t5 -13q18 -84 70 -119q16 -10 39 -14q33 0 59 26q23 23 33 54q23 55 29 133v21.5v56t1 89t1 137.5v183v161v120t1 82.5t1 55v32v16.5v4q11 17 27 23q14 6 30 -2q14 -6 21 -21l4 -4v-467q0 -479 -6 -532 q-10 -88 -43 -148q-20 -47 -62 -76q-68 -43 -139 -20q-88 29 -131 135q-23 49 -23 76z" />
<glyph unicode="&#x201e;" horiz-adv-x="780" d="M166 1380q0 29 29 39q14 6 30 -2q4 -2 156 -135q35 -31 75 -67.5t60.5 -55t22.5 -20.5q6 -6 14 -19q10 -37 -23 -53q-18 -8 -34 0q-12 6 -156 137q-115 100 -158 144q-16 14 -16 32z" />
<glyph unicode="&#x202f;" horiz-adv-x="307" />
<glyph unicode="&#x205f;" horiz-adv-x="384" />
<glyph unicode="&#x25fc;" horiz-adv-x="880" d="M0 0v881h881v-881h-881z" />
<glyph unicode="&#xfb01;" d="M68 442.5q0 94.5 2 112.5q4 35 20 107q27 74 76 122q51 53 129 78q123 39 264 10q25 -6 27 -6l10 -4l10 19q2 4 23 51q21 43 39 49q12 6 30 -2q14 -6 21 -21q8 -16 2 -28l-25 -53q-23 -49 -22 -52q2 0 2 -2q16 -4 47 -39q49 -49 76 -122q16 -72 20 -107q2 -18 2 -112.5 t-2 -112.5q-4 -37 -20 -105q-27 -76 -76 -125q-51 -53 -129 -77q-123 -39 -264 -11q-25 6 -27 6l-10 5l-10 -19q-8 -20 -23 -49l-18 -37q-14 -18 -38 -15t-34 23q-8 16 -2 29l4 8q2 6 9 20.5t12 24.5q23 49 22 51q-2 0 -2 2q-16 4 -47 39q-49 49 -76 125q-16 68 -20 105 q-2 18 -2 112.5zM152 441.5q0 -70.5 2 -91.5q10 -125 67 -188q2 -2 7 -6t9.5 -7.5t7.5 -6.5t5 -3l2 -2l307 647l-8 2q-8 2 -19.5 4.5t-17.5 2.5q-17 4 -33 4q-47 6 -100 -2q-100 -14 -160 -72q-57 -63 -67 -188q-2 -23 -2 -93.5zM330 100l16 -4q109 -27 219 6q61 18 103 60 q57 63 67 188q2 23 2 93.5t-2 91.5q-6 96 -47 161q-20 29 -43 45l-8 7z" />
<glyph unicode="&#xfb02;" horiz-adv-x="1894" d="M113 57q4 8 440 665.5t442.5 664t18.5 12.5h372h365l6 -4q14 -6 21 -21q8 -18 0 -35q-6 -14 -21 -20l-6 -2l-342 -2h-342v-273v-272h287h286l5 -4q14 -6 20 -21q8 -16 0 -34q-6 -14 -20 -21l-5 -4h-286h-287v-301v-301h342h342l6 -4q14 -6 21 -21q8 -18 0 -34 q-6 -14 -21 -21l-6 -2h-369h-366l-8 2q-14 6 -23 23l-2 8v172v172h-278h-277l-121 -182q-29 -43 -60.5 -89.5t-47.5 -70.5l-17 -25q-10 -10 -28 -10q-12 0 -19 2q-37 18 -22 53zM483 465l250 -2h250v377v374l-250 -374z" />
<glyph unicode="&#xfb03;" horiz-adv-x="1894" d="M111 702q0 262 71 426q55 125 146 197q124 101 319 117q49 4 113 -2q100 -12 168 -58q27 -16 47 -36l12 -13v17q0 16 2 24q8 16 23 23l8 4h366h365l6 -4q14 -6 21 -21q8 -16 0 -35q-6 -14 -21 -20l-6 -4h-340h-340v-273v-272h285h284l5 -4q14 -6 20 -20q4 -6 4 -18.5 t-4 -18.5q-6 -14 -20 -21l-5 -2l-284 -2h-285v-299v-301h340h340l6 -4q14 -6 21 -21q8 -16 0 -34q-6 -14 -21 -21l-6 -4h-365h-366l-8 4q-16 6 -23 23q-2 6 -2 24v17l-12 -13q-27 -27 -47 -39q-88 -57 -217 -59q-168 -4 -295 64q-100 45 -170 141q-135 184 -135 538z M197 702q0 -125 10 -200q27 -184 112 -295q23 -33 64 -66q117 -92 297 -98q115 0 182 37q111 57 123 229q2 20 2 391t-2 392q-12 174 -123 231q-51 29 -129 35h-71q-96 -6 -177 -37q-33 -14 -71 -39q-88 -53 -144 -166q-47 -96 -63 -215q-10 -80 -10 -199z" />
<glyph unicode="&#xfb04;" horiz-adv-x="1337" d="M113 702q0 106 4 158q20 229 114 367q39 59 74 86q141 131 363 131q162 0 288 -74l15 -10l30 59l37 66q7 10 19 12q16 8 30 0q33 -16 23 -53l-6 -10q-6 -12 -14.5 -28.5t-16.5 -33.5l-35 -63l15 -17q131 -139 161 -387q8 -68 9 -203q0 -111 -4 -159q-20 -227 -115 -369 q-41 -57 -72 -86q-145 -129 -364 -129q-168 0 -289 74l-14 10l-31 -61q-35 -63 -39 -68q-10 -10 -31 -10q-12 0 -16 2q-35 16 -23 51l37 74l35 63l-14 15q-131 139 -162 389q-8 66 -8 204zM197 700.5q0 -77.5 2 -104.5q12 -215 82 -340q43 -74 57 -82q135 250 297 557 q295 555 293 557q-4 2 -24.5 13.5t-29.5 15.5q-79 35 -167 41q-172 12 -301 -74q-47 -29 -82 -74q-23 -31 -60 -94q-53 -123 -65 -309q-2 -29 -2 -106.5zM408 115q23 -16 53 -29q111 -51 246 -41q174 12 278 117q35 37 70 94q70 123 82 340q2 29 2 106.5t-2 104.5 q-12 186 -66 309q-34 66 -63 101l-11 10q-135 -250 -297 -555q-295 -555 -292 -557z" />
</font>
</defs>
</svg>
