<?xml version="1.0" standalone="no"?>
<!DOCTYPE svg PUBLIC "-//W3C//DTD SVG 1.1//EN" "http://www.w3.org/Graphics/SVG/1.1/DTD/svg11.dtd" >
<svg xmlns="http://www.w3.org/2000/svg" xmlns:xlink="http://www.w3.org/1999/xlink" version="1.1">
<metadata></metadata>
<defs>
<font id="mtdbt2f4d-11" horiz-adv-x="890" >
<font-face units-per-em="2048" ascent="1638" descent="-410" />
<missing-glyph horiz-adv-x="614" />
<glyph unicode="&#x2019;&#x2019;" horiz-adv-x="1001" d="M66 1004v6q0 18 22 41q12 12 21 18q4 2 9 6t11 10.5t10 8.5q61 55 74 125q2 27 -4 34q-31 31 -49 56l-4 2l-13 -11q-20 -16 -30 -16q-8 0 -33 25l-12 12v6q0 18 14 35q28 37 63 55q14 8 23 0q12 -8 46 -44t46 -52q12 -12 12 -33q-2 -51 -28 -106q-45 -86 -127 -154 q-41 -35 -49 -27zM457 1001q-2 6 0 19q8 20 37 45q43 33 73 72q31 45 35 96v14l-6 8q-2 4 -8 10.5t-15.5 15.5t-15.5 17l-12 13l-13 -11q-20 -16 -30 -16q-8 0 -33 25l-12 12v6q0 18 14 35q29 37 64 55q14 8 24 -2q39 -33 88 -92q14 -16 15 -35q-6 -88 -78 -182 q-25 -31 -66 -66.5t-53 -40.5q-6 0 -8 2z" />
<glyph unicode="&#x21;&#x2018;" horiz-adv-x="557" d="M211 924v8q0 16 14 33q8 14 30 32.5t34 24.5q8 4 12 4q8 0 33 -25l12 -12v-8q0 -23 -35 -53q-45 -41 -55 -41q-8 0 -33 24zM248 125q0 518 4 526q8 31 37 45q12 6 16 2q2 -4 2 -520q0 -518 -2 -526q-14 -35 -39 -45q-12 -6 -14 -2q-4 4 -4 520z" />
<glyph unicode="&#x3f;&#x2018;" horiz-adv-x="946" d="M113 -45q18 150 206 305q35 27 70 62q63 68 78 133q2 12 4 104v40v27.5t1 15.5t1 9v2q16 31 39 43q14 8 16 2q2 -4 2 -92q-2 -98 -12 -133q-25 -88 -110 -180q-18 -20 -109 -96q-23 -18 -72 -68q-55 -70 -57 -139v-13l4 -10q12 -18 131 -127q172 -147 207 -164 q10 -4 25 -4q55 4 104 37q61 43 125 152q2 4 6 11t7 12t5 7q20 33 41 37q4 0 6 -2q6 -6 -10 -39q-150 -262 -315 -282q-31 -6 -45 2q-43 20 -205 164q-125 111 -143 143q-4 16 0 41zM432 924v8q0 12 17 33q24 37 61 57l12 4q8 0 33 -25l14 -12l-2 -8q0 -20 -32 -53 q-45 -41 -58 -41q-8 0 -33 24z" />
<glyph unicode="&#x2018;&#x2018;" horiz-adv-x="1001" d="M338 1133q8 111 111 219q58 61 81 67q10 6 11 0q6 -6 0 -18q-6 -20 -35 -45q-51 -39 -74 -72q-31 -45 -35 -96v-12l4 -9q16 -20 41 -45l13 -12l12 10q20 16 31 17q8 0 32 -25l15 -12l-2 -6q0 -25 -35 -56q-39 -39 -57 -39q-6 0 -37 31q-68 68 -74 84q-2 6 -2 19z M727 1133q2 53 31 106q37 82 123 152q37 26 41 28t6 2q6 0 6 -10q0 -18 -23 -41q-12 -12 -20 -18q-16 -12 -29 -25q-63 -57 -76 -125q-2 -27 5 -35q31 -31 49 -55l4 -2l12 10q20 16 33 17q8 0 33 -25l12 -12v-6q0 -25 -35 -56q-43 -39 -57 -39q-2 0 -11 5q-53 45 -92 96 q-12 14 -12 33z" />
<glyph unicode="&#x2d;&#x2d;" horiz-adv-x="1001" d="M2 514q-2 6 0 18q14 36 39 46l6 4h475h475l2 -2q2 -6 0 -19q-14 -35 -38 -45l-7 -4h-475h-475z" />
<glyph unicode="&#x7b;&#x2d;" horiz-adv-x="2004" d="M2 514q-2 6 0 18q14 36 39 46l6 4h977h977v-2q6 -6 0 -19q-8 -31 -37 -45l-8 -4h-975h-977z" />
<glyph unicode="ff" horiz-adv-x="1015" d="M2 815q-2 6 0 19q14 35 39 45l6 4h74h74v123q0 129 10 149q16 31 106 141q92 113 123 123q10 6 45 -2q61 -16 115 -96q51 -80 51 -94q0 -12 -14.5 -31.5t-28.5 -26.5q-8 -4 -11 -2t-13 23q-43 80 -76 113q-41 41 -90 47l-9 2l-8 -6q-53 -53 -135 -160l-6 -12v-146v-145 h221h221v123q0 129 11 149q14 33 106 141q98 119 123 123q33 10 70 -12q53 -25 108 -115q31 -57 31 -65q0 -12 -14.5 -31.5t-26.5 -26.5q-10 -4 -12 -2t-13 23q-43 80 -75 113q-41 41 -91 47l-10 2l-8 -6q-92 -100 -133 -160l-6 -12v-146v-145h123h122l3 -4q2 -6 0 -17 q-14 -39 -39 -45l-7 -4h-102h-100v-379q0 -377 -4 -385q-8 -31 -37 -45q-12 -6 -17 -2q-2 4 -2 408v403h-221h-221v-379q0 -377 -2 -385q-14 -35 -39 -45q-12 -6 -14 -2q-4 4 -4 408v403h-95h-96z" />
<glyph unicode="fl" horiz-adv-x="903" d="M2 815q-2 6 0 19q14 35 39 45l6 4h74h74v127l2 127l2 8q18 49 139 217q110 154 151 172q14 6 70 -4q102 -20 180 -98l17 -15v-680q0 -680 -4 -688q-8 -31 -37 -45q-12 -6 -17 -2q-2 4 -2 680v674l-10 8q-94 90 -211 100q-16 2 -18 0q-14 -12 -101 -131q-66 -92 -92 -137 l-10 -16v-150v-147h123h125v-4q6 -6 0 -17q-2 -12 -14.5 -26.5t-22.5 -18.5l-8 -4h-103h-100v-379q0 -377 -2 -385q-14 -35 -39 -45q-12 -6 -14 -2q-4 4 -4 408v403h-95h-96z" />
<glyph unicode="&#xb8;i" horiz-adv-x="1404" d="M2 815q-2 6 0 19q14 35 39 45l6 4h74h74v123q0 129 10 149q16 31 106 141q98 117 125 123q31 10 68 -12q57 -25 108 -115q33 -61 33 -65q0 -12 -14.5 -31.5t-28.5 -26.5q-8 -4 -11 -2t-13 23q-43 80 -76 113q-41 41 -90 47l-9 2l-8 -6q-53 -53 -135 -160l-6 -12v-146 v-145h221h221v127l2 127l4 8q18 41 103 137q143 158 182 174q10 4 41 2q51 -6 96 -28q51 -27 107 -78l31 -31q8 -4 20 -16l14 -13l-2 -8q0 -23 -34 -53q-41 -41 -56 -41q-8 0 -33 24l-12 13v8q0 10 15 35l8 10l-13 12q-84 78 -165 92q-4 2 -15.5 3.5t-15.5 1.5l-17 2l-8 -7 q-20 -16 -93 -95t-95 -107l-4 -8v-146v-145h248h247l2 -4q2 -2 2 -412t-2 -418q-14 -35 -39 -45q-10 -8 -14 -2q-2 4 -2 408v403h-221h-221v-379q0 -377 -4 -385q-8 -31 -37 -45q-12 -6 -17 -2q-2 4 -2 408v403h-221h-221v-379q0 -377 -2 -385q-14 -35 -39 -45 q-12 -6 -14 -2q-4 4 -4 408v403h-95h-96z" />
<glyph unicode="&#xb8;l" horiz-adv-x="1404" d="M2 815q-2 6 0 19q14 35 39 45l6 4h74h74v123q0 129 10 149q16 31 106 141q98 117 125 123q31 10 68 -12q57 -25 108 -115q33 -61 33 -65q0 -12 -14.5 -31.5t-28.5 -26.5q-8 -4 -11 -2t-13 23q-43 80 -76 113q-41 41 -90 47l-9 2l-8 -6q-53 -53 -135 -160l-6 -12v-146 v-145h221h221v127l2 127l2 8q18 49 140 217q110 156 149 172q16 6 72 -4q98 -20 180 -98l14 -15v-680q0 -680 -2 -688q-14 -35 -39 -45q-10 -8 -14 -2q-2 4 -2 680v674l-10 8q-94 90 -211 100q-16 2 -21 0q-27 -27 -98 -131q-76 -104 -94 -137l-8 -16v-150v-147h123h122 l3 -4q2 -6 0 -17q-14 -39 -39 -45l-7 -4h-102h-100v-379q0 -377 -4 -385q-8 -31 -37 -45q-12 -6 -17 -2q-2 4 -2 408v403h-221h-221v-379q0 -377 -2 -385q-14 -35 -39 -45q-12 -6 -14 -2q-4 4 -4 408v403h-95h-96z" />
<glyph horiz-adv-x="0" />
<glyph unicode="&#xd;" horiz-adv-x="681" />
<glyph unicode=" "  horiz-adv-x="614" />
<glyph unicode="&#x09;" horiz-adv-x="614" />
<glyph unicode="&#xa0;" horiz-adv-x="614" />
<glyph unicode="!" horiz-adv-x="557" d="M211 37v6q0 18 14 35q25 35 64 55q4 4 12 4t33 -24l12 -13v-6q0 -25 -35 -55q-43 -39 -55 -39q-8 0 -33 25zM248 848q0 516 4 524q8 31 37 45q12 6 16 2q2 -4 2 -520t-2 -524q-14 -39 -39 -45q-12 -6 -14 -2q-4 2 -4 520z" />
<glyph unicode="#" horiz-adv-x="1558" d="M113 281q-2 6 0 18q14 35 39 45l6 4h182h182v166v164h-205h-202l-2 2q-2 6 0 18q14 35 39 45l6 5h182h182v188q0 188 2 197q14 35 39 45q12 6 15 0q2 -2 2 -217v-213h200h197v188q0 188 4 197q8 31 37 45q12 4 16 0q2 -2 2 -217v-213h203h205v-5q6 -6 0 -16 q-2 -12 -14.5 -26.5t-22.5 -18.5l-8 -4h-180h-183v-164v-166h203h205v-2q6 -6 0 -18q-8 -31 -37 -45l-8 -4h-180h-183v-189q0 -188 -2 -196q-14 -35 -39 -46q-12 -6 -14 -2q-4 4 -4 217v216h-197h-200v-189q0 -188 -2 -196q-14 -35 -39 -46q-10 -8 -15 -2q-2 4 -2 217v216 h-205h-202zM580 348h200h197v166v164h-197h-200v-164v-166z" />
<glyph unicode="$" horiz-adv-x="1001" d="M115 160q-8 10 2 28q20 33 43 41q6 0 26 -22q137 -150 291 -174h4v309v311l-32 11q-98 31 -132 45q-35 18 -65 43q-41 33 -78 88q-41 72 -41 145q0 49 150 184q137 121 190 162l8 6v72q0 70 4 78q2 12 14.5 26.5t22.5 18.5q12 6 17 2q2 -2 2 -88v-84h14q135 -10 262 -113 q29 -23 29 -28q0 -16 -19.5 -39t-33.5 -23q-8 4 -21 15q-111 90 -209 108q-4 2 -12 4l-8 2h-2v-284v-283l10 -4q18 -6 61 -19q14 -6 37 -13t27 -9q92 -39 150.5 -122t64.5 -181q0 -20 -4 -29q-14 -45 -119 -149q-147 -150 -213 -199l-14 -10v-72q0 -72 -2 -80 q-6 -16 -22.5 -32.5t-27.5 -16.5q-6 0 -7 11t-1 79v84h-14q-152 8 -293 137q-53 53 -59 64zM190 1034l3 -16q10 -96 81 -172q4 -4 14.5 -13.5t14.5 -11.5q39 -33 90 -53q2 0 35 -11.5t51 -15.5l2 -2v275v274q-10 0 -37 -26q-45 -35 -135 -114t-108 -104zM541 332 q0 -299 2 -299q8 6 43 33q162 145 235 233l10 12v13q-10 106 -69 180q-25 35 -57 55q-52 41 -130 64l-32 12q-2 0 -2 -303z" />
<glyph unicode="%" horiz-adv-x="1337" d="M117 963q-10 29 10 75q35 70 80 152q53 92 79 127t46 43q14 6 20 -4q18 -18 88 -139q66 -119 80 -154q10 -29 -10 -78q-14 -29 -82 -151q-70 -125 -100 -152q-16 -20 -31 -20q-6 0 -12 6q-16 14 -88 139q-68 119 -80 156zM170 1034q8 -37 119 -225q41 -70 45 -70 q25 41 53 90q82 145 80 160q-6 27 -80 160q-14 23 -29.5 48.5t-23 39t-15.5 25.5l-16 22q-4 0 -53 -88q-82 -150 -80 -162zM223 4q-2 8 4 25q2 2 55.5 81.5t162 244.5t206.5 311q330 496 381.5 570.5t63.5 80.5q10 6 16 0q2 -6 -4 -23q-4 -8 -421 -634.5t-423 -632.5 q-14 -16 -24.5 -22.5t-16.5 -0.5zM815 260q-8 27 10 76q16 37 82 151q86 154 123 170q14 6 21 -4q16 -14 88 -139q66 -119 80 -154q10 -31 -11 -75q-27 -57 -80 -152q-70 -125 -102 -153q-14 -16 -31 -21q-6 0 -12 6q-23 27 -88 139q-70 127 -80 156zM868 332 q6 -33 119 -226q41 -70 45 -69q2 0 53 90q82 145 80 162q-6 25 -80 160q-34 61 -67 110l-17 25q-25 -43 -53 -90q-82 -150 -80 -162z" />
<glyph unicode="&#x26;" horiz-adv-x="1337" d="M112 272.5q-3 10.5 1 36.5q14 174 176 338q63 63 160 137q6 4 13 10.5t11 8.5l4 4q0 2 -2 6t-6 9t-10 14q-119 170 -125 221q-2 20 21.5 59t97.5 135q96 121 118 142q25 22 37 26q14 4 29 -10q18 -16 67.5 -72.5t63.5 -76.5q10 -14 10 -37q-6 -139 -108 -273 q-45 -61 -88 -100l-19 -16l10 -15q12 -16 32 -41.5t36 -48.5l184 -235q4 0 15 28q55 115 82 156q102 166 235 196q29 8 55 9q8 0 11 -4q2 -6 0 -17q-14 -37 -39 -45q-6 -4 -25 -4q-76 -6 -131 -53q-66 -55 -129 -201q-45 -84 -45 -100q0 -2 143 -176q66 -78 131 -144 q61 -61 86 -67q12 -6 9 -23q-12 -31 -41 -47q-4 -2 -13 -2q-29 2 -98 76q-76 76 -231 268l-23 27l-8 -17q-102 -227 -225 -307q-57 -39 -125 -45q-33 -4 -62 14q-39 25 -138 110t-126 116q-18 20 -21 30.5zM170 328q12 -20 160 -148q94 -80 137 -104q8 -4 27 -4q63 0 114 39 q29 18 58 55q51 70 112 209l13 31l-15 16q-223 284 -250 321l-24 33q0 4 -17 -10q-33 -25 -51 -39q-76 -57 -135 -117q-96 -96 -121 -200q-16 -66 -8 -82zM393 1114q-4 -14 23 -63q59 -98 119 -177l8 -14l20 19q125 117 150 237q6 35 6 60q0 10 -6 20q-20 27 -60 72 q-32 38 -67 73l-11 9q-6 0 -94 -113q-86 -109 -88 -123z" />
<glyph unicode="(" horiz-adv-x="724" d="M137 486.5q0 68.5 2 95.5q12 197 64 366q90 293 284 494q78 78 111 94q8 4 10 -2t0 -16q-8 -23 -43 -52q-147 -121 -239 -309q-86 -180 -117 -405q-12 -104 -12 -211q0 -96 6 -154q35 -406 252 -680q66 -78 123 -125q33 -29 32 -33q0 -16 -18.5 -38.5t-32.5 -22.5 q-4 0 -41 31.5t-59 58.5q-162 170 -244 412q-61 176 -76 401q-2 27 -2 95.5z" />
<glyph unicode=")" horiz-adv-x="724" d="M111 1479q2 2 6 18q4 8 18.5 22.5t18.5 14.5l8 4q16 0 102 -90q164 -176 242 -412q61 -176 76 -399q2 -29 2 -97.5t-2 -95.5q-2 -8 -3 -28.5t-1 -28.5q-41 -463 -310 -766q-57 -63 -114 -110q-37 -29 -41 -19q-4 4 4 25q10 16 41 43q131 109 213 262q123 215 147 510 q6 57 6 153.5t-6 153.5q-35 408 -252 678q-70 82 -123 127q-10 8 -26 24q-6 4 -6 11z" />
<glyph unicode="*" horiz-adv-x="1001" d="M139 870q4 23 23 37q18 18 157 103l121 73l-6 4q-4 0 -145 89q-139 84 -146 90q-4 4 -4 10q2 4 6 16q20 37 43 41q6 0 144 -84l139 -84v160v45.5v35.5v27.5v20.5t1 14.5t1 10.5v6v4v2q16 31 39 43q8 4 10 4q6 0 8 -102v-101v-196l158 96q158 98 164 98t6 -2q4 -4 4 -6 q0 -8 -12 -29q-10 -16 -96 -69q-37 -23 -60 -37l-133 -80l6 -4q2 0 21.5 -12.5t55.5 -34t71 -41.5q139 -90 143 -90q4 -6 0 -20.5t-21.5 -32t-27.5 -17.5q-63 37 -139 86l-140 84v-160q-2 -139 -3 -152.5t-9 -27.5q-23 -33 -41 -33q-4 0 -4 4t-2 199v197l-158 -99 q-158 -92 -163 -98q-10 0 -11 12z" />
<glyph unicode="+" horiz-adv-x="1558" d="M113 481q-2 6 0 17q14 39 39 45l6 4h297h295v289q0 289 2 297q14 35 39 45q12 4 14 0q4 -2 4 -316v-315h315h320v-2q6 -6 0 -19q-8 -31 -37 -45l-8 -4h-295h-295v-287q0 -289 -4 -296q-8 -31 -37 -46q-12 -6 -16 -2q-2 4 -2 318v313h-318h-317z" />
<glyph unicode="," horiz-adv-x="557" d="M209 -272q0 18 22 41q12 12 21 18l31 25q61 55 73 125q2 27 -4 34q-31 31 -49 56l-4 2l-12 -11q-20 -16 -31 -16q-8 0 -33 25l-12 12v6q0 18 14 35q29 37 64 55q14 8 22 0q12 -8 46 -44t46 -52q12 -12 13 -33q-2 -51 -29 -106q-45 -86 -127 -154q-41 -35 -49 -27l-2 2v7z " />
<glyph unicode="-" horiz-adv-x="667" d="M23 410q-2 6 0 18q13 35 38 45l7 4h241h242v-2q6 -6 0 -18q-8 -31 -37 -45l-8 -4h-242h-239z" />
<glyph unicode="." horiz-adv-x="557" d="M211 37v6q0 18 14 35q25 35 64 55q4 4 12 4t33 -24l12 -13v-6q0 -25 -35 -55q-43 -39 -55 -39q-8 0 -33 25z" />
<glyph unicode="/" horiz-adv-x="1001" d="M113 -498q0 8 362.5 997.5t366.5 997.5q7 25 32 35q10 8 17 0v-10q-2 -6 -363.5 -994.5t-365.5 -1000.5q-14 -25 -35 -37q-10 -6 -14 2q-2 2 0 10z" />
<glyph unicode="0" horiz-adv-x="946" d="M111 633q0 336 2 340q0 14 20 43q33 49 170 186q143 146 182 160q14 4 43 -16q35 -27 121 -115q156 -152 180 -197l5 -8v-336v-342q0 -4 -21 -43q-37 -51 -172 -186q-152 -154 -188 -160q-14 0 -35 16q-27 18 -123 115q-154 154 -178 197l-4 10zM170 356l2 -6 q12 -23 76 -90q80 -88 186 -186q12 -12 53 -43q6 -2 11 0q35 20 129 119q127 131 143 153l6 6v328v328l-4 8q-16 31 -170 188q-106 105 -135 123l-12 6q-6 2 -15 -2q-55 -49 -131 -125q-115 -117 -131 -139l-8 -10v-330v-328z" />
<glyph unicode="1" horiz-adv-x="946" d="M166 874q6 23 18 33q16 18 205 228.5t193 214.5q2 2 6 4t6 4q12 6 14 0q2 -2 2 -651.5t-2 -657.5q-4 -12 -15 -25.5t-22.5 -19.5t-15.5 -2q-2 2 -2 635v633l-174 -195q-174 -193 -182 -201q-16 -12 -25 -12q-6 0 -6 12z" />
<glyph unicode="2" horiz-adv-x="946" d="M113 4q-6 10 14 39q4 8 182 209q231 266 287 334q164 209 178 348q2 29 -2 37q-14 25 -74 90l-186 186q-39 33 -55 41q-6 4 -11 0q-20 -10 -127 -117q-145 -145 -153 -167q-8 -31 -37 -46q-14 -8 -16 0q-2 2 0 11q0 16 20 45q31 47 170 188q143 144 182 158q16 6 43 -14 q37 -31 121 -115q154 -154 180 -197q6 -18 5 -45q-18 -180 -218 -428q-18 -23 -268 -311l-158 -180h320h319l2 -2q2 -6 0 -19q-14 -35 -38 -45l-7 -4h-335h-336z" />
<glyph unicode="3" horiz-adv-x="946" d="M111 199q2 4 6 16q20 41 45 41q4 0 20 -20q137 -195 299 -207h13l8 4q37 29 133 125q94 96 133 139l8 12v88v88l-4 9q-16 31 -170 188q-94 92 -125 115q-18 14 -25.5 15t-58.5 1h-55l-4 4q-6 10 14 39q6 6 178 201l170 194h-262h-262l-2 2q-6 6 0 19q8 31 37 45l8 4h279 h280l2 -4q8 -10 -12 -39q-6 -6 -178 -201l-170 -192l43 -2h30t16 -3t10 -4.5t13 -9.5q35 -27 121 -114q156 -152 180 -197l5 -8v-96v-103q0 -4 -21 -43q-37 -51 -172 -186q-129 -133 -172 -154l-10 -4h-19q-96 0 -188 74q-47 33 -84 82q-27 31 -49 65q-8 10 -8 17z" />
<glyph unicode="4" horiz-adv-x="946" d="M88 416q0 2 115.5 447.5t118.5 451.5q13 31 36 43q8 4 11 4q8 0 8 -8q0 -2 -112.5 -436.5t-114.5 -440.5h198h199v174q0 174 2 183q14 35 39 45q12 4 14 0q4 -2 4 -203v-199h150h151l2 -4q2 -6 0 -16q-14 -39 -39 -45l-6 -4h-131h-127v-177q0 -174 -4 -182 q-8 -31 -37 -45q-12 -6 -16 -2q-2 4 -2 205v201h-228h-227l-2 2v2q-2 2 -2 4z" />
<glyph unicode="5" horiz-adv-x="946" d="M111 199q2 4 6 16q20 41 45 41q4 0 20 -20q137 -195 299 -207h13l8 4q37 29 133 125q94 96 133 139l8 12v88v88l-4 9q-16 31 -170 188q-119 115 -145 129q-8 2 -23 2q-76 -6 -141 -57q-27 -18 -74 -74q-18 -25 -35 -37q-14 -6 -14 0q-4 4 -4 313l2 310l6 12q2 6 16 23 q4 2 11 8q6 6 8 6l6 4h279h280l2 -4q2 -6 0 -17q-14 -39 -39 -45l-6 -4h-254h-252v-256v-256l19 19q111 113 227 125q31 2 57 -17q35 -27 121 -114q156 -152 180 -197l5 -8v-96v-103q0 -4 -21 -43q-37 -51 -172 -186q-129 -133 -172 -154l-10 -4h-19q-96 0 -188 74 q-47 33 -84 82q-27 31 -49 65q-8 10 -8 17z" />
<glyph unicode="6" horiz-adv-x="946" d="M111 633q0 336 2 340q0 14 20 43q33 49 170 186q143 146 182 160h43q133 -12 252 -131q31 -29 51 -55q2 -6 0 -19q-4 -14 -21 -31.5t-28 -17.5q-4 0 -14 16q-41 41 -78 74q-111 86 -219 94q-23 2 -39 -12q-31 -25 -113 -106q-111 -111 -145 -156l-4 -6v-213v-215l16 18 q43 49 117 121q152 154 191 160q14 0 34 -17q35 -27 121 -114q156 -152 180 -197l5 -8v-96v-103q0 -4 -21 -43q-37 -51 -172 -186q-152 -154 -188 -160q-14 0 -35 16q-27 18 -123 115q-154 154 -178 197l-4 10zM170 356l2 -6q12 -23 76 -90q80 -88 186 -186q12 -12 53 -43 q6 -2 11 0q35 20 129 119q127 131 143 153l6 6v88v88l-4 9q-16 31 -170 188q-106 105 -135 123l-12 6q-6 2 -15 -2q-55 -49 -131 -125q-115 -117 -131 -139l-8 -10v-91v-88z" />
<glyph unicode="7" horiz-adv-x="946" d="M111 1145l2 121l4 12q4 12 18 22q9 13 19 17l6 2h362h365l2 -4q2 -2 0 -10q0 -8 -219 -635q-221 -633 -224 -637q-25 -37 -40 -33q-2 0 -7 4v10q0 2 98.5 286t208 598t119.5 345l2 6h-329h-328v-86q0 -86 -4 -94q-4 -16 -21.5 -32.5t-27.5 -16.5q-6 0 -6 125z" />
<glyph unicode="8" horiz-adv-x="946" d="M111 315q0 20 2 27q6 33 90 127q137 143 194 195l19 16q-8 6 -16.5 14t-45.5 48t-63 67q-121 135 -133 168q-2 6 0 16q8 43 153 203q141 156 176 166q12 0 19 -2q27 -14 147 -146q125 -139 135 -167v-17q-6 -31 -69 -106q-82 -96 -162 -181l-29 -28l4 -4q37 -31 138 -131 q133 -135 159 -177q4 -10 5 -28q0 -29 -9 -45q-27 -55 -184 -211q-152 -154 -188 -160q-14 0 -35 16q-27 18 -123 115q-154 154 -178 197q-4 10 -6 28zM170 369q0 -18 16 -39q51 -63 158 -168q78 -78 90 -88q12 -12 53 -43q6 -2 11 0q35 20 129 119q127 131 143 153 q6 6 6 19q0 16 -16 38q-29 37 -158 168q-112 111 -135 123l-12 6q-6 4 -15 -2q-41 -31 -131 -125q-104 -104 -131 -139l-8 -10v-12zM215 1034q14 -27 45 -61q49 -59 146 -164q74 -78 88 -78q10 0 131 133q84 94 96 113q10 12 0 29q-39 53 -117 139q-112 120 -143 143 q-2 0 -6 2l-4 2q-4 0 -68 -63q-113 -121 -156 -178q-12 -14 -12 -17z" />
<glyph unicode="9" horiz-adv-x="946" d="M111 150q-2 12 16 35.5t33 27.5q6 0 18 -14q47 -51 78 -74q106 -88 217 -94q23 -4 41 12q31 25 113 107q127 131 143 153l6 6v213v215l-16 -18q-10 -10 -48 -49t-71 -72q-152 -154 -188 -160q-14 0 -35 17q-27 18 -123 114q-154 154 -178 197l-4 10l-2 94q0 98 2 103 q0 14 20 43q33 49 170 186q143 146 182 160q14 4 43 -16q35 -27 121 -115q156 -152 180 -197l5 -8v-336v-342q0 -4 -21 -43q-37 -51 -172 -186q-129 -133 -172 -154q-18 -10 -49 -4q-137 12 -254 129q-47 45 -55 60zM170 836l2 -7q12 -23 76 -90q80 -88 186 -186 q12 -12 53 -43q6 -2 11 0q35 20 129 119q127 131 143 153l6 6v89v88l-4 8q-16 31 -170 188q-106 105 -135 123l-12 6q-6 2 -15 -2q-55 -49 -131 -125q-115 -117 -131 -139l-8 -10v-90v-88z" />
<glyph unicode=":" horiz-adv-x="557" d="M211 37v6q0 18 14 35q25 35 64 55q4 4 12 4t33 -24l12 -13v-6q0 -25 -35 -55q-43 -39 -55 -39q-8 0 -33 25zM211 780v8q0 16 14 33q8 14 30 33t34 25q8 4 12 4q8 0 33 -25l12 -12v-8q0 -23 -35 -54q-45 -41 -55 -41q-8 0 -33 25z" />
<glyph unicode=";" horiz-adv-x="557" d="M209 -272q0 18 22 41q12 12 21 18l31 25q61 55 73 125q2 27 -4 34q-31 31 -49 56l-4 2l-12 -11q-20 -16 -31 -16q-8 0 -33 25l-12 12v6q0 18 14 35q29 37 64 55q14 8 22 0q12 -8 46 -44t46 -52q12 -12 13 -33q-2 -51 -29 -106q-45 -86 -127 -154q-41 -35 -49 -27l-2 2v7z M211 782v6q0 18 14 35q25 36 64 56q4 4 12 4t33 -25l12 -12v-6q0 -25 -35 -56q-43 -39 -55 -39q-8 0 -33 25z" />
<glyph unicode="=" horiz-adv-x="1558" d="M113 281q-2 6 0 18q14 35 39 45l6 4h643h643v-2q6 -6 0 -18q-8 -31 -37 -45l-8 -4h-643h-641zM113 680q-2 6 0 18q14 35 39 45l6 5h643h643v-5q6 -6 0 -16q-2 -12 -14.5 -26.5t-22.5 -18.5l-8 -4h-643h-641z" />
<glyph unicode="?" horiz-adv-x="946" d="M113 1100q-6 8 14 43q147 256 309 276q4 0 14.5 1t12.5 1q12 0 20 -4q47 -25 205 -162q125 -109 141 -143q6 -12 5 -35q-10 -90 -76 -178q-55 -72 -137 -137q-84 -68 -115 -121q-23 -35 -31 -86q-2 -8 -2 -92q0 -80 -2 -88q-4 -14 -21.5 -31.5t-27.5 -17.5q-6 0 -6 84 q0 102 8 133q8 33 25 65q31 63 96 131q37 37 80 72q100 82 127 139q16 33 24 84v15l-6 8q-16 25 -127 123q-172 147 -211 168q-14 6 -37 2q-66 -6 -131 -68q-41 -41 -94 -131q-20 -37 -39 -49q-12 -8 -18 -2zM377 37v6q0 14 14 35q21 30 64 55q6 4 12 4q8 0 33 -24l14 -13 l-2 -6q0 -25 -35 -55q-39 -39 -55 -39q-8 0 -33 25z" />
<glyph unicode="@" horiz-adv-x="1558" d="M111 674q0 31 39 86q53 84 241 295q150 166 236 254q116 117 161 131q18 6 35 -4q61 -31 240 -222q377 -397 385 -458q2 -33 -121 -217q-90 -131 -121 -162q-35 -33 -49 -25q-12 6 -96 103q-14 16 -15.5 22t-3.5 41v41l-12 -12q-31 -29 -102 -88q-139 -115 -168 -117 q-8 0 -17 2q-31 16 -165 148q-98 92 -117 129l-4 8v45q0 53 8 69q14 27 72 91q111 111 147 143q90 84 119 84q18 0 108 -72q14 -12 61.5 -51t53.5 -43l16 -16v59l2 59l3 9q23 39 47 45q4 0 6 -2t2 -256v-254l4 -7q12 -16 54 -62t46 -46q2 0 34 44t70 102.5t56 88.5 q23 37 23 43q-6 33 -103 146q-90 104 -260 285q-211 221 -262 239q-8 2 -12 -2q-10 -2 -45 -33q-55 -45 -144 -143q-152 -160 -258 -287q-111 -125 -133 -172q-4 -8 6 -30q39 -78 256 -318q135 -150 230 -246q90 -90 124 -106l13 -6h28q268 10 517 157q8 6 33.5 22.5 t37.5 24.5q23 14 27 10.5t4 -7.5q0 -16 -25 -41q-6 -8 -57 -43q-272 -182 -586 -193h-30l-13 6q-35 16 -125 107q-94 96 -229 245q-193 215 -244 295q-29 41 -28 62zM514 686l4 -6q23 -33 111 -119q139 -135 166 -145l6 -4l6 2q14 6 47 32q25 18 172 142l16 16v76 q0 76 -2 80q-12 18 -122 112q-93 78 -144 111l-12 6q-6 2 -10 -2q-8 -6 -50 -39q-143 -131 -176 -174l-12 -12v-39v-37z" />
<glyph unicode="A" horiz-adv-x="1224" d="M113 4q-2 2 0 10q0 6 237 697q236 684 244 698q13 21 31 29q12 6 14 2q2 -2 238.5 -690.5t236.5 -690.5q0 -10 -14.5 -29.5t-26.5 -25.5q-14 -8 -14 -2q-6 6 -72 205q-14 43 -33.5 98t-27.5 80l-11 27h-311h-311l-64 -181q-59 -178 -67 -190q-12 -27 -35 -39 q-10 -6 -14 2zM315 483l289 -2h287q0 2 -141 416q-33 94 -71 202.5t-56 162.5l-19 53v2l-18 -53q-18 -53 -56 -162t-71 -203z" />
<glyph unicode="B" horiz-adv-x="1224" d="M166 676l2 670l4 12q4 10 18 24q11 11 19 15l6 2h215h215l12 -6q47 -23 158 -107q231 -174 240 -207q2 -12 -6 -32q-27 -47 -199 -183q-123 -92 -141 -104l-13 -8l13 -9q63 -35 249 -186q139 -109 152 -141q2 -8 0 -15q-6 -39 -70 -92q-59 -57 -245 -200 q-113 -86 -156 -103l-12 -4l-230 -2h-227l-2 2q-2 4 -2 674zM225 70h221l222 2l14 6q51 31 190 137q35 29 78 62.5t47 37.5q51 43 52 47q-16 20 -29 33q-80 70 -186 152q-158 123 -205 143l-11 4h-196h-197v-313v-311zM225 764h205h207l14 6q53 31 209 150q90 68 125 102 l8 6l-14 14q-43 43 -215 175q-111 83 -158 106l-12 6h-184h-185v-282v-283z" />
<glyph unicode="C" horiz-adv-x="1337" d="M113 662q-1 5 -1 10q0 19 15 53q45 88 270 360q170 201 241.5 273t100.5 82q8 4 33 4q141 -6 275 -107q78 -57 153 -151q27 -33 23 -45q-6 -14 -22.5 -31.5t-26.5 -17.5q-6 0 -21 22q-78 94 -156 154q-131 96 -272 106h-18l-5 -4q-37 -25 -114 -113q-123 -135 -287 -339 q-100 -123 -125 -175q-6 -12 -6 -20q0 -4 23 -49q49 -80 260 -334q174 -205 229 -256q41 -41 57.5 -49t46.5 -4q123 8 244 98q72 55 139 139q31 39 39 41q10 4 15 0q2 -6 0 -16q-4 -12 -29 -45q-162 -203 -340 -264q-72 -23 -135 -23h-21l-10 4q-18 10 -57 49 q-68 66 -228 256q-268 322 -290 392z" />
<glyph unicode="D" horiz-adv-x="1280" d="M166 676l2 670l4 12q4 10 18 24q11 11 19 15l6 2h195h192l8 -4q57 -27 336 -357q184 -219 217 -290q4 -8 4 -23q0 -20 -20 -61q-45 -92 -266 -404q-170 -229 -219 -254l-9 -4l-241 -2h-242l-2 2q-2 4 -2 674zM225 70h232h231l12 10q39 39 209 276q141 201 181 273 q17 30 17 49q0 8 -3 14q-37 72 -209 277q-279 327 -334 356l-8 4h-164h-164v-629v-630z" />
<glyph unicode="E" horiz-adv-x="1114" d="M166 676l2 670l4 12q4 10 18 24q11 11 19 15l6 2h391h391l2 -2q2 -6 0 -19q-14 -35 -38 -45l-7 -4h-364h-365v-282v-283h330h330l2 -4q2 -6 0 -17q-14 -39 -39 -45l-6 -4h-310h-307v-311v-313h385h387l2 -2q2 -6 0 -19q-14 -35 -38 -45l-7 -4h-393h-391l-2 2q-2 4 -2 674 z" />
<glyph unicode="F" horiz-adv-x="1058" d="M166 676l2 670l4 12q4 10 18 24q11 11 19 15l6 2h391h391l2 -2q2 -6 0 -19q-14 -35 -38 -45l-7 -4h-364h-365v-297v-297h330h330l2 -4q2 -6 0 -16q-14 -39 -39 -45l-6 -4h-310h-307v-306q0 -303 -4 -311q-8 -31 -37 -45q-14 -8 -16 -2q-2 4 -2 674z" />
<glyph unicode="G" horiz-adv-x="1337" d="M111 678q8 70 251 356q254 299 340 373q46 33 58 35q5 2 18 2q19 0 56 -4q193 -25 366 -189q20 -18 22.5 -23t0.5 -18q-6 -14 -22.5 -31.5t-26.5 -17.5l-23 19q-45 45 -111 90q-145 96 -297 104q-20 0 -24 -4q-39 -20 -197 -196q-119 -135 -241 -285q-92 -117 -107 -152 q-8 -12 2 -30q31 -70 219 -287q305 -362 365 -387l8 -4h23q76 4 143 28q117 37 215 127l16 15v217v217h-221h-223l-2 4q-4 4 4 25q4 8 18.5 22t18.5 14l6 4h227h228l2 -4q2 -2 2 -237q0 -203 -1 -223.5t-12 -34.5q-20 -35 -116 -107q-168 -127 -355 -137h-22l-8 4 q-53 20 -291 297q-283 330 -307 399q-2 8 -2 19z" />
<glyph unicode="H" horiz-adv-x="1280" d="M166 673.5q0 667.5 2 676.5q14 39 39 45q12 6 14 2q4 -2 4 -334v-328h414h414v303q0 303 4 312q2 12 14 26.5t23 18.5q12 6 16 2q2 -2 2 -672q0 -668 -2 -676q-14 -35 -39 -45q-12 -6 -14 -2q-4 4 -4 334v330h-414h-414v-306q0 -303 -4 -311q-8 -31 -37 -45 q-12 -6 -16 -2q-2 4 -2 671.5z" />
<glyph unicode="I" horiz-adv-x="401" d="M170 673.5q0 667.5 2 676.5q14 39 39 45q12 6 14 2q4 -2 4 -672q0 -668 -4 -676q-8 -31 -37 -45q-12 -6 -16 -2q-2 4 -2 671.5z" />
<glyph unicode="J" horiz-adv-x="946" d="M117 399q20 37 43 41q6 0 6 -2q4 -4 4 -8q0 -10 20 -43q31 -51 117 -168t125 -160q29 -29 33 -28q23 25 43 49q12 14 58 76.5t63 83.5q55 78 84 127l6 12v483q0 481 4 490q8 31 37 45q14 8 16 2q2 -4 2 -492v-485l-4 -10q-25 -66 -190 -285q-74 -98 -111 -133 q-33 -34 -51 -34q-3 0 -6 1q-27 8 -164 197q-141 185 -141 223z" />
<glyph unicode="K" horiz-adv-x="1280" d="M166 673.5q0 667.5 2 676.5q14 39 39 45q4 4 10 4q4 0 4 -4q2 -12 4 -480v-479l439 469q100 109 214.5 232t171 184t58.5 63q14 14 27 15q6 0 6 -13q-6 -23 -19 -32q-4 -4 -198.5 -214t-200.5 -216l-6 -9l221 -419q49 -92 109.5 -206t89 -167t28.5 -55q4 -10 0 -19 q-6 -18 -25.5 -36.5t-27.5 -10.5q-102 193 -227 426l-226 426q-98 -104 -217 -233l-217 -232v-166q0 -166 -4 -174q-8 -31 -37 -45q-12 -6 -16 -2q-2 4 -2 671.5z" />
<glyph unicode="L" horiz-adv-x="1114" d="M166 673.5q0 667.5 2 676.5q14 39 39 45q12 6 14 2q4 -2 4 -666v-661h385h387l2 -2q2 -6 0 -19q-14 -35 -38 -45l-7 -4h-393h-391l-2 2q-2 4 -2 671.5z" />
<glyph unicode="M" horiz-adv-x="1392" d="M166 673.5q0 667.5 2 676.5q14 37 39 47l10 2q4 0 248 -324l246 -327q109 143 237 315q240 319 244 323q16 12 25 13q4 0 4 -2q4 -2 4 -672q0 -668 -4 -676q-4 -12 -15.5 -25.5t-23 -19.5t-15.5 -2v2q-2 133 -2 647v647l-231 -305q-53 -70 -114.5 -151.5t-91.5 -121.5 t-32 -42q-12 -12 -24 -12l-226 295l-221 294v-602q0 -598 -4 -606q-16 -33 -37 -43q-12 -6 -16 -2q-2 4 -2 671.5z" />
<glyph unicode="N" horiz-adv-x="1280" d="M166 673.5q0 667.5 2 676.5q14 37 39 47l10 2q4 0 420 -537l416 -536v512q0 504 4 516q16 35 37 41q12 6 16 2q2 -2 2 -672q0 -668 -2 -676q-6 -16 -23.5 -32.5t-25.5 -16.5q-6 0 -7 12.5t-1 85.5v92l-414 535l-414 535v-605q0 -600 -4 -608q-16 -33 -37 -43 q-12 -6 -16 -2q-2 4 -2 671.5z" />
<glyph unicode="O" horiz-adv-x="1337" d="M113 662q-1 4 -1 10q0 31 31 88q59 109 269 383q209 281 266 297q20 6 37 -6q63 -53 270 -332q170 -227 213 -307q27 -46 27 -69q0 -55 -172 -292q-131 -180 -201 -268q-160 -207 -211 -207q-5 0 -8 2q-57 31 -283 340q-221 297 -237 361zM176 705q41 -92 303 -439 q162 -213 205 -235q6 -2 10 0l19 18q57 57 252 320q139 186 182 262q16 29 18 39t-6 28q-41 92 -303 439q-162 213 -205 233l-6 4q-4 0 -37 -37q-61 -68 -237 -303q-133 -176 -183 -262q-16 -27 -17 -47q1 -11 5 -20z" />
<glyph unicode="P" horiz-adv-x="1224" d="M166 676l2 670l4 12q4 10 18 24q11 11 19 15l6 2h227h226l12 -4q39 -14 205 -142q213 -166 225 -202q2 -4 0 -13q-6 -37 -70 -94q-47 -45 -245 -199q-109 -82 -156 -104l-12 -4h-201h-201v-291q0 -289 -4 -297q-8 -31 -37 -45q-14 -8 -16 -2q-2 4 -2 674zM225 707h221 h222l14 8q47 27 190 135q90 74 125 102l52 45q0 4 -29 33q-66 59 -186 154q-160 125 -205 141l-11 4h-196h-197v-311v-311z" />
<glyph unicode="Q" horiz-adv-x="1337" d="M113 662q-1 4 -1 10q0 31 31 88q59 109 269 383q209 281 266 297q20 6 37 -6q63 -53 270 -332q170 -227 213 -307q27 -46 27 -69q0 -57 -191 -318q-129 -172 -160 -211l-24 -35l125 -180q29 -43 61.5 -91.5t51 -73t18.5 -26.5q6 -8 6 -14q0 -10 -13.5 -29.5t-27.5 -26.5 q-12 -6 -14 -2l-17 25q-16 25 -50 73t-64 91q-29 43 -63 91t-50 71l-16 24q0 2 -4 -4q-6 -6 -13 -12q-98 -119 -135 -119q-25 0 -131 125q-88 109 -240 319q-147 201 -161 259zM176 705q31 -76 230 -340q154 -207 223 -285q46 -50 58 -50q2 0 3 1q6 2 37 32q47 55 49 58 q0 4 -67 100q-68 98 -68 101q-6 14 21 45q10 12 19 17t13 -1l68 -94l67 -99q2 0 60 76q213 285 258 365q16 29 18 39t-6 28q-41 92 -303 439q-162 213 -205 233l-6 4q-4 0 -37 -37q-61 -68 -237 -303q-133 -176 -183 -262q-16 -27 -16 -47q0 -11 4 -20z" />
<glyph unicode="R" horiz-adv-x="1224" d="M166 676l2 670l4 12q4 10 18 24q11 11 19 15l6 2h227h226l12 -4q39 -14 205 -142q213 -166 225 -202q2 -4 0 -13q-6 -43 -106 -129q-174 -143 -259 -200q-8 -6 -8 -9q2 -2 184.5 -313t186.5 -315q6 -10 2 -23q-14 -35 -39 -45q-12 -6 -14 -2q-8 8 -195 330l-190 325 l-13 -4q-2 -2 -10 -6t-10 -6l-12 -4h-201h-201v-291q0 -289 -4 -297q-8 -31 -37 -45q-14 -8 -16 -2q-2 4 -2 674zM225 707h221h222l14 8q47 27 190 135q90 74 125 102l52 45q0 4 -29 33q-66 59 -186 154q-160 125 -205 141l-11 4h-196h-197v-311v-311z" />
<glyph unicode="S" horiz-adv-x="1169" d="M113 207q-4 4 4 24q20 37 43 41q6 0 22 -18q27 -29 78 -76q164 -139 340 -149h21l10 6q35 16 205 155q86 70 141 123l22 21v12q-8 90 -63 166q-63 86 -180 131q-29 12 -189 51q-145 37 -186 51q-106 39 -172 113t-76 164q-2 37 12 61q31 51 246 217q168 126 215 142 q6 2 31 2q150 -6 287 -107q31 -20 65 -55l12 -12v-6l-2 -2q0 -4 -2 -8.5t-2 -6.5q-20 -37 -43 -41q-4 0 -16 8q-12 14 -62 54q-137 100 -284 106h-19l-14 -6q-39 -20 -176 -123q-141 -106 -180 -143l-11 -10l3 -13q2 -39 18 -73q35 -78 111 -134q66 -47 139 -67q4 0 23.5 -6 t61.5 -16.5t70 -18.5q164 -39 191 -51q111 -45 178.5 -130t73.5 -188q0 -27 -12 -49q-27 -47 -216 -205q-203 -170 -247 -180q-8 -2 -31 -2q-123 6 -231 70q-66 39 -113 80q-80 70 -96 98z" />
<glyph unicode="T" horiz-adv-x="1224" d="M55 1333q-2 6 0 17q14 39 39 45l6 4h533h532v-2q6 -6 0 -19q-8 -31 -37 -45l-8 -4h-239h-240v-635q0 -637 -4 -645q-8 -31 -37 -45q-12 -6 -16 -2q-2 4 -2 666v661h-263h-262z" />
<glyph unicode="U" horiz-adv-x="1280" d="M166 858q0 485 2 494q14 35 39 45q12 6 14 2q4 -4 4 -488q0 -481 2 -487q20 -43 260 -260q137 -127 170 -133q6 -2 15 2q33 18 200 170q139 129 168 168l13 12v479q0 481 4 490q8 31 37 45q12 6 16 2q2 -4 2 -488q0 -487 -8 -508q-23 -51 -227 -241q-219 -203 -265 -203 h-2q-33 6 -174 135q-242 221 -266 271l-2 8z" />
<glyph unicode="V" horiz-adv-x="1224" d="M111 1341q0 10 14.5 30t26.5 26q14 8 14 2q2 -2 229 -660l226 -655q100 287 219 635q193 551 223 643q12 25 33 35q12 6 16 0q2 -2 0 -11q0 -6 -238 -696q-236 -684 -243 -698q-10 -16 -25.5 -26.5t-19.5 -4.5q-2 2 -238.5 690t-236.5 690z" />
<glyph unicode="W" horiz-adv-x="1781" d="M113 1337q-2 4 0 13q14 37 39 47q14 8 14 2l180 -647q41 -156 86 -318t68 -246l22 -82l19 70q20 72 67 244t84 305q166 616 172 629q8 18 27.5 35.5t26.5 9.5q80 -291 178 -647q45 -166 87 -323q41 -157 65 -241q23 -82 24 -82l172 621q166 610 174 633q23 41 45 41 q6 0 6 -8.5t-188 -692.5q-190 -696 -193 -698q-14 -33 -41 -41q-8 -2 -10 2l-20 80q-23 80 -70 252t-86 315l-178 643q0 2 -22.5 -78.5t-63.5 -233.5t-84 -308q-168 -623 -174 -629q-4 -12 -16.5 -25.5t-21.5 -17.5t-14 0q-2 4 -187 685t-187 691z" />
<glyph unicode="X" horiz-adv-x="1224" d="M113 2q-6 8 4 25l231 338q227 332 227 333q-94 139 -210 308q-211 305 -220 319q-8 8 -8 14q0 10 14.5 30t26.5 26t17 2l26 -39q27 -39 83 -121t106 -152l215 -313l6 6q6 8 27.5 39t62.5 89.5t113 164.5q160 233 191.5 276.5t41.5 47.5q14 8 16 2q6 -8 -4 -23 q0 -4 -217 -319q-215 -311 -215 -314q104 -154 232 -338q231 -336 233 -337q0 -6 -2 -17q-14 -35 -39 -45q-12 -6 -18 4q-12 12 -232 334l-225 328q-90 -131 -197 -289q-47 -66 -101 -145.5t-85 -123.5t-37 -53q-35 -47 -47 -55q-14 -8 -16 -2z" />
<glyph unicode="Y" horiz-adv-x="1224" d="M111 1339q0 10 14 30t26.5 26t14.5 2q8 -8 229 -391l230 -390q102 168 223 377q215 369 231 389q25 25 33 15q2 -6 0 -17l-31 -53q-31 -53 -90 -154.5t-117 -197.5l-233 -400v-258q0 -260 -2 -268q-14 -35 -39 -45q-10 -8 -14 -2q-2 4 -2 266v262l-219 373 q-227 387 -236 402q-18 29 -18 34z" />
<glyph unicode="Z" horiz-adv-x="1224" d="M113 4q-6 4 4 21q0 2 448 657l447 647h-434h-437l-2 4q-4 8 6 25q4 8 17 24q16 13 18 15l6 2h447h448l2 -2q6 -8 -4 -23q0 -2 -54 -81t-177 -258t-217 -316l-447 -647q0 -2 461 -2h463l2 -2q2 -6 0 -19q-14 -35 -39 -45l-6 -4h-475h-475z" />
<glyph unicode="[" horiz-adv-x="724" d="M274 489l2 994l5 12q4 12 18 23q8 12 18 16l7 2h170h168l2 -2q2 -6 0 -18q-14 -35 -39 -46l-7 -4h-143h-141v-954v-954h164h164l2 -2q2 -6 0 -19q-14 -35 -39 -45l-7 -4h-169h-170l-3 2q-2 4 -2 999z" />
<glyph unicode="]" horiz-adv-x="724" d="M55 -492q14 35 39 46l6 4h144h143v954v954h-164h-166l-2 2q-2 6 0 19q14 35 39 45l6 4h172h168l2 -2q2 -4 2 -995q0 -993 -2 -1002q-14 -35 -39 -45l-6 -4h-170h-170l-2 2q-2 6 0 18z" />
<glyph unicode="^" horiz-adv-x="780" d="M53 1073q4 25 21 37q35 35 164 158l161 149q4 4 13 4q41 -37 153 -143q113 -104 156 -148q6 -6 0 -18q-4 -14 -21.5 -31.5t-27.5 -17.5q-4 0 -152 141l-149 142q-66 -61 -148 -138q-147 -139 -149 -139q-2 -2 -6 -4l-5 -2q-6 -2 -8 1t-2 9z" />
<glyph unicode="_" horiz-adv-x="780" d="M322 1227v6q0 18 14 35q24 35 63 55q4 4 12.5 4t32.5 -24l13 -13v-6q0 -25 -35 -55q-43 -39 -55 -39q-8 0 -33 24z" />
<glyph unicode="a" d="M68 420l2 57l4 8q18 49 168 215q127 135 168 164q16 13 28 17q10 2 25 -4q45 -23 223 -195l35 -33v86q0 90 2 99q14 35 39 45q12 6 14 0q2 -2 2 -412t-2 -418q-4 -14 -21.5 -31.5t-27.5 -17.5q-6 0 -6 139v133l-33 -32q-53 -53 -182 -170q-76 -68 -103 -70q-8 0 -16 4 q-37 20 -166 164q-121 129 -143 172q-10 14 -10 80zM127 414l4 -6q14 -35 139 -170q139 -147 168 -164q8 -4 13 -2q2 0 9 6t16 13t16 11q145 125 208 197l21 20v101v98l-8 12q-27 35 -150 150q-110 100 -145 125q-8 4 -12 4l-5 4l-8 -8q-31 -25 -143 -143 q-98 -111 -115 -132l-8 -14v-51v-51z" />
<glyph unicode="b" d="M111 686q0 678 2 686q14 35 39 45q12 6 14 2q4 -4 4 -405v-404l33 33q49 51 180 170q74 63 102 70q8 0 17 -4q35 -18 168 -164q117 -129 143 -172q8 -16 8 -80v-55l-4 -13q-25 -53 -170 -213q-94 -102 -137 -141t-66 -41q-8 0 -16 4q-39 18 -225 197l-33 32v-88 q0 -88 -4 -96q-8 -31 -37 -45q-12 -6 -16 -2q-2 4 -2 684zM170 362l8 -10q16 -25 148 -149q129 -121 157 -131l6 -2l9 6q39 31 141 145q94 102 115 131l10 15v51v51l-4 6q-20 39 -142 170q-130 144 -165 164l-9 4q-8 0 -45 -33q-137 -119 -211 -196l-18 -21v-100v-101z" />
<glyph unicode="c" horiz-adv-x="780" d="M68 412q0 66 10 88q29 55 176 235q110 130 145 144q8 4 13 4q23 0 180 -88q115 -68 117 -82q2 -10 -11.5 -30.5t-29.5 -29.5q-12 -6 -17 2q-12 16 -123 76q-135 76 -157 80q-6 0 -21 -16q-39 -39 -116.5 -135.5t-100.5 -131.5l-6 -10v-53v-51l4 -11q23 -45 135 -180 q111 -133 140 -151q6 -2 12 0q18 4 131 65q100 55 127 78q25 23 33 14q1 -4 1 -8q0 -21 -34 -51q-29 -29 -152 -94q-133 -76 -159 -76q-8 0 -25 14q-29 25 -123 140q-125 152 -143 190l-4 12z" />
<glyph unicode="d" d="M68 420l2 57l4 8q18 49 168 215q94 102 137 141.5t65 41.5q8 0 17 -4q45 -27 225 -197l35 -33v357q0 358 2 366q14 35 39 45q10 8 14 2q2 -4 2 -684q0 -678 -2 -686q-4 -14 -21.5 -31.5t-27.5 -17.5q-6 0 -6 139v133l-33 -32q-53 -53 -182 -170q-76 -68 -103 -70 q-8 0 -16 4q-37 20 -166 164q-121 129 -143 172q-10 14 -10 80zM127 414l4 -6q14 -35 139 -170q139 -147 168 -164q8 -4 13 -2q2 0 9 6t16 13t16 11q145 125 208 197l21 20v101v98l-8 12q-27 35 -150 150q-110 100 -145 125q-8 4 -12 4l-5 4l-8 -8q-31 -25 -143 -143 q-98 -111 -115 -132l-8 -14v-51v-51z" />
<glyph unicode="e" d="M68 416q0 61 10 80q23 49 155 184q181 187 224 201q12 2 24 -2q37 -23 129 -117q193 -193 209 -234q2 -6 0 -18q-4 -37 -37 -70q-23 -23 -49 -30q-4 -2 -303 -2h-299l8 -13q20 -33 125 -139q156 -164 195 -182l8 -4h20q131 6 254 102q29 25 35 16q2 -6 0 -18 q-2 -6 -22 -33q-55 -51 -125 -86q-86 -43 -174 -49q-31 -4 -47 2q-31 14 -129 117q-190 190 -209 231q-2 8 -2 64zM127 477h315h316l-29 39q-16 20 -104 111q-146 151 -185 176q-2 0 -7 3t-7 3q-4 4 -10 0q-29 -18 -172 -166q-100 -106 -109 -117l-8 -12v-18v-19z" />
<glyph unicode="f" horiz-adv-x="514" d="M2 815q-2 6 0 19q14 35 39 45l6 4h74h74v123q0 129 10 149q16 31 106 141q92 113 123 123q10 6 45 -2q61 -16 115 -96q51 -80 51 -94q0 -12 -14.5 -31.5t-28.5 -26.5q-8 -4 -11 -2t-13 23q-43 80 -76 113q-41 41 -90 47l-9 2l-8 -6q-53 -53 -135 -160l-6 -12v-146v-145 h123h125v-4q6 -6 0 -17q-2 -12 -14.5 -26.5t-22.5 -18.5l-8 -4h-103h-100v-379q0 -377 -2 -385q-14 -35 -39 -45q-12 -6 -14 -2q-4 4 -4 408v403h-95h-96z" />
<glyph unicode="g" d="M68 420l2 57l4 10q18 49 168 215q119 127 168 164q12 9 28 17q6 2 25 -4q47 -23 223 -197l35 -33v88q0 88 2 97q14 39 39 45q10 8 14 2q2 -2 2 -430v-201q0 -238 -6 -252q-2 -2 -2 -4q-25 -51 -143 -189q-147 -178 -189 -198q-16 -6 -43 -2q-111 8 -215 110q-6 6 -61 68 q-8 10 -8 16q0 2 3 8.5t5 10.5q16 33 41 41q6 0 16 -15q127 -158 266 -170q18 -2 22.5 -1t16.5 14q37 35 125 141q78 92 105 133l10 14v150v147l-33 -32q-117 -113 -182 -168q-76 -68 -103 -70q-8 0 -16 4q-37 20 -166 164q-123 131 -143 172q-10 14 -10 78zM127 416l4 -8 q14 -33 139 -168q133 -145 168 -164q8 -4 13 -4q2 2 17 14t24 18q35 29 109.5 98.5t98.5 98.5l21 21v98v100l-8 10q-31 41 -150 152q-112 105 -145 123q-6 6 -12 6l-5 2l-8 -6q-35 -29 -143 -145q-66 -72 -115 -132l-8 -12v-53v-49z" />
<glyph unicode="h" d="M111 686q0 678 2 686q14 35 39 45q8 4 10 4q4 0 4 -4q2 -12 4 -442v-443l16 25q12 14 48 63.5t59 77.5q86 113 125 152q31 31 51 31q5 0 10 -2q23 -8 119 -91q164 -143 178 -174l4 -6v-276q0 -274 -4 -283q-8 -31 -37 -45q-12 -6 -16 -2q-2 4 -2 277v272l-6 8 q-8 12 -107 107q-133 117 -168 137q-12 8 -15 7t-15 -13q-59 -74 -117 -150q-100 -139 -117 -166l-6 -10v-209q0 -207 -4 -215q-16 -33 -37 -43q-12 -6 -16 -2q-2 4 -2 684z" />
<glyph unicode="i" horiz-adv-x="346" d="M104 1227v6q0 18 15 35q28 37 63 55q8 4 13 4q8 0 32 -24l13 -13v-6q0 -25 -35 -55q-43 -39 -55 -39q-8 0 -33 24zM141 415.5q0 409.5 4 418.5q8 31 37 45q12 4 17 0q2 -2 2 -412t-2 -418q-14 -35 -39 -45q-12 -6 -15 -2q-4 4 -4 413.5z" />
<glyph unicode="j" horiz-adv-x="458" d="M-106 -182q20 33 43 41q6 0 18 -25q33 -76 61.5 -111.5t69.5 -46.5q8 -2 12 0q29 43 103 215q4 8 28 70l4 10v428q0 426 3 435q13 39 38 45q10 8 15 2q2 -2 2 -437v-430l-4 -16q-29 -82 -119 -262q-45 -92 -74 -117q-2 -4 -8 -8l-8 -6q-8 -2 -21 -2q-57 2 -102 63 q-25 33 -59 109q-10 25 -2 43zM195 1227v8q0 10 14 33q22 34 63 57q2 0 6.5 2t6.5 2q8 0 32 -24l15 -13l-2 -8q0 -23 -35 -53q-41 -41 -55 -41q-8 0 -33 24z" />
<glyph unicode="k" d="M111 686q0 678 2 686q14 35 39 45q12 6 14 2q4 -4 4 -561v-561l307 291q313 295 324 295q6 0 6 -13q-6 -23 -21 -36q-31 -31 -137 -132l-131 -122q70 -113 154 -250q164 -264 164 -271q0 -10 -14.5 -29.5t-27 -25.5t-14.5 -2q-12 12 -157 254q-37 61 -77 124.5t-63 98.5 l-20 35l-6 8l-144 -135l-143 -135v-98q0 -96 -4 -105q-8 -31 -37 -45q-12 -6 -16 -2q-2 4 -2 684z" />
<glyph unicode="l" horiz-adv-x="346" d="M143 686q0 678 2 686q14 35 39 45q12 6 15 2q4 -4 4 -684q0 -678 -4 -686q-8 -31 -37 -45q-12 -6 -17 -2q-2 4 -2 684z" />
<glyph unicode="m" horiz-adv-x="1337" d="M111 415.5q0 409.5 2 418.5q14 35 39 45q12 4 14 0q4 -2 4 -168v-4v-5v-4v-4v-4v-4v-4v-4v-4v-4v-4v-4v-5v-4v-4v-4v-4v-4v-4v-4v-4v-4v-5v-4v-4v-4v-4v-4v-4v-4v-4v-4v-5v-4v-4v-4v-18q2 4 25 39q27 41 79 119.5t52 80.5q70 98 102 99q8 0 35 -23q8 -6 155 -153 q51 -53 74 -91l4 -8v-33l2 -30q0 2 23 39q74 117 133 200q70 98 102 99q6 0 33 -23q8 -6 156 -153q59 -63 74 -91l4 -8v-276q0 -274 -2 -283q-14 -35 -39 -45q-10 -8 -15 -2q-2 4 -2 277v272l-6 8q-10 18 -96 111q-115 119 -143 135l-7 4l-4 -4q-20 -20 -88 -127 q-96 -147 -114 -186l-9 -19l-2 -211v-98v-63.5t-1 -33t-1 -16.5v-4q-16 -31 -39 -43q-12 -6 -14 -2q-4 4 -4 277v272l-4 8q-18 29 -98 111q-111 117 -142 135l-6 4l-4 -4q-16 -16 -90 -127q-90 -137 -113 -186l-10 -19v-211q0 -207 -4 -215q-16 -33 -37 -43q-12 -6 -16 -2 q-2 4 -2 413.5z" />
<glyph unicode="n" d="M111 415.5q0 409.5 2 418.5q14 35 39 45q8 4 10 4q6 0 8 -90v-88v-173l16 25q12 14 48 63.5t59 77.5q86 113 125 152q31 31 51 31q5 0 10 -2q23 -8 119 -91q164 -143 178 -174l4 -6v-276q0 -274 -4 -283q-8 -31 -37 -45q-12 -6 -16 -2q-2 4 -2 277v272l-6 8 q-8 12 -107 107q-133 117 -168 137q-12 8 -15 7t-15 -13q-59 -74 -117 -150q-100 -139 -117 -166l-6 -10v-209q0 -207 -4 -215q-16 -33 -37 -43q-12 -6 -16 -2q-2 4 -2 413.5z" />
<glyph unicode="o" d="M68 416q0 61 10 80q23 49 155 184q181 187 224 201q12 2 24 -2q37 -23 129 -117q190 -190 209 -232q2 -8 2 -63q0 -61 -10 -80q-20 -47 -156 -184q-188 -197 -231 -203q-8 0 -14 4q-31 14 -131 117q-190 190 -209 231q-2 8 -2 64zM127 446q0 -35 10 -49q2 -2 2 -4 q20 -31 125 -137q178 -185 203 -185q1 0 2 1q27 12 176 168q84 86 109 116l8 11v51q0 43 -1 50t-11 21q-29 39 -125 138q-146 151 -185 176q-2 0 -7 3t-7 3q-4 4 -10 0q-29 -18 -172 -166q-100 -106 -109 -117l-8 -12v-49v-19z" />
<glyph unicode="p" d="M111 217q0 608 2 617q14 39 39 45q12 6 14 2q4 -2 4 -138v-131l33 33q94 94 180 168q76 66 102 70q8 0 17 -4q35 -18 168 -164q121 -133 143 -170q8 -16 8 -80v-57l-4 -11q-20 -51 -170 -213q-162 -176 -203 -182q-8 0 -16 4q-45 23 -225 197l-33 33v-287q0 -289 -4 -297 q-8 -31 -37 -45q-12 -6 -16 -2q-2 4 -2 612zM170 365l8 -11q20 -31 148 -151q131 -119 157 -129l6 -2l9 6q39 31 141 145q94 102 115 131l10 13v53v49l-4 8q-18 33 -142 168q-124 139 -165 164l-9 4q-12 0 -45 -33q-35 -29 -110.5 -98.5t-100.5 -97.5l-18 -21v-98v-100z" />
<glyph unicode="q" d="M68 420l2 57l4 10q18 49 168 215q119 127 168 164q12 9 28 17q6 2 25 -4q47 -23 223 -197l35 -33v88q0 88 2 97q14 39 39 45q10 8 14 2q2 -2 2 -613q0 -608 -2 -616q-14 -35 -39 -45q-10 -8 -14 -2q-2 4 -2 336v331l-33 -32q-117 -113 -182 -168q-76 -68 -103 -70 q-8 0 -16 4q-37 20 -166 164q-123 131 -143 172q-10 14 -10 78zM127 416l4 -8q14 -33 139 -168q133 -145 168 -164q8 -4 13 -4q2 2 17 14t24 18q35 29 109.5 98.5t98.5 98.5l21 21v98v100l-8 10q-31 41 -150 152q-112 105 -145 123q-6 6 -12 6l-5 2l-8 -6q-35 -29 -143 -145 q-66 -72 -115 -132l-8 -12v-53v-49z" />
<glyph unicode="r" horiz-adv-x="724" d="M111 415.5q0 409.5 2 418.5q14 35 39 45q8 4 10 4q6 0 8 -90v-91v-172l8 13q43 53 94 125q100 125 140.5 169t64.5 46q8 0 15 -4q23 -14 112 -91q82 -82 84 -86q10 -12 4 -24q-10 -33 -39 -49q-12 -4 -16 6q-10 16 -92 89t-105 85l-6 4l-12 -12q-35 -37 -123 -152 q-100 -129 -125 -174l-4 -8v-205q0 -205 -4 -213q-8 -31 -37 -45q-12 -6 -16 -2q-2 4 -2 413.5z" />
<glyph unicode="s" horiz-adv-x="780" d="M68 193q-2 10 12 30.5t29 28.5q12 4 16 -2q12 -18 135 -96q100 -63 133 -78q18 -8 37 2q16 10 94 63q41 29 107 78l12 10l-8 7q-33 29 -123 94q-123 90 -147 92q-20 4 -48 20q-16 8 -110 72q-123 80 -137 102q-4 10 4 31q12 27 45 53.5t131 92.5q124 82 149 86 q18 6 43 -7q37 -14 109 -53q141 -78 145 -94q2 -10 -12 -30.5t-29 -28.5q-12 -4 -16 0q-8 10 -84 53q-150 82 -184 92q-6 2 -19 -4q-20 -8 -119 -72q-94 -66 -94 -67q0 -10 164 -117q90 -57 111 -59q27 -2 149 -93q133 -100 144 -118q4 -8 -2 -29q-20 -41 -130 -119 q-152 -111 -190 -127q-8 -4 -20.5 -4t-20.5 4q-25 10 -135 78q-135 88 -141 109z" />
<glyph unicode="t" horiz-adv-x="569" d="M14 815q-2 6 0 19q14 35 39 45l6 4h84h82v159q0 160 2 168q14 35 39 45q12 4 15 0q4 -2 4 -188v-184h125h125l2 -4q2 -6 0 -17q-14 -39 -39 -45l-6 -4h-105h-102v-379q0 -377 -4 -385q-8 -31 -37 -45q-12 -6 -17 -2q-2 4 -2 408v403h-104h-105z" />
<glyph unicode="u" d="M111 274v277q0 274 2 283q14 35 39 45q12 4 14 0q4 -2 4 -275v-274l4 -6q25 -31 109 -107q131 -117 166 -137q12 -10 16 -9t16 15q8 10 117 150q68 90 117 163l6 13v209v74.5v55v37t1 23.5t1 13v7v5q16 31 39 43q12 4 14 0q4 -2 4 -412t-4 -418q-4 -14 -21.5 -31.5 t-27.5 -17.5q-4 0 -6 74v104v172l-19 -24q-41 -61 -104 -142q-86 -116 -125 -154q-31 -31 -51 -30q-5 0 -10 2q-31 14 -119 92q-164 143 -178 174z" />
<glyph unicode="v" horiz-adv-x="868" d="M53 821q0 12 14.5 32t26.5 26q14 6 15 0q2 0 167 -385q164 -385 166 -385q72 162 156 360q152 356 162 371q6 14 20.5 28.5t24.5 14.5q4 -2 4 -4q2 -4 0 -11q0 -8 -177 -417.5t-183 -417.5q-18 -33 -39 -33l-4 2q-2 4 -177.5 410.5t-175.5 408.5z" />
<glyph unicode="w" horiz-adv-x="1280" d="M53 821q0 12 14.5 32t26.5 26q14 6 15 0q2 0 131 -377l129 -377q55 160 123 356q123 356 129 367q23 35 41 35q4 -2 4 -4q59 -172 131 -377l127 -377q55 158 123 352q33 94 64.5 187.5t45.5 133.5t14 44q8 14 22.5 27.5t23.5 13.5q6 0 6 -13q0 -2 -131 -385t-148 -430 q-4 -16 -24 -41q-18 -14 -27 -14l-6 6q0 2 -16.5 49t-50.5 145.5t-62 184.5q-33 94 -63.5 185.5t-48 139.5t-17.5 46q-53 -160 -121 -353q-27 -74 -59.5 -172t-48 -142t-17.5 -46q-4 -12 -15.5 -23.5t-21.5 -16.5t-12 -1q-2 2 -141.5 409.5t-139.5 409.5z" />
<glyph unicode="x" horiz-adv-x="868" d="M53 10q0 10 10 25q0 2 168 203q164 197 162 198l-20 25q-20 25 -60.5 73t-76.5 91l-156 190q-6 6 0 19q8 31 37 45q8 4 12 4l160 -191l160 -190q70 80 151 180q143 172 157.5 186.5t22.5 14.5t8 -10.5t-10 -24.5q-6 -14 -137 -166q-135 -162 -152 -184l-20 -23l168 -203 q39 -47 84 -100t65 -78l23 -26q2 -6 0 -19q-6 -16 -23.5 -33.5t-25.5 -15.5q-4 0 -174 205l-170 205q-74 -88 -162 -195q-147 -178 -170 -201q-14 -14 -25 -14q-6 0 -6 10z" />
<glyph unicode="y" d="M111 276v275q0 274 2 283q14 39 39 45q12 6 14 2q4 -2 4 -277v-272l4 -6q20 -31 109 -107q131 -117 166 -139q12 -8 16 -7t16 15q23 27 117 148q70 94 117 165l6 13v209v97v62.5t1 32.5t1 16v7q16 33 39 41q12 6 14 2q4 -2 4 -430q0 -346 -1 -392.5t-9 -64.5 q-25 -49 -141 -189q-150 -180 -191 -198q-16 -6 -43 -2q-113 10 -213 110q-29 27 -61 68q-8 10 -8 16q0 2 3 8.5t3 10.5q20 33 43 41q4 0 16 -15q127 -158 266 -170q18 -2 21.5 -1t15.5 14q37 35 125 141q78 92 109 139l6 10v187v186l-19 -24q-80 -109 -104 -140 q-86 -115 -125 -154q-31 -30 -51 -30q-5 0 -10 2q-31 10 -119 92q-164 143 -178 172z" />
<glyph unicode="z" horiz-adv-x="868" d="M53 4v6q0 10 10 25q0 2 40 50t127 154.5t155 188.5l317 385h-307h-307l-4 2q-2 6 0 19q14 35 39 45l6 4h326h323l2 -4q2 -4 2 -7q0 -10 -10 -24q-2 -4 -321 -391l-318 -385l336 -2h338l2 -2q2 -6 0 -19q-14 -35 -39 -45l-6 -4h-354h-353l-2 2z" />
<glyph unicode="}" horiz-adv-x="780" d="M168 1067q-6 4 4 20q4 8 88 157t84 151q13 14 27 24q14 6 16 -2q2 -6 -4 -20q-6 -10 -88 -155.5t-86 -151.5q-18 -27 -37 -27q-4 2 -4 4zM446 1067q-4 4 5 20q4 8 88 157t84 151q12 14 26 24q14 6 17 -2q2 -6 -4 -20q-6 -10 -88 -155.5t-87 -151.5q-18 -27 -36 -27 q-4 2 -5 4z" />
<glyph unicode="~" horiz-adv-x="780" d="M55 1036q-2 4 13 58q29 76 41 98q57 119 137 135q35 4 53 -2q37 -12 63 -43q16 -18 54 -68q33 -49 47 -65q35 -35 65 -43q8 -2 26.5 -2t25.5 2q37 14 73 135q16 45 19 49q14 29 41 39q6 0 8 -4q2 -6 -14 -55q-37 -111 -74 -160q-41 -57 -90 -72q-12 -4 -33 -4 q-23 0 -33 2q-31 8 -65 43q-20 20 -52 68q-25 39 -47 65q-31 31 -65 43q-8 2 -29 2q-27 0 -41 -12q-27 -31 -67 -160q-12 -35 -41 -51q-10 -6 -15 2z" />
<glyph unicode="&#xa1;" horiz-adv-x="1224" d="M113 2q-6 8 4 25l231 338q227 332 227 333q-94 139 -210 308q-211 305 -220 319q-8 8 -8 14q0 10 14.5 30t26.5 26t17 2l26 -39q27 -39 83 -121t106 -152l215 -313l6 6q6 8 27.5 39t62.5 89.5t113 164.5q160 233 191.5 276.5t41.5 47.5q14 8 16 2q6 -8 -4 -23 q0 -4 -217 -319q-215 -311 -215 -314q104 -154 232 -338q231 -336 233 -337q0 -6 -2 -17q-14 -35 -39 -45q-12 -6 -18 4q-12 12 -232 334l-225 328q-90 -131 -197 -289q-47 -66 -101 -145.5t-85 -123.5t-37 -53q-35 -47 -47 -55q-14 -8 -16 -2z" />
<glyph unicode="&#xa3;" horiz-adv-x="1447" d="M113 2q-2 6 0 18q12 29 37 46l8 4h151l154 2l-92 102q-106 121 -123 145q-123 168 -135 373q-4 33 0 60q10 47 127 188q215 240 270 299q113 119 145 145q57 52 84 56q6 2 25 -2q31 -16 115 -101q59 -59 163 -174q242 -264 283 -340q12 -29 12 -43q0 -10 -3 -39.5 t-3 -38.5q-23 -193 -147 -360q-27 -35 -133 -156l-101 -114l191 -2h192v-2q6 -6 0 -19q-8 -31 -37 -45l-8 -4h-209h-207l-2 2l-2 2v6q0 10 11 25q2 2 129 149q137 156 147 172q109 145 121 338q2 14 2 37q0 6 -6 25q-27 49 -123 164q-76 86 -242 266q-100 106 -155 155 q-33 25 -45 29q-8 2 -15 -2q-23 -12 -106 -96q-57 -57 -150 -160q-219 -242 -260 -309q-6 -10 -6 -23q0 -27 4 -75q25 -182 133 -328q16 -20 141 -163.5t130 -147.5q2 -4 -3 -17q-8 -31 -36 -45l-9 -4h-208h-207z" />
<glyph unicode="&#xa7;" horiz-adv-x="1001" d="M55 815q-2 6 0 19q14 35 39 45l6 4h422h418l2 -4q2 -6 0 -17q-14 -39 -39 -45l-6 -4h-88h-86v-379q0 -377 -2 -385q-14 -35 -39 -45q-10 -8 -14 -2q-2 4 -2 408v403h-166h-166v-379q0 -377 -4 -385q-8 -31 -37 -45q-12 -6 -17 -2q-2 4 -2 408v403h-108h-109z" />
<glyph unicode="&#xab;" horiz-adv-x="780" d="M223 1067q-4 4 4 25q10 16 38 38.5t181 137.5q199 149 201 149q10 8 17 0q4 -8 -7 -24q-8 -14 -31.5 -34t-185.5 -142q-197 -147 -200 -150q-10 -8 -17 0z" />
<glyph unicode="&#xad;" horiz-adv-x="780" d="M154 1227v6q0 18 14 35q24 35 63 55q4 4 12.5 4t32.5 -24l13 -13v-6q0 -25 -35 -55q-43 -39 -55 -39q-8 0 -33 24zM487 1227v6q0 12 15 35q20 30 63 55q6 4 13 4q8 0 32 -24l15 -13l-2 -6q0 -25 -35 -55q-39 -39 -56 -39q-8 0 -32 24z" />
<glyph unicode="&#xbb;" horiz-adv-x="780" d="M55 1356q-4 4 0 16q14 39 39 45q4 4 10 4q4 0 152 -139l152 -143q66 61 145 137q147 141 149 141q8 4 13 4q4 2 6 -1t2 -9q0 -16 -21 -37q-8 -10 -163.5 -156.5t-159.5 -150.5q-2 0 -5 -1t-5 -3q-4 0 -158 143q-154 147 -156 150z" />
<glyph unicode="&#xbf;" horiz-adv-x="1447" d="M53 1341q2 4 6 17q4 10 19 24q10 11 18 15q10 6 17 -2q16 -16 73 -172q86 -229 93 -277q4 -18 6 -20q20 -37 135 -150q178 -182 264 -248l8 -6v410q0 410 2 418q14 39 39 45q12 6 15 2q4 -2 4 -453v-450l4 2q33 18 143 122q236 225 262 265l2 6q2 6 2 10q8 45 78 240 q66 174 86 211q23 37 43 47q14 6 17 -2q8 -8 -15 -37q0 -2 -3 -7t-5 -8q-20 -47 -70 -176q-72 -197 -73 -229q-6 -33 -33 -68q-43 -57 -201 -213q-158 -154 -225 -204l-12 -9v-192q0 -195 -4 -203q-8 -31 -37 -45q-12 -6 -17 -2q-2 4 -2 213q0 207 -2 207q-10 0 -53 35 q-49 37 -184 166q-156 156 -166 168q-66 72 -66 92q0 31 -55 178q-78 221 -100 258l-5 4q-2 4 -4 6q-4 6 -4 12z" />
<glyph unicode="&#xc0;" horiz-adv-x="1558" d="M111 1341q0 10 14.5 30t26.5 26l6 4h643h643l2 -4q2 -2 2 -8q-2 -6 -323.5 -697.5t-327.5 -699.5q-25 -37 -41 -33q-4 0 -6 8q-8 14 -323.5 693t-315.5 681zM199 1329q2 -2 149.5 -319.5t294.5 -632.5l148 -314q131 279 288 621l143.5 307.5t112.5 240.5t39 85l8 14h-591 q-592 0 -592 -2z" />
<glyph unicode="&#xc1;" horiz-adv-x="2004" d="M2 -102q14 35 39 45l6 4h977h977v-2q6 -6 0 -19q-8 -31 -37 -45l-8 -4h-975h-977l-2 2q-2 6 0 19z" />
<glyph unicode="&#xc2;" horiz-adv-x="557" d="M168 1065q-2 4 2 152q8 162 14 172q13 20 31 28q14 8 16 2q2 -4 -2 -151q-4 -129 -6 -143.5t-10 -28.5q-23 -33 -41 -33zM379 1065q-2 4 2 152q4 131 6 145t10 27q15 20 29 28t16 2q2 -4 -2 -151q-6 -158 -14 -172q-23 -33 -41 -33l-2 2h-4z" />
<glyph unicode="&#xc3;" horiz-adv-x="557" d="M379 1065q-2 4 2 152q8 162 14 172q15 20 31 28q14 8 16 2q2 -4 -2 -151q-4 -129 -6 -143.5t-10 -28.5q-23 -33 -41 -33z" />
<glyph unicode="&#xc4;" horiz-adv-x="290" d="M-47 -195q12 109 137 211q60 50 72 54q14 4 14 -9q0 -18 -24 -43q-4 -4 -25 -20q-47 -33 -66 -53q-31 -33 -36 -47q-14 -33 -15 -60q0 -10 21 -33q43 -51 116 -116q18 -16 27 -17q10 0 37 11q25 16 45 49q41 53 53 37q4 -10 -18 -45q-82 -115 -158 -121q-18 0 -37 16 q-53 43 -129 131q-18 20 -14 55z" />
<glyph unicode="&#xc5;" horiz-adv-x="1558" d="M168 479q-2 6 0 19q14 35 39 45l6 4h588h585l3 -4q2 -6 0 -17q-14 -39 -39 -45l-7 -4h-587h-586zM711 106v7q0 14 14 34q20 31 63 56q6 4 13 4q8 0 33 -25l14 -12l-2 -6q0 -25 -35 -55q-39 -39 -55 -39q-8 0 -33 24zM711 872v7q0 14 14 34q20 31 63 56q6 4 13 4 q8 0 33 -25l14 -12l-2 -6q0 -25 -35 -56q-39 -39 -55 -38q-8 0 -33 24z" />
<glyph unicode="&#xff;" horiz-adv-x="1224" d="M166 676l2 670l4 12q4 10 18 24q11 11 19 15l6 2h270h273l8 -4q51 -27 233 -213q76 -76 103 -113q12 -23 8 -33q-4 -20 -18 -35q-41 -55 -285 -210q-188 -125 -256 -150l-10 -4h-160h-156v-291q0 -289 -4 -297q-8 -31 -37 -45q-14 -8 -16 -2q-2 4 -2 674zM225 707h176 h177l8 2q57 20 245 145q154 100 197 133l19 14q2 0 -2.5 6.5t-12.5 17.5t-20 24q-106 115 -217 215q-55 49 -80 61l-8 4h-242h-240v-311v-311z" />
<glyph unicode="&#x178;" horiz-adv-x="569" d="M231 516q0 309 2 318q14 35 39 45q12 4 15 0q4 -2 4 -310v-307l4 -10q8 -20 45 -88t49 -86q6 -8 12 -8q18 0 35 10q29 16 68 104q16 39 28 52q14 16 27 20q6 0 8 -4q4 -8 -14 -45q-45 -106 -94 -156q-47 -47 -101 -51h-14l-6 8q-10 12 -43 70q-49 90 -62 121q-2 8 -2 317 z" />
<glyph unicode="&#x2000;" horiz-adv-x="769" />
<glyph unicode="&#x2001;" horiz-adv-x="1538" />
<glyph unicode="&#x2002;" horiz-adv-x="769" />
<glyph unicode="&#x2003;" horiz-adv-x="1538" />
<glyph unicode="&#x2004;" horiz-adv-x="512" />
<glyph unicode="&#x2005;" horiz-adv-x="384" />
<glyph unicode="&#x2006;" horiz-adv-x="256" />
<glyph unicode="&#x2007;" horiz-adv-x="256" />
<glyph unicode="&#x2008;" horiz-adv-x="192" />
<glyph unicode="&#x2009;" horiz-adv-x="307" />
<glyph unicode="&#x200a;" horiz-adv-x="85" />
<glyph unicode="&#x2010;" horiz-adv-x="667" d="M23 410q-2 6 0 18q13 35 38 45l7 4h241h242v-2q6 -6 0 -18q-8 -31 -37 -45l-8 -4h-242h-239z" />
<glyph unicode="&#x2011;" horiz-adv-x="667" d="M23 410q-2 6 0 18q13 35 38 45l7 4h241h242v-2q6 -6 0 -18q-8 -31 -37 -45l-8 -4h-242h-239z" />
<glyph unicode="&#x2012;" horiz-adv-x="667" d="M23 410q-2 6 0 18q13 35 38 45l7 4h241h242v-2q6 -6 0 -18q-8 -31 -37 -45l-8 -4h-242h-239z" />
<glyph unicode="&#x2013;" horiz-adv-x="780" d="M82 1360q0 12 13.5 31.5t27.5 25.5q4 4 10 4q4 0 8 -8q4 -16 58 -74q100 -119 172 -176q29 -29 37 -28q2 0 14 8q27 18 108 108q100 104 107 121q18 39 39 45q14 8 16 0q2 -2 0 -10q-4 -23 -24 -49q-45 -66 -187 -203q-88 -90 -116 -90q-8 0 -19 4q-27 20 -82 78 q-139 139 -170 188q-12 16 -12 25z" />
<glyph unicode="&#x2014;" horiz-adv-x="780" d="M55 1100q-2 6 0 18q14 35 39 45l6 4h310h309v-2q6 -6 0 -18q-8 -31 -37 -45l-8 -4h-307h-310z" />
<glyph unicode="&#x2018;" horiz-adv-x="557" d="M139 1133q8 111 111 219q59 61 82 67q10 6 10 0q6 -6 0 -18q-6 -20 -35 -45q-51 -39 -74 -72q-31 -45 -34 -96v-12l4 -9q16 -20 41 -45l12 -12l12 10q20 16 31 17q8 0 33 -25l14 -12l-2 -6q0 -25 -35 -56q-39 -39 -57 -39q-6 0 -37 31q-68 68 -74 84q-2 6 -2 19z" />
<glyph unicode="&#x2019;" horiz-adv-x="557" d="M209 1004v6q0 18 22 41q12 12 21 18q4 2 9 6t11.5 10.5t10.5 8.5q61 55 73 125q2 27 -4 34q-31 31 -49 56l-4 2l-12 -11q-20 -16 -31 -16q-8 0 -33 25l-12 12v6q0 18 14 35q29 37 64 55q14 8 22 0q12 -8 46 -44t46 -52q12 -12 13 -33q-2 -51 -29 -106q-45 -86 -127 -154 q-41 -35 -49 -27z" />
<glyph unicode="&#x201c;" horiz-adv-x="346" d="M143 415.5q0 409.5 2 418.5q14 35 39 45q12 4 15 0q4 -2 4 -412t-4 -418q-8 -31 -37 -45q-12 -6 -17 -2q-2 4 -2 413.5z" />
<glyph unicode="&#x201d;" horiz-adv-x="458" d="M-106 -182q20 33 43 41q6 0 18 -25q33 -76 61.5 -111.5t69.5 -46.5q8 -2 12 0q29 43 103 215q4 8 28 70l4 10v428q0 426 3 435q13 39 38 45q10 8 15 2q2 -2 2 -437v-430l-4 -16q-29 -82 -119 -262q-45 -92 -74 -117q-2 -4 -8 -8l-8 -6q-8 -2 -21 -2q-57 2 -102 63 q-25 33 -59 109q-10 25 -2 43z" />
<glyph unicode="&#x201e;" horiz-adv-x="780" d="M168 1356q-4 8 0 16q14 39 39 45q4 4 10 4q4 0 168 -143q39 -35 81 -72t64 -55l23 -21q4 -8 0 -18q-6 -14 -23.5 -31.5t-25.5 -17.5q-6 0 -168 145q-166 143 -168 148z" />
<glyph unicode="&#x202f;" horiz-adv-x="307" />
<glyph unicode="&#x205f;" horiz-adv-x="384" />
<glyph unicode="&#x25fc;" horiz-adv-x="880" d="M0 0v881h881v-881h-881z" />
<glyph unicode="&#xfb01;" d="M68 416q0 61 10 82q20 43 155 184q190 195 232 201q8 0 14 -4q27 -14 88 -72l25 -23l39 80q43 82 45 88q15 19 29 29q12 6 16 -2q4 -4 0 -10l-51 -111l-52 -102l37 -37q147 -152 164 -189q2 -8 2 -61q0 -61 -10 -82q-20 -43 -156 -184q-190 -195 -231 -201q-8 0 -14 4 q-27 14 -88 72l-25 22l-39 -77l-20.5 -41t-16.5 -35l-8 -13q-25 -37 -41 -32q-4 2 -4 4q-4 4 0 10l51 111l51 102l-37 37q-147 152 -163 188q-2 8 -2 62zM127 465q0 -49 2 -53q14 -27 66 -82q109 -119 114 -119q55 111 121 246l123 245l-12 13q-83 78 -99 88q-12 8 -16 8 q-4 2 -10 -2q-33 -23 -172 -164q-96 -102 -109 -119l-8 -10v-51zM336 182l29 -26q90 -90 104 -84q33 18 176 168q96 102 109 118l8 11v51v18q0 33 -10 47l-2 4q-17 25 -121 136l-49 49q-55 -111 -121 -246z" />
<glyph unicode="&#xfb02;" horiz-adv-x="1894" d="M113 4q-6 4 4 21q0 4 448 677q113 170 201 300.5t133 198t73.5 109.5t39.5 58l10 14q4 2 7 5.5t6 6.5t5 3l7 2h364h367l2 -2q2 -6 0 -19q-14 -35 -39 -45l-6 -4h-340h-338v-282v-283h305h303l2 -4q2 -6 0 -17q-14 -39 -39 -45l-6 -4h-283h-282v-311v-313h360h361l2 -2 q2 -6 0 -19q-14 -35 -39 -45l-6 -4h-367h-367v2q-4 4 -4 193v190h-303h-301l-121 -180q-129 -195 -143 -201q-14 -8 -16 0zM440 455h279h278v417v418q-127 -188 -278 -418z" />
<glyph unicode="&#xfb03;" horiz-adv-x="1894" d="M111 678q8 72 241 373q178 229 258 313q66 72 97 78q10 2 20 -2q16 -8 80 -66q113 -113 174 -180l20 -20v86v88l7 12q4 12 18 22q10 12 16 17l9 2h362h365l2 -2q2 -6 0 -19q-14 -35 -39 -45l-6 -4h-338h-338v-282v-285h303h303l2 -2q2 -6 0 -19q-14 -35 -39 -45l-6 -4 h-281h-282v-311v-311h360h359l2 -4q2 -6 0 -17q-14 -39 -39 -45l-6 -4h-365h-364l-2 2q-2 2 -3 135v131l-16 -16q-131 -152 -246 -252q-59 -51 -82 -41q-55 27 -350 410q-170 217 -192 286q-4 10 -4 21zM170 731q-6 -39 192 -299q293 -379 347 -401l6 -2l4 4q16 10 123 112 q121 125 151 166l8 11v356v356l-4 6q-16 37 -176 199q-114 115 -141 129q-10 6 -16 2q-27 -18 -134 -145q-197 -246 -278 -359q-80 -117 -82 -135z" />
<glyph unicode="&#xfb04;" horiz-adv-x="1337" d="M111 680q8 61 172 289q178 238 200 266q176 227 219 205q35 -18 136 -144q8 -10 26.5 -33.5t32.5 -42t16 -22.5l2 -4q33 61 74 133q72 133 78 141q11 19 29 29q10 6 16 0q2 -4 -4 -22q-8 -14 -86 -158l-82 -154q0 -6 47 -63q174 -236 211 -305q29 -49 27 -72 q-10 -66 -172 -289q-131 -180 -201 -268q-174 -225 -219 -205q-35 18 -135 145q-8 10 -26.5 34t-33 42.5t-16.5 22.5l-2 2q-33 -59 -74 -131q-61 -119 -78 -142q-18 -33 -39 -32q-2 0 -6 4q-2 4 4 22q6 14 86 158l82 154q-20 29 -47 61q-170 231 -211 307q-29 49 -26 72z M176 705q31 -72 154 -236q18 -27 35.5 -51.5t31 -43t23.5 -30.5t14 -18l6 -7l27 50q27 49 84 155.5t106 194.5q215 395 213 397q-8 14 -20 29q-156 205 -199 225l-6 4q-4 0 -37 -37q-61 -68 -237 -303q-133 -176 -183 -262q-25 -41 -12 -67zM463 289q0 -4 102 -135 q88 -106 119 -123q6 -2 10 0l19 18q57 57 252 320q139 186 182 262q16 29 18 39t-6 28q-28 68 -190 287q-31 43 -45 64l-29 32q-2 -2 -216 -396t-216 -396z" />
</font>
</defs>
</svg>
